<svg xmlns="http://www.w3.org/2000/svg" viewBox="0 0 544.62 649.94"><defs><style>.cls-1{fill:#fff;}.cls-2{fill:none;stroke:#f6eb3d;stroke-miterlimit:10;stroke-width:2px;}.cls-3{font-size:31px;fill:#010101;font-family:Raleway-Medium, Raleway;letter-spacing:0.01em;}.cls-4{letter-spacing:0.01em;}.cls-5{letter-spacing:0.01em;}.cls-6{letter-spacing:-0.02em;}.cls-7{letter-spacing:-0.02em;}.cls-8{letter-spacing:-0.01em;}.cls-9{letter-spacing:-0.01em;}.cls-10{letter-spacing:0em;}.cls-11{letter-spacing:0em;}.cls-12{letter-spacing:-0.02em;}.cls-13{letter-spacing:-0.03em;}.cls-14{letter-spacing:-0.08em;}.cls-15{letter-spacing:-0.03em;}.cls-16{font-size:22px;font-family:Raleway-Regular, Raleway;letter-spacing:0.01em;}.cls-17{letter-spacing:0.01em;}.cls-18{letter-spacing:-0.02em;}.cls-19{letter-spacing:0em;}.cls-20{letter-spacing:0.01em;}.cls-21{letter-spacing:-0.01em;}.cls-22{letter-spacing:0.01em;}.cls-23{letter-spacing:0em;}.cls-24,.cls-30{font-size:61.23px;font-family:Raleway-Bold, Raleway;font-weight:700;}.cls-24{fill:#b1b1b1;}.cls-25{letter-spacing:-0.03em;}.cls-26{letter-spacing:-0.01em;}.cls-27{letter-spacing:-0.02em;}.cls-28{letter-spacing:-0.11em;}.cls-29{letter-spacing:0em;}</style></defs><title>contact_1</title><g id="Layer_2" data-name="Layer 2"><g id="Layer_1-2" data-name="Layer 1"><rect class="cls-1" width="544.62" height="649.94"/><line class="cls-2" x1="521.12" y1="81.36" x2="521.12" y2="516.06"/><text class="cls-3" transform="translate(72.39 263.09)">185 <tspan class="cls-4" x="58.56" y="0">M</tspan><tspan class="cls-5" x="85.81" y="0">adison</tspan><tspan class="cls-6" x="183.64" y="0"> </tspan><tspan class="cls-7" x="190.83" y="0">A</tspan><tspan class="cls-8" x="211.11" y="0">v</tspan><tspan class="cls-5" x="227.54" y="0">enue, </tspan><tspan x="0" y="33">9th Floo</tspan><tspan class="cls-9" x="121.86" y="33">r</tspan><tspan class="cls-10"><tspan x="0" y="66">N</tspan><tspan class="cls-11" x="23.9" y="66">e</tspan><tspan class="cls-12" x="42.1" y="66">w</tspan><tspan class="cls-13" x="66.99" y="66"> </tspan><tspan class="cls-14" x="74.03" y="66">Y</tspan><tspan class="cls-5" x="91.82" y="66">ork, N</tspan><tspan class="cls-15" x="178.47" y="66">Y</tspan><tspan class="cls-5" x="197.94" y="66" xml:space="preserve"> 10016</tspan></tspan><tspan class="cls-16"><tspan x="0" y="132">i</tspan><tspan class="cls-17" x="5.02" y="132">n</tspan><tspan class="cls-18" x="17.95" y="132">f</tspan><tspan x="24.86" y="132">o</tspan><tspan class="cls-19" x="38.17" y="132">@</tspan><tspan class="cls-20" x="56.52" y="132">yu</tspan><tspan class="cls-18" x="81.95" y="132">r</tspan><tspan class="cls-20" x="89.32" y="132">gosk</tspan><tspan class="cls-21" x="139.26" y="132">y</tspan><tspan class="cls-22" x="151.01" y="132">c</tspan><tspan x="163.2" y="132">onsulting.</tspan><tspan class="cls-23" x="263.82" y="132">c</tspan><tspan x="276.01" y="132">om</tspan><tspan x="0" y="165">718.392.3085</tspan></tspan></text><text class="cls-24" transform="translate(74.41 201.03) scale(1.05 1)"><tspan class="cls-25">L</tspan><tspan class="cls-26" x="34.14" y="0">E</tspan><tspan class="cls-27" x="70.22" y="0">T</tspan><tspan x="106.73" y="0">S </tspan><tspan class="cls-28" x="158.96" y="0">T</tspan><tspan class="cls-27" x="190.18" y="0">A</tspan><tspan class="cls-25" x="229.94" y="0">L</tspan><tspan class="cls-29" x="264.08" y="0">K</tspan></text><text class="cls-30" transform="translate(69.31 195.93) scale(1.05 1)"><tspan class="cls-25">L</tspan><tspan class="cls-26" x="34.14" y="0">E</tspan><tspan class="cls-27" x="70.22" y="0">T</tspan><tspan x="106.73" y="0">S </tspan><tspan class="cls-28" x="158.96" y="0">T</tspan><tspan class="cls-27" x="190.18" y="0">A</tspan><tspan class="cls-25" x="229.94" y="0">L</tspan><tspan class="cls-29" x="264.08" y="0">K</tspan></text></g></g></svg>