<svg xmlns="http://www.w3.org/2000/svg" xmlns:xlink="http://www.w3.org/1999/xlink" viewBox="0 0 1210.07 737.66"><defs><style>.cls-1{fill:#40403f;}.cls-2,.cls-7{font-size:100px;font-family:Raleway-ExtraBold, Raleway;letter-spacing:0.01em;}.cls-2{fill:#fff175;}.cls-12,.cls-2,.cls-7{font-weight:700;}.cls-3{letter-spacing:-0.02em;}.cls-4{letter-spacing:-0.06em;}.cls-5{letter-spacing:0.01em;}.cls-6{letter-spacing:0em;}.cls-10,.cls-32,.cls-7{fill:none;}.cls-7{stroke:#2ba9e0;stroke-linecap:round;stroke-linejoin:round;stroke-width:3px;}.cls-8{opacity:0.4;}.cls-9{fill:#b1e0f3;}.cls-10{stroke:#b1e0f3;}.cls-10,.cls-32{stroke-miterlimit:10;}.cls-11{font-size:31px;fill:#2aa9e1;font-family:Raleway-Bold, Raleway;letter-spacing:0em;}.cls-13{letter-spacing:0em;}.cls-14{letter-spacing:-0.02em;}.cls-15{letter-spacing:-0.02em;}.cls-16{letter-spacing:-0.08em;}.cls-17{letter-spacing:0.01em;}.cls-18,.cls-24{font-family:Raleway-Regular, Raleway;}.cls-18{letter-spacing:0.01em;}.cls-19{letter-spacing:0.01em;}.cls-20{letter-spacing:-0.02em;}.cls-21{letter-spacing:-0.02em;}.cls-22{letter-spacing:-0.01em;}.cls-23{letter-spacing:-0.01em;}.cls-24{font-size:22px;letter-spacing:0.01em;}.cls-25{letter-spacing:0.01em;}.cls-26{letter-spacing:-0.02em;}.cls-27{letter-spacing:0em;}.cls-28{letter-spacing:0.01em;}.cls-29{letter-spacing:-0.01em;}.cls-30{letter-spacing:0.01em;}.cls-31{letter-spacing:0em;}.cls-32{stroke:#faec18;stroke-width:2px;}</style></defs><title>footer1200</title><g id="Layer_2" data-name="Layer 2"><g id="Layer_1-2" data-name="Layer 1"><rect class="cls-1" width="1210.07" height="737.66"/><image width="640" height="480" transform="translate(731.49 215.06) scale(0.43 0.47)" xlink:href="../../Documents/YURGOSKY/WEBSITE/currently working blackbgrnd/images/tempmap.jpg"/><text class="cls-2" transform="translate(331.22 138.95)">LET’S<tspan class="cls-3" x="272.8" y="0"> </tspan><tspan class="cls-4" x="294.29" y="0">T</tspan><tspan class="cls-5" x="350.39" y="0">AL</tspan><tspan class="cls-6" x="477.89" y="0">K</tspan></text><text class="cls-7" transform="translate(328.82 135.15)">LET’S<tspan class="cls-3" x="272.8" y="0"> </tspan><tspan class="cls-4" x="294.29" y="0">T</tspan><tspan class="cls-5" x="350.39" y="0">AL</tspan><tspan class="cls-6" x="477.89" y="0">K</tspan></text><g class="cls-8"><circle class="cls-9" cx="209.01" cy="523.63" r="4.13"/><circle class="cls-9" cx="232.21" cy="473.66" r="4.13"/><circle class="cls-9" cx="210.8" cy="107.77" r="4.13"/><circle class="cls-9" cx="189.38" cy="188.08" r="4.13"/><circle class="cls-9" cx="228.65" cy="152.39" r="4.13"/><line class="cls-10" x1="209.57" y1="521.85" x2="211.36" y2="107.77"/><path class="cls-10" d="M232.78,473.66V389.77a21.42,21.42,0,0,0-21.42-21.42h0a21.42,21.42,0,0,1-21.42-21.42V191.65"/><path class="cls-10" d="M210.29,212.86h0A18.92,18.92,0,0,0,229.21,194V154.17"/></g><text class="cls-11" transform="translate(292.48 244.86)"><tspan class="cls-12">N<tspan class="cls-13" x="23.75" y="0">e</tspan><tspan class="cls-14" x="42.19" y="0">w</tspan><tspan class="cls-15" x="67.67" y="0"> </tspan><tspan class="cls-16" x="74.37" y="0">Y</tspan><tspan class="cls-17" x="92.26" y="0">ork</tspan></tspan><tspan class="cls-18"><tspan x="0" y="33">185 </tspan><tspan class="cls-19" x="57.69" y="33">M</tspan><tspan class="cls-17" x="85.03" y="33">adison</tspan><tspan class="cls-20" x="181.44" y="33"> </tspan><tspan class="cls-21" x="188.69" y="33">A</tspan><tspan class="cls-22" x="208.94" y="33">v</tspan><tspan class="cls-17" x="225.21" y="33">enue, </tspan><tspan x="0" y="66">9th Floo</tspan><tspan class="cls-23" x="120.59" y="66">r</tspan></tspan><tspan class="cls-24"><tspan x="0" y="132">i</tspan><tspan class="cls-25" x="5.02" y="132">n</tspan><tspan class="cls-26" x="17.95" y="132">f</tspan><tspan x="24.86" y="132">o</tspan><tspan class="cls-27" x="38.17" y="132">@</tspan><tspan class="cls-28" x="56.52" y="132">yu</tspan><tspan class="cls-26" x="81.95" y="132">r</tspan><tspan class="cls-28" x="89.32" y="132">gosk</tspan><tspan class="cls-29" x="139.26" y="132">y</tspan><tspan class="cls-30" x="151.01" y="132">c</tspan><tspan x="163.2" y="132">onsulting.</tspan><tspan class="cls-31" x="263.82" y="132">c</tspan><tspan x="276.01" y="132">om</tspan><tspan x="0" y="165">718.392.3085</tspan></tspan></text><line class="cls-32" x1="652.86" y1="183.67" x2="652.86" y2="476.49"/></g></g></svg>