<svg xmlns="http://www.w3.org/2000/svg" xmlns:xlink="http://www.w3.org/1999/xlink" viewBox="0 0 907.33 336.11"><defs><style>.cls-1{fill:#40403f;}.cls-2{opacity:0.4;}.cls-3{fill:#b1e0f3;}.cls-29,.cls-34,.cls-4{fill:none;}.cls-4{stroke:#b1e0f3;}.cls-29,.cls-4{stroke-miterlimit:10;}.cls-5{font-size:16.91px;fill:#2aa9e1;font-family:Raleway-Bold, Raleway;letter-spacing:0em;}.cls-30,.cls-34,.cls-6{font-weight:700;}.cls-7{letter-spacing:0em;}.cls-8{letter-spacing:-0.02em;}.cls-9{letter-spacing:-0.02em;}.cls-10{letter-spacing:-0.08em;}.cls-11{letter-spacing:0.01em;}.cls-12{font-size:14.5px;letter-spacing:0.01em;}.cls-12,.cls-20{font-family:Raleway-Regular, Raleway;}.cls-13{letter-spacing:0.01em;}.cls-14{letter-spacing:0.01em;}.cls-15{letter-spacing:-0.02em;}.cls-16{letter-spacing:-0.02em;}.cls-17{letter-spacing:-0.01em;}.cls-18{letter-spacing:0.01em;}.cls-19{letter-spacing:-0.01em;}.cls-20{font-size:13.29px;letter-spacing:0.01em;}.cls-21{letter-spacing:0.01em;}.cls-22{letter-spacing:-0.02em;}.cls-23{letter-spacing:0.01em;}.cls-24{letter-spacing:0em;}.cls-25{letter-spacing:-0.02em;}.cls-26{letter-spacing:-0.01em;}.cls-27{letter-spacing:0.01em;}.cls-28{letter-spacing:0.01em;}.cls-29{stroke:#faec18;}.cls-30,.cls-34{font-size:48px;font-family:Raleway-ExtraBold, Raleway;letter-spacing:0.01em;}.cls-30{fill:#fff175;}.cls-31{letter-spacing:-0.02em;}.cls-32{letter-spacing:-0.06em;}.cls-33{letter-spacing:0em;}.cls-34{stroke:#2ba9e0;stroke-linecap:round;stroke-linejoin:round;}</style></defs><title>footer900</title><g id="Layer_2" data-name="Layer 2"><g id="Layer_1-2" data-name="Layer 1"><rect class="cls-1" width="907.33" height="336.11"/><g class="cls-2"><circle class="cls-3" cx="196.11" cy="247.08" r="1.6"/><circle class="cls-3" cx="205.12" cy="227.67" r="1.6"/><circle class="cls-3" cx="196.8" cy="85.58" r="1.6"/><circle class="cls-3" cx="188.48" cy="116.77" r="1.6"/><circle class="cls-3" cx="203.73" cy="102.91" r="1.6"/><line class="cls-4" x1="196.33" y1="246.39" x2="197.02" y2="85.58"/><path class="cls-4" d="M205.34,227.67V195.1a8.32,8.32,0,0,0-8.32-8.32h0a8.32,8.32,0,0,1-8.32-8.32v-60.3"/><path class="cls-4" d="M196.61,126.4h0a7.35,7.35,0,0,0,7.34-7.35V103.6"/></g><text class="cls-5" transform="translate(236.9 121.58)"><tspan class="cls-6">N<tspan class="cls-7" x="12.96" y="0">e</tspan><tspan class="cls-8" x="23.02" y="0">w</tspan><tspan class="cls-9" x="36.92" y="0"> </tspan><tspan class="cls-10" x="40.58" y="0">Y</tspan><tspan class="cls-11" x="50.34" y="0">ork</tspan></tspan><tspan class="cls-12"><tspan x="0" y="18.12">185 </tspan><tspan class="cls-13" x="26.98" y="18.12">M</tspan><tspan class="cls-14" x="39.77" y="18.12">adison</tspan><tspan class="cls-15" x="84.85" y="18.12"> </tspan><tspan class="cls-16" x="88.25" y="18.12">A</tspan><tspan class="cls-17" x="97.71" y="18.12">v</tspan><tspan class="cls-18" x="105.32" y="18.12">enue, </tspan><tspan x="0" y="36.24">9th Floo</tspan><tspan class="cls-19" x="56.39" y="36.24">r</tspan></tspan><tspan class="cls-20"><tspan x="0" y="72.49">i</tspan><tspan class="cls-21" x="3.03" y="72.49">n</tspan><tspan class="cls-22" x="10.84" y="72.49">f</tspan><tspan class="cls-23" x="15.02" y="72.49">o</tspan><tspan class="cls-24" x="23.06" y="72.49">@</tspan><tspan class="cls-23" x="34.14" y="72.49">yu</tspan><tspan class="cls-25" x="49.5" y="72.49">r</tspan><tspan class="cls-23" x="53.95" y="72.49">gosk</tspan><tspan class="cls-26" x="84.12" y="72.49">y</tspan><tspan class="cls-27" x="91.22" y="72.49">c</tspan><tspan class="cls-23" x="98.58" y="72.49">onsulting.</tspan><tspan class="cls-21" x="159.36" y="72.49">c</tspan><tspan class="cls-28" x="166.73" y="72.49">om</tspan><tspan x="0" y="90.61">718.392.3085</tspan></tspan></text><image width="640" height="480" transform="translate(497.49 95.91) scale(0.32 0.29)" xlink:href="../../Documents/YURGOSKY/WEBSITE/currently working blackbgrnd/images/tempmap.jpg"/><line class="cls-29" x1="457.77" y1="104.79" x2="457.77" y2="227.87"/><text class="cls-30" transform="translate(327.26 72.79)">LET’S<tspan class="cls-31" x="130.94" y="0"> </tspan><tspan class="cls-32" x="141.26" y="0">T</tspan><tspan x="168.19" y="0">AL</tspan><tspan class="cls-33" x="229.39" y="0">K</tspan></text><text class="cls-34" transform="translate(325.92 71.23)">LET’S<tspan class="cls-31" x="130.94" y="0"> </tspan><tspan class="cls-32" x="141.26" y="0">T</tspan><tspan x="168.19" y="0">AL</tspan><tspan class="cls-33" x="229.39" y="0">K</tspan></text></g></g></svg>