<svg xmlns="http://www.w3.org/2000/svg" viewBox="0 0 1208 440.01"><defs><style>.cls-1{fill:#fff;}.cls-2{fill:#8bccf4;}.cls-3{fill:#7fbd99;}.cls-4{font-size:18px;font-family:Raleway-Regular, Raleway;letter-spacing:0.01em;}.cls-26,.cls-4{fill:#070707;}.cls-5{letter-spacing:0.01em;}.cls-6{letter-spacing:-0.02em;}.cls-7{letter-spacing:-0.02em;}.cls-8{letter-spacing:-0.01em;}.cls-9{letter-spacing:-0.01em;}.cls-10{letter-spacing:0em;}.cls-11{letter-spacing:0em;}.cls-12{letter-spacing:-0.02em;}.cls-13{letter-spacing:-0.02em;}.cls-14{letter-spacing:-0.08em;}.cls-15{letter-spacing:0.01em;}.cls-16{letter-spacing:0.01em;}.cls-17{letter-spacing:-0.02em;}.cls-18{letter-spacing:0em;}.cls-19{letter-spacing:-0.02em;}.cls-20{letter-spacing:-0.01em;}.cls-21{letter-spacing:0.01em;}.cls-22{letter-spacing:0.01em;}.cls-23,.cls-25{fill:none;}.cls-23{stroke:#f6eb3d;}.cls-23,.cls-24,.cls-26{stroke-miterlimit:10;}.cls-24{fill:#c12053;}.cls-24,.cls-25,.cls-26{stroke:#272525;stroke-width:0.75px;}.cls-25{stroke-linecap:round;stroke-linejoin:round;}</style></defs><title>greenfooter1200_1</title><g id="Layer_2" data-name="Layer 2"><g id="Layer_1-2" data-name="Layer 1"><rect class="cls-1" width="1208" height="440.01"/><rect class="cls-2" x="52.77" y="51.28" width="1102.47" height="358.95"/><rect class="cls-3" x="32.99" y="27.61" width="1097.11" height="355.32"/><text class="cls-4" transform="translate(193.88 102.34)">185 <tspan class="cls-5" x="33.5" y="0">M</tspan><tspan x="49.37" y="0">adison</tspan><tspan class="cls-6" x="105.35" y="0"> </tspan><tspan class="cls-7" x="109.56" y="0">A</tspan><tspan class="cls-8" x="121.32" y="0">v</tspan><tspan x="130.77" y="0">enue, </tspan><tspan x="0" y="27.12">9th Floo</tspan><tspan class="cls-9" x="70.02" y="27.12">r</tspan><tspan x="76.08" y="27.12"> </tspan><tspan class="cls-10"><tspan x="0" y="54.24">N</tspan><tspan class="cls-11" x="13.95" y="54.24">e</tspan><tspan class="cls-12" x="24.44" y="54.24">w</tspan><tspan class="cls-13" x="38.77" y="54.24"> </tspan><tspan class="cls-14" x="42.93" y="54.24">Y</tspan><tspan class="cls-15" x="53.15" y="54.24">ork, N</tspan><tspan class="cls-13" x="103.34" y="54.24">Y</tspan><tspan class="cls-16" x="114.62" y="54.24" xml:space="preserve"> 10016</tspan></tspan><tspan x="0" y="108.48">i</tspan><tspan class="cls-5" x="4.1" y="108.48">n</tspan><tspan class="cls-17" x="14.69" y="108.48">f</tspan><tspan x="20.34" y="108.48">o</tspan><tspan class="cls-18" x="31.23" y="108.48">@</tspan><tspan x="46.24" y="108.48">yu</tspan><tspan class="cls-19" x="67.05" y="108.48">r</tspan><tspan x="73.08" y="108.48">gosk</tspan><tspan class="cls-20" x="113.94" y="108.48">y</tspan><tspan class="cls-21" x="123.55" y="108.48">c</tspan><tspan x="133.52" y="108.48">onsulting.</tspan><tspan class="cls-22" x="215.85" y="108.48">c</tspan><tspan x="225.83" y="108.48">om</tspan><tspan x="0" y="135.6">718.392.3085</tspan></text><line class="cls-23" x1="581.55" y1="88.98" x2="581.55" y2="292.21"/><path class="cls-24" d="M881.17,222.6l-.42-.75a7.52,7.52,0,0,1-.2-1.35,5.51,5.51,0,0,0-.27-1.63c-.17-.53-.93-2.05-.93-2.05a15.33,15.33,0,0,0-.8-1.79c-.23-.31-.81-.55-.82-2.37a6.07,6.07,0,0,1,1.2-3.35s2.47-.89,3.17-.51,2,.35,2.84,2.2a6.17,6.17,0,0,1,.78,2.55,7.83,7.83,0,0,1-1.19,2.94l-1.72,3.31-.84,2Z"/><path class="cls-25" d="M1013.62,123A59.72,59.72,0,0,1,1010,130c-2,3.53-4.11,7.06-6,10.65-2.52,4.71-5.23,9.31-7.42,14.21-2.34,5.24-4.64,10.53-7.93,15.32-1.46,2.13-2.41,4.65-3.82,6.85-1.66,2.57-3.13,5.26-4.83,7.81-1.57,2.36-2.94,4.85-4.38,7.29-2.12,3.59-3.92,7.37-6.29,10.82a11.2,11.2,0,0,0-.73,1.57c-1.79,3.75-4.12,7.19-6.16,10.81q-4.51,8-9.17,15.91c-1.81,3.07-3.55,6.21-5.28,9.31a77.05,77.05,0,0,0-4.11,7.72c-.35.84-1.17,1.44-1.18,2.44"/><path class="cls-25" d="M734.79,153.39a2,2,0,0,0-.29,1.8q1.55,6,3.54,12c1.22,3.65,2,7.46,2.93,11.2.52,2,1.27,4,1.76,6,.53,2.2.82,4.44,1.38,6.63.6,2.36,1.34,4.67,1.94,7,1,4.06,1.7,8.18,2.7,12.24a55.56,55.56,0,0,0,2.1,7.93,28.19,28.19,0,0,1,1.18,5,1.75,1.75,0,0,1-.13,1.29"/><path class="cls-25" d="M698.24,187c.66,3.4,2,6.6,3,9.9a62.74,62.74,0,0,0,3.53,9.8c1.23,2.51,1.74,5.33,3.41,7.65.21.29,0,.86.17,1.23,0,.25-.13.26-.28.35-2.46,1.36-2.53,1.4-3.73-1.17s-2-5.46-3.07-8.18c-.92-2.38-1.62-4.84-2.59-7.19-1.24-3-1.84-6.17-2.8-9.24a3.46,3.46,0,0,0-.48-.85"/><path class="cls-25" d="M801.69,204.68a20.88,20.88,0,0,0,4.26-3.79c3.14-3.41,6.89-6.16,10-9.6.43-.48,1.25-.4,1.45-1.13-2.61-2.31-5.89-3.38-8.92-4.9-2.48-1.24-5-2.4-7.45-3.66s-4.85-2.28-7.23-3.52c-4.66-2.44-9.38-4.74-13.85-7.58a38.76,38.76,0,0,0-8.46-4.49c-1.14-.37-1.69-1.7-3-1.62"/><path class="cls-25" d="M726.73,106.55c1.29-1.87,1.53-2,3.59-1,1.67.8,3.22,1.85,5.19,1.89.61,0,1,.18,1.48-.44a6.56,6.56,0,0,1,1.69-1.32c1.86-1.26,3.19-1,4.28,1a4.48,4.48,0,0,0,1.46,1.44,12.51,12.51,0,0,0,4,2.15,9.8,9.8,0,0,1,2.73,1.87c.32.23.66.53.58,1-.27,1.44.54,2.37,1.43,3.32,1.25,1.34,1.74,3.13,2.4,4.76,1.27,3.13,1.95,6.47,3.21,9.62a38.16,38.16,0,0,1,1.63,5,2.12,2.12,0,0,0,1.1,1.62,1.31,1.31,0,0,1,.42.69c1.12,4.63,2.89,9.09,3.6,13.81.85,5.71,2.25,11.31,3.35,17,.71,3.66,2.19,7.13,2.82,10.8.23,1.32,1.08,2.6.47,4"/><path class="cls-25" d="M829.31,260.07c-.29.77-.93,1.31-1.19,2.15-.61,2,.31,3.85.45,5.77.22,2.95,1.1,5.81,1.15,8.78a1.53,1.53,0,0,0,.85,1.47,26.14,26.14,0,0,0,6.08,2.66c1.24.41,2.2,1.43,3.58,1.49.54,0,1.16.65,1.55.37a6.25,6.25,0,0,0,1.91-1.67,61.9,61.9,0,0,1,4-6.05c1.28-1.64,2.53-3.28,3.95-4.82s2.83-3,3.42-5.09a3.46,3.46,0,0,1,.86-1.43c1.1-1.1,1.16-2.72,2.1-3.93a1.91,1.91,0,0,0-.39-2.41,10.47,10.47,0,0,0-4.75-2.73"/><path class="cls-25" d="M921.11,82.1a2.06,2.06,0,0,0-.3,1.15c.21,5.42-1.07,10.61-2.25,15.84-.68,3-1.32,6.1-1.82,9.19-.33,2-1,4-1.38,6.05a19.24,19.24,0,0,1-4.6,9.36,1.34,1.34,0,0,0-.3,1.14"/><path class="cls-25" d="M942.69,251a39.33,39.33,0,0,1-3.51,6.73c-1.65,2.5-2.83,5.21-4.24,7.82-2.66,4.92-5.14,9.94-7.68,14.93a60,60,0,0,1-4,6.61c-.58.85-.63,2-1.55,2.62"/><path class="cls-25" d="M846.72,120.22a14.59,14.59,0,0,0,.07,5.46A42.2,42.2,0,0,1,847,133c-.08,2.06-.13,4.13-.17,6.19-.09,4.36-.29,8.73.06,13.09a12.37,12.37,0,0,0,0,1.73c.09.44-.14.73-.55,1a42.84,42.84,0,0,0-5.44,5.34c-.73.75-2,.86-2.34,2"/><path class="cls-25" d="M722.13,137.49c-.48,1.14.19,2.15.46,3.16.94,3.53,2.47,6.9,3.11,10.51a66.56,66.56,0,0,0,2.68,10.24c.89,2.56,1.46,5.28,2.31,7.86,1.16,3.54,2.11,7.13,3.21,10.68.86,2.78,1.33,5.69,2.22,8.47,1.1,3.43,2,6.92,2.94,10.38.58,2,2,3.07,3.66,4,.67.37,1.13.9,1.7,1.29,0,.79-.51,1.13-.89,1.45-2.85-1.18-5.91-1.59-8.45-3.28a3.69,3.69,0,0,1-.63-.75,52.4,52.4,0,0,1,3.79-4.28"/><path class="cls-25" d="M959.38,232c1.08,1.68,1.71,1.67,2.89.15,2.79-3.58,4.14-7.91,6.27-11.83.85-1.57,2-3,2.35-4.86a2.33,2.33,0,0,0-3.46.43c-1.5,1.87-2.23,4.16-3.43,6.2-1.29,2.2-2.39,4.52-3.54,6.79s-2.75,4-3.57,6.19c-1.65,4.36-4.49,8-6.59,12-1.24,2.39-2.12,5-3.39,7.29-1.62,3-3,6.07-4.77,9-1.89,3.15-3.84,6.28-5.6,9.5-2.47,4.52-5.28,8.85-7.57,13.48a64.85,64.85,0,0,1-3.84,6.06c-.09.15-.19.19-.29.14"/><path class="cls-25" d="M831.62,112.74c.66,2.14.05,4.32.11,6.48.08,3.17-.44,6.32-.4,9.49,0,2,0,4-.12,6a22.81,22.81,0,0,0,.12,2.44c.15,5.38,0,10.75-.3,16.11a46.9,46.9,0,0,0,.35,5.61,3,3,0,0,1-.34,1.44"/><path class="cls-25" d="M733.49,220.07c2.43,1.6,5.14,2.73,7.38,4.7,1.83,1.61,4.11,2.69,6.16,4.06,2.72,1.82,5.55,3.47,8.33,5.2,3.85,2.4,7.68,4.85,11.65,7.05.64.35,1.25.76,1.87,1.15"/><path class="cls-25" d="M838.81,242.08c.37,0,.74.32.69.57-.5,2.48-.15,5-.38,7.49-.34,3.63-.15,7.29-.16,10.93,0,3.07,0,6.14-.13,9.21-.07,1.63,0,3.26,0,5a18.38,18.38,0,0,1-5-1.88"/><path class="cls-25" d="M928.73,82.24c-.42,3-.83,5.93-1,8.92-.25,4.06-1.39,8-2.15,11.94-.81,4.27-1.42,8.58-2.48,12.8-.31,1.25-.55,2.5-.83,3.75"/><path class="cls-25" d="M768.46,245.11c-.09,2.12.7,4.1.9,6.18s.75,4.32,1.11,6.48c.56,3.43,1.35,6.81,2,10.22.68,3.59,1.7,7.13,2,10.79"/><path class="cls-25" d="M778.53,240.65a50.09,50.09,0,0,1,2.58,8.64,29.22,29.22,0,0,0,1.32,4.45c1.1,2.76,1.54,5.72,2.58,8.49,1.35,3.58,2.19,7.34,3.91,10.78.22.43-.16,1,.41,1.31"/><path class="cls-25" d="M827.73,196.91a60.35,60.35,0,0,0,10.94,5.16c4.18,1.6,8.28,3.39,12.37,5.2,2.63,1.16,5.26,2.35,7.92,3.42a15.89,15.89,0,0,1,1.86,1"/><path class="cls-25" d="M674.36,171.44c-.08,1.74.94,3.11,1.57,4.61,1.57,3.69,2.71,7.56,4.38,11.19,1.76,3.84,3.06,7.88,4.91,11.64,1.73,3.51,2.55,7.33,4.23,10.83a2.18,2.18,0,0,1,0,.86"/><path class="cls-25" d="M867.3,186.69c-.66-.87-1.83-1-2.52-1.76-1.47.65-1.71,1.76-1.7,3.2a32.82,32.82,0,0,1-.81,7.63c-.28,1.27-.61,2.86,0,3.81s2.12,1.46,3.34,1.92c3.46,1.32,6.79,2.93,10.2,4.36,1.36.57,2.65,1.33,4,1.85a1.85,1.85,0,0,1,.86.87"/><path class="cls-25" d="M765.58,94.61c.88-.11,1.31.41,1.58,1.15a44.9,44.9,0,0,1,2.33,11.51c.19,2.08.68,4.12,1,6.19.12.84.06,1.73-1,2a2,2,0,0,1-2.14-1.43c-.47-2.43-.92-4.86-1.2-7.33-.25-2.22-.7-4.42-1.08-6.63a9.2,9.2,0,0,1,.23-5.32c.28-.65-.26-1.22-1-1.14-1.25.13-1.7.78-1.59,2.16a107.16,107.16,0,0,0,1.2,11.65c.74,3.86.86,7.85,2.49,11.54.45,1,.36,2.31.78,3.43"/><path class="cls-25" d="M735.08,202.52c-.44.79.1,1.48.31,2.15,1.52,4.8,3.15,9.56,4.6,14.39a10.75,10.75,0,0,1,.24,1.16,3,3,0,0,0,2.17,2.5c1.37.5,2.54,1.51,3.9,2.12.76.34,1.55.53,2.32.83a1.52,1.52,0,0,0,1.86-.28,1.38,1.38,0,0,1,2.17-.29c.45.36,1,.09,1.57.16"/><path class="cls-25" d="M830.18,278.2a10.59,10.59,0,0,0,.26,3.17c.08.73.75.63,1,.91,1.46,1.76,3.55,2.78,5.09,4.42.62.66.59,2.23,0,3.31-.89,1.65-2.13,3.08-3.1,4.65-1.46,2.36-3.17,4.54-4.65,6.88a89.56,89.56,0,0,1-6.79,8.61,1.64,1.64,0,0,1-1,.72"/><path class="cls-25" d="M905.86,277c-1.67,3-3.78,5.76-5.17,8.92a43,43,0,0,1-2.17,3.73,44.06,44.06,0,0,0-3.12,6.63,29.35,29.35,0,0,0-1.2,3.15c-.26,1.1-1.15.56-1.54.26A40.22,40.22,0,0,0,886.3,296a7,7,0,0,0-2-.74,6.44,6.44,0,0,1-2.62-1.23c-1.71-1.24-2.47-1.26-4,.14-3.37,3.12-6.37,6.54-7.79,11.06-.32,1-1.09,1.89-1.18,3.09a7.2,7.2,0,0,0,2.9.52A6.32,6.32,0,0,1,875,310c1.83,1.06,3.67,2.21,5.45,3.4a14.35,14.35,0,0,0,6.87,2.5c2.15-3.27,4.64-6.47,6.3-10.18a23.09,23.09,0,0,0,1.36-2.86,2.57,2.57,0,0,0-.63-2.89"/><path class="cls-25" d="M783.56,96.63c-.21-2.75-.48-5.48-.9-8.22-.53-3.47-1.39-6.94-1.39-10.49,0-.86-.33-1-1.15-1.2a33.82,33.82,0,0,1-6.66-1.9c-1.17-.55-.92-1.2-.51-1.76a9.28,9.28,0,0,1,2.4-2.2,1,1,0,0,1,.87-.11c2.93.67,5.87,1.38,8.19,3.45a4.18,4.18,0,0,1,.89,2.28,82,82,0,0,1,1.59,10.07c.59,4.81,1.15,9.61,1.89,14.41a61.38,61.38,0,0,1,1.11,8.33"/><path class="cls-25" d="M723.57,208.56c-1.1-3.35-2.28-6.66-3.61-9.92-1.61-4-3.43-7.86-4.73-11.95-.49-1.54-.24-2,1.37-2.62,1.33,1,1.16,2.71,1.59,4.08,1.45,4.61,3.05,9.15,4.76,13.67a37.16,37.16,0,0,0,2.74,6.38c1.53-.69,2.1-2.29,3.27-3.44-2.3-4.06-3.33-8.68-5.36-12.89a30,30,0,0,1-1.6-4.74c-1-3.54-2.23-7-4.76-9.78"/><path class="cls-25" d="M919.38,291.43c-1.44,2.49-2.86,5-4.32,7.48-2,3.49-3.58,7.23-5.44,10.8-1.44,2.76-2.73,5.59-4.19,8.34a7.09,7.09,0,0,0-.29.72"/><path class="cls-25" d="M802.7,217.55c.86-1.21,0-2.45-.25-3.5a79.09,79.09,0,0,1-1.33-7.94,1.94,1.94,0,0,0-1.28-1.62c-4.86-2.51-10.16-4-15-6.6-3.54-1.9-7.3-3.36-10.67-5.58a2,2,0,0,1-1-1.74,62.52,62.52,0,0,0-1.12-6.48"/><path class="cls-25" d="M903.41,234.31c-1.56-.41-3.38-.27-4.41-2.19-1.13,1.66-2.59,3-2.52,5.21.06,1.93-.7,3.76-1.2,5.59a14.64,14.64,0,0,0-.55,3.19,22.35,22.35,0,0,1-1,4.87c-.54,2.06-.67,4.16-1.17,6.22-.33,1.35-1.18,2.56-1.06,4"/><path class="cls-25" d="M1021,126.26a28.67,28.67,0,0,1-2.61,5.45,129.25,129.25,0,0,0-7,13.68c-1.15,2.69-2.75,5.15-4,7.77"/><path class="cls-25" d="M866.22,156.91a38.52,38.52,0,0,0,.64-7.75,1.14,1.14,0,0,0-1.13.57,96.15,96.15,0,0,1-7.39,8.44,45.52,45.52,0,0,0-3.25,3.21,75.4,75.4,0,0,1-5.5,6.73c-1.78,1.91-3.52,3.85-5.43,5.65-1.47,1.39-3.17.73-4.76.65-1,0-2-.38-3-.53"/><path class="cls-25" d="M875.35,239.93c-1.87-.58-1.89-.56-2.16,1.29s-.14,3.46-.4,5.18a10.6,10.6,0,0,1-.61,2.15,1.71,1.71,0,0,1-1.86,1.19c-2.07,0-2.07,0-3,2.15,1,1.83,2.92,2.37,4.47,3.43a20.77,20.77,0,0,0,4.74,2.33,2.06,2.06,0,0,0,2.59-.47,3,3,0,0,0,.15-3.58,14.23,14.23,0,0,0-6.32-3.47,2.65,2.65,0,0,1-1.15-.42"/><path class="cls-25" d="M947.29,273.45c.67,2.22,2.09,4,3.19,6a94,94,0,0,1,4,8.94,1.61,1.61,0,0,0,.86,1c1,.39,1,1.18.71,2a15.71,15.71,0,0,0-.72,2.45,1,1,0,0,1-.29.57c-2.41,1.93-2.95,4.93-4.11,7.52a71.5,71.5,0,0,1-4.5,8.47,98,98,0,0,0-4.89,9.06,13.4,13.4,0,0,1-.74,1.29"/><path class="cls-25" d="M947.29,276.76a5.46,5.46,0,0,0-1.87,1.43,13.62,13.62,0,0,0-4.74,7.49c-.43,1.45-1.29,2.71-1.79,4.15-.82,2.38-1.81,4.7-2.69,7.06a15.26,15.26,0,0,1-1.62,3.13c-1.23,1.84-1.52,4-2.25,5.93-.19.51.23.86.34,1.29a12.05,12.05,0,0,0,1,2.17"/><path class="cls-25" d="M747.31,188.27c.51-1.31-.44-2.39-.6-3.59s-.59-2.17-.75-3.3c-.07-.52.14-.71.38-1.08,1.36.8,1.28,2.33,1.65,3.53a141,141,0,0,1,3.67,14.94c.57,3,1.85,5.79,2.4,8.79.15.83.88,1.83-.4,2.46a3.66,3.66,0,0,1-1-2.17q-1.52-7.12-3.59-14.1c-.43-1.45-.77-2.91-1.32-4.33A2.41,2.41,0,0,0,746,187.7"/><path class="cls-25" d="M969.16,294.6a4.87,4.87,0,0,1-.89,4.16,43.82,43.82,0,0,0-2.54,4.63,99.54,99.54,0,0,1-5.73,11,14.65,14.65,0,0,0-1.81,3.56c-.28,1-1.33,1.09-2.13,1.27a28.69,28.69,0,0,0-4.61,1,1.61,1.61,0,0,1-1.28-.12"/><path class="cls-25" d="M870.89,71.88c-.13.92-1.11.94-1.55,1.46-1.53,1.78-3.22,1.63-5.07.7a2.16,2.16,0,0,0-.57-.15c-2.91-.54-2.19-.19-2.22,2,0,2.44,0,4.9-.11,7.34-.21,3.33-.83,6.61-1.17,9.93-.25,2.43,2.64,4.33,4.48,3.69,1.16-.4,2.4.09,3.49-.63.31-.21.72.15.55.68"/><path class="cls-25" d="M950.74,285.1a5,5,0,0,0-.91,2.45c0,1-1.06,1.5-1.58,2.38a6.39,6.39,0,0,1,1.33,3c1.77-.54,1.65-2.77,3.28-3.46,1,.84.45,2.07.11,2.73-.76,1.5-.92,3.17-1.65,4.64-1.85,3.73-3.68,7.47-5.42,11.24-1.82,4-4.61,7.37-6.11,11.6.55.69,1.1,1.48,1.76,2.18s1.57.53,2-.42a14.62,14.62,0,0,1,3.08-4.83,10.06,10.06,0,0,0,1.93-3.67c1-2.74,2.77-5.14,3.77-7.9.09-.24.29-.43.28-.72-.09-2.66,1.62-4.65,2.62-6.89a2.6,2.6,0,0,0-.17-2.75"/><path class="cls-25" d="M790.32,255c.77-.49,1.29.12,1.87.44,3.9,2.11,8,3.68,12.11,5.4,1,.44,2.33.42,3.43.92.49.22.8.46.43,1a8.42,8.42,0,0,1-1.72,2.45c-1.67,1.24-2.19,3.27-3.3,4.9-.6.88-.71,2.28-1.9,2.53a5.15,5.15,0,0,1-4.46-1.09c-.77-.63-1.5-1.51-2.72-1.17"/><path class="cls-25" d="M736.23,150.15c1.27,1.27,1.51,3,1.79,4.62.4,2.28,1.27,4.39,1.81,6.6.36,1.47,1.26,2.79.92,4.48a3.74,3.74,0,0,0,.34,2.16,4,4,0,0,1,.33,2.73c-.3,1.21.57,2.2.84,3.3a57.58,57.58,0,0,0,2.17,8.2c1.22,3,1.18,6.23,2.28,9.22.56,1.51.88,3.09,1.44,4.61.84,2.31.95,4.8,1.45,7.19.63,3,1.84,5.85,2.18,8.92a.89.89,0,0,0,.56.72"/><path class="cls-25" d="M772.77,74.76c-.21,1.7.44,3.27.71,4.89a59.59,59.59,0,0,1,1.35,10.07,33.49,33.49,0,0,0,.83,5.9c.39,2.15.27,4.33.56,6.48"/><path class="cls-25" d="M838.52,111.73c.62,1.82.14,3.65,0,5.47-.18,2.08.2,4.12.18,6.19,0,2.54.49,5,.33,7.63-.22,3.44,0,6.9-.06,10.36-.06,5.37.3,10.74.15,16.11a13,13,0,0,0,0,3.88"/><path class="cls-25" d="M944.85,286c-1.34,2.57-2.5,5.23-3.69,7.87-1.57,3.5-2.82,7.15-4.61,10.57a39.07,39.07,0,0,0-2.63,5.88"/><path class="cls-25" d="M893.91,82.1c-.55-.3-.43-.82-.43-1.29,0-1.73,0-3.45,0-5.18,0-.29,0-.41-.18-.58s-.53,0-.72.15q-2.46,2.58-4.89,5.18a1.46,1.46,0,0,0-.31,1c-.1,3-.4,5.94-.49,8.92s-.27,6-.53,8.92c-.17,2,0,4-.15,6.26a46.7,46.7,0,0,0-4.56-1.7,50.89,50.89,0,0,0-5.61-1.6c-1.19-.17-2.21-1.16-3.46-1.37s-2.39-.46-3.6-.56c-1-.09-2.1-.23-2.81.62-.51,3.59.12,7.15.08,10.73"/><path class="cls-25" d="M812.77,309.27a43.08,43.08,0,0,0-4,5.9,20.9,20.9,0,0,1-2.79,4c-2,2.35-3.36,5.11-5.39,7.4-1.53,1.73-3.25,3.29-4.63,5.16a5.34,5.34,0,0,0-.85,1.74"/><path class="cls-25" d="M844.71,237.62a3.37,3.37,0,0,0,.58.14,25.24,25.24,0,0,1,6.91,2.3c.95.47.92,1.12.27,1.72a23.93,23.93,0,0,0-3.57,4.77,5.94,5.94,0,0,0-.83,4c0,.24-.12.71.25.86,1,.44.82,1.34.86,2.17a101.92,101.92,0,0,1,0,11.51,1.75,1.75,0,0,0,.12,1.16c.73,1.16.17,2-.54,3-2.44,3.39-4.75,6.86-8,9.77-2.95-1.43-6.2-2.58-9.18-4.43.25-.85.49-1.81,1.58-2.19"/><path class="cls-25" d="M981.53,189.57c-1.53.64-2.06,2.28-2.33,3.48-.57,2.58-2,4.65-3.19,6.85-1.53,2.86-2.92,5.8-4.69,8.52-.4.61.07,1,.42,1.44a1.56,1.56,0,0,0,1.86.37,3.41,3.41,0,0,0,1.71-1.4c1-1.75,2.18-3.41,3-5.2s1.69-3.67,2.39-5.57c.4-1.08,1.29-1.83,1.77-2.86a3,3,0,0,0,.25-1.45c0-1-.69-1.4-1.58-1-.71.31-1.12,1-1.87,1.3"/><path class="cls-25" d="M952.9,303.66c1.49-.95,1.87-2.65,2.75-4,.73-1.13,1-2.5,2.25-3.36,1.42-1,1.32-1.12,2.53.1-.85,2.73-2,5.26-3.06,7.87s-2.37,5.38-3.57,8.07-2.85,4.82-3.77,7.47c-.19.54-.63.74-.89,1.14"/><path class="cls-25" d="M746,279.06a24.06,24.06,0,0,1,5.35,2.55c.67.49.57,1.1.66,1.63.42,2.55,1.66,4.79,2.48,7.19.55,1.6,1.07,3.21,1.6,4.8a.83.83,0,0,1-1,.09c-3-1.62-6.08-3.12-8.93-5a17.19,17.19,0,0,0-2.58-1.17"/><path class="cls-25" d="M897.65,234.46c.73,1,2.06.37,2.9,1.13a2.6,2.6,0,0,0,.71.29c2,.71,1.17,2.2,1,3.48-.35,2.45-.66,4.91-1.16,7.33-.78,3.73-1.15,7.54-2.11,11.23a3.44,3.44,0,0,0-.17,2.44"/><path class="cls-25" d="M893.91,92.6a5.78,5.78,0,0,1-.56,3.64c-.83,1.77-.76,3.88-1,5.85s-.61,3.86-.74,5.77c-.09,1.31.07,2.66-.08,4-.44,4-.7,8-1.42,11.95-.57,3.13-.82,6.32-1.17,9.49a1.28,1.28,0,0,1-.45,1"/><path class="cls-25" d="M892.76,84.4a5.05,5.05,0,0,0-1.55,3.6,52.35,52.35,0,0,1-1.34,6.9c-.58,2.33-.93,4.69-1.3,7.05-.65,4.07-.56,8.26-1.85,12.23"/><path class="cls-25" d="M969,291.15a3.07,3.07,0,0,0-1.25,1.88,3.65,3.65,0,0,1-1.39,2.21c-1.73,1-2,2.79-2.81,4.26-2.19,4-3.51,8.34-5.6,12.38-1.13,2.18-2.4,4.26-3.51,6.45-.16.31-.45.52-.13.87"/><path class="cls-25" d="M947.15,290.14a15.3,15.3,0,0,0-2.94,5.35,51.32,51.32,0,0,1-2.46,5.4c-1.42,2.88-2.79,5.8-4.19,8.69-.41.84-1,1.59-1.31,2.44-.18.43-.59,1-.29,1.41,1.35,1.9,2.17,4.14,3.72,5.92"/><path class="cls-25" d="M956.36,290.28c3,0,5.91-.84,8.92-.61a3.67,3.67,0,0,0,2-.44,17,17,0,0,1,5.07-1.82c.44-.11.65-.5.87-.8-1.16-2.88-2.28-5.72-3.46-8.54a31.16,31.16,0,0,0-3.49-5.44c-.76-1.1-2.3-.8-3.39-.56a37.87,37.87,0,0,1-12.38.53,5.2,5.2,0,0,0-5.89,3.88,1.92,1.92,0,0,0,.28,2"/><path class="cls-25" d="M916.79,290.86c-1.22,2.83-3,5.38-4.4,8.09-1.88,3.57-4,7-5.86,10.59-.7,1.35-1.41,2.7-2.11,4.05"/><path class="cls-25" d="M956.79,236.33c.77-.11,1.25.37,1.74.89a11.34,11.34,0,0,1-1.58,3.73,93,93,0,0,0-4.5,8.9,40.55,40.55,0,0,1-3.3,6.19,2.06,2.06,0,0,1-.57.57c-.9.63-1.44.38-1.58-.71,0-.24-.09-.48-.14-.72"/><path class="cls-25" d="M985.13,181.08a4.11,4.11,0,0,0-.61,2.45c.15,1.14-.94,1.85-1.32,2.85a20.92,20.92,0,0,1-1.09,2,2.07,2.07,0,0,0,.43,2.59c.59.35,2-.25,2.45-1,2.43-3.64,4.59-7.43,6.79-11.21a37.62,37.62,0,0,0,1.5-3.49,1.32,1.32,0,0,0-.4-1.71,4.12,4.12,0,0,0-3.07,2.27c-1.34,2.35-2.66,4.73-4.24,7a1.55,1.55,0,0,1-.88.71"/><path class="cls-25" d="M867,149.28a13.94,13.94,0,0,1,5,1.34c3.45,1.63,7,2.94,10.57,4.29a61.92,61.92,0,0,0,8.16,3c.62.14.88.89,1.58.75"/><path class="cls-25" d="M920.53,201.8c3.44.65,6.61,2.14,9.93,3.16a25.88,25.88,0,0,1,7.32,3.75c-1.4,1.46-2.2,3.25-3.44,4.8a52.4,52.4,0,0,1-13.52-5.81c-2.14-1.38-3.34-2.94-.57-5.9"/><path class="cls-25" d="M836.8,170.87c-2.18,1.86-4.55,3.54-5.91,6.18a1,1,0,0,1-.55.47,28.6,28.6,0,0,0-5.9,4c-.85.65-1.93,1-2.65,2,1.29,2.6,1.07,5.54,1.31,8.39.08,1-.5,2.09-.11,3.16"/><path class="cls-25" d="M872.91,73.32a35.61,35.61,0,0,0-.31,5.61c0,.9.35,1.69.34,2.59,0,2.8-.32,5.57-.59,8.35-.11,1.14,0,2.3,0,3.51a10.68,10.68,0,0,0-3.6,3"/><path class="cls-25" d="M949.45,293.16a25.08,25.08,0,0,0-2.82,6.06,65.11,65.11,0,0,1-4.08,8.47c-1.21,2.35-2.16,4.82-3.6,7"/><path class="cls-25" d="M899.24,100.66q-.36,5.91-1,11.8c-.41,4.07-.92,8.12-1.14,12.22-.16,3-.46,6-.9,8.93a11.33,11.33,0,0,1-.87,2.59,1.9,1.9,0,0,1-2.31,1.27c-.79-.14-1.4.53-2.16.31"/><path class="cls-25" d="M877.73,214.46c.28-1.33-.35-2.78.62-4.05.38-.49.41-1.26,1.18-1.41a5.59,5.59,0,0,1,3.16-.14,5.66,5.66,0,0,1,3,4.74,5.85,5.85,0,0,1-1,2.71c-1.33,2-2,4.24-3.22,6.24a6.07,6.07,0,0,0-.33,2.7c-.23,4.31-.24,8.64-.59,12.95a3.64,3.64,0,0,1-.14.58"/><path class="cls-25" d="M732.34,84.11c1.37,1.17,1.84,2.75,2.37,4.44,1.14,3.59,2.15,7.21,3.19,10.83a26.67,26.67,0,0,0,1.92,5.45"/><path class="cls-25" d="M741,287.4a5.88,5.88,0,0,1-1.89,3.87c-1.43,1.37-2.62,2.94-4,4.35-1.13,1.14-1,2,.43,2.71,4.69,2.41,9.2,5.13,13.69,7.89C751,307.29,753,308,754.79,309"/><path class="cls-25" d="M898.66,235.32l-3.88,22.73"/><path class="cls-25" d="M803.42,218.2c-2.49-1.25-5-2.46-7.48-3.75-3.62-1.89-7.36-3.51-11.08-5.17-.71-.31-1.08-1.46-2.16-.86"/><path class="cls-25" d="M886.43,105.26a.83.83,0,0,1,.42.86c-.51,2.08-.29,4.25-.82,6.34a2.54,2.54,0,0,0,.23,1.88c.53,1-.17,1.92-.32,2.85-.4,2.49-.62,5-.83,7.49-.2,2.3-.49,4.6-.71,6.91a6.82,6.82,0,0,0,3.19,6,4.76,4.76,0,0,0,3.16,0"/><path class="cls-25" d="M730.62,117.92a5,5,0,0,1-2-.18,3.44,3.44,0,0,0-.69,2.78,33.68,33.68,0,0,0,1.92,5.9c.65,1.89,1.73,3.57,2.34,5.46.34,1.05.21,2.26,1,3.16"/><path class="cls-25" d="M733.93,139.36c.11,2.6,1.17,5,1.67,7.49.36,1.77.14,3.67.4,5.45A74.18,74.18,0,0,0,738.5,163c.76,2.5,1.51,5,2.33,7.47"/><path class="cls-25" d="M761,137.49a114.5,114.5,0,0,1-14.49,11.77l-4.21-1.56a1.16,1.16,0,0,1-.75-1c-.76-3.63-1.36-7.29-2-10.93-.28-1.49-1.25-3-1-4.46a28.49,28.49,0,0,0-.1-4.62c0-.51.16-1.1-.57-1.29"/><path class="cls-25" d="M767.16,218.49c.45.27.77.73,1.3.86,1.46.34,1.91,1.42,2.17,2.74.54,2.79,1.16,5.56,1.7,8.35.09.45.43.65.56,1.15a23.33,23.33,0,0,0,2.76-3.32,1.37,1.37,0,0,1,1.9-.47c1.12.45,2.38.54,3.51,1.05"/><path class="cls-25" d="M866.43,102.53c3.21,2.14,6.92,3,10.51,4.15,1,.33,1.94.92,3,1.19a9.89,9.89,0,0,0,6.34-.31"/><path class="cls-25" d="M730.62,85.4a19.27,19.27,0,0,0,.82,6.05c.5,2,.52,4,.93,6a33.81,33.81,0,0,0,3,9.06,2.13,2.13,0,0,1,.13.73"/><path class="cls-25" d="M877.51,213.88c-3.36-1.63-6.73-3.23-10.06-4.92a4.84,4.84,0,0,0-2.46-.7c-1.67,3.21-4.09,5.9-6.07,8.9-1.75,2.67-3.74,5.18-5.57,7.79-.55.79-1.49,1.28-1.74,2.29"/><path class="cls-25" d="M850.61,276c1.39.67,1.72,1.2,1.28,2.44-.74,2.11-.6,4.33-1,6.48-.08.44.07.72.54,1,2.43,1.62,5.17,2.62,7.68,4.08,1,.58,2,1.22,3,1.78"/><path class="cls-25" d="M877.51,215a6.3,6.3,0,0,1-.22,3.87,27.87,27.87,0,0,0-.78,11.53c0,.28-.15.4-.29.58-1.73,2.3-3.56,4.53-5.15,6.92-1.27,1.9-2.35,3.94-3.78,5.72a66.16,66.16,0,0,0-4,6.2"/><path class="cls-25" d="M853.92,296.18c-2.41-1.45-5.12-2.33-7.49-3.88a24.93,24.93,0,0,0-3.65-2.26c-2.28,2.89-5.18,5.36-7,8.72-1.51,2.76-3.12,5.46-4.89,8.06-.71,1-.52,2.2-.71,3.32a25.92,25.92,0,0,0-.28,6.62"/><path class="cls-25" d="M925,82a1.33,1.33,0,0,1-.29,1.58,5.06,5.06,0,0,0-.88,4.47,8,8,0,0,1-.41,3c-.73,3.78-1.22,7.6-2,11.38-.26,1.3-.3,2.68-.5,4-.1.72.3,1.33.3,2"/><path class="cls-25" d="M881,222.37c-.59-1.28-.17-2.76-.85-4a27.07,27.07,0,0,0-2-4c-2,1-2.6,3-3.74,4.56-2.36,3.24-4.73,6.48-7.22,9.62-.91,1.15-1.69,2.4-2.71,3.47-.88.92-.46,2.07-.3,3.15a7.12,7.12,0,0,1-.09,2.31,50.2,50.2,0,0,0-.59,6.18,5,5,0,0,1-.39,2.11,3.94,3.94,0,0,0-.13,3.46c.74,2.08-.55,3.35-1.44,4.75-.45.7-1.64.69-2.37.41a21.63,21.63,0,0,1-3.75-2,1.43,1.43,0,0,1-.65-1.72,19.44,19.44,0,0,0,.06-3.87"/><path class="cls-25" d="M817.09,190.86c1,2,1.3,4.3,1.93,6.46.53,1.78,0,2.75-1.34,3.78-4.11,3.25-7.27,7.41-10.68,11.33-1.17,1.35-2.57,2.51-3.87,3.76"/><path class="cls-25" d="M750,291.72c-.8-2.68-1.67-5.32-2.7-7.93-.6-1.53-1.62-3-1.49-4.73,0-.38-.29-.71-.6-1.1a39.65,39.65,0,0,1,5.54-5.92c.71-.65,1.61.17,2.41.39,1.8.49,2.93,2,4.44,2.92.93.58,1.72,1.35,2.72,1.9a4.34,4.34,0,0,1,1.56,2.05c1.9,4.08,3.3,8.36,5.21,12.43.81,1.72,2,3.23,2.66,5a4.37,4.37,0,0,0,.39,1"/><path class="cls-25" d="M867.87,78.07c-.36,5.22-.32,10.45-.43,15.68a10.9,10.9,0,0,0,.14,2.59"/><path class="cls-25" d="M708.46,177.05a3.09,3.09,0,0,0-1.68,1.47,1.87,1.87,0,0,0-.12,1.87c1.67,4.08,2.8,8.36,4.3,12.52a21,21,0,0,1,1.39,5.29"/><path class="cls-25" d="M824.57,220.93l-.31-1.28a.91.91,0,0,1,1.18-.17c1.33.65,2.69,1.25,4,1.88,4.61,2.2,9.22,4.38,13.81,6.63,2.1,1,4.46,1.5,6.35,3,.25.19.55.54,1,.05a.84.84,0,0,0,.28-.9,4.24,4.24,0,0,1,.41-2.59"/><path class="cls-25" d="M897.08,230.72c-2-.41-3.15-2.28-4.89-3.17a16,16,0,0,0-4-1.9,1.62,1.62,0,0,0-1.46.29c-1.64,1.15-2.17,2.95-2.82,4.64a8,8,0,0,0-.65,2,2.18,2.18,0,0,1-3,1.86,3.81,3.81,0,0,0-3.34.26,2.93,2.93,0,0,0-.83.77c-.68.92-1,2.08-1.85,2.9-.19.18,0,.74,0,1.12"/><path class="cls-25" d="M796.94,119.07a5.52,5.52,0,0,0,6.74,0,13.86,13.86,0,0,0,2.46-1.67,7.07,7.07,0,0,1,1.33,3.58,91,91,0,0,0,1.46,11.65,12.92,12.92,0,0,0,.39,2.31"/><path class="cls-25" d="M853.77,297.91c-2.56,2.78-5.1,5.58-7.36,8.59.9,1.75.88,1.93-.7,2.91-.64.39-1.32.63-1.33,1.59a1.64,1.64,0,0,1-.54,1c-1.94,1.55-1.82,3.63-1.58,5.77a19.38,19.38,0,0,1,0,5"/><path class="cls-25" d="M740.76,118.64c-.52-.15-1-.45-1.51-.6a16.12,16.12,0,0,1-5.35-2.39c-2-1.45-4.44-1.79-6.74-2.48-.89-.27-1.74-.65-2.6-1s-1.71.31-1.72,1.41a10.71,10.71,0,0,0,.29,2.45"/><path class="cls-25" d="M859.38,114.18c.19.24.56.49.55.72a22.46,22.46,0,0,0,.7,5.48,41.18,41.18,0,0,1,.47,5.89,34.53,34.53,0,0,1-.47,6.9,6.66,6.66,0,0,0,.06,3.46,2.8,2.8,0,0,1-.87,3.18c-.39.4-1,.68-.87,1.43"/><path class="cls-25" d="M846.29,239.49a8.82,8.82,0,0,1,.38,3.74c-.05,2.75.2,5.48.39,8.2.26,3.65.69,7.28.86,10.94a11.73,11.73,0,0,1-2,6.74c-1.47,2.45-3.2,4.74-4.8,7.09-.79-.21-1.63-.09-2.22-.74"/><path class="cls-25" d="M812,228.7a17.56,17.56,0,0,1-4.56-2.09c-1.77-1.06-3.81-1.33-5.56-2.44a3.12,3.12,0,0,0-3.5.69,33,33,0,0,0-3.93,4.27,7.53,7.53,0,0,0-1,6.32,5.82,5.82,0,0,0,.35,1.9c.22.39,0,.94-.48,1.45-1.37,1.42-2.25,3.26-3.78,4.56a5.12,5.12,0,0,1-1.44,1.15"/><path class="cls-25" d="M836.51,178.35c1,0,1.79.74,2.73,1s.59,1.18.27,1.69c-1.8,2.86-3.38,5.88-5.73,8.36a69,69,0,0,0-5.46,6.33c-3,4-6.73,7.33-9.55,11.47a13.86,13.86,0,0,1-2.55,2.89,2.44,2.44,0,0,0-.85,2.32"/><path class="cls-25" d="M823.27,265.82c.62,5.58,2.06,11.05,2.3,16.69"/><path class="cls-25" d="M928,202.23c-3.35-2.33-7.16-3.65-10.94-5a25.59,25.59,0,0,0-3.43-1.37,1.36,1.36,0,0,1-.85-1.82,2.3,2.3,0,0,1,2.57-1.58c.83.23,1.63.58,2.45.85,2.94,1,5.65,2.46,8.62,3.35a8.61,8.61,0,0,1,3.72,1.94c-.86,1-1.26,2.2-2,3.2"/><path class="cls-25" d="M880.53,125.11c1,0,.31.76.25.84a24.67,24.67,0,0,1-2.14,2.75c-2.46,2.61-4.21,5.8-6.89,8.22-.49.44-.92.92-1.69.65a7.45,7.45,0,0,1-.33-3.1,27,27,0,0,0-.24-4.61,20.43,20.43,0,0,1,.16-2.44c-.08-1.29-.73-1.62-1.79-1.89a31.43,31.43,0,0,1-3.75-.7"/><path class="cls-25" d="M732.49,118.78c.64-.29.38-1.39,1.42-1.46a5.62,5.62,0,0,1,.6,3,56.69,56.69,0,0,0,1.29,7.19c.5,2.88,1.14,5.74,1.56,8.64.64,4.47,2,8.91,2.05,13.38.1,5.29,2.5,9.92,3.31,15,.17,1.06.6,2.08.71,3.17,0,.47.24,1-.58.79"/><path class="cls-25" d="M777.66,266.54c1.19,1.31,1.39,3.06,2,4.62a121.74,121.74,0,0,1,4.06,11.64"/><path class="cls-25" d="M857.23,298.05a12.48,12.48,0,0,0-3-1.86c0,.9-.61,1.56.08,2.47.55.72.2,1.79.41,2.71a20.83,20.83,0,0,1,.2,4c0,1-1,1.29-1.47,1.83a52,52,0,0,0-9.89,14.85"/><path class="cls-25" d="M900.24,235.75c-.23,1.92-.4,3.84-.69,5.76-.4,2.62-1.28,5.13-1.62,7.76-.28,2.17-.69,4.31-1,6.48a7.65,7.65,0,0,1-.31,2"/><path class="cls-25" d="M821.69,294.6a3.26,3.26,0,0,1,.51,2.16c0,3.36.55,6.71.22,10.07a1.8,1.8,0,0,1-.28.73c-.59,1.08-1.48,2-1.36,3.45,0,.41-.38.9-.69,1.28-1.23,1.55-1.73,3.45-2.59,5.18-1.07,2.15-2.73,3.9-4,5.88a27.05,27.05,0,0,1-2,3"/><path class="cls-25" d="M784.71,142.52c-1.74-.77-3.7-.49-5.47-1.14a.87.87,0,0,0-.57.14c-1.22.6-2.49,1.07-3.71,1.65-.57.27-.69,1.18-.7,2.09,0,2.52.63,5,.51,7.48a3.09,3.09,0,0,0,.44,1.87"/><path class="cls-25" d="M878.66,72.46a.66.66,0,0,0-.38-.76A10.69,10.69,0,0,0,875,74.59a3.65,3.65,0,0,0-.2,2.47c.23,3.94,0,7.87-.16,11.8-.09,3.33-.67,6.61-.75,9.93a4.35,4.35,0,0,1-.14.72"/><path class="cls-25" d="M725.15,106.41s.15.12.14.14c-1.39,2.62-.86,2.46,1.87,3.61,2.22.93,4.43,1.88,6.62,2.88,1.31.6,2.21,1.88,3.74,2.17a4.69,4.69,0,0,1,2.46,1c2.91-1.45,5.66-3.11,7.19-6.18"/><path class="cls-25" d="M846.87,117.92a2.14,2.14,0,0,1,1.55.62,24.1,24.1,0,0,0,6.65,2.83,6.18,6.18,0,0,1,2.46,1.41,10.35,10.35,0,0,0-.53,4.35c0,3,.39,5.95-.06,8.92-.2,1.31-1,2.4-1.2,3.73-.06.48-.79.32-1.25.29-.77,0-1.54-.07-2,.72"/><path class="cls-25" d="M878.23,191a12.13,12.13,0,0,1,1.32-2.42,53.23,53.23,0,0,1,5.69-6.23c.38.09.79.22.74.6-.53,3.82-.42,7.69-.83,11.51a16,16,0,0,1-1.36,4.29c-.81,2-2,3.85-3,5.78-.15.31-.38.31-.59.42"/><path class="cls-25" d="M896.79,97.63c-.6-.3-.54-.93-.72-1.44-1.4,0-1,1.37-1.07,1.88-.25,3.95-1.36,7.75-1.77,11.65-.3,2.77-.81,5.5-.89,8.34s-.93,5.94-1.27,8.93a88.33,88.33,0,0,0-.77,9.2,2.52,2.52,0,0,0,.29,1.29"/><path class="cls-25" d="M720.4,122.24a2.24,2.24,0,0,1,1.88-.31A19.06,19.06,0,0,1,726,123a2,2,0,0,1,1.2,1.49c-.1,2.28,1.14,4.19,1.58,6.32.91,4.44,2.48,8.73,3.11,13.25.16,1.16.46,2.31.71,3.45a2.34,2.34,0,0,0,.7,1.46c.77.66.44,1.72.68,2.59.16.57.32,1.14.49,1.71"/><path class="cls-25" d="M766,211.73c0,.82-.85.8-1.31,1.13-1.43,1-2,2.19-1.4,3.6a43,43,0,0,1,3,11.38A18.55,18.55,0,0,0,768,233.6a2.08,2.08,0,0,1,.15,2.3"/><path class="cls-25" d="M866.43,156.91c.67.94,1.78,1.06,2.74,1.42,2.58,1,5,2.33,7.76,2.91a1.86,1.86,0,0,1,1.73,2.15,5,5,0,0,0,.28,1.73"/><path class="cls-25" d="M879.1,134.32c-2.57,2.69-4.89,5.58-7.21,8.48-1.25,1.56-2.67,3-4,4.47-.49.54-1.15.94-1.29,1.73"/><path class="cls-25" d="M757.09,282.51c1.18,3.24,2.76,6.33,3.72,9.65.65,2.25,1.47,4.45,1.89,6.76"/><path class="cls-25" d="M718.82,166.69a82.29,82.29,0,0,1,3,10.65c.14.59.12.6-.45,1.62a3.65,3.65,0,0,0-2.57.1"/><path class="cls-25" d="M836.22,171.59c.88.77.08,1.68,0,2.44-.09,1.82,0,3.65-.25,5.48a8.06,8.06,0,0,1-2.67,4.89c-2.53,2.57-4.86,5.31-7.22,8a10.78,10.78,0,0,1-2.85,2.61,1.69,1.69,0,0,0-.72.86"/><path class="cls-25" d="M782.7,158.49a11.91,11.91,0,0,0-1.85-1.91c-2.45-1.56-4.11-1.27-5.63,1.19,1.25,1.37,1.46,1.42,2.71.12.56-.58,1.18-.77,1.72-.38a3,3,0,0,0,2.33.25"/><path class="cls-25" d="M794.64,243.81a41.83,41.83,0,0,1-3.91,4.44,4.53,4.53,0,0,0-1.17,4.06c.36,2.3,1,4.51,1.6,6.76.65,2.63,1.09,5.32,1.91,7.9.57,1.8.73,3.71,1.42,5.47"/><path class="cls-25" d="M893.34,221.37a11.52,11.52,0,0,0,3.62,2.11c1.9.81,3.74,1.75,5.72,2.4a18.32,18.32,0,0,1,3.89,2.13c.65.41.67,1,0,1.58-.39.37-1.11.42-1.17,1.13"/><path class="cls-25" d="M834.49,240.36a2.84,2.84,0,0,0-.91,2.59,73.76,73.76,0,0,1,0,11.93c-.09,1.25,0,2.5-.11,3.74,0,.49.13,1-.29,1.44"/><path class="cls-25" d="M871.76,308.7c-1.05-1.6-.23-2.8.46-4.37a19.64,19.64,0,0,1,4.69-6.74,2,2,0,0,1,1-.57c1.71-.41,4.14.78,4.6,1.9.39,1,.46,3.66-.85,5a18.46,18.46,0,0,0-2.31,2.73,5.86,5.86,0,0,1-3.88,3"/><path class="cls-25" d="M773.49,246.26c-.75,1.25-.28,2.66.08,3.71,1.54,4.43,2,9.13,3.51,13.56.53,1.54.18,3.17.32,4.74a38.09,38.09,0,0,0,2.14,10.5"/><path class="cls-25" d="M869.89,284.24c1.89,1.13,3.67,2.41,5.61,3.46,2.66,1.44,5.28,3,7.92,4.45"/><path class="cls-25" d="M817.52,297.76a9.3,9.3,0,0,1,.19,3c0,2.06.33,4.12.36,6.19,0,1.48.48,3-.12,4.46"/><path class="cls-25" d="M839.82,207.41c.2-.5.7-.75,1.17-1.27-2.94-1.4-5.4-3.46-8.23-4.88a5.38,5.38,0,0,0-4,0,1,1,0,0,0-.73,1.42c.21.58.21.91-.54,1.34a24.43,24.43,0,0,0-6.94,6.28"/><path class="cls-25" d="M720,150.72c-.82-.6-2.43-.35-2.53.58-.31,2.78-2.66,3.55-4.33,5.08-1.89,1.73-3.55,2-5.52.38"/><path class="cls-25" d="M817.8,246c-2.61-2-5.73-3-8.49-4.74-.54-.34-1-.12-1.45.26-1.78,1.38-3.8,2.46-5.3,4.2a2.23,2.23,0,0,1-1.16.71"/><path class="cls-25" d="M858.38,296.32c-2.89-1.7-5.49-3.88-8.62-5.21a7.33,7.33,0,0,1-2.62-1.56l-1.57,1.88"/><path class="cls-25" d="M781.55,324.52a1.65,1.65,0,0,0,1,1.55,12.38,12.38,0,0,0,4.3,2.06,7.38,7.38,0,0,1,3.28,1.61,15.26,15.26,0,0,0,4.06,2.26"/><path class="cls-25" d="M776.37,102.53c0,3.52-.89,7-.86,10.5a9.76,9.76,0,0,0,0,1.15c.28,2.2.09,2.57-1.88,3.45a.16.16,0,0,1-.14,0s0-.09,0-.14"/><path class="cls-25" d="M799.68,127.56a21.67,21.67,0,0,0-4.17-2.46,30.19,30.19,0,0,0-4.17-1.45c-1.49,1.76-3.62,3-4.91,5.09.63,1.36.43,3,1.31,4.29"/><path class="cls-25" d="M752.05,282.08c1-.22,1.55.52,2.32.82,1,.4.84,1.15,1,1.91a32,32,0,0,0,1.42,4.32c.87,2.15,1,4.61,2.57,6.48-.44,1.66,1.19,2.05,1.87,3"/><path class="cls-25" d="M782,209.14c-2.88,2.44-5.2,5.48-8.46,7.52a13.76,13.76,0,0,0-3.48,3.41"/><path class="cls-25" d="M914.78,126.84c-.55,1.54-.45,1.7,1.44,2.3a21.28,21.28,0,0,1,6.21,2.84,1.91,1.91,0,0,1,1,1.91c-.09,1,.18,2-.29,3"/><path class="cls-25" d="M789,104.68c-.6.45-.94,1.13-1.54,1.64-1.5,1.26-2.91,1-4.51.4a25.81,25.81,0,0,1-5-2.32,1.14,1.14,0,0,0-1.29-.15"/><path class="cls-25" d="M893.05,158.49a39,39,0,0,1-1.6,9.35c-.35,1.09-.09,2.33-.84,3.37a9,9,0,0,0-2.45-.79c-1.23-.18-1.62-1-1.45-2.15.31-2.11.47-4.24.91-6.32.25-1.15.19-2.33.49-3.47.1-.4.43-.62.48-1"/><path class="cls-25" d="M814.06,306.83c-1.26.44-2-.66-2.68-1.21-2-1.58-4.25-2.7-6.28-4.19a24.5,24.5,0,0,1-2.68-2.07A96.65,96.65,0,0,1,792.63,312"/><path class="cls-25" d="M914.49,128.57c-.43,1.46-.46,3-.83,4.47a8.59,8.59,0,0,1-.71,2.32,5.94,5.94,0,0,0-.4,4.27c.22.9,1.41,1.32,2.37,1.43a30.05,30.05,0,0,1,7.9,2.36,4.35,4.35,0,0,0,4.25-.87c1.32-.93,2.79-2.22,3.07-4.06s.65-3.44-.21-5.2a14.07,14.07,0,0,1-.72-3.15c-.14-.65-.64-.94-.89-.81a9.28,9.28,0,0,1-3.76.67c-.23,0-.29.2-.43.3"/><path class="cls-25" d="M897.8,292c2.94,1.31,5.75,2.89,8.63,4.31,1.89.93,1.94.93,1.43,2.73-1,3.56-1.81,7.19-3.14,10.66a2.08,2.08,0,0,1-.3.43"/><path class="cls-25" d="M886.29,245.54c-.1,4.19-.8,8.33-1,12.52"/><path class="cls-25" d="M816.51,297.91a2.1,2.1,0,0,0-.42,1.87,21.57,21.57,0,0,1,0,5.18,24.58,24.58,0,0,0,.34,4.6c0,.31-.17.58-.06.87"/><path class="cls-25" d="M831,246.11a3,3,0,0,0,.22,1.9c.7,1.54.34,3.34.64,5,.42,2.34.08,4.78,1,7"/><path class="cls-25" d="M719.39,147.85c-1.86.58-3.05,2.14-4.6,3.17-1.73,1.15-3.34,2.46-5.17,3.47a9,9,0,0,0-2.72,2.44,3.77,3.77,0,0,0-.41,3.13c.23,1,1.33,1.13,2.25,1.15.53,0,1.05.38,1.58,0"/><path class="cls-25" d="M865.71,133.67c-1.15.43-.66,1.47-.52,2.07a40,40,0,0,1,.67,4.9,4.1,4.1,0,0,0,.77,1.77,24.86,24.86,0,0,1-3.26,3.82c-2.6,2.82-5.34,5.49-8,8.23-.07.07,0,.19.14.28"/><path class="cls-25" d="M851,227.26c1.41.68,2.82,1.42,4.13,2.22a22,22,0,0,0,5.95,2.48,18.57,18.57,0,0,1,2.72,1.05"/><path class="cls-25" d="M875.35,74.61c.93,1.37,2.58,1.41,3.91,2,1.71.7,3.17,1.81,4.82,2.6,1.15.56,2.39.77,3.5,1.34"/><path class="cls-25" d="M830.18,317.91c1.3,1.21,3.1,1.37,4.62,2.13,2.68,1.34,5.62,2,8.33,3.34"/><path class="cls-25" d="M753.49,210.14a6.13,6.13,0,0,0-.69,5,12.93,12.93,0,0,1,.3,3.61c-.13,2.17.89,4.19,1.14,6.32,0,.36.54.54,1,.44"/><path class="cls-25" d="M797.95,171.15c-.78-2.78-.72-5.7-1.4-8.5A3.62,3.62,0,0,1,797,160c.89-1.63,1.59-3.37,2.51-5.15-1.56-.63-3-2-4.89-.84a10,10,0,0,0-2.8,2.24c-.45.58-.73,1.46-1.67,1.64-.37.07-.24.53-.3.84-.45,2.13.33,4.13.58,6.19a34.46,34.46,0,0,1,.44,4.17"/><path class="cls-25" d="M868.59,270.28a66.83,66.83,0,0,1-11-4.91c-2,2.5-4.28,4.92-6.49,7.5,1,1.3,2.49,1.4,3.72,2a67.54,67.54,0,0,1,9.34,5.2"/><path class="cls-25" d="M800.25,127.7a.85.85,0,0,0-.41,1.14,27.23,27.23,0,0,1,1.87,5.9,1.09,1.09,0,0,0,.68.76,22.7,22.7,0,0,1,3.88,2.52.66.66,0,0,1-.13.64c-2.57,1.15-3.85,3.6-5.57,5.59a2.87,2.87,0,0,0-.4,2.88c.31,1.05.57,2.18.81,3.28"/><path class="cls-25" d="M781.4,207.84a13.53,13.53,0,0,0-5,3,21.43,21.43,0,0,1-7.06,4.86,2.84,2.84,0,0,0-2,1.9,1.51,1.51,0,0,1-.29.57c-.29.34-.52.17-.71-.14"/><path class="cls-25" d="M825,239.78c-2.74-1.53-5.49-3-8.35-4.3a14.73,14.73,0,0,0-1.58-.85c-.53-.16-1.14-.68-1.72,0"/><path class="cls-25" d="M791.33,313.3c-2.1,2.06-3.54,4.67-5.6,6.77-1.5,1.53-2.74,3.29-4.59,4.49-.54.35-.53,1.25-.62,2a38.79,38.79,0,0,0-.27,5.18"/><path class="cls-25" d="M913.48,135.18a57.72,57.72,0,0,0,7.46,2.52c1.35.33,2.71.78,4,1.23"/><path class="cls-25" d="M805.43,142.38c0,1.15,1.17,1.46,1.73,1.5,2.36.18,2.45,1.86,2.73,3.53.49,2.91.1,5.86.42,8.78"/><path class="cls-25" d="M766.87,211.44a12.92,12.92,0,0,1-3.74-.27c-1.84-.16-3.62-.62-5.46-.76a3.38,3.38,0,0,1-1.84-.73c-.47-.4-.88-.22-1.33-.25"/><path class="cls-25" d="M830.61,308.7c2.49,1.49,5,3,7.49,4.45a8.38,8.38,0,0,0,3.88,1"/><path class="cls-25" d="M793.92,238.63c.5.61.24,1.34.28,2,.1,1.67.47,3.07,2.3,3.77,1.62.62,3.09,1.6,4.76,2.13"/><path class="cls-25" d="M867.3,187.41a34.27,34.27,0,0,0,4.86,1.85,41.58,41.58,0,0,1,5.78,1.76,1.23,1.23,0,0,1,.87,1c.29,2.69.54,5.38.88,8.06a17.26,17.26,0,0,1,.11,3c-.06,1.19.61,2.27.44,3.45a7.82,7.82,0,0,1-.28,1"/><path class="cls-25" d="M801.83,249.85c2.11,1.2,4.21,2.42,6.34,3.58a19.31,19.31,0,0,1,2,1.6,10.27,10.27,0,0,0,4.51,1.82c.69-.61,1.14-1.6,1.89-2.37.23.13.55.24.52.69-.16,2.44.59,4.78.79,7.19.1,1.2,1.11,2.13,2.19,2.94a3,3,0,0,0,3.08.43,22.32,22.32,0,0,0,4.44-1.92"/><path class="cls-25" d="M813.06,256.76c1.21,3.67,1.83,7.48,2.72,11.22a4.46,4.46,0,0,1,0,1"/><path class="cls-25" d="M852.62,277.48a5.81,5.81,0,0,0,1.86.9c2.75.88,5.12,2.6,7.77,3.73.48.21.85.53,1.38.26"/><path class="cls-25" d="M787.88,101.52c-.13.93-1.06,1.05-1.59,1.58s-1.4,1.29-2.16,2a27.94,27.94,0,0,0-8.34-3"/><path class="cls-25" d="M847,114.32c1.88,1.07,3.59,2.42,5.49,3.41,1.71.89,3.84.68,5.65,1.59-.4,1-.24,2.17-.93,3.06"/><path class="cls-25" d="M770.61,315.75c-1.39-1.25-2-3-3.16-4.46-3.25.27-5.66,4-4.88,7.77a25.54,25.54,0,0,0,1.42,4.32"/><path class="cls-25" d="M897.51,230.72c-.9.23-.62,1.2-1.11,1.76-1.8,2-3.51,4.15-5.32,6.19-1.65,1.85-3.48,3.65-4.2,6.16-.19.66-.53.68-1,.42-3.35-1.75-7-3-10.22-4.89"/><path class="cls-25" d="M789.75,250.72a23.28,23.28,0,0,1,7.32,2.49c1.36.73,2.7,1.51,4.12,2.13a3.56,3.56,0,0,0,0,2.29c.11.55.47,1.19-.11,1.72"/><path class="cls-25" d="M819.39,100.94a28.89,28.89,0,0,1,1.15,10.65"/><path class="cls-25" d="M817.09,149c-.5-.8.16-1.45.3-2.16.2-1,1.07-.76,1.71-.7a.69.69,0,0,0,.83-.73c-.65-1.76,1.09-1.81,1.63-2.6.18,0,.25,0,.27,0,2.1,1.67,2.11,1.68.86,4.17a12.72,12.72,0,0,0-1.27,5.32c-.09,2.93-.48,5.87.26,8.78"/><path class="cls-25" d="M815.79,288.84c.24-.43-.19-.2-.28-.29-2.23-2.42-2.35-1.58-.53-4.39,2,.69,4.21,1,5.36,3a27.93,27.93,0,0,1,1.48,3.86c.81,2.05.34,3.17-1.72,4.16a3.26,3.26,0,0,0-1.87,2"/><path class="cls-25" d="M779.39,206.4c3.43,1.32,4.44,4.12,4.63,7.48a16.93,16.93,0,0,0,.76,3.87c.61,2,.41,4.2,1.51,6.06.48.82-.24,1.12-.72,1.43-1.33.85-2.41,2-3.75,2.87-1,.6-.71,1.48-.88,2.32s-.15,1.5.88,1.91c.84.34,1.18,1.4,2,1.83"/><path class="cls-25" d="M754.64,210.43a2.6,2.6,0,0,1,.65,1.43,57.6,57.6,0,0,1,1.27,7.78c.06,2.34,1.32,4.24,1.61,6.46a11.57,11.57,0,0,1,.26,2.44c-.23,1.8.68,2.69,2,3.46,1.75,1,3.23,2.58,5.32,3"/><path class="cls-25" d="M879.1,281.65a2.72,2.72,0,0,0,.43,0c.8-.13,1.62-.26,1.72-1.29s-.6-1.48-1.3-1.85a1.38,1.38,0,0,0-1.94.86,9.07,9.07,0,0,1-2.08,3,5.76,5.76,0,0,0-.82,2,1.15,1.15,0,0,0,1,1.57c1.23.26,2.31-.05,2.68-1.17s1.43-1.76,1.06-3"/><path class="cls-25" d="M889.17,117.78c.71,1.2.17,2.42,0,3.59-.27,1.53-.38,3.07-.55,4.61-.08.71,0,1.53-.71,2"/><path class="cls-25" d="M879.81,116.48a33.62,33.62,0,0,1-4.49,4.57c-1.42,1.31-2.94,2.52-4.28,3.93a2.3,2.3,0,0,1-1.44.86"/><path class="cls-25" d="M784.71,233a83.26,83.26,0,0,0,2.86,10.65c.52,1.8.9,3.63,1.29,5.47a1.68,1.68,0,0,0,.45,1"/><path class="cls-25" d="M740.83,119.65c-.8.84-.31,1.94-.2,2.72.46,3.21.93,6.42,1.19,9.65,0,.37.46.6.3,1"/><path class="cls-25" d="M828.16,220.5a5.73,5.73,0,0,0,.59-1.55c-.89-.93-1.81-1.9-3.32-1.9-.1,0-.24,0-.28,0-1.44-1.5-3.56-2-5.06-3.43-.84-.81-2.06-1.06-3-1.7-.44-.29-1.11.22-1.54.55a28.4,28.4,0,0,0-6,5.71c-1.39,1.85-2.81,3.7-4.27,5.5"/><path class="cls-25" d="M810.47,179.07c-2.56-1.18-5.31-1.81-7.93-2.84a6.48,6.48,0,0,0-2.29-.76"/><path class="cls-25" d="M725.29,208.42a19.69,19.69,0,0,1-3.77,2.39c-1.15.65-2.56,0-3.85,0a14.74,14.74,0,0,1-2.59-.4"/><path class="cls-25" d="M720,121.66c1,1.53,1,3.27,1.19,5,.16,2,.62,3.94,1,5.9a9.18,9.18,0,0,1-.17,4.52A44.75,44.75,0,0,1,727.2,140a4.61,4.61,0,0,0,4,.62"/><path class="cls-25" d="M846.72,114.75a2.65,2.65,0,0,0-.33,1.73,5.21,5.21,0,0,1,.08,2.3c-.19.68.07,1.18,1,1.47,2.7.88,5.22,2.24,7.93,3.13.61.2.95.84,1.58,1"/><path class="cls-25" d="M888.73,117.92a12.73,12.73,0,0,0-1.13,5.76c0,1.58-.46,3.17.11,4.75a1.08,1.08,0,0,1-.13,1"/><path class="cls-25" d="M819,135.62c-3.92,2.21-6.87,5.47-9.64,8.92"/><path class="cls-25" d="M869,282.8c.11-2,.47-3.92.43-5.9,0-1.54,1.17-2.67,1.36-4.16.06-.49.79-1,.35-1.58s-1.21-.49-1.85-.43a2.41,2.41,0,0,0-1.58,3.58"/><path class="cls-25" d="M811.76,229a1.32,1.32,0,0,1-1.16,1.67c-1.44.29-2.11,1.33-2.87,2.35a23,23,0,0,1-2.74,2.87,2.3,2.3,0,0,1-3,.44"/><path class="cls-25" d="M881,297.91c-.37.79.81,1.49,0,2.42-.56-.39-1-.37-1.49.42-1.2,1.8-2.3,3.66-3.36,5.52-.53.93-1.14.74-1.76.52s-1.15-.71-.73-1.55c.93-1.86,1.86-3.72,2.78-5.59.45-.91,1.83-1.21,2-2.47"/><path class="cls-25" d="M821.4,150.29c-1-.37-2.15-.55-3.17-1s-1.75-.05-1.85,1a42.93,42.93,0,0,0,.13,8.77"/><path class="cls-25" d="M773.78,192.3c-.68.77-.11,1.63.07,2.28a3.26,3.26,0,0,1-.94,3.18,19.88,19.88,0,0,1-6.75,5.77,7.4,7.4,0,0,0-.87.57"/><path class="cls-25" d="M716.95,177.05a37.66,37.66,0,0,0-5-5.09,16.16,16.16,0,0,0-3.07,3c-1,1.27.1,3.89,1.7,4.32a14.42,14.42,0,0,0,3.32.27c1.52.05,1.91-1.33,2.73-2.16"/><path class="cls-25" d="M751.77,115a88.61,88.61,0,0,1-7.49,5.31,3.79,3.79,0,0,1-2.29.88"/><path class="cls-25" d="M769.61,305.24a4.55,4.55,0,0,0-2,2c-.76,1.24-.56,2.28.73,2.84.87.38,1.69.87,2.58,1.17a3.59,3.59,0,0,0,3.66-.79c-1.65-1.6-3.15-3.35-4.67-5.1"/><path class="cls-25" d="M750.61,112.16a11.33,11.33,0,0,1-3.77,2.68c-1.75.92-3.28,2.18-5,3-1.27.61-1.05,1.15-.56,2.08.81,1.52.85,3.26,1.31,4.88.17.59,0,1.27,1,1.5.71.17,1.16,2.18.7,3.09a4,4,0,0,0-.11,3"/><path class="cls-25" d="M825.86,130c-1.44-.19-2.58-1.18-4-1.49a7.27,7.27,0,0,1-4.52-2.36,1.4,1.4,0,0,0-1.25-.47"/><path class="cls-25" d="M848.16,173a4.63,4.63,0,0,0-3.95,3.29c-.38,1.17-1.81,1.42-3.1.88a20.51,20.51,0,0,1-3.74-1.72"/><path class="cls-25" d="M794.14,225.11c-2.61,2.59-5.22,5.19-7.85,7.76-.51.49-.79,1.44-1.88,1.07-.17-.06-.63.48-.84.82a22.6,22.6,0,0,1-5.68,6,6.07,6.07,0,0,0-2.53,3.52c-.17.7-.79,1.05-1.19,1.55a1.1,1.1,0,0,1-1.56,0,18.22,18.22,0,0,0-3.3-2.18.9.9,0,0,1-.4-1.27c.86-1.47,1.33-3.19,2.7-4.33"/><path class="cls-25" d="M862.55,246.54c-2-.88-4-1.81-5.91-2.86-.63-.34-1-.6-.46-1.35-1-.44-1.54,0-2.14.73-.88,1-1.12,2.35-2,3.33-1.14,1.27-1.88,3-3.74,3.45"/><path class="cls-25" d="M851.61,173.89c-1.5.74-1.85.63-3.37-1.07.36-.47.6-1.23,1.34-1.05a2.63,2.63,0,0,1,1.92,1.38c.79,1.52.58,3.08.5,4.62a19.5,19.5,0,0,0,.17,5.76"/><path class="cls-25" d="M826.87,251.44c-.92.61-.43,1.59-.22,2.13.84,2.17.44,4.46.9,6.65.2,1-.83,1.38-1.55,1.52a16.86,16.86,0,0,0-2.15.62,6,6,0,0,1-3.73-.32,8.05,8.05,0,0,0-2.17-.26"/><path class="cls-25" d="M820.11,161.95c-2.65-1.78-4.52-1.5-6.87,1.46A30.63,30.63,0,0,1,806,170a5.77,5.77,0,0,1-1.32.67c-1.16.4-2.36.69-2.91,2a.86.86,0,0,1-1,.3"/><path class="cls-25" d="M862.55,111.3a7.65,7.65,0,0,0,1.41,3.48c.52.64.35,1.59.32,2.42-.18,4.12-.38,8.25-.57,12.37a2.34,2.34,0,0,0,0,.86c1.14,3.13-.43,5.27-2.6,7.2"/><path class="cls-25" d="M811,178.92c-.61,2.1-.58,2.05,2,3.29,1.71.82,3.65,1.08,5.32,2"/><path class="cls-25" d="M862.19,111c1.83.75,3.79,1.05,5.58,2.08s3.87,1,5.71,1.81,3.74,1.3,5.47,2.3"/><path class="cls-25" d="M824.57,206.69c2.9,1.31,5.53,3.13,8.49,4.32a2.26,2.26,0,0,0,1,.28"/><path class="cls-25" d="M743.42,168.71c.31,1.08.79,2.08.34,3.33-.37,1,.09,2.13.4,3.14.51,1.67,1,3.34,1.41,5,.06.26.33.25.44.43"/><path class="cls-25" d="M727.16,158.78c-.73.07-1,.71-1.42,1.17a34.29,34.29,0,0,1-6.79,6.45,1.66,1.66,0,0,1-1.59.23c-2.29-.64-4.49-1.19-6.37-2.88-.89-.8-2.24-1.12-2.81-2.37"/><path class="cls-25" d="M746.59,180.36c.18-1.71-.52-3.28-.92-4.88-.24-1-.45-1.95-.77-2.9a2.81,2.81,0,0,0-.76-1.28"/><path class="cls-25" d="M761.12,299.2c-.09,1.68-1.4,2.71-2.17,4-1.16,1.94-2.91,3.42-4.3,5.19"/><path class="cls-25" d="M828.16,203.81a68.23,68.23,0,0,0,8.5,4.44c.24.12.36.32.57.45"/><path class="cls-25" d="M817.37,169c2.84,1.47,5.58,3.12,8.49,4.46.57.27,1.08.51,1.59-.14a16.76,16.76,0,0,1,4.31-3.75c.28-.18.1-.48.15-.72"/><path class="cls-25" d="M911.61,196.76a4.9,4.9,0,0,0-2.54-1.77c-.68.56-1.54,1-2,2a3.53,3.53,0,0,0,3.07,1.69,1.54,1.54,0,0,0,1.44-1.8"/><path class="cls-25" d="M820.39,162.09a34.31,34.31,0,0,1,3.86,2.62c1.77,1.57,4,1.72,6.08,2.53a40.38,40.38,0,0,1,4.59,2.06,2.2,2.2,0,0,1,1.3,1.72"/><path class="cls-25" d="M972.61,287.55c1.07,1.11.51,2.28.15,3.45-.44,1.43-1.45,2.58-1.92,4-.16.5-.55,1.24-1.39,1.17"/><path class="cls-25" d="M869.6,275c-.54-.21-1.16-.25-1.5-.8-2.19,2-2.63,4.86-4.07,7.16a3.39,3.39,0,0,0-.26,1.41c-.1,2.88-.41,5.76-.65,8.63"/><path class="cls-25" d="M846.72,113.89c-.61-.53-.12-1.15-.13-1.73,0-1.68-.07-3.36,0-5a2.25,2.25,0,0,0-.89-2,16.86,16.86,0,0,0-7.62-3.3,1.79,1.79,0,0,0-1.73.41,54.62,54.62,0,0,0-4.44,4.62c-1.48,1.94-1.19,2.77,1.14,3.42,1.66.47,3.35.82,5,1.15a2.15,2.15,0,0,0,2-.43c1.79-2,4.05-3.42,5.92-5.3"/><path class="cls-25" d="M785.14,143.1c1,1.28.6,2.89,1,4.32s.34,3,.75,4.45"/><path class="cls-25" d="M840.54,164a4.51,4.51,0,0,1,1.77-2.1c1.55-1.3,2.66-3,4.24-4.26a5,5,0,0,1,1.61-.74c0,1.68,0,3.31,0,4.94,0,.1-.16.19-.13.29.79,2.33-.71,3.77-2,5.33a48.41,48.41,0,0,0-4.32,5.89"/><path class="cls-25" d="M825.14,230.57c-.34-1.24-1.59-1.25-2.46-1.69-1.39-.71-3-1.09-4.29-1.92-.84-.52-1.18-.14-1.45.59a27.71,27.71,0,0,1-2.73-.73c-2.69-1-2.51-1.75-1.57-3.72a3.21,3.21,0,0,1,1-1.3"/><path class="cls-25" d="M833.2,213.6c-.6.48-.62,1,0,1.43a19.31,19.31,0,0,0,2.87,1.75c1.46.67,2.88,1.43,4.41,2.19l.34-1.19"/><path class="cls-25" d="M830.9,282.37c-.1.19-.31.41-.27.57.66,2.6.2,5.34,1,7.92"/><path class="cls-25" d="M769.61,115.62a8.09,8.09,0,0,1,.74,3.16,29.63,29.63,0,0,0,.94,5.3c.17.2.59-.09.92.16a1.31,1.31,0,0,0,1.68.12,1.65,1.65,0,0,0,.14-1.68,12.68,12.68,0,0,1-.54-4.91"/><path class="cls-25" d="M725.72,158.2c-2.35,1.44-4.38,3.3-6.6,4.92a7.37,7.37,0,0,0-1.6,1.27"/><path class="cls-25" d="M812.48,295.17c-.55,1.52-.22,3.07-.13,4.6.13,2.16.67,4.29.28,6.48"/><path class="cls-25" d="M725.44,64.11c.48,2.11.91,4.23,1.47,6.32.18.67,0,1.37.38,2a3.73,3.73,0,0,0,2.2,1.33c-.3,1.54-.68,1.69-3,1.24"/><path class="cls-25" d="M798.81,234.46c.42,3.54.62,7.09.86,10.65"/><path class="cls-25" d="M833.34,212.59c.05,1,1,1.32,1.61,1.84a22.37,22.37,0,0,0,5.3,3,1.27,1.27,0,0,0,1.76-.53,10.8,10.8,0,0,0,1.52-2.34c.67-1.69,2.08-2.54,3.68-3.42a53.75,53.75,0,0,0-7-3.33"/><path class="cls-25" d="M822.26,245.11c-.42.78,0,1.64-.25,2.46-.15.43.37.67.82.87,4,1.74,3,1.55,4.29,3,1.45-1,1.77-3.17,3.63-3.73"/><path class="cls-25" d="M706.73,158.49c1.28-.05,1.94,1.05,2.85,1.63,2.12,1.36,4.31,2.6,6.48,3.87.94.55,1.77,1.32,2.75,1.83"/><path class="cls-25" d="M786.44,219.5c1.68,1,3.35,1.94,5,2.87a6.94,6.94,0,0,1,3.58,4.9,1,1,0,0,0,.3.57"/><path class="cls-25" d="M883,243.67c0-.24,0-.56-.16-.71a9.74,9.74,0,0,0-6.89-3.17c-.37,0-.67.09-.5.57"/><path class="cls-25" d="M820.39,121.52c0-1,.06-2.05-1.3-2.3a1.09,1.09,0,0,0-.57,0,5.35,5.35,0,0,0-3,5.75,21.6,21.6,0,0,1,.28,8.49"/><path class="cls-25" d="M817.66,161.08a1.75,1.75,0,0,1-.84,1.47,4.33,4.33,0,0,0-1.49,1.54c-.78,1.79-.64,2.61,1.65,4.36a4.69,4.69,0,0,1-2.19,2.28,1,1,0,0,1-1,.1c-1.47-1-3.43-1.22-4.62-2.71"/><path class="cls-25" d="M887.3,129.72a5.39,5.39,0,0,0,.33,4.87,6,6,0,0,1,.68,3"/><path class="cls-25" d="M818.52,177.48c.54-.53.71-1.12,0-1.57-.87-.54-1.32-1.91-2.88-1.49,1.46,2.11,2.85,4.13,5.07,5.31a1.29,1.29,0,0,0,1.7-.39,14.56,14.56,0,0,1,2.16-2.44"/><path class="cls-25" d="M846.72,173.74c0,1.59-.12,3.13-1.58,4.18a1,1,0,0,0-.42.57c-.09,1.78-.72,3.52-.31,5.32"/><path class="cls-25" d="M685.73,185.54a69.42,69.42,0,0,0,7.91,3.74c.62.26,1.07-.77,1.73-.22"/><path class="cls-25" d="M813.78,287.26a4.31,4.31,0,0,0-1,3,9.26,9.26,0,0,1-.61,3.44,1,1,0,0,0,.34,1.26c1.44.61,2.59,1.71,4,2.35a2.89,2.89,0,0,0,3.88-2"/><path class="cls-25" d="M781.69,120.22a21.25,21.25,0,0,1,.14,4,12.54,12.54,0,0,0,.58,3.74"/><path class="cls-25" d="M858.23,117.63c-1-.18-1.92-.62-2.88-.83a19.66,19.66,0,0,0-4.88-.75"/><path class="cls-25" d="M817.23,227.7c2.17,1.31,4.64,1.94,7,2.91a7.33,7.33,0,0,0,3,.44,4.13,4.13,0,0,1,2.44,1c.13,1.94-1.49,2.93-2.09,4.55,2.07,1.16,4.44,1.55,6.43,2.77a.65.65,0,0,0,.84-.12c.88-1.35,2.47-2.11,2.94-3.87a10.1,10.1,0,0,1,1.67-2.61"/><path class="cls-25" d="M753.49,211c.54,1,.41,2.22.65,3.32.42,1.92,1.26,3.74,1.39,5.74a1.83,1.83,0,0,0,1,1.3"/><path class="cls-25" d="M763.28,214.24a14.88,14.88,0,0,0-4.9-1.9c-1-.24-1.77-1.07-2.87-.91"/><path class="cls-25" d="M818.81,136a38.12,38.12,0,0,1,.7,6,3.65,3.65,0,0,0,.45,1.73"/><path class="cls-25" d="M911.18,198.49a5.07,5.07,0,0,1-.05,2.58,39.37,39.37,0,0,0-.84,5,16.52,16.52,0,0,1-.69,2.74"/><path class="cls-25" d="M753.49,217.91c1,.59.77,1.71,1,2.6a17,17,0,0,0,.77,3.15c.16.36,0,.71.13,1,.25.57-.61,1.28.15,1.71a3.89,3.89,0,0,0,2.58.88"/><path class="cls-25" d="M743.42,107.85c-.06.29-.17.61-.44.71-2.29.81-4.33,2.26-6.76,2.75"/><path class="cls-25" d="M745.72,109.58a13.06,13.06,0,0,1-3,2.55,6,6,0,0,1-5.61.53c-1.77-.76-3.69-1.19-5.45-2.06a7.24,7.24,0,0,1-2.29-1.74"/><path class="cls-25" d="M727,72.6c-.57,1.6-1.27,3.09-.35,4.92a13.15,13.15,0,0,1,1.55,4.13,2.86,2.86,0,0,1-.19,1.16"/><path class="cls-25" d="M786,108.14a39.47,39.47,0,0,1,.3,4.17,4.51,4.51,0,0,0,.11,1.45c.3.89.36,1.61-.81,2.2-1.75.89-2.42,3-3.83,4.17-2.67-.19-4.77-1.52-6.84-2.93"/><path class="cls-25" d="M813.63,214.17c.19,2,.31,3.94.62,5.89a2.75,2.75,0,0,1-.33,1.45"/><path class="cls-25" d="M833.06,260.36c-.1,2.41.34,4.79.29,7.19"/><path class="cls-25" d="M789.46,124c-.38-1-1.17-.34-1.4-.11-1.66,1.62-3.85,2.53-5.51,4.13a1.29,1.29,0,0,0-.43,1.15"/><path class="cls-25" d="M795.79,144.11c-.36,2.2,0,4.41-.12,6.62a.6.6,0,0,0,.55.43"/><path class="cls-25" d="M821.83,194.46c-.91-.3-.58-1.14-.69-1.73-.43-2.28-.27-4.64-.88-6.9-.2-.73-.44-1.3-1.49-1.29l.62,8.2"/><path class="cls-25" d="M831.62,159.36c1.48.92,3.38,1.09,4.58,2.47a1.18,1.18,0,0,0,1,.36c1.52-.1,2.1,1.22,3,2,.38.34.39,1.34.36,2.09a17.62,17.62,0,0,0,.69,7.2,2.57,2.57,0,0,1,0,.86"/><path class="cls-25" d="M786.44,115.76c.77.76.32,1.72.43,2.59.16,1.39.29,2.78.44,4.17"/><path class="cls-25" d="M769.46,315c-1.69.39-3.38.78-5.05,1.24-.61.16-1,.73-1.71.63"/><path class="cls-25" d="M879.53,117.34a23,23,0,0,1,.85,4.75A3.24,3.24,0,0,0,881,124"/><path class="cls-25" d="M864.85,135.9a44.3,44.3,0,0,0-3.91,4.16,3.31,3.31,0,0,1-1.84,1.35c-1.08.27-1.71,1.31-2.27,2.15-1.82,2.7-3.08,2.91-5.67.67.47-.76.8-1.15,1.94-.65s2.36.14,3.56-.05"/><path class="cls-25" d="M828,123.39c-.1,0-.17,0-.29.14-1.5,1.58-3.22,1.2-4.88.41a25.65,25.65,0,0,0-4-1.19c.29-.88.59-1.51,1.81-1,1.42.64,3,.83,4.46,1.43.86.36,1.35-.6,2.09-1.11a3.59,3.59,0,0,1,1.64,3.3,10.29,10.29,0,0,0,.53,4.33c.27.62-.37,1.66-.82,1.63-1.56-.11-1.13,1.07-1.47,1.79-.15.32,0,.59-.12.88"/><path class="cls-25" d="M848.59,152.16a28,28,0,0,0,6.79,2.15l-.46-8.34"/><path class="cls-25" d="M885.43,184.1c-1.75,1.5-3,3.47-4.41,5.22-.25.3-.73.6-.77,1.11"/><path class="cls-25" d="M819.24,246.83c-.1,1.57-1.12,2.81-1.49,4.3-.28,1.11-.67,2.22-1,3.32"/><path class="cls-25" d="M850.61,112a6,6,0,0,0,2.6,1.11,7.2,7.2,0,0,1,3.71,1.51c.51.47,1,.24,1.46.26"/><path class="cls-25" d="M893.77,229.14c-.67,1.77-2.19,2.89-3.3,4.32a2.92,2.92,0,0,1-1.89,1c-.91.17-1.25.51-.84,1.34a11.5,11.5,0,0,1,1.14,4.9"/><path class="cls-25" d="M814.78,244.24c-.35,1.23-1.48,1.78-2.3,2.59-.76-.32-1.66-.24-2.26-1-1,.67-1.23,2-2.33,2.43a4.78,4.78,0,0,1-1.88.52c-1.52,0-3-.09-4.33.87-.43.31-.91-.17-1.62-1.52a4.74,4.74,0,0,0,1.35-1.77"/><path class="cls-25" d="M826.72,237.62c-.18,1.42,1.12,1.8,1.9,2.08a32.61,32.61,0,0,1,4.79,2.09"/><path class="cls-25" d="M804.57,143.53a8,8,0,0,1,.11,3.3c-.48,3.07-.53,6.06.87,8.94a1.46,1.46,0,0,0-.12.42"/><path class="cls-25" d="M725.44,106.84c.85-.21,1.29.55,1.85.9,1.31.83,2.8.76,4.19,1.13,1.67.45,2.85,1.83,4.46,2.45.51.2-.26.42-.14.7"/><path class="cls-25" d="M929,130.72a8,8,0,0,0-3.16.74c-1,.36-1.67,1.93-1.43,3.28a7.55,7.55,0,0,1,.27,1.59"/><path class="cls-25" d="M729.32,75.33c.92,2.13,1.78,4.28,2.88,6.33"/><path class="cls-25" d="M795.5,143.39c-1.64-.08-2.93-1-4.32-1.73a6.11,6.11,0,0,0-1.9-.74c.11-1.1.48-1.35,1.63-.9,1.36.54,2.46,1.53,3.86,1.93a.72.72,0,0,1,.42.42c.67,2.4,3,2,4.62,2.73"/><path class="cls-25" d="M800.4,120.51c.63,2.07-.07,4.26.56,6.33,0,.06-.18.19-.27.28"/><path class="cls-25" d="M874.49,274.6c2.48.71,4.49,2.34,6.77,3.43,1.8.86,3.55,1.82,5.31,2.76"/><path class="cls-25" d="M783.42,158.92a7.21,7.21,0,0,1,1.21,3.61c.41,2.44,1.29,4.75,1.66,7.18"/><path class="cls-25" d="M747.88,128.57a36.83,36.83,0,0,1-1.77-4.51c-1,2.55-.28,4.56.76,6.53"/><path class="cls-25" d="M861.83,76.2a1,1,0,0,1,1,.3c1.31,1.24,3.06,1,4.62,1.41.18,0,.43.1.57-.13"/><path class="cls-25" d="M727.16,125.26c-1.49.43-2.65-.5-3.87-1-.73-.33-1.36-.75-2.17-.39"/><path class="cls-25" d="M856.08,243.67c-.13.2-.36.29-.44.57-.81,2.82-3.22,4.56-4.75,6.9-.35.54-1.08.62-1.57,1"/><path class="cls-25" d="M774.21,196.19c.52,0,.61.36.72.72a22.8,22.8,0,0,0,1.88,4.45c.5.94,1.42,1.55,1.91,2.57.8,1.64.89,2.43-.35,3.75-.48.51-.94,1-.85,1.74"/><path class="cls-25" d="M831,216.62c-1.71-.5-2.58-2.2-4.16-2.9a1.54,1.54,0,0,0-1-.14c-2.43.41-3.81-1.53-5.6-2.58-.08,0,0-.31.14-.42"/><path class="cls-25" d="M801.55,246.11a3.83,3.83,0,0,1-.13-1.87,57.37,57.37,0,0,0,0-5.76,4.72,4.72,0,0,1,1.29-3.74,2.79,2.79,0,0,0,.47-.85c.32-.81,1-1.59,0-2.3-.68-.48-2.51.1-3,.84-.1.15-.08.31-.14.43-.75,1.46-1.21,1.52-2.88,1-1.23-.34-2.11-1.44-3.44-1.48"/><path class="cls-25" d="M971,209.28c-1.38,1.78-2.74,3.56-3,5.9"/><path class="cls-25" d="M776.94,202.09a16.51,16.51,0,0,0,1.08,5.83"/><path class="cls-25" d="M765.43,204.53c-.75-1.19-1.9-.55-2.71-.35s-.5,1.27-.29,1.92a30,30,0,0,1,.84,3.89"/><path class="cls-25" d="M762.7,317.76a17.27,17.27,0,0,1,5.4,3.68c.84.73,1,2.29,1.33,3.52.16.64.42,1.24.61,1.86"/><path class="cls-25" d="M930.17,134.9a30.86,30.86,0,0,0-4.1,3,4.47,4.47,0,0,0-1.65,4.23"/><path class="cls-25" d="M692.63,187a17,17,0,0,0,4.87-5c.86,1.71,1.17,3.31,2,4.69.28.46-.26.88-.82,1"/><path class="cls-25" d="M737.52,124.54c0,.14.18.35.13.42-1.14,1.66,0,3.37-.13,5,0,.53.44.61.72.86"/><path class="cls-25" d="M780.9,145.47c-1.3-1.27-3.05-1.37-4.68-1.78a2,2,0,0,1-.72-.3"/><path class="cls-25" d="M770.9,315.6c-1.06,1.83-1.41,4-2.59,5.75"/><path class="cls-25" d="M845.86,238.06c.4.52.83,1.07-.15,1.43-2.11.78-2.92,2.69-3.88,4.46-.91-.11-1.19-1.28-2.16-1.29"/><path class="cls-25" d="M821.55,101.95a16.61,16.61,0,0,1,3.47,1.56,3.11,3.11,0,0,1,1.43,2.75c0,1.49,0,3,0,4.46,0,.29-.27.58-.41.86"/><path class="cls-25" d="M965.13,290.57a2.06,2.06,0,0,0-2,1.43,11.3,11.3,0,0,0-1.14,3.17"/><path class="cls-25" d="M787.3,128.14a1.52,1.52,0,0,0,1,.46,6.47,6.47,0,0,1,3.35,1.51c1,1,2.56,1.36,3.9,2.08,1.53-1,2.66-2.42,4.12-3.48"/><path class="cls-25" d="M856.51,247.55a28.85,28.85,0,0,0,5.32,2.3"/><path class="cls-25" d="M791,157.77c1.88.93,3.33,2.55,5.32,3.31"/><path class="cls-25" d="M825,98.78c-.52-.32-.91-.18-1.46.11a6.6,6.6,0,0,0-3.29,2.91"/><path class="cls-25" d="M800.68,249.71c-.94,1.13-.15,2.41-.19,3.6,0,.46.08,1,0,1.58"/><path class="cls-25" d="M710,163.67c-.86,1.38-1.79,2.74-.86,4.46a1,1,0,0,0,.61.56c.68-.25,1.09-1.1,2.08-1a24.38,24.38,0,0,0,1.2,3.73"/><path class="cls-25" d="M825.86,124.83a16,16,0,0,1,.27,4.46c-.08,1.12.32,2.19.19,3.31a.64.64,0,0,0,.55.72"/><path class="cls-25" d="M820.25,253c.24.14.11.38.14.58.36,2,1.17,2.43,3,1.44.15-.08.29-.19.48-.32a11.08,11.08,0,0,0-1.62-2.56c-.26-.29-.45-.62-.15-1"/><path class="cls-25" d="M788.17,133.17c-.86-.22-.88.67-1.28,1A26,26,0,0,0,783.7,138a50.09,50.09,0,0,0,5.47,2.63"/><path class="cls-25" d="M889.17,117.34c-.7-1.86,0-3.52.36-5.23l.64.08c0,1.75.16,3.51-.85,5.15a.87.87,0,0,1-.58.35"/><path class="cls-25" d="M969.74,292.73c1.36-.32.27-1.7,1-2.33.05,0-.32-.55-.69-.54-.62,0-.72.55-.86,1s.18.9.33,1.28a2.4,2.4,0,0,1-.21,2.2,1.77,1.77,0,0,1-1.42-.6"/><path class="cls-25" d="M783.71,96.91a3.89,3.89,0,0,1,.27,2.87c-.31.81.6,1.39.3,2.16"/><path class="cls-25" d="M857.08,113.89a7.88,7.88,0,0,1,2.75-2.47c-.07-1.51-1.12-1.79-2.18-2a5.12,5.12,0,0,1-2.7-1.2c-.7-.66-1.6-.54-2.34-1-.21-.12-.47,0-.73.25a11.41,11.41,0,0,0-3.84,5.35,3,3,0,0,1-.74,1.14"/><path class="cls-25" d="M826.72,159.36c2,.7,4.08,1.18,6.07,1.94.92.35,2,1,3.14.51"/><path class="cls-25" d="M715.8,176c-.44,1-1.29,1.21-2.3,1.32a12.42,12.42,0,0,1-4.75-.31"/><path class="cls-25" d="M773.92,246.4a9.44,9.44,0,0,1,.72,6"/><path class="cls-25" d="M761.69,279.49c-.77.86-1.54,1.72-2.3,2.59-1.72,2-1.72,2-3.89,1.73"/><path class="cls-25" d="M806.87,169.86c.29.24.59.47.86.72,1.52,1.42,2,1.48,3.89.43"/><path class="cls-25" d="M785,142.67a13.59,13.59,0,0,1-3.47,2.55,1.47,1.47,0,0,0-1,1.62,19.89,19.89,0,0,0,.25,3.75,5.13,5.13,0,0,1-.11,2.44"/><path class="cls-25" d="M829.89,232.16a3.32,3.32,0,0,1,2.47,1c.95.89,2.39,1,3.43,1.75"/><path class="cls-25" d="M925.28,83.1a.62.62,0,0,1,.55.71c-.42,1.29-.25,2.74-1.12,3.89"/><path class="cls-25" d="M857.37,246c0,.19.1.55.14.55,1.57,0,2.52,1.5,4,1.61"/><path class="cls-25" d="M960.53,291.43c-2,.69-2.4,1.51-1.73,3.88"/><path class="cls-25" d="M833.49,267.84c.5.79.22,1.61.17,2.45a13.59,13.59,0,0,0-.17,3.45"/><path class="cls-25" d="M830.32,100.94c-1-.93-1.86-2.07-3.31-2.28-.73-.11-1.58-.3-1.89.83-.17.62-.83,1-1.27,1.45"/><path class="cls-25" d="M831.18,232.16c.2-.87,1-1.29,1.37-1.89,2.65-.69,4.43,1.2,6.52,2.08.82.35,1.83-.37,2.52.78s2.37,1.29,3,2.62a1.46,1.46,0,0,1-.39,2.05,15.77,15.77,0,0,0-1.91,2.4c-.31.38-.65.9-1.29.44"/><path class="cls-25" d="M965.28,289.85a9.2,9.2,0,0,1-.72,5.47"/><path class="cls-25" d="M776.08,151.59a45.7,45.7,0,0,0,5.32,1.87"/><path class="cls-25" d="M827.44,159.64a6.78,6.78,0,0,0-.43,4.46"/><path class="cls-25" d="M946.57,317c.44.76-.11,1.35-.46,1.85a3.94,3.94,0,0,0-.83,2.61"/><path class="cls-25" d="M949.16,280.5c-.72,1-1.41,2-2.17,3-.35.44-.72,1-1.42.87"/><path class="cls-25" d="M801.26,173.31c0,.19,0,.44-.15.57-1.84,1.89-.94,4.08-.71,6.2"/><path class="cls-25" d="M821.26,242.8c2.07.7,3.35,2.55,5.18,3.6"/><path class="cls-25" d="M811.76,230.29c1.1,2,1.2,4.26,2,6.33,0,.06.09.1.14.15"/><path class="cls-25" d="M737.09,147.56c.81.79.85,1.93,1.28,2.88a2.44,2.44,0,0,0,.88,1.29"/><path class="cls-25" d="M943.84,280.21a10.42,10.42,0,0,1,1.61,5c0,.45-.42.18-.46.43"/><path class="cls-25" d="M836.65,237.91a13.42,13.42,0,0,0,4,2.59"/><path class="cls-25" d="M874.63,190.29c.85,1.52,2.55,1.6,3.88,2.3"/><path class="cls-25" d="M832.91,268c-.64,1.67-2.05,2.43-3.6,3"/><path class="cls-25" d="M826.72,174.61c1.13,1.2,2.84,1,4.17,1.73"/><path class="cls-25" d="M772.63,237c-.52,0-.66.38-1,.86,1.35,1.45,3.12,2.44,4.46,3.89"/><path class="cls-25" d="M853.92,241.08a10.72,10.72,0,0,0,.32-2.3,1.34,1.34,0,0,0-.63-1.55,1.6,1.6,0,0,0-1.55.41,9.69,9.69,0,0,0-1.17,1.28"/><path class="cls-25" d="M829.6,100.51c-.86,1.59-2.53,2.42-3.6,3.81"/><path class="cls-25" d="M881.54,211c-1.12,1-1.24,1.9-.6,2.9a.87.87,0,0,0,1,.4c.42-.07.6-.39.59-.85,0-.92.07-1.86-.87-2.45"/><path class="cls-25" d="M753.2,126c-1.11-1-.94-2.62-2.13-3.57-.58.3-.67.9-.61,1.56.11,1.2-.15,2.39,0,3.6.07.67-.19.82-1.31,1-.28-.81-.7-1.6-.11-2.45"/><path class="cls-25" d="M872.33,75.33l-4,2.3"/><path class="cls-25" d="M899.38,96.34c.86,1.34.31,2.69,0,4"/><path class="cls-25" d="M896.22,83.39a2,2,0,0,1-.54,1.46A4.51,4.51,0,0,0,894.57,89a3.28,3.28,0,0,1-1,3.5c-1,.87-.62,2.32-.2,3.54"/><path class="cls-25" d="M861.69,111.59a19.54,19.54,0,0,1-2.47,2.26c-.61.4-.54.83-.55,1.34a9.85,9.85,0,0,1-.43,3.74"/><path class="cls-25" d="M834.49,239.49c0,.79.63,1,1.16,1.12.81.15,1.5.62,2.3.75"/><path class="cls-25" d="M891.32,108.57c-.88.31-.55,1.14-.69,1.73a4.76,4.76,0,0,1-.47,1.86"/><path class="cls-25" d="M728.17,118.93a1.36,1.36,0,0,1,.75.85c.57,1.45.63,3,1.12,4.47.14.42-.14.78-.28,1.15"/><path class="cls-25" d="M731.91,82.81c-1.65.91-3.35.29-5,.14"/><path class="cls-25" d="M816.22,212.73c1.28.53,2.28,1.79,3.88,1.44"/><path class="cls-25" d="M894.2,88.43c-1.1,1.12-.95,2.34-.29,3.6"/><path class="cls-25" d="M931.9,194.46c0,.19.19.51.13.56-1,.78-1.13,2.1-1.86,3"/><path class="cls-25" d="M949,321.36c-.48-.66-.56-.72-1.29-.42a10.21,10.21,0,0,1-4.18.85"/><path class="cls-25" d="M863.84,186a8.5,8.5,0,0,0,2.3,1c.43.06.85.56,1.16-.16a.3.3,0,0,1,.42-.14c1.44,1,3.65.54,4.61,2.44"/><path class="cls-25" d="M916.5,115.33c1,1,2.36,1.16,3.61,1.55.7.22,1.35.73,2.15.6"/><path class="cls-25" d="M960.82,291.15a12.45,12.45,0,0,1-.72,4"/><path class="cls-25" d="M789.32,141.08a6.53,6.53,0,0,0-.29,2.73c0,.57.4.17.58.29"/><path class="cls-25" d="M837.66,236.33c1,.85,2.46.61,3.65,1.19.6.3,1.64-.63,2.1-1.48a1.31,1.31,0,0,1,.73-.71"/><path class="cls-25" d="M884.56,123.24a2.39,2.39,0,0,1-2.59,1.14c-.63-.08-.86.23-1,.73"/><path class="cls-25" d="M813.63,221.58c.77,0,.72.56.72,1.08a11.13,11.13,0,0,0,.29,2.45"/><path class="cls-25" d="M922.55,124.25a7.65,7.65,0,0,0,2.59.84c.2,0,.39-.06.58.16.55.63.57,3.24,0,4"/><path class="cls-25" d="M738.67,131.59a8.6,8.6,0,0,1,2.15,1.17c1.77.88,2.86.63,4.61-1.17"/><path class="cls-25" d="M826.72,238.49c-1.91,1.12-3,3-4.46,4.6"/><path class="cls-25" d="M896.22,90.3c1.2.45,1.62.2,2.18-1.35a2.21,2.21,0,0,0-1.46-1"/><path class="cls-25" d="M784.86,75.48a13.38,13.38,0,0,1-3.45,1.87"/><path class="cls-25" d="M894.92,102.09c.78.8,1.27,1.9.82,2.41s0,1,0,1.47"/><path class="cls-25" d="M741.12,165c.83.31.62,1.16.81,1.74a5.91,5.91,0,0,0,.62,1.42"/><path class="cls-25" d="M847.59,225.54a8.26,8.26,0,0,0-1.58,3.31"/><path class="cls-25" d="M887.3,129.5c.59-.06.74.35.71.79a5.56,5.56,0,0,1-.42,2.59"/><path class="cls-25" d="M840,207.7c-.21-.21-.34-.36-.73-.17-2.1,1-2.88,3.11-4,4.91-.18.29-.38.58-.57.86"/><path class="cls-25" d="M813.13,308.84a10.34,10.34,0,0,1,5.09,3.89,2.63,2.63,0,0,0,.88.86"/><path class="cls-25" d="M855.07,108.71c-.72.4-1.44,0-2.29,0a10.44,10.44,0,0,0-2.33,3c-.42.88-1,.38-1.56,0"/><path class="cls-25" d="M896.36,106.12c-1.11-.13-1.62.66-1.23,1.4s-.85,1.26-.25,2.08c.39.52,1.23.82,1,1.7"/><path class="cls-25" d="M893.91,121.37c-.45.25-.86.53-.72,1.15a10.67,10.67,0,0,1-.21,3.61,18.56,18.56,0,0,1-.14,2.6c-.09.36-.08,1-.27,1.24-.68.83.06,1,.53,1.42-.73.65-1.47,1.27-.84,2.53.26.52-.55,1.2-.8,1.84"/><path class="cls-25" d="M725.29,122.52c.1-.95-.38-2,.77-2.72a3.91,3.91,0,0,1,.38,3.3"/><path class="cls-25" d="M898.52,85.4c.85,1.06.57,2.11,0,3.17"/><path class="cls-25" d="M819.24,194.32a18.5,18.5,0,0,1,3.45,1.87"/><path class="cls-25" d="M848,225.25c1,.11,2,.84,3,.17.24-.15.45.38.7.55"/><path class="cls-25" d="M900,84.11c-.67.43-1.33.88-2,1.29a2.16,2.16,0,0,0-1.15,2.16,2.79,2.79,0,0,1-.28,1.16,18.71,18.71,0,0,0-.88,7.48"/><path class="cls-25" d="M770.76,180.65c.38,1,.1,2.15.86,3"/><path class="cls-25" d="M824.57,219.35c-1.37-1.36-3.25-1.76-4.91-2.55-1.08-.51-2.08-1.42-3.43-1.2"/><path class="cls-25" d="M894.06,115.91c.81,0,.88.59,1.12,1.38-1.22-.59-1.55.92-2.56.78"/><path class="cls-25" d="M826.72,231.29c.53,1.08,1.6,1.19,2.59,1.44"/><path class="cls-25" d="M945.57,285.68c1.47.08,1.33,1.46,1.87,2.3"/><path class="cls-25" d="M756.37,295.61c.9.52,1.72,1.27,2.88,1.15"/><path class="cls-25" d="M823.85,215.61c1.11,0,2.08.19,2.45,1.44"/><path class="cls-25" d="M743.13,126.41c0,1-.15,2,.58,2.88"/><path class="cls-25" d="M841.26,237.77c-.32.94,0,1.94-.29,2.88"/><path class="cls-25" d="M836.08,208.42a20.54,20.54,0,0,1-1.45,1.86c-.89.92-.35,1.41.44,1.88"/><path class="cls-25" d="M867.87,74.9a14.88,14.88,0,0,0,.14,2.88"/><path class="cls-25" d="M783.42,96.91a2.87,2.87,0,0,0,0,2.73"/><path class="cls-25" d="M827.16,134.32a2.28,2.28,0,0,1,0,2.73"/><path class="cls-25" d="M896.65,98.35c.86-.07.74.65.41.82-1.53.79-1.29,1.64-.25,2.5-.1.85-.8.57-1.17.85"/><path class="cls-25" d="M821.55,119.65c.83.54,1.89.67,2.61,1.46-.33.41,0,1-.45,1.42"/><path class="cls-25" d="M735.65,133.75c.69,1,.56,2.14.65,3.17.16,1.87.4,3.73.5,5.6a1.09,1.09,0,0,1-.29.72"/><path class="cls-25" d="M723.28,116.19a2.32,2.32,0,0,1,2.86.44c.6-.49,1.45-.38,2-.95.2.7.67,1.24.6,1.94"/><path class="cls-25" d="M895.21,82.1c-.31,1.11-1.27,1.69-2,2.45"/><path class="cls-25" d="M755.94,123.82A21.77,21.77,0,0,1,752.2,127a1.55,1.55,0,0,1-1.58.43"/><path class="cls-25" d="M852,253.88a4.22,4.22,0,0,1-2.45,1.44"/><path class="cls-25" d="M924.85,125.4a4.75,4.75,0,0,0,.14,3.88"/><path class="cls-25" d="M766.3,218.49c-.58.67-.43,1.7-1.15,2.3"/><path class="cls-25" d="M814.06,133c1.66.2,2.85,1.4,4.32,2"/><path class="cls-25" d="M852,274.17c.1.81.49,1.68-.43,2.3"/><path class="cls-25" d="M833.34,245.68c-1.8.82-3.1-.27-4.55-1.27-.56,1.43-2.69,2.11-1.63,4.17.47.32,1.17-.14,1.58.41"/><path class="cls-25" d="M922.55,124.68c-.4.87.33,1.61.29,2.45"/><path class="cls-25" d="M733.93,140.51c-.82.08-1.57.71-2.45.29"/><path class="cls-25" d="M826.72,173.89c-.09,1.07-1.2,1.2-1.73,1.87-.29.38-.81.77,0,1.15"/><path class="cls-25" d="M748.31,122.52a6.34,6.34,0,0,1,.49,2.16,1.71,1.71,0,0,0,1.38,1.87"/><path class="cls-25" d="M895.93,93.46c1.1.44,2,1.06,1.86,2.51l-1.57.37"/><path class="cls-25" d="M965.13,296a3,3,0,0,0-4.17.14"/><path class="cls-25" d="M854.64,251.87a4.47,4.47,0,0,0-2.3,1.87"/><path class="cls-25" d="M724.43,109c-.44.3-1,0-1.44.29-.94.64-.87,1.19.29,2.45"/><path class="cls-25" d="M934.2,310.57a12.26,12.26,0,0,0,1.58,2.16"/><path class="cls-25" d="M738.24,121.95c.64.7,1.49.56,2.3.58"/><path class="cls-25" d="M749.18,128.71c-.68,1.17-2,1.6-2.9,2.57-.37.42-.89.25-1.12-.28a2.27,2.27,0,0,0-.88-1.29"/><path class="cls-25" d="M861.83,110.87c-.66-.57-1.32-1.15-2.3-.86"/><path class="cls-25" d="M826.87,134.32a2.15,2.15,0,0,0,0,2.3"/><path class="cls-25" d="M895.07,110.73c-.71.72-.07,1.44,0,2.16-1.22,1-1.19,1.47.14,2.16"/><path class="cls-25" d="M739.25,146.41c.82-.2,1.34.76,2.16.58"/><path class="cls-25" d="M949.74,286.54c-2.55,1.49-3.06,1.73-2.16,4.6"/><path class="cls-25" d="M904,233.6a25.29,25.29,0,0,0-1.73,3"/><path class="cls-25" d="M827.44,137.49c.55,1.2.16,2.51.43,3.74"/><path class="cls-25" d="M899.09,96.34c-.36,1.34-.95,2.69,0,4"/><path class="cls-25" d="M736.37,141.08h-2"/><path class="cls-25" d="M850.61,140.65c1.38-.19,2.4.77,3.6,1.15"/><path class="cls-25" d="M897.22,90.73c-.19,1,.75,1.06,1.29,1.44"/><path class="cls-25" d="M730.62,117.06c-.14,1.34,1,1.59,1.8,2.16"/><path class="cls-25" d="M816.51,287.12c-.66-.17-1.34-.4-1.87.29"/><path class="cls-25" d="M818.09,285.53c-.44,1.2-1.66,1.86-2.16,3"/><path class="cls-25" d="M732.34,82c.05.54-.33,1-.2,1.59.21,1-.95,1.83-2,1.57-.52-.13-1-.49-1.58-.14"/><path class="cls-25" d="M899.09,91.59c-1.19,1.1-.25,2.21,0,3.31"/><path class="cls-25" d="M877.8,298.91a6.82,6.82,0,0,1,1.73,1"/><path class="cls-25" d="M784,102.38c-.71.58.26,1.15,0,1.73"/><path class="cls-25" d="M768.31,236.18c-.66-.28-1.17-1-2-.72"/><path class="cls-25" d="M821.83,251.58a6.15,6.15,0,0,1-4.6,1.87"/><path class="cls-25" d="M728.17,117.78a4.51,4.51,0,0,1-1.58-.86"/><path class="cls-25" d="M806.29,163.67c.69.08.06,1.16.86,1.15"/><path class="cls-25" d="M732.63,119.21c.47.39.85,1,1.58.86"/><path class="cls-25" d="M824.13,179.21a1.41,1.41,0,0,1-1.58.29"/><path class="cls-25" d="M831.47,109.86c-.24.82.6,1.63,0,2.38.39.58,1.12.15,1.48.64"/><path class="cls-25" d="M827,248.56c-.5.43-1.26-.17-1.73.43"/><path class="cls-25" d="M727,84.83c-.27-.32-.73,0-1-.29"/><path class="cls-25" d="M814.78,214.17c.09.49.62.53.86.86"/><path class="cls-25" d="M855.79,251.72a1.15,1.15,0,0,1,1.15,0"/><path class="cls-26" d="M725.44,85.4"/></g></g></svg>