<svg xmlns="http://www.w3.org/2000/svg" viewBox="0 0 905.42 344.09"><defs><style>.cls-1{fill:#fff;}.cls-2{fill:#8bcbf4;}.cls-3{fill:#7fbd99;}.cls-27,.cls-4{fill:none;}.cls-4{stroke:#f6eb3d;}.cls-26,.cls-28,.cls-4{stroke-miterlimit:10;}.cls-5{font-size:15px;font-family:Raleway-Regular, Raleway;}.cls-17,.cls-5{letter-spacing:0.01em;}.cls-6{letter-spacing:0.01em;}.cls-7{letter-spacing:-0.02em;}.cls-8{letter-spacing:-0.02em;}.cls-9{letter-spacing:-0.01em;}.cls-10{letter-spacing:0.01em;}.cls-11{letter-spacing:-0.01em;}.cls-12{letter-spacing:0em;}.cls-13{letter-spacing:0em;}.cls-14{letter-spacing:-0.02em;}.cls-15{letter-spacing:-0.02em;}.cls-16{letter-spacing:-0.08em;}.cls-18{letter-spacing:-0.02em;}.cls-19{letter-spacing:-0.02em;}.cls-20{letter-spacing:0em;}.cls-21{letter-spacing:-0.02em;}.cls-22{letter-spacing:0.01em;}.cls-23{letter-spacing:-0.01em;}.cls-24{letter-spacing:0.01em;}.cls-25{letter-spacing:0.01em;}.cls-26{fill:#bf2053;}.cls-26,.cls-27,.cls-28{stroke:#272525;stroke-width:0.75px;}.cls-27{stroke-linecap:round;stroke-linejoin:round;}.cls-28{fill:#010101;}</style></defs><title>greenfooter900</title><g id="Layer_2" data-name="Layer 2"><g id="Layer_1-2" data-name="Layer 1"><rect class="cls-1" width="905.42" height="344.09"/><rect class="cls-2" x="45.8" y="46.11" width="820.54" height="267.16"/><rect class="cls-3" x="31.08" y="28.5" width="816.56" height="264.46"/><line class="cls-4" x1="439.36" y1="74.17" x2="439.36" y2="225.43"/><text class="cls-5" transform="translate(130.16 81.16)">185 <tspan class="cls-6" x="27.91" y="0">M</tspan><tspan x="41.14" y="0">adison</tspan><tspan class="cls-7" x="87.79" y="0"> </tspan><tspan class="cls-8" x="91.3" y="0">A</tspan><tspan class="cls-9" x="101.1" y="0">v</tspan><tspan class="cls-10" x="108.97" y="0">enue, </tspan><tspan x="0" y="23.12">9th Floo</tspan><tspan class="cls-11" x="58.35" y="23.12">r</tspan><tspan class="cls-10" x="63.4" y="23.12"> </tspan><tspan class="cls-12"><tspan x="0" y="46.24">N</tspan><tspan class="cls-13" x="11.63" y="46.24">e</tspan><tspan class="cls-14" x="20.37" y="46.24">w</tspan><tspan class="cls-15" x="32.31" y="46.24"> </tspan><tspan class="cls-16" x="35.77" y="46.24">Y</tspan><tspan class="cls-17" x="44.29" y="46.24">ork, N</tspan><tspan class="cls-18" x="86.11" y="46.24">Y</tspan><tspan class="cls-10" x="95.52" y="46.24" xml:space="preserve"> 10016</tspan></tspan><tspan x="0" y="92.48">i</tspan><tspan class="cls-6" x="3.42" y="92.48">n</tspan><tspan class="cls-19" x="12.24" y="92.48">f</tspan><tspan x="16.95" y="92.48">o</tspan><tspan class="cls-20" x="26.02" y="92.48">@</tspan><tspan x="38.53" y="92.48">yu</tspan><tspan class="cls-21" x="55.87" y="92.48">r</tspan><tspan class="cls-22" x="60.9" y="92.48">gosk</tspan><tspan class="cls-23" x="94.95" y="92.48">y</tspan><tspan class="cls-24" x="102.96" y="92.48">c</tspan><tspan class="cls-10" x="111.27" y="92.48">onsulting.</tspan><tspan class="cls-25" x="179.88" y="92.48">c</tspan><tspan class="cls-10" x="188.19" y="92.48">om</tspan><tspan x="0" y="115.6">718.392.3085</tspan></text><path class="cls-26" d="M662.91,178.3l-.32-.58a5.82,5.82,0,0,1-.15-1,4.27,4.27,0,0,0-.21-1.26c-.13-.41-.72-1.59-.72-1.59a11.88,11.88,0,0,0-.62-1.38c-.18-.24-.63-.43-.64-1.83a4.7,4.7,0,0,1,.93-2.6s1.91-.69,2.46-.4,1.55.27,2.2,1.71a4.78,4.78,0,0,1,.6,2,6.06,6.06,0,0,1-.93,2.27l-1.34,2.56-.65,1.52Z"/><path class="cls-27" d="M765.5,101.12a46.25,46.25,0,0,1-2.78,5.46c-1.59,2.73-3.18,5.46-4.67,8.25-2,3.64-4,7.21-5.75,11a73.66,73.66,0,0,1-6.14,11.87c-1.13,1.65-1.86,3.6-3,5.31-1.29,2-2.42,4.07-3.74,6-1.21,1.82-2.28,3.76-3.4,5.65-1.64,2.78-3,5.71-4.87,8.38a8.67,8.67,0,0,0-.57,1.22c-1.38,2.91-3.19,5.57-4.77,8.37q-3.49,6.2-7.1,12.32c-1.4,2.38-2.75,4.81-4.09,7.21a59.68,59.68,0,0,0-3.18,6c-.27.65-.91,1.12-.91,1.89"/><path class="cls-27" d="M549.53,124.69a1.56,1.56,0,0,0-.22,1.39q1.2,4.68,2.74,9.26c.95,2.83,1.53,5.78,2.27,8.68.4,1.57,1,3.09,1.36,4.67s.64,3.44,1.07,5.14,1,3.62,1.5,5.45c.79,3.14,1.32,6.34,2.09,9.48A43,43,0,0,0,562,174.9a21.83,21.83,0,0,1,.92,3.89,1.36,1.36,0,0,1-.1,1"/><path class="cls-27" d="M521.23,150.71c.51,2.63,1.53,5.11,2.29,7.67a48.59,48.59,0,0,0,2.74,7.59c.95,1.94,1.35,4.13,2.64,5.93.16.23,0,.67.13,1s-.1.2-.22.27c-1.91,1.05-2,1.08-2.89-.91s-1.56-4.23-2.38-6.34c-.71-1.84-1.26-3.75-2-5.57-1-2.32-1.42-4.78-2.17-7.15a2.68,2.68,0,0,0-.37-.66"/><path class="cls-27" d="M601.35,164.41a16.17,16.17,0,0,0,3.3-2.93c2.43-2.64,5.33-4.77,7.72-7.44.33-.37,1-.31,1.13-.87-2-1.79-4.56-2.62-6.91-3.79-1.92-1-3.87-1.86-5.77-2.83s-3.76-1.76-5.6-2.73c-3.61-1.89-7.27-3.67-10.72-5.87a30,30,0,0,0-6.55-3.48c-.88-.29-1.31-1.31-2.33-1.26"/><path class="cls-27" d="M543.29,88.41c1-1.45,1.19-1.53,2.78-.77,1.29.62,2.49,1.43,4,1.47.47,0,.79.14,1.14-.34a5.08,5.08,0,0,1,1.31-1c1.44-1,2.47-.77,3.31.79A3.47,3.47,0,0,0,557,89.65a9.69,9.69,0,0,0,3.13,1.66,7.59,7.59,0,0,1,2.11,1.45c.25.18.51.41.45.77a2.88,2.88,0,0,0,1.11,2.57,11.32,11.32,0,0,1,1.86,3.69c1,2.42,1.51,5,2.49,7.45a29.56,29.56,0,0,1,1.26,3.89,1.64,1.64,0,0,0,.85,1.26,1,1,0,0,1,.33.54c.87,3.58,2.24,7,2.79,10.7.66,4.42,1.74,8.76,2.59,13.14.55,2.83,1.69,5.52,2.19,8.37.18,1,.84,2,.37,3.11"/><path class="cls-27" d="M622.75,207.32c-.23.59-.72,1-.92,1.66-.47,1.56.24,3,.35,4.47.17,2.28.85,4.5.89,6.8a1.19,1.19,0,0,0,.66,1.14,20.25,20.25,0,0,0,4.71,2.06c1,.31,1.7,1.11,2.78,1.16.42,0,.9.51,1.2.29a4.84,4.84,0,0,0,1.48-1.3A47.94,47.94,0,0,1,637,218.9c1-1.27,2-2.54,3.06-3.74a10.24,10.24,0,0,0,2.65-3.94,2.68,2.68,0,0,1,.66-1.11c.85-.85.9-2.11,1.63-3a1.48,1.48,0,0,0-.3-1.87,8.11,8.11,0,0,0-3.68-2.12"/><path class="cls-27" d="M693.84,69.47a1.59,1.59,0,0,0-.23.89c.17,4.2-.83,8.22-1.74,12.27-.53,2.35-1,4.73-1.41,7.12-.26,1.57-.75,3.12-1.07,4.69a14.9,14.9,0,0,1-3.56,7.25,1,1,0,0,0-.23.89"/><path class="cls-27" d="M710.56,200.3a30.46,30.46,0,0,1-2.72,5.21c-1.28,1.93-2.19,4-3.28,6.06-2.06,3.81-4,7.7-5.95,11.57a46.45,46.45,0,0,1-3.13,5.12c-.45.66-.49,1.54-1.2,2"/><path class="cls-27" d="M636.23,99a11.3,11.3,0,0,0,.05,4.23,32.69,32.69,0,0,1,.13,5.69c-.06,1.6-.1,3.2-.14,4.79-.07,3.38-.23,6.76,0,10.14a9.58,9.58,0,0,0,0,1.34c.07.34-.11.57-.42.79a33.18,33.18,0,0,0-4.22,4.14c-.57.58-1.52.67-1.81,1.53"/><path class="cls-27" d="M539.73,112.37c-.37.88.15,1.66.36,2.45.73,2.74,1.91,5.34,2.41,8.14a51.55,51.55,0,0,0,2.07,7.93c.69,2,1.13,4.09,1.79,6.09.9,2.74,1.63,5.52,2.49,8.27.67,2.16,1,4.41,1.72,6.56.86,2.66,1.52,5.36,2.28,8a5.15,5.15,0,0,0,2.84,3.08c.52.29.87.7,1.32,1,0,.61-.39.87-.69,1.13-2.21-.92-4.58-1.23-6.55-2.54a2.86,2.86,0,0,1-.49-.58,40.59,40.59,0,0,1,2.93-3.31"/><path class="cls-27" d="M723.49,185.59c.84,1.3,1.32,1.3,2.24.12,2.16-2.77,3.21-6.13,4.86-9.16a13.52,13.52,0,0,0,1.82-3.77,1.8,1.8,0,0,0-2.68.33c-1.16,1.45-1.73,3.22-2.66,4.8s-1.85,3.5-2.74,5.26-2.13,3.12-2.77,4.79c-1.28,3.37-3.48,6.18-5.11,9.32-1,1.85-1.64,3.85-2.62,5.65-1.26,2.31-2.34,4.71-3.69,7-1.47,2.44-3,4.87-4.33,7.36-1.91,3.5-4.09,6.86-5.86,10.44a50.23,50.23,0,0,1-3,4.7c-.07.11-.15.15-.22.11"/><path class="cls-27" d="M624.53,93.21c.51,1.66,0,3.34.08,5,.06,2.45-.34,4.89-.31,7.35,0,1.56,0,3.12-.09,4.68a17.67,17.67,0,0,0,.09,1.89c.12,4.16,0,8.32-.23,12.48a36.32,36.32,0,0,0,.27,4.34,2.34,2.34,0,0,1-.26,1.12"/><path class="cls-27" d="M548.53,176.34c1.88,1.24,4,2.11,5.72,3.64a44.21,44.21,0,0,0,4.77,3.14c2.11,1.41,4.3,2.69,6.45,4,3,1.86,5.95,3.76,9,5.46.5.27,1,.59,1.45.89"/><path class="cls-27" d="M630.1,193.39c.28,0,.57.25.54.44-.39,1.92-.11,3.87-.3,5.8-.26,2.81-.12,5.64-.13,8.47,0,2.38,0,4.76-.1,7.13-.05,1.26,0,2.53,0,3.91a14.24,14.24,0,0,1-3.9-1.46"/><path class="cls-27" d="M699.75,69.58c-.33,2.3-.64,4.59-.79,6.91a75.24,75.24,0,0,1-1.66,9.25c-.63,3.31-1.1,6.65-1.92,9.91-.24,1-.42,1.94-.64,2.9"/><path class="cls-27" d="M575.61,195.73c-.07,1.64.54,3.18.7,4.79s.58,3.34.86,5c.43,2.65,1,5.27,1.54,7.92s1.32,5.52,1.58,8.35"/><path class="cls-27" d="M583.41,192.27a38.8,38.8,0,0,1,2,6.69,22.63,22.63,0,0,0,1,3.45c.85,2.14,1.19,4.43,2,6.58,1,2.77,1.7,5.69,3,8.35.17.34-.13.79.32,1"/><path class="cls-27" d="M621.52,158.4a46.74,46.74,0,0,0,8.48,4c3.24,1.24,6.41,2.63,9.58,4,2,.9,4.07,1.82,6.14,2.65a12.31,12.31,0,0,1,1.44.8"/><path class="cls-27" d="M502.73,138.67c-.06,1.35.72,2.41,1.22,3.57,1.22,2.86,2.1,5.86,3.39,8.67,1.37,3,2.37,6.1,3.8,9,1.34,2.72,2,5.68,3.27,8.39a1.69,1.69,0,0,1,0,.66"/><path class="cls-27" d="M652.17,150.48c-.51-.68-1.41-.78-1.95-1.36a2.25,2.25,0,0,0-1.31,2.48,25.42,25.42,0,0,1-.63,5.91c-.22,1-.47,2.21,0,2.95s1.65,1.13,2.58,1.49c2.68,1,5.26,2.27,7.9,3.38,1.06.44,2,1,3.13,1.43a1.43,1.43,0,0,1,.67.67"/><path class="cls-27" d="M573.38,79.16c.68-.08,1,.31,1.23.89a34.77,34.77,0,0,1,1.8,8.91c.14,1.61.52,3.19.75,4.8.09.65,0,1.34-.77,1.55a1.54,1.54,0,0,1-1.66-1.11c-.37-1.88-.71-3.77-.93-5.68-.19-1.72-.54-3.43-.84-5.13a7.13,7.13,0,0,1,.18-4.12c.22-.51-.2-.94-.77-.89-1,.1-1.32.61-1.23,1.67a83,83,0,0,0,.93,9c.57,3,.67,6.08,1.93,8.94.35.79.28,1.79.6,2.65"/><path class="cls-27" d="M549.76,162.74c-.34.61.08,1.14.24,1.67,1.17,3.72,2.44,7.41,3.57,11.14a8.33,8.33,0,0,1,.18.9,2.3,2.3,0,0,0,1.68,1.93c1.06.39,2,1.17,3,1.64.58.27,1.2.41,1.79.64a1.18,1.18,0,0,0,1.44-.22,1.07,1.07,0,0,1,1.68-.23c.35.28.81.07,1.22.12"/><path class="cls-27" d="M623.42,221.36a8.2,8.2,0,0,0,.2,2.45c.06.57.58.49.76.7,1.13,1.37,2.75,2.15,3.94,3.42a2.51,2.51,0,0,1,0,2.56c-.69,1.28-1.65,2.38-2.4,3.6-1.13,1.83-2.45,3.52-3.6,5.33a69.37,69.37,0,0,1-5.26,6.67,1.27,1.27,0,0,1-.78.56"/><path class="cls-27" d="M682,220.47c-1.29,2.33-2.93,4.46-4,6.91a33.34,33.34,0,0,1-1.68,2.89,34.13,34.13,0,0,0-2.42,5.14,22.73,22.73,0,0,0-.93,2.44c-.2.86-.89.44-1.19.2a31.15,31.15,0,0,0-4.92-2.88,5.42,5.42,0,0,0-1.56-.58,5,5,0,0,1-2-1c-1.33-1-1.92-1-3.09.11-2.61,2.42-4.93,5.07-6,8.56a10.31,10.31,0,0,0-.91,2.39,5.57,5.57,0,0,0,2.25.4,4.9,4.9,0,0,1,2.62.86c1.42.82,2.84,1.71,4.22,2.63a11.11,11.11,0,0,0,5.32,1.93,57.06,57.06,0,0,0,4.88-7.89,17.88,17.88,0,0,0,1.05-2.21,2,2,0,0,0-.49-2.24"/><path class="cls-27" d="M587.31,80.72c-.16-2.13-.37-4.24-.7-6.36a53.76,53.76,0,0,1-1.08-8.12c0-.67-.26-.78-.89-.93a26.2,26.2,0,0,1-5.16-1.47c-.91-.42-.71-.93-.39-1.36a7.19,7.19,0,0,1,1.86-1.7.81.81,0,0,1,.67-.09c2.27.52,4.54,1.07,6.34,2.67a3.24,3.24,0,0,1,.69,1.77,63.55,63.55,0,0,1,1.23,7.8c.45,3.72.89,7.45,1.47,11.16a47.54,47.54,0,0,1,.86,6.45"/><path class="cls-27" d="M540.84,167.42c-.85-2.59-1.77-5.16-2.79-7.69-1.25-3.07-2.66-6.08-3.66-9.25-.38-1.19-.18-1.53,1.06-2,1,.79.9,2.1,1.23,3.16,1.12,3.57,2.36,7.09,3.69,10.58a28.78,28.78,0,0,0,2.12,4.94c1.18-.54,1.62-1.78,2.53-2.67-1.78-3.14-2.58-6.72-4.15-10a23.22,23.22,0,0,1-1.24-3.67,18.46,18.46,0,0,0-3.69-7.58"/><path class="cls-27" d="M692.51,231.61c-1.11,1.93-2.22,3.87-3.35,5.79-1.58,2.7-2.77,5.6-4.21,8.37-1.11,2.14-2.11,4.33-3.25,6.46a5.49,5.49,0,0,0-.23.56"/><path class="cls-27" d="M602.13,174.39c.67-.94,0-1.9-.19-2.71a61.26,61.26,0,0,1-1-6.15,1.5,1.5,0,0,0-1-1.25c-3.76-1.94-7.87-3.11-11.6-5.11-2.74-1.47-5.65-2.6-8.26-4.32a1.54,1.54,0,0,1-.79-1.35,48.43,48.43,0,0,0-.87-5"/><path class="cls-27" d="M680.14,187.37c-1.21-.32-2.61-.21-3.41-1.69-.88,1.29-2,2.32-2,4a14.82,14.82,0,0,1-.93,4.33,11.34,11.34,0,0,0-.43,2.47,17.31,17.31,0,0,1-.8,3.77c-.42,1.59-.52,3.23-.91,4.82-.25,1-.91,2-.82,3.11"/><path class="cls-27" d="M771.18,103.68a22.21,22.21,0,0,1-2,4.23,100.11,100.11,0,0,0-5.44,10.6c-.89,2.09-2.13,4-3.12,6"/><path class="cls-27" d="M651.33,127.42a29.84,29.84,0,0,0,.49-6,.88.88,0,0,0-.88.44,74.47,74.47,0,0,1-5.72,6.54,35.26,35.26,0,0,0-2.52,2.49,58.4,58.4,0,0,1-4.26,5.22c-1.38,1.48-2.73,3-4.2,4.38-1.14,1.08-2.45.56-3.69.51-.77,0-1.56-.29-2.34-.41"/><path class="cls-27" d="M658.41,191.72c-1.45-.45-1.46-.43-1.68,1s-.11,2.68-.31,4a8.21,8.21,0,0,1-.47,1.67,1.32,1.32,0,0,1-1.44.92c-1.6,0-1.61,0-2.35,1.66.74,1.42,2.26,1.83,3.46,2.66a16.09,16.09,0,0,0,3.67,1.8,1.6,1.6,0,0,0,2-.36,2.34,2.34,0,0,0,.11-2.77,11,11,0,0,0-4.89-2.69,2.06,2.06,0,0,1-.89-.33"/><path class="cls-27" d="M714.13,217.68a24.19,24.19,0,0,0,2.47,4.67,72.84,72.84,0,0,1,3.1,6.92,1.25,1.25,0,0,0,.67.78c.77.3.78.91.55,1.55a12.17,12.17,0,0,0-.55,1.9.78.78,0,0,1-.22.44c-1.87,1.5-2.28,3.82-3.18,5.82a55.38,55.38,0,0,1-3.48,6.56,75.94,75.94,0,0,0-3.79,7,10.38,10.38,0,0,1-.57,1"/><path class="cls-27" d="M714.13,220.24a4.23,4.23,0,0,0-1.45,1.11,10.55,10.55,0,0,0-3.67,5.8c-.33,1.13-1,2.1-1.38,3.22-.63,1.84-1.4,3.64-2.08,5.47a11.82,11.82,0,0,1-1.26,2.43c-1,1.42-1.17,3.06-1.74,4.6-.15.4.18.67.26,1a9.34,9.34,0,0,0,.75,1.68"/><path class="cls-27" d="M559.23,151.71c.39-1-.34-1.85-.46-2.78s-.46-1.68-.58-2.56c-.06-.4.11-.55.3-.83,1.05.62,1,1.8,1.27,2.73a109.25,109.25,0,0,1,2.84,11.57c.44,2.31,1.43,4.48,1.86,6.81.12.64.68,1.42-.31,1.9a2.83,2.83,0,0,1-.8-1.68q-1.17-5.52-2.78-10.92c-.33-1.12-.6-2.26-1-3.36a1.87,1.87,0,0,0-1.31-1.33"/><path class="cls-27" d="M731.06,234.06a3.78,3.78,0,0,1-.69,3.22,33.94,33.94,0,0,0-2,3.59,77.1,77.1,0,0,1-4.44,8.49,11.35,11.35,0,0,0-1.4,2.75c-.22.74-1,.85-1.65,1a22.22,22.22,0,0,0-3.57.78,1.25,1.25,0,0,1-1-.09"/><path class="cls-27" d="M655,61.56c-.1.71-.86.73-1.2,1.13-1.18,1.38-2.49,1.26-3.92.54a1.67,1.67,0,0,0-.44-.11c-2.25-.42-1.7-.15-1.72,1.56,0,1.89,0,3.79-.08,5.68-.16,2.58-.64,5.12-.9,7.69a2.89,2.89,0,0,0,3.47,2.86c.9-.31,1.86.07,2.71-.49.24-.16.56.12.43.53"/><path class="cls-27" d="M716.8,226.71a3.89,3.89,0,0,0-.71,1.9c0,.76-.82,1.16-1.23,1.85a5,5,0,0,1,1,2.36c1.37-.42,1.27-2.15,2.54-2.68.79.65.35,1.6.09,2.12-.59,1.16-.71,2.45-1.28,3.6-1.43,2.89-2.85,5.79-4.2,8.71s-3.57,5.71-4.73,9c.43.53.85,1.15,1.37,1.68s1.22.41,1.55-.32a11.32,11.32,0,0,1,2.39-3.74,7.79,7.79,0,0,0,1.49-2.84c.8-2.13,2.15-4,2.92-6.12.07-.19.23-.33.22-.56-.07-2.06,1.25-3.6,2-5.34a2,2,0,0,0-.13-2.13"/><path class="cls-27" d="M592.55,203.42c.6-.38,1,.1,1.45.34,3,1.64,6.23,2.85,9.38,4.18.81.34,1.8.33,2.66.71.38.17.62.36.33.79a6.52,6.52,0,0,1-1.33,1.9c-1.29,1-1.69,2.53-2.55,3.79-.47.68-.55,1.77-1.47,2a4,4,0,0,1-3.46-.84c-.6-.49-1.16-1.17-2.11-.9"/><path class="cls-27" d="M550.65,122.18a6.26,6.26,0,0,1,1.39,3.58c.31,1.76,1,3.4,1.4,5.11.28,1.14,1,2.16.71,3.47a2.9,2.9,0,0,0,.26,1.67,3.09,3.09,0,0,1,.26,2.11c-.23.94.44,1.7.65,2.56A44.6,44.6,0,0,0,557,147c.94,2.29.91,4.82,1.77,7.14.43,1.17.68,2.39,1.11,3.57A39.39,39.39,0,0,1,561,163.3c.49,2.32,1.43,4.53,1.69,6.91a.69.69,0,0,0,.43.56"/><path class="cls-27" d="M579,63.79a13,13,0,0,0,.55,3.79,46.16,46.16,0,0,1,1,7.8,25.94,25.94,0,0,0,.64,4.57c.3,1.66.21,3.35.43,5"/><path class="cls-27" d="M629.88,92.43c.48,1.41.11,2.83,0,4.23-.14,1.61.16,3.19.14,4.79,0,2,.38,3.91.25,5.91-.17,2.66,0,5.35,0,8,0,4.16.23,8.32.12,12.48a10.07,10.07,0,0,0,0,3"/><path class="cls-27" d="M712.23,227.38c-1,2-1.94,4-2.86,6.1-1.22,2.71-2.19,5.54-3.57,8.18a30.26,30.26,0,0,0-2,4.55"/><path class="cls-27" d="M672.78,69.47c-.42-.23-.33-.63-.33-1,0-1.34,0-2.68,0-4,0-.23,0-.32-.14-.45s-.41,0-.56.12q-1.9,2-3.79,4a1.13,1.13,0,0,0-.24.78c-.08,2.3-.31,4.6-.38,6.91s-.21,4.61-.41,6.91c-.13,1.56,0,3.13-.12,4.85a36.17,36.17,0,0,0-3.53-1.31A39.42,39.42,0,0,0,659,85c-.92-.13-1.71-.9-2.68-1.06s-1.85-.35-2.79-.43-1.63-.18-2.18.48c-.4,2.78.09,5.54.06,8.31"/><path class="cls-27" d="M609.93,245.43a33.37,33.37,0,0,0-3.13,4.57,16.19,16.19,0,0,1-2.16,3.08c-1.53,1.82-2.6,4-4.18,5.73-1.19,1.34-2.51,2.55-3.59,4a4.14,4.14,0,0,0-.66,1.35"/><path class="cls-27" d="M634.67,189.93a2.61,2.61,0,0,0,.45.11,19.55,19.55,0,0,1,5.35,1.78c.73.37.71.87.21,1.33a18.53,18.53,0,0,0-2.76,3.7,4.6,4.6,0,0,0-.65,3.11c0,.19-.09.55.19.67.81.34.63,1,.67,1.68a78.94,78.94,0,0,1,0,8.92,1.36,1.36,0,0,0,.09.9c.57.9.13,1.58-.42,2.35a45.41,45.41,0,0,1-6.17,7.56,74.24,74.24,0,0,1-7.11-3.43c.19-.65.38-1.4,1.22-1.69"/><path class="cls-27" d="M740.65,152.71a3.51,3.51,0,0,0-1.8,2.7,20.91,20.91,0,0,1-2.47,5.31c-1.18,2.21-2.26,4.49-3.63,6.6-.31.48.05.77.32,1.12a1.21,1.21,0,0,0,1.44.28,2.64,2.64,0,0,0,1.32-1.09c.75-1.36,1.69-2.64,2.29-4s1.31-2.85,1.85-4.32c.31-.84,1-1.42,1.37-2.22a2.31,2.31,0,0,0,.2-1.12c0-.78-.53-1.09-1.22-.78s-.87.81-1.45,1"/><path class="cls-27" d="M718.47,241.08c1.16-.74,1.45-2.05,2.13-3.11.56-.87.77-1.94,1.74-2.61s1-.86,2,.08c-.66,2.11-1.59,4.07-2.37,6.09s-1.84,4.17-2.76,6.25-2.21,3.73-2.92,5.78c-.14.41-.49.57-.69.88"/><path class="cls-27" d="M558.23,222a18.64,18.64,0,0,1,4.15,2c.52.38.44.85.51,1.26a35,35,0,0,0,1.92,5.57c.42,1.24.83,2.48,1.24,3.72a.64.64,0,0,1-.8.07c-2.33-1.25-4.71-2.42-6.92-3.89a13.31,13.31,0,0,0-2-.91"/><path class="cls-27" d="M675.68,187.48c.56.74,1.6.29,2.25.87a2,2,0,0,0,.55.22c1.53.55.9,1.71.76,2.69-.27,1.9-.51,3.81-.9,5.68-.6,2.89-.89,5.84-1.63,8.7a2.67,2.67,0,0,0-.13,1.89"/><path class="cls-27" d="M672.78,77.6a4.48,4.48,0,0,1-.43,2.82c-.65,1.37-.59,3-.81,4.53s-.47,3-.57,4.47c-.07,1,.05,2.06-.06,3.12-.34,3.09-.54,6.18-1.1,9.25-.44,2.42-.64,4.9-.91,7.35a1,1,0,0,1-.35.78"/><path class="cls-27" d="M671.89,71.25a3.91,3.91,0,0,0-1.2,2.79,40.54,40.54,0,0,1-1,5.34c-.45,1.8-.72,3.63-1,5.46-.5,3.16-.43,6.4-1.43,9.48"/><path class="cls-27" d="M731,231.39a2.38,2.38,0,0,0-1,1.46,2.83,2.83,0,0,1-1.07,1.71c-1.34.77-1.55,2.16-2.17,3.3-1.7,3.08-2.72,6.46-4.34,9.59-.87,1.68-1.86,3.3-2.72,5-.12.24-.35.4-.1.68"/><path class="cls-27" d="M714,230.61a11.85,11.85,0,0,0-2.28,4.14,39.75,39.75,0,0,1-1.91,4.18c-1.1,2.23-2.16,4.49-3.25,6.73-.32.65-.74,1.23-1,1.89-.14.33-.45.77-.23,1.09,1,1.47,1.68,3.21,2.88,4.58"/><path class="cls-27" d="M721.15,230.72c2.31,0,4.58-.65,6.91-.48a2.84,2.84,0,0,0,1.53-.34,13.14,13.14,0,0,1,3.92-1.41c.34-.09.5-.39.67-.62-.9-2.23-1.77-4.43-2.68-6.62A24.13,24.13,0,0,0,728.8,217c-.59-.85-1.78-.62-2.63-.43a29.33,29.33,0,0,1-9.59.41,4,4,0,0,0-4.57,3,1.48,1.48,0,0,0,.22,1.56"/><path class="cls-27" d="M690.5,231.16c-.95,2.19-2.3,4.17-3.41,6.27-1.45,2.77-3.1,5.43-4.54,8.2-.54,1-1.1,2.09-1.63,3.14"/><path class="cls-27" d="M721.48,188.93c.6-.09,1,.29,1.35.69a8.78,8.78,0,0,1-1.22,2.89,72,72,0,0,0-3.49,6.89,31.41,31.41,0,0,1-2.55,4.79,1.59,1.59,0,0,1-.44.44c-.7.49-1.11.29-1.22-.55,0-.19-.07-.37-.11-.56"/><path class="cls-27" d="M743.43,146.14A3.18,3.18,0,0,0,743,148c.12.88-.73,1.43-1,2.21a16.21,16.21,0,0,1-.84,1.58,1.6,1.6,0,0,0,.33,2c.46.27,1.51-.2,1.9-.78,1.88-2.82,3.56-5.75,5.26-8.68a29.14,29.14,0,0,0,1.16-2.71,1,1,0,0,0-.31-1.33,3.19,3.19,0,0,0-2.38,1.76c-1,1.82-2.06,3.67-3.28,5.39a1.2,1.2,0,0,1-.68.55"/><path class="cls-27" d="M651.94,121.51a10.8,10.8,0,0,1,3.88,1c2.67,1.26,5.45,2.28,8.19,3.33a48,48,0,0,0,6.32,2.3c.48.11.68.69,1.22.58"/><path class="cls-27" d="M693.4,162.19c2.66.5,5.12,1.66,7.69,2.45a20,20,0,0,1,5.67,2.91c-1.08,1.13-1.71,2.52-2.67,3.72a40.58,40.58,0,0,1-10.47-4.5c-1.66-1.07-2.59-2.27-.44-4.57"/><path class="cls-27" d="M628.54,138.23C626.85,139.66,625,141,624,143a.77.77,0,0,1-.43.37,22.15,22.15,0,0,0-4.57,3.1c-.66.5-1.49.75-2,1.52,1,2,.83,4.29,1,6.5.07.8-.39,1.62-.08,2.45"/><path class="cls-27" d="M656.51,62.67a27.58,27.58,0,0,0-.24,4.35c0,.7.27,1.31.27,2,0,2.17-.25,4.31-.45,6.46-.08.88,0,1.78,0,2.72a8.27,8.27,0,0,0-2.79,2.29"/><path class="cls-27" d="M715.8,232.95a19.43,19.43,0,0,0-2.19,4.7,50.43,50.43,0,0,1-3.16,6.56c-.94,1.82-1.67,3.73-2.79,5.46"/><path class="cls-27" d="M676.91,83.85q-.28,4.58-.74,9.14c-.32,3.15-.71,6.29-.88,9.46-.12,2.3-.36,4.62-.7,6.92a8.78,8.78,0,0,1-.68,2,1.47,1.47,0,0,1-1.79,1c-.61-.11-1.08.41-1.67.24"/><path class="cls-27" d="M660.25,172c.22-1-.27-2.15.48-3.14.29-.38.32-1,.91-1.09a4.33,4.33,0,0,1,2.45-.11,4.38,4.38,0,0,1,2.34,3.67,4.53,4.53,0,0,1-.8,2.1c-1,1.51-1.53,3.29-2.5,4.84a4.71,4.71,0,0,0-.26,2.09c-.18,3.34-.19,6.69-.45,10a2.82,2.82,0,0,1-.11.45"/><path class="cls-27" d="M547.64,71a6.82,6.82,0,0,1,1.84,3.44c.88,2.78,1.67,5.59,2.47,8.39a20.66,20.66,0,0,0,1.49,4.22"/><path class="cls-27" d="M554.32,228.49a4.55,4.55,0,0,1-1.46,3c-1.11,1.06-2,2.28-3.1,3.37-.87.89-.78,1.53.33,2.1,3.63,1.86,7.12,4,10.6,6.11,1.36.84,2.91,1.38,4.33,2.15"/><path class="cls-27" d="M676.46,188.15l-3,17.61"/><path class="cls-27" d="M602.69,174.89c-1.93-1-3.88-1.9-5.79-2.9-2.8-1.47-5.7-2.72-8.58-4-.55-.24-.84-1.13-1.67-.67"/><path class="cls-27" d="M667,87.41a.65.65,0,0,1,.33.67c-.39,1.61-.22,3.3-.64,4.91a2,2,0,0,0,.18,1.45c.41.74-.13,1.49-.24,2.21-.31,1.93-.48,3.86-.65,5.8-.15,1.78-.38,3.56-.55,5.35a5.28,5.28,0,0,0,2.47,4.67,3.68,3.68,0,0,0,2.45,0"/><path class="cls-27" d="M546.3,97.22a3.89,3.89,0,0,1-1.54-.14,2.66,2.66,0,0,0-.54,2.15,26.09,26.09,0,0,0,1.49,4.57c.5,1.46,1.34,2.76,1.81,4.23.26.82.16,1.75.79,2.45"/><path class="cls-27" d="M548.86,113.82c.09,2,.9,3.86,1.3,5.8.28,1.37.11,2.84.31,4.22a57.46,57.46,0,0,0,1.93,8.26c.59,1.93,1.17,3.87,1.8,5.79"/><path class="cls-27" d="M569.81,112.37a88.69,88.69,0,0,1-11.22,9.11l-3.26-1.21a.9.9,0,0,1-.58-.77c-.59-2.81-1.06-5.64-1.58-8.47-.22-1.15-1-2.32-.78-3.45a22.06,22.06,0,0,0-.07-3.58c0-.39.13-.86-.44-1"/><path class="cls-27" d="M574.61,175.11c.35.21.6.57,1,.66,1.13.27,1.48,1.1,1.68,2.12.42,2.16.9,4.31,1.31,6.47.07.35.33.51.43.89a18.07,18.07,0,0,0,2.14-2.57,1.06,1.06,0,0,1,1.47-.36c.87.35,1.84.42,2.72.82"/><path class="cls-27" d="M651.5,85.29c2.48,1.65,5.36,2.32,8.14,3.22.8.26,1.51.71,2.33.92a7.66,7.66,0,0,0,4.91-.24"/><path class="cls-27" d="M546.3,72a14.93,14.93,0,0,0,.63,4.69c.39,1.52.4,3.13.72,4.67a26.18,26.18,0,0,0,2.34,7,1.65,1.65,0,0,1,.1.56"/><path class="cls-27" d="M660.08,171.55c-2.6-1.26-5.21-2.5-7.79-3.81a3.75,3.75,0,0,0-1.9-.54c-1.29,2.48-3.17,4.57-4.7,6.9-1.36,2.07-2.89,4-4.32,6-.43.61-1.15,1-1.35,1.78"/><path class="cls-27" d="M639.24,219.69c1.07.52,1.33.93,1,1.89-.57,1.63-.47,3.35-.76,5-.06.34.05.56.42.8,1.88,1.25,4,2,5.95,3.16.77.45,1.53.94,2.32,1.38"/><path class="cls-27" d="M660.08,172.44a4.88,4.88,0,0,1-.17,3,21.59,21.59,0,0,0-.61,8.93c0,.21-.12.31-.22.45-1.34,1.78-2.75,3.51-4,5.36-1,1.47-1.82,3.05-2.93,4.43a51.24,51.24,0,0,0-3.11,4.8"/><path class="cls-27" d="M641.8,235.29c-1.87-1.12-4-1.81-5.8-3a19.31,19.31,0,0,0-2.83-1.75c-1.76,2.24-4,4.15-5.43,6.75-1.17,2.13-2.42,4.23-3.79,6.24a5.84,5.84,0,0,0-.55,2.57,20.08,20.08,0,0,0-.22,5.13"/><path class="cls-27" d="M696.85,69.36a1,1,0,0,1-.22,1.23,3.92,3.92,0,0,0-.68,3.46,6.17,6.17,0,0,1-.32,2.34c-.57,2.93-.95,5.88-1.52,8.81-.2,1-.24,2.08-.39,3.11-.08.56.23,1,.23,1.56"/><path class="cls-27" d="M662.75,178.12c-.46-1-.13-2.14-.66-3.12a21,21,0,0,0-1.55-3.07c-1.54.75-2,2.32-2.9,3.53-1.83,2.51-3.66,5-5.59,7.45-.71.89-1.31,1.86-2.1,2.69s-.36,1.61-.23,2.44a5.52,5.52,0,0,1-.07,1.79,38.88,38.88,0,0,0-.46,4.79,3.91,3.91,0,0,1-.3,1.64,3.05,3.05,0,0,0-.1,2.68c.57,1.61-.43,2.6-1.11,3.68-.35.54-1.27.53-1.84.32a16.76,16.76,0,0,1-2.9-1.54,1.11,1.11,0,0,1-.51-1.33,15.06,15.06,0,0,0,.05-3"/><path class="cls-27" d="M613.27,153.72a28.45,28.45,0,0,1,1.5,5,2.39,2.39,0,0,1-1,2.93c-3.18,2.52-5.63,5.74-8.27,8.78-.91,1-2,1.94-3,2.91"/><path class="cls-27" d="M561.35,231.83c-.62-2.07-1.3-4.12-2.09-6.14-.46-1.18-1.25-2.29-1.16-3.67,0-.29-.22-.55-.46-.85a30.71,30.71,0,0,1,4.29-4.58c.55-.5,1.25.13,1.87.3,1.39.38,2.27,1.54,3.44,2.26.72.45,1.34,1,2.11,1.47a3.36,3.36,0,0,1,1.21,1.59c1.47,3.16,2.56,6.47,4,9.62.62,1.33,1.52,2.5,2.06,3.88a3.39,3.39,0,0,0,.3.79"/><path class="cls-27" d="M652.61,66.35c-.28,4-.25,8.1-.33,12.15a8.44,8.44,0,0,0,.11,2"/><path class="cls-27" d="M529.14,143a2.39,2.39,0,0,0-1.3,1.14,1.44,1.44,0,0,0-.09,1.45c1.29,3.16,2.17,6.48,3.33,9.7a16.26,16.26,0,0,1,1.08,4.1"/><path class="cls-27" d="M619.07,177l-.24-1a.71.71,0,0,1,.91-.13c1,.51,2.08,1,3.12,1.46,3.57,1.7,7.14,3.39,10.69,5.13,1.63.8,3.46,1.16,4.92,2.32.19.15.43.42.8,0a.65.65,0,0,0,.21-.7,3.29,3.29,0,0,1,.32-2"/><path class="cls-27" d="M675.23,184.58c-1.58-.32-2.44-1.77-3.79-2.45a12.37,12.37,0,0,0-3.12-1.47,1.26,1.26,0,0,0-1.13.23c-1.27.89-1.68,2.28-2.19,3.6a6.21,6.21,0,0,0-.51,1.55,1.69,1.69,0,0,1-2.31,1.44,3,3,0,0,0-2.59.2,2.27,2.27,0,0,0-.64.59,14.09,14.09,0,0,1-1.43,2.25c-.15.14,0,.57,0,.87"/><path class="cls-27" d="M597.67,98.11a4.28,4.28,0,0,0,5.22,0,10.73,10.73,0,0,0,1.9-1.29,5.47,5.47,0,0,1,1,2.77,70.51,70.51,0,0,0,1.13,9,10,10,0,0,0,.3,1.79"/><path class="cls-27" d="M641.69,236.63c-2,2.15-3.95,4.32-5.7,6.65.7,1.36.68,1.49-.55,2.25-.49.31-1,.49-1,1.23a1.27,1.27,0,0,1-.42.77c-1.51,1.2-1.41,2.81-1.22,4.47a15,15,0,0,1,0,3.9"/><path class="cls-27" d="M554.16,97.77c-.4-.11-.75-.35-1.17-.46a12.48,12.48,0,0,1-4.15-1.85c-1.53-1.12-3.44-1.38-5.22-1.92-.69-.21-1.34-.51-2-.75s-1.32.24-1.33,1.09a8.29,8.29,0,0,0,.22,1.89"/><path class="cls-27" d="M646,94.32c.15.19.43.38.42.56a17.4,17.4,0,0,0,.54,4.24,31.89,31.89,0,0,1,.37,4.56A26.75,26.75,0,0,1,647,109a5.16,5.16,0,0,0,0,2.68,2.17,2.17,0,0,1-.67,2.46c-.3.31-.81.52-.67,1.11"/><path class="cls-27" d="M635.9,191.38a6.83,6.83,0,0,1,.3,2.9c0,2.13.15,4.24.3,6.35.2,2.82.53,5.63.67,8.47a9.09,9.09,0,0,1-1.52,5.22c-1.14,1.9-2.48,3.67-3.72,5.49-.61-.16-1.26-.07-1.72-.57"/><path class="cls-27" d="M609.37,183a13.6,13.6,0,0,1-3.53-1.62c-1.37-.82-3-1-4.31-1.89a2.42,2.42,0,0,0-2.71.53,25.55,25.55,0,0,0-3,3.31,5.83,5.83,0,0,0-.76,4.9,4.51,4.51,0,0,0,.27,1.48c.17.3,0,.73-.37,1.13-1.06,1.1-1.74,2.52-2.93,3.54a4,4,0,0,1-1.12.89"/><path class="cls-27" d="M628.32,144c.8,0,1.39.57,2.11.8s.46.91.21,1.31a39.8,39.8,0,0,1-4.44,6.48,53.43,53.43,0,0,0-4.23,4.91c-2.29,3.11-5.21,5.68-7.4,8.88a10.74,10.74,0,0,1-2,2.24,1.89,1.89,0,0,0-.66,1.8"/><path class="cls-27" d="M618.07,211.77c.48,4.33,1.6,8.56,1.78,12.93"/><path class="cls-27" d="M699.19,162.52a35.44,35.44,0,0,0-8.48-3.88,19.82,19.82,0,0,0-2.66-1.06,1,1,0,0,1-.66-1.41,1.79,1.79,0,0,1,2-1.22c.64.18,1.26.45,1.9.66,2.27.74,4.38,1.91,6.68,2.6a6.67,6.67,0,0,1,2.88,1.5c-.67.79-1,1.7-1.54,2.48"/><path class="cls-27" d="M662.42,102.79c.74,0,.24.59.2.65a19.11,19.11,0,0,1-1.66,2.13c-1.9,2-3.26,4.49-5.33,6.37-.38.34-.71.71-1.31.5a5.77,5.77,0,0,1-.26-2.4,20.9,20.9,0,0,0-.18-3.57,15.83,15.83,0,0,1,.13-1.89c-.06-1-.57-1.26-1.38-1.46a24.35,24.35,0,0,1-2.9-.54"/><path class="cls-27" d="M547.75,97.89c.49-.23.3-1.08,1.1-1.13a4.35,4.35,0,0,1,.47,2.35,43.91,43.91,0,0,0,1,5.57c.39,2.23.89,4.45,1.2,6.69.49,3.47,1.52,6.9,1.59,10.36.08,4.1,1.94,7.68,2.56,11.59.13.82.46,1.61.55,2.45,0,.37.19.76-.45.61"/><path class="cls-27" d="M582.74,212.33c.92,1,1.08,2.37,1.53,3.58a94.29,94.29,0,0,1,3.15,9"/><path class="cls-27" d="M644.37,236.74A9.67,9.67,0,0,0,642,235.3c0,.7-.47,1.21.06,1.91s.16,1.39.32,2.1a16.13,16.13,0,0,1,.16,3.11c0,.78-.74,1-1.14,1.42a40.25,40.25,0,0,0-7.66,11.51"/><path class="cls-27" d="M677.69,188.48c-.18,1.49-.31,3-.54,4.46-.31,2-1,4-1.25,6-.22,1.68-.54,3.34-.76,5a5.93,5.93,0,0,1-.24,1.56"/><path class="cls-27" d="M616.84,234.06a2.53,2.53,0,0,1,.4,1.67c0,2.6.43,5.2.17,7.8a1.39,1.39,0,0,1-.21.56c-.46.84-1.14,1.58-1.05,2.67,0,.32-.3.7-.53,1a21,21,0,0,0-2,4,44.64,44.64,0,0,1-3.14,4.56,21,21,0,0,1-1.54,2.36"/><path class="cls-27" d="M588.2,116.27c-1.35-.6-2.87-.38-4.24-.88a.67.67,0,0,0-.44.1c-.94.47-1.93.83-2.87,1.27-.44.21-.53.91-.54,1.62,0,2,.49,3.85.4,5.8a2.39,2.39,0,0,0,.34,1.45"/><path class="cls-27" d="M661,62a.51.51,0,0,0-.29-.59,8.28,8.28,0,0,0-2.53,2.24,2.83,2.83,0,0,0-.15,1.91c.18,3.05,0,6.09-.12,9.14-.07,2.58-.52,5.12-.58,7.69a3.37,3.37,0,0,1-.11.56"/><path class="cls-27" d="M542.07,88.3s.11.09.11.11c-1.07,2-.67,1.91,1.45,2.79,1.72.72,3.43,1.46,5.12,2.23,1,.47,1.71,1.46,2.9,1.68a3.63,3.63,0,0,1,1.9.76c2.26-1.12,4.38-2.41,5.57-4.79"/><path class="cls-27" d="M636.34,97.22a1.66,1.66,0,0,1,1.2.48,18.67,18.67,0,0,0,5.15,2.19A4.79,4.79,0,0,1,644.6,101a8,8,0,0,0-.41,3.37,42.37,42.37,0,0,1,0,6.91c-.15,1-.79,1.86-.93,2.89,0,.37-.61.24-1,.23-.6,0-1.19-.06-1.56.56"/><path class="cls-27" d="M660.64,153.83a9.4,9.4,0,0,1,1-1.88,41.23,41.23,0,0,1,4.41-4.83c.29.07.61.17.57.46-.41,3-.32,6-.64,8.92a12.4,12.4,0,0,1-1.06,3.33c-.63,1.55-1.53,3-2.29,4.48-.12.24-.29.24-.46.33"/><path class="cls-27" d="M675,81.5c-.46-.23-.42-.72-.56-1.12-1.08,0-.8,1.06-.83,1.46-.19,3.06-1.05,6-1.37,9-.23,2.15-.63,4.26-.69,6.46s-.72,4.6-1,6.92a68.41,68.41,0,0,0-.59,7.13,2,2,0,0,0,.23,1"/><path class="cls-27" d="M538.39,100.56a1.73,1.73,0,0,1,1.45-.24,14.76,14.76,0,0,1,2.91.87,1.53,1.53,0,0,1,.93,1.15c-.07,1.77.89,3.25,1.23,4.89.71,3.44,1.92,6.76,2.41,10.26.12.9.36,1.79.55,2.68a1.81,1.81,0,0,0,.54,1.13c.6.51.34,1.34.52,2,.12.44.25.88.38,1.32"/><path class="cls-27" d="M573.71,169.87c0,.63-.66.62-1,.88-1.11.81-1.58,1.7-1.08,2.79a33.31,33.31,0,0,1,2.3,8.82,14.37,14.37,0,0,0,1.35,4.46,1.61,1.61,0,0,1,.12,1.78"/><path class="cls-27" d="M651.5,127.42c.52.72,1.38.82,2.12,1.1a41.47,41.47,0,0,0,6,2.25,1.44,1.44,0,0,1,1.34,1.66,3.9,3.9,0,0,0,.22,1.34"/><path class="cls-27" d="M661.3,109.92c-2,2.08-3.78,4.32-5.58,6.56-1,1.21-2.07,2.31-3.11,3.46-.38.41-.89.73-1,1.34"/><path class="cls-27" d="M566.81,224.7c.91,2.51,2.14,4.9,2.88,7.47.5,1.74,1.13,3.44,1.46,5.23"/><path class="cls-27" d="M537.16,135a63.73,63.73,0,0,1,2.34,8.25c.11.46.1.46-.35,1.26a2.83,2.83,0,0,0-2,.08"/><path class="cls-27" d="M628.1,138.78c.68.59.06,1.3,0,1.89-.07,1.41,0,2.83-.19,4.25a6.24,6.24,0,0,1-2.07,3.78c-2,2-3.76,4.12-5.59,6.22a8.35,8.35,0,0,1-2.21,2,1.31,1.31,0,0,0-.56.67"/><path class="cls-27" d="M586.64,128.64a9.22,9.22,0,0,0-1.43-1.48c-1.9-1.21-3.18-1-4.36.92,1,1.06,1.13,1.1,2.1.1.43-.45.92-.59,1.34-.29a2.3,2.3,0,0,0,1.8.2"/><path class="cls-27" d="M595.89,194.72a32.4,32.4,0,0,1-3,3.44,3.51,3.51,0,0,0-.9,3.14c.28,1.78.81,3.5,1.24,5.24.51,2,.84,4.12,1.48,6.12.44,1.4.57,2.87,1.1,4.24"/><path class="cls-27" d="M672.34,177.34a8.93,8.93,0,0,0,2.8,1.64c1.47.63,2.9,1.35,4.43,1.86a14.19,14.19,0,0,1,3,1.65c.5.32.52.76,0,1.22-.3.28-.86.32-.91.88"/><path class="cls-27" d="M626.76,192.05a2.2,2.2,0,0,0-.71,2,57.13,57.13,0,0,1,0,9.24c-.07,1,0,1.93-.08,2.9,0,.38.1.79-.22,1.11"/><path class="cls-27" d="M655.62,245c-.82-1.24-.18-2.17.35-3.38a15.21,15.21,0,0,1,3.64-5.22,1.58,1.58,0,0,1,.8-.44,3.63,3.63,0,0,1,3.56,1.47,4.39,4.39,0,0,1-.66,3.9,14.3,14.3,0,0,0-1.79,2.11,4.54,4.54,0,0,1-3,2.34"/><path class="cls-27" d="M579.51,196.62a3.35,3.35,0,0,0,.06,2.88c1.19,3.43,1.54,7.07,2.71,10.5.41,1.19.14,2.45.25,3.67a29.5,29.5,0,0,0,1.66,8.14"/><path class="cls-27" d="M654.17,226c1.46.87,2.84,1.87,4.34,2.68,2.06,1.12,4.09,2.29,6.13,3.45"/><path class="cls-27" d="M613.61,236.51a7.2,7.2,0,0,1,.14,2.34c0,1.6.25,3.19.28,4.79,0,1.15.37,2.32-.09,3.45"/><path class="cls-27" d="M630.88,166.53c.16-.39.54-.58.9-1-2.28-1.09-4.18-2.68-6.38-3.78a4.17,4.17,0,0,0-3.1,0,.78.78,0,0,0-.57,1.1c.16.45.16.7-.42,1a18.92,18.92,0,0,0-5.37,4.86"/><path class="cls-27" d="M538.06,122.63c-.63-.46-1.88-.27-2,.45-.24,2.15-2.06,2.75-3.35,3.94-1.47,1.34-2.75,1.58-4.27.29"/><path class="cls-27" d="M613.83,196.4c-2-1.53-4.44-2.35-6.58-3.67-.42-.26-.74-.09-1.12.2a26.09,26.09,0,0,0-4.11,3.25,1.72,1.72,0,0,1-.9.55"/><path class="cls-27" d="M645.26,235.4c-2.24-1.32-4.25-3-6.67-4a5.67,5.67,0,0,1-2-1.21l-1.22,1.46"/><path class="cls-27" d="M585.75,257.24a1.28,1.28,0,0,0,.79,1.2,9.59,9.59,0,0,0,3.33,1.6,5.72,5.72,0,0,1,2.54,1.25,11.82,11.82,0,0,0,3.15,1.75"/><path class="cls-27" d="M581.74,85.29c0,2.73-.69,5.4-.67,8.13a7.56,7.56,0,0,0,0,.89c.22,1.7.07,2-1.45,2.67a.12.12,0,0,1-.11,0s0-.07,0-.11"/><path class="cls-27" d="M599.79,104.68a16.79,16.79,0,0,0-3.23-1.9,23.39,23.39,0,0,0-3.23-1.12c-1.15,1.36-2.8,2.31-3.81,3.94.49,1,.33,2.31,1,3.32"/><path class="cls-27" d="M562.91,224.37c.74-.17,1.2.4,1.8.63.8.31.65.89.79,1.48a24.8,24.8,0,0,0,1.1,3.34c.68,1.67.76,3.57,2,5-.34,1.29.92,1.59,1.45,2.34"/><path class="cls-27" d="M586.08,167.87c-2.23,1.89-4,4.24-6.56,5.83a10.66,10.66,0,0,0-2.69,2.64"/><path class="cls-27" d="M688.94,104.13c-.43,1.19-.35,1.32,1.11,1.78a16.48,16.48,0,0,1,4.81,2.2,1.48,1.48,0,0,1,.77,1.48,6.17,6.17,0,0,1-.23,2.34"/><path class="cls-27" d="M591.54,87c-.47.35-.73.88-1.19,1.27-1.16,1-2.25.76-3.5.31a20,20,0,0,1-3.9-1.8.89.89,0,0,0-1-.12"/><path class="cls-27" d="M672.11,128.64a30.23,30.23,0,0,1-1.24,7.24c-.27.85-.07,1.81-.65,2.61a7,7,0,0,0-1.9-.61c-1-.14-1.26-.75-1.12-1.66.24-1.63.36-3.29.71-4.9.19-.89.15-1.8.38-2.69.08-.31.33-.48.37-.77"/><path class="cls-27" d="M610.93,243.53c-1,.34-1.54-.51-2.08-.94-1.54-1.22-3.29-2.09-4.87-3.24a19,19,0,0,1-2.08-1.6,74.86,74.86,0,0,1-7.58,9.8"/><path class="cls-27" d="M688.72,105.46c-.33,1.13-.36,2.32-.64,3.46a6.65,6.65,0,0,1-.55,1.8,4.6,4.6,0,0,0-.31,3.31c.17.7,1.09,1,1.84,1.11a23.28,23.28,0,0,1,6.12,1.83,3.37,3.37,0,0,0,3.29-.67,5.06,5.06,0,0,0,2.38-3.15c.2-1.33.51-2.67-.16-4a10.9,10.9,0,0,1-.55-2.44c-.11-.5-.5-.73-.69-.63a7.19,7.19,0,0,1-2.92.52c-.18,0-.22.16-.33.23"/><path class="cls-27" d="M675.79,232.06c2.28,1,4.45,2.24,6.69,3.34,1.46.72,1.5.72,1.11,2.12-.79,2.76-1.4,5.57-2.43,8.25a1.61,1.61,0,0,1-.23.33"/><path class="cls-27" d="M666.88,196.06c-.08,3.25-.62,6.46-.78,9.7"/><path class="cls-27" d="M612.83,236.63a1.63,1.63,0,0,0-.33,1.45,16.71,16.71,0,0,1,0,4,19,19,0,0,0,.26,3.56c0,.24-.13.45,0,.67"/><path class="cls-27" d="M624.08,196.51a2.36,2.36,0,0,0,.17,1.47c.54,1.19.27,2.58.5,3.88.32,1.81.06,3.71.79,5.46"/><path class="cls-27" d="M537.61,120.4c-1.44.45-2.36,1.66-3.56,2.45s-2.59,1.91-4,2.69a7,7,0,0,0-2.11,1.89,2.92,2.92,0,0,0-.31,2.43c.18.79,1,.87,1.74.89.41,0,.82.29,1.23,0"/><path class="cls-27" d="M650.94,109.42c-.89.33-.51,1.14-.4,1.6a31,31,0,0,1,.52,3.8,3.17,3.17,0,0,0,.6,1.37,19.26,19.26,0,0,1-2.52,3c-2,2.18-4.14,4.25-6.22,6.37-.06.06,0,.15.11.22"/><path class="cls-27" d="M639.57,181.91c1.09.53,2.18,1.1,3.2,1.72a17,17,0,0,0,4.61,1.92,14.39,14.39,0,0,1,2.11.81"/><path class="cls-27" d="M658.41,63.67c.72,1.06,2,1.09,3,1.51,1.32.54,2.46,1.4,3.73,2,.89.43,1.85.59,2.71,1"/><path class="cls-27" d="M623.42,252.11c1,.94,2.4,1.06,3.58,1.65,2.07,1,4.35,1.59,6.45,2.59"/><path class="cls-27" d="M564,168.65a4.75,4.75,0,0,0-.53,3.9,10,10,0,0,1,.23,2.79c-.1,1.68.69,3.24.89,4.9,0,.28.42.42.76.34"/><path class="cls-27" d="M598.45,138.45c-.61-2.15-.56-4.41-1.09-6.58a2.8,2.8,0,0,1,.38-2c.69-1.26,1.23-2.61,1.95-4-1.21-.49-2.34-1.56-3.79-.65a7.74,7.74,0,0,0-2.17,1.73c-.35.45-.57,1.13-1.3,1.27-.28.05-.18.41-.24.65-.35,1.65.26,3.2.45,4.79a26.69,26.69,0,0,1,.34,3.23"/><path class="cls-27" d="M653.17,215.23a51.76,51.76,0,0,1-8.54-3.81c-1.54,1.94-3.32,3.81-5,5.81.74,1,1.93,1.09,2.88,1.55a52.31,52.31,0,0,1,7.23,4"/><path class="cls-27" d="M600.24,104.8a.66.66,0,0,0-.32.88,21.09,21.09,0,0,1,1.45,4.57.85.85,0,0,0,.53.59,17.59,17.59,0,0,1,3,2,.51.51,0,0,1-.1.5c-2,.89-3,2.79-4.31,4.33a2.22,2.22,0,0,0-.31,2.23c.24.82.44,1.69.63,2.54"/><path class="cls-27" d="M585.64,166.87a10.48,10.48,0,0,0-3.9,2.34,16.6,16.6,0,0,1-5.47,3.77,2.2,2.2,0,0,0-1.55,1.47,1.17,1.17,0,0,1-.22.44c-.23.27-.41.13-.55-.11"/><path class="cls-27" d="M619.4,191.6c-2.12-1.18-4.25-2.34-6.47-3.33a11.41,11.41,0,0,0-1.23-.66c-.41-.12-.88-.53-1.33,0"/><path class="cls-27" d="M593.33,248.55c-1.63,1.6-2.75,3.61-4.34,5.24a22.44,22.44,0,0,1-3.55,3.48c-.42.27-.41,1-.48,1.53a30,30,0,0,0-.21,4"/><path class="cls-27" d="M687.94,110.59a44.71,44.71,0,0,0,5.78,1.95c1,.25,2.1.6,3.13.95"/><path class="cls-27" d="M604.25,116.16c0,.89.91,1.13,1.34,1.16,1.83.14,1.9,1.44,2.12,2.74.38,2.26.08,4.54.33,6.8"/><path class="cls-27" d="M574.38,169.65a10,10,0,0,1-2.9-.21c-1.42-.12-2.81-.48-4.23-.59a2.62,2.62,0,0,1-1.43-.56c-.37-.31-.68-.17-1-.19"/><path class="cls-27" d="M623.75,245c1.93,1.15,3.86,2.32,5.8,3.45a6.49,6.49,0,0,0,3,.79"/><path class="cls-27" d="M595.33,190.71c.39.48.19,1,.22,1.56.07,1.29.36,2.38,1.78,2.92,1.25.48,2.39,1.24,3.69,1.65"/><path class="cls-27" d="M652.17,151a26.55,26.55,0,0,0,3.76,1.43,32.21,32.21,0,0,1,4.48,1.36,1,1,0,0,1,.67.77c.22,2.08.42,4.16.68,6.24a13.37,13.37,0,0,1,.09,2.34c0,.92.47,1.76.34,2.67a6.06,6.06,0,0,1-.22.78"/><path class="cls-27" d="M601.46,199.41c1.63.93,3.26,1.88,4.91,2.78a15,15,0,0,1,1.55,1.24,8,8,0,0,0,3.49,1.41c.53-.47.88-1.24,1.46-1.84.17.1.43.19.4.53-.13,1.89.45,3.7.61,5.57a3.52,3.52,0,0,0,1.7,2.27,2.34,2.34,0,0,0,2.38.33,17.29,17.29,0,0,0,3.44-1.49"/><path class="cls-27" d="M610.15,204.75c.94,2.84,1.42,5.79,2.11,8.69a3.46,3.46,0,0,1,0,.78"/><path class="cls-27" d="M640.8,220.8a4.5,4.5,0,0,0,1.44.7c2.13.68,4,2,6,2.89.37.16.66.41,1.07.2"/><path class="cls-27" d="M590.65,84.51c-.1.72-.82.82-1.23,1.22s-1.08,1-1.67,1.54A21.64,21.64,0,0,0,581.29,85"/><path class="cls-27" d="M636.45,94.43c1.45.83,2.78,1.87,4.25,2.64s3,.52,4.38,1.23c-.31.8-.19,1.68-.72,2.37"/><path class="cls-27" d="M577.28,250.44c-1.07-1-1.56-2.36-2.45-3.45-2.52.21-4.39,3.1-3.78,6a19.78,19.78,0,0,0,1.1,3.35"/><path class="cls-27" d="M675.57,184.58c-.7.18-.48.93-.86,1.36-1.39,1.58-2.72,3.21-4.12,4.79s-2.7,2.83-3.25,4.77c-.15.51-.41.53-.79.33-2.59-1.35-5.39-2.29-7.91-3.79"/><path class="cls-27" d="M592.1,200.07a18,18,0,0,1,5.67,1.93c1.05.56,2.09,1.17,3.19,1.65a2.76,2.76,0,0,0,0,1.78c.08.42.36.92-.09,1.33"/><path class="cls-27" d="M615.06,84.07a22.37,22.37,0,0,1,.89,8.25"/><path class="cls-27" d="M613.27,121.29c-.39-.62.13-1.12.23-1.67.15-.8.83-.59,1.32-.54a.54.54,0,0,0,.64-.57c-.5-1.36.84-1.4,1.27-2,.14,0,.19,0,.21,0,1.63,1.3,1.63,1.3.67,3.23a9.86,9.86,0,0,0-1,4.12c-.07,2.27-.38,4.55.2,6.8"/><path class="cls-27" d="M612.27,229.6c.19-.34-.15-.15-.22-.23-1.73-1.88-1.82-1.22-.41-3.4,1.51.53,3.26.79,4.15,2.32a21.64,21.64,0,0,1,1.15,3c.63,1.59.27,2.45-1.33,3.22a2.52,2.52,0,0,0-1.44,1.57"/><path class="cls-27" d="M584.08,165.75c2.66,1,3.44,3.19,3.58,5.79a13.12,13.12,0,0,0,.59,3c.47,1.55.32,3.25,1.17,4.7.37.63-.18.86-.56,1.1-1,.66-1.87,1.58-2.9,2.22-.75.46-.55,1.15-.68,1.8s-.11,1.16.68,1.48.91,1.09,1.57,1.42"/><path class="cls-27" d="M564.91,168.87a2,2,0,0,1,.5,1.1,44.61,44.61,0,0,1,1,6c.05,1.81,1,3.29,1.24,5a9,9,0,0,1,.2,1.89,2.5,2.5,0,0,0,1.53,2.68c1.36.81,2.5,2,4.12,2.35"/><path class="cls-27" d="M661.3,224a2.1,2.1,0,0,0,.33,0c.62-.1,1.25-.2,1.33-1s-.47-1.15-1-1.43a1.07,1.07,0,0,0-1.5.67,7,7,0,0,1-1.61,2.32,4.46,4.46,0,0,0-.63,1.57.89.89,0,0,0,.75,1.22c.95.2,1.79,0,2.08-.91s1.11-1.36.82-2.33"/><path class="cls-27" d="M669.1,97.11c.55.93.13,1.88,0,2.78-.21,1.19-.3,2.38-.43,3.57-.06.55,0,1.18-.55,1.56"/><path class="cls-27" d="M661.86,96.1a26,26,0,0,1-3.48,3.54c-1.1,1-2.28,2-3.31,3a1.78,1.78,0,0,1-1.12.67"/><path class="cls-27" d="M588.2,186.37a64.49,64.49,0,0,0,2.22,8.25c.41,1.39.7,2.82,1,4.23a1.3,1.3,0,0,0,.35.78"/><path class="cls-27" d="M554.21,98.55c-.62.65-.24,1.5-.15,2.11.36,2.49.72,5,.92,7.48,0,.29.36.46.23.78"/><path class="cls-27" d="M621.86,176.67a4.44,4.44,0,0,0,.46-1.2,3.53,3.53,0,0,0-2.58-1.47c-.07,0-.18,0-.22,0-1.12-1.16-2.76-1.54-3.92-2.66a14.53,14.53,0,0,0-2.35-1.32c-.34-.23-.86.17-1.19.42a22,22,0,0,0-4.61,4.42c-1.08,1.43-2.18,2.86-3.31,4.26"/><path class="cls-27" d="M608.15,144.58c-2-.92-4.12-1.4-6.14-2.2a5,5,0,0,0-1.77-.59"/><path class="cls-27" d="M542.18,167.31a15.25,15.25,0,0,1-2.92,1.85c-.89.5-2,0-3,0a11.41,11.41,0,0,1-2-.31"/><path class="cls-27" d="M538.06,100.11A7.61,7.61,0,0,1,539,104c.12,1.53.48,3.05.75,4.57a7.11,7.11,0,0,1-.13,3.5,34.66,34.66,0,0,1,4.05,2.26,3.57,3.57,0,0,0,3.1.48"/><path class="cls-27" d="M636.23,94.77a2.05,2.05,0,0,0-.26,1.34,4,4,0,0,1,.06,1.78c-.15.53.05.91.74,1.14,2.09.68,4,1.73,6.14,2.42.47.16.73.65,1.23.78"/><path class="cls-27" d="M668.77,97.22a9.86,9.86,0,0,0-.88,4.46c0,1.22-.36,2.46.08,3.68a.83.83,0,0,1-.1.77"/><path class="cls-27" d="M614.72,110.92a26.51,26.51,0,0,0-7.47,6.91"/><path class="cls-27" d="M653.5,224.92c.09-1.52.37-3,.33-4.57,0-1.19.91-2.07,1.05-3.23,0-.38.61-.75.27-1.22s-.94-.38-1.43-.33a1.86,1.86,0,0,0-1.23,2.77"/><path class="cls-27" d="M609.15,183.25a1,1,0,0,1-.9,1.3,3.73,3.73,0,0,0-2.22,1.82,17.8,17.8,0,0,1-2.12,2.22,1.79,1.79,0,0,1-2.33.34"/><path class="cls-27" d="M662.75,236.63c-.29.61.63,1.15,0,1.88-.43-.3-.75-.29-1.16.33-.93,1.39-1.78,2.83-2.6,4.28-.41.72-.89.57-1.36.4s-.89-.55-.57-1.2c.72-1.44,1.44-2.88,2.16-4.33.35-.71,1.42-.94,1.52-1.91"/><path class="cls-27" d="M616.62,122.29c-.81-.29-1.66-.42-2.45-.78s-1.35,0-1.44.78a33.25,33.25,0,0,0,.1,6.8"/><path class="cls-27" d="M579.73,154.83c-.53.59-.09,1.26.05,1.77a2.52,2.52,0,0,1-.73,2.46,15.4,15.4,0,0,1-5.23,4.47,5.73,5.73,0,0,0-.67.44"/><path class="cls-27" d="M535.71,143a29.17,29.17,0,0,0-3.84-3.94,12.52,12.52,0,0,0-2.38,2.29c-.81,1,.08,3,1.31,3.35a11.17,11.17,0,0,0,2.57.21c1.18,0,1.48-1,2.12-1.67"/><path class="cls-27" d="M562.68,95a68.63,68.63,0,0,1-5.8,4.11,2.94,2.94,0,0,1-1.77.68"/><path class="cls-27" d="M576.5,242.31a3.52,3.52,0,0,0-1.56,1.56c-.59,1-.43,1.76.56,2.2.67.29,1.31.68,2,.9a2.78,2.78,0,0,0,2.83-.61c-1.28-1.24-2.44-2.6-3.62-3.95"/><path class="cls-27" d="M561.79,92.76a8.77,8.77,0,0,1-2.92,2.07c-1.35.71-2.54,1.69-3.9,2.34-1,.47-.81.89-.44,1.61a18.25,18.25,0,0,1,1,3.78c.13.46,0,1,.77,1.16.55.13.9,1.68.54,2.39a3.12,3.12,0,0,0-.09,2.35"/><path class="cls-27" d="M620.07,106.58c-1.12-.15-2-.91-3.11-1.15a5.63,5.63,0,0,1-3.5-1.83,1.09,1.09,0,0,0-1-.36"/><path class="cls-27" d="M637.35,139.9a3.58,3.58,0,0,0-3.06,2.55c-.29.91-1.4,1.1-2.4.68a15.88,15.88,0,0,1-2.9-1.33"/><path class="cls-27" d="M595.5,180.24c-2,2-4,4-6.08,6-.39.38-.61,1.11-1.45.83-.13,0-.49.38-.65.64a17.51,17.51,0,0,1-4.4,4.62,4.7,4.7,0,0,0-2,2.73c-.13.55-.61.81-.92,1.2a.85.85,0,0,1-1.21,0,14.11,14.11,0,0,0-2.55-1.69.7.7,0,0,1-.31-1c.67-1.14,1-2.47,2.09-3.36"/><path class="cls-27" d="M648.49,196.84c-1.55-.68-3.09-1.4-4.58-2.21-.49-.26-.79-.46-.36-1-.8-.34-1.19,0-1.66.57-.68.78-.86,1.82-1.54,2.58-.88,1-1.46,2.3-2.9,2.68"/><path class="cls-27" d="M640,140.57c-1.16.57-1.43.49-2.61-.83.27-.36.46-1,1-.81a2,2,0,0,1,1.49,1.07,6.61,6.61,0,0,1,.39,3.58,15.11,15.11,0,0,0,.13,4.46"/><path class="cls-27" d="M620.85,200.63c-.71.47-.34,1.23-.17,1.65.65,1.68.34,3.45.7,5.15.16.75-.64,1.07-1.2,1.18a13.06,13.06,0,0,0-1.66.48,4.68,4.68,0,0,1-2.89-.25,6.24,6.24,0,0,0-1.68-.2"/><path class="cls-27" d="M615.62,131.32c-2.06-1.38-3.5-1.16-5.32,1.13a23.73,23.73,0,0,1-5.58,5.14,4.47,4.47,0,0,1-1,.52c-.9.31-1.83.53-2.25,1.56a.67.67,0,0,1-.75.23"/><path class="cls-27" d="M648.49,92.09a5.92,5.92,0,0,0,1.09,2.7c.41.49.27,1.23.24,1.87-.14,3.19-.29,6.39-.44,9.58a1.81,1.81,0,0,0,0,.67c.88,2.43-.33,4.08-2,5.58"/><path class="cls-27" d="M608.59,144.47c-.47,1.62-.45,1.59,1.57,2.55,1.33.63,2.83.83,4.12,1.57"/><path class="cls-27" d="M648.21,91.87a32.73,32.73,0,0,1,4.32,1.61c1.32.76,3,.75,4.42,1.4s2.9,1,4.24,1.78"/><path class="cls-27" d="M619.07,166c2.24,1,4.29,2.42,6.57,3.35a1.75,1.75,0,0,0,.78.22"/><path class="cls-27" d="M556.22,136.55a3.8,3.8,0,0,1,.26,2.58,3.93,3.93,0,0,0,.31,2.43c.4,1.29.8,2.59,1.09,3.91,0,.2.25.2.34.33"/><path class="cls-27" d="M543.63,128.87c-.56.06-.81.55-1.1.9a26.56,26.56,0,0,1-5.26,5,1.29,1.29,0,0,1-1.24.18,11.47,11.47,0,0,1-4.94-2.23c-.69-.62-1.74-.87-2.18-1.84"/><path class="cls-27" d="M558.67,145.58a10.93,10.93,0,0,0-.71-3.78c-.18-.74-.35-1.51-.6-2.25a2.17,2.17,0,0,0-.59-1"/><path class="cls-27" d="M569.93,237.63c-.07,1.3-1.08,2.1-1.68,3.11a41.11,41.11,0,0,1-3.33,4"/><path class="cls-27" d="M621.86,163.75a52.85,52.85,0,0,0,6.58,3.44c.19.09.28.25.44.35"/><path class="cls-27" d="M613.5,136.78c2.2,1.14,4.32,2.42,6.57,3.46.44.21.84.4,1.23-.11a13,13,0,0,1,3.34-2.9c.22-.14.08-.37.11-.56"/><path class="cls-27" d="M686.49,158.28a3.8,3.8,0,0,0-2-1.37c-.53.43-1.19.76-1.52,1.57a2.73,2.73,0,0,0,2.38,1.31,1.19,1.19,0,0,0,1.11-1.39"/><path class="cls-27" d="M615.84,131.43a26.58,26.58,0,0,1,3,2c1.37,1.21,3.14,1.33,4.71,2a31.27,31.27,0,0,1,3.55,1.59,1.7,1.7,0,0,1,1,1.33"/><path class="cls-27" d="M733.74,228.6c.83.86.39,1.76.12,2.68-.34,1.11-1.12,2-1.49,3.11-.13.38-.42,1-1.08.9"/><path class="cls-27" d="M653.95,218.91c-.42-.16-.9-.19-1.16-.62-1.69,1.55-2,3.76-3.15,5.54a2.63,2.63,0,0,0-.2,1.09c-.08,2.23-.32,4.46-.5,6.69"/><path class="cls-27" d="M636.23,94.1c-.47-.41-.09-.89-.1-1.34,0-1.3-.05-2.6,0-3.9a1.74,1.74,0,0,0-.69-1.55,13.06,13.06,0,0,0-5.9-2.56,1.38,1.38,0,0,0-1.34.32,42.3,42.3,0,0,0-3.44,3.58c-1.15,1.5-.92,2.15.88,2.65,1.28.36,2.59.64,3.9.89a1.67,1.67,0,0,0,1.54-.34c1.38-1.54,3.14-2.65,4.59-4.11"/><path class="cls-27" d="M588.54,116.72c.79,1,.46,2.24.76,3.35s.26,2.32.58,3.45"/><path class="cls-27" d="M631.44,132.88a3.49,3.49,0,0,1,1.37-1.63c1.2-1,2.06-2.32,3.29-3.3a3.9,3.9,0,0,1,1.25-.57c0,1.3,0,2.56,0,3.83,0,.08-.13.15-.1.22.61,1.8-.55,2.92-1.55,4.13a37.49,37.49,0,0,0-3.35,4.56"/><path class="cls-27" d="M619.52,184.47c-.27-1-1.23-1-1.91-1.31-1.08-.55-2.29-.84-3.32-1.49-.65-.4-.92-.11-1.12.45a21.46,21.46,0,0,1-2.11-.57c-2.08-.78-1.94-1.35-1.22-2.88a2.49,2.49,0,0,1,.77-1"/><path class="cls-27" d="M625.76,171.32c-.46.37-.48.77,0,1.11a15,15,0,0,0,2.22,1.35c1.13.52,2.23,1.1,3.42,1.69l.26-.92"/><path class="cls-27" d="M624,224.59c-.07.15-.24.32-.21.44.51,2,.15,4.13.77,6.13"/><path class="cls-27" d="M576.5,95.43a6.27,6.27,0,0,1,.57,2.45,23,23,0,0,0,.73,4.1c.13.16.46-.07.71.12a1,1,0,0,0,1.3.1,1.28,1.28,0,0,0,.11-1.3,9.82,9.82,0,0,1-.42-3.8"/><path class="cls-27" d="M542.51,128.42c-1.82,1.11-3.39,2.56-5.11,3.81a5.7,5.7,0,0,0-1.24,1"/><path class="cls-27" d="M609.71,234.51a8.68,8.68,0,0,0-.1,3.57c.1,1.67.52,3.33.21,5"/><path class="cls-27" d="M542.29,55.54c.37,1.63.71,3.28,1.14,4.9.14.52,0,1.06.29,1.58a2.89,2.89,0,0,0,1.7,1c-.24,1.2-.52,1.31-2.35,1"/><path class="cls-27" d="M599.12,187.48c.32,2.74.48,5.49.67,8.25"/><path class="cls-27" d="M625.87,170.54c0,.8.79,1,1.25,1.42a17.32,17.32,0,0,0,4.1,2.36,1,1,0,0,0,1.36-.41,8.36,8.36,0,0,0,1.18-1.81,5.5,5.5,0,0,1,2.85-2.65,41.63,41.63,0,0,0-5.39-2.58"/><path class="cls-27" d="M617.29,195.73c-.32.6,0,1.27-.19,1.9-.12.33.28.52.63.67,3.12,1.35,2.36,1.2,3.32,2.32,1.12-.78,1.37-2.45,2.81-2.89"/><path class="cls-27" d="M527.8,128.64c1,0,1.5.81,2.21,1.26,1.65,1.05,3.34,2,5,3,.73.43,1.37,1,2.13,1.42"/><path class="cls-27" d="M589.54,175.89c1.3.74,2.59,1.5,3.9,2.22a5.37,5.37,0,0,1,2.77,3.8.73.73,0,0,0,.24.44"/><path class="cls-27" d="M664.31,194.61c0-.19,0-.43-.12-.55a7.54,7.54,0,0,0-5.34-2.46c-.28,0-.52.07-.39.44"/><path class="cls-27" d="M615.84,100c0-.78,0-1.59-1-1.78a.84.84,0,0,0-.44,0,4.15,4.15,0,0,0-2.34,4.45,16.73,16.73,0,0,1,.22,6.58"/><path class="cls-27" d="M613.72,130.65a1.36,1.36,0,0,1-.65,1.14,3.36,3.36,0,0,0-1.15,1.2c-.61,1.39-.5,2,1.28,3.37a3.63,3.63,0,0,1-1.7,1.77.77.77,0,0,1-.77.08c-1.14-.79-2.65-.95-3.58-2.1"/><path class="cls-27" d="M667.66,106.36a4.18,4.18,0,0,0,.25,3.78,4.67,4.67,0,0,1,.53,2.35"/><path class="cls-27" d="M614.39,143.35c.42-.41.55-.87,0-1.21s-1-1.48-2.23-1.15a12,12,0,0,0,3.93,4.12,1,1,0,0,0,1.32-.3,11.28,11.28,0,0,1,1.67-1.89"/><path class="cls-27" d="M636.23,140.46c0,1.23-.09,2.43-1.22,3.24a.74.74,0,0,0-.32.44c-.07,1.37-.56,2.73-.24,4.12"/><path class="cls-27" d="M511.53,149.59a53.77,53.77,0,0,0,6.13,2.9c.48.2.83-.6,1.34-.17"/><path class="cls-27" d="M610.71,228.38a3.34,3.34,0,0,0-.77,2.34,7.17,7.17,0,0,1-.47,2.67.77.77,0,0,0,.26,1c1.12.48,2,1.33,3.11,1.82a2.24,2.24,0,0,0,3-1.56"/><path class="cls-27" d="M585.86,99a16.46,16.46,0,0,1,.11,3.12,9.71,9.71,0,0,0,.45,2.9"/><path class="cls-27" d="M645.15,97c-.77-.14-1.49-.48-2.23-.64a15.23,15.23,0,0,0-3.78-.58"/><path class="cls-27" d="M613.39,182.24a38.73,38.73,0,0,0,5.39,2.25,5.68,5.68,0,0,0,2.3.34,3.2,3.2,0,0,1,1.89.75c.1,1.5-1.15,2.27-1.62,3.53,1.6.9,3.44,1.2,5,2.14a.51.51,0,0,0,.65-.1c.69-1,1.91-1.64,2.28-3a7.82,7.82,0,0,1,1.29-2"/><path class="cls-27" d="M564,169.32a9.82,9.82,0,0,1,.5,2.58,30.43,30.43,0,0,1,1.08,4.44,1.41,1.41,0,0,0,.76,1"/><path class="cls-27" d="M571.6,171.82a11.53,11.53,0,0,0-3.8-1.47c-.76-.19-1.37-.83-2.22-.7"/><path class="cls-27" d="M614.61,111.26a29.53,29.53,0,0,1,.54,4.68,2.82,2.82,0,0,0,.35,1.34"/><path class="cls-27" d="M686.15,159.62a3.92,3.92,0,0,1,0,2,30.5,30.5,0,0,0-.65,3.91,12.79,12.79,0,0,1-.53,2.12"/><path class="cls-27" d="M564,174.67c.8.46.6,1.32.76,2a13.2,13.2,0,0,0,.6,2.44c.12.28,0,.55.1.78.19.44-.47,1,.11,1.32a3,3,0,0,0,2,.68"/><path class="cls-27" d="M556.22,89.42c0,.22-.14.48-.34.55-1.78.63-3.35,1.75-5.23,2.13"/><path class="cls-27" d="M558,90.75a10.12,10.12,0,0,1-2.36,2,4.63,4.63,0,0,1-4.35.41c-1.37-.59-2.86-.92-4.22-1.59a5.61,5.61,0,0,1-1.78-1.35"/><path class="cls-27" d="M543.52,62.11c-.44,1.24-1,2.39-.27,3.81a10.18,10.18,0,0,1,1.2,3.2,2.22,2.22,0,0,1-.15.9"/><path class="cls-27" d="M589.2,89.64a30.57,30.57,0,0,1,.23,3.23,3.49,3.49,0,0,0,.08,1.12c.23.69.28,1.25-.63,1.71-1.35.69-1.87,2.29-3,3.23a10.79,10.79,0,0,1-5.3-2.27"/><path class="cls-27" d="M610.6,171.77c.15,1.52.24,3.05.48,4.56a2.13,2.13,0,0,1-.26,1.12"/><path class="cls-27" d="M625.64,207.54c-.08,1.86.27,3.71.22,5.57"/><path class="cls-27" d="M591.88,101.9c-.3-.79-.91-.26-1.09-.08-1.29,1.26-3,2-4.26,3.2a1,1,0,0,0-.33.89"/><path class="cls-27" d="M596.78,117.5a39.66,39.66,0,0,0-.09,5.13.47.47,0,0,0,.42.33"/><path class="cls-27" d="M617,156.5c-.7-.23-.45-.89-.54-1.34-.33-1.77-.21-3.59-.68-5.35-.15-.57-.34-1-1.16-1l.48,6.35"/><path class="cls-27" d="M624.53,129.31c1.15.71,2.62.84,3.55,1.91a.92.92,0,0,0,.8.28c1.18-.08,1.63.95,2.3,1.54.3.26.3,1,.28,1.62a13.65,13.65,0,0,0,.54,5.58,2,2,0,0,1,0,.66"/><path class="cls-27" d="M589.54,95.55c.6.59.25,1.33.33,2,.13,1.08.23,2.15.34,3.23"/><path class="cls-27" d="M576.39,249.89c-1.31.3-2.62.61-3.91,1-.47.13-.81.56-1.32.49"/><path class="cls-27" d="M661.64,96.77a17.85,17.85,0,0,1,.66,3.68,2.51,2.51,0,0,0,.46,1.45"/><path class="cls-27" d="M650.27,111.15a34.31,34.31,0,0,0-3,3.22,2.57,2.57,0,0,1-1.43,1c-.83.21-1.32,1-1.76,1.66-1.41,2.09-2.38,2.26-4.4.52.36-.59.62-.89,1.5-.5a5.26,5.26,0,0,0,2.75,0"/><path class="cls-27" d="M621.74,101.45c-.07,0-.13,0-.23.11-1.16,1.22-2.49.93-3.78.32a19.86,19.86,0,0,0-3.07-.92c.23-.68.46-1.17,1.4-.75,1.1.49,2.33.64,3.46,1.11.67.28,1-.46,1.62-.86a2.78,2.78,0,0,1,1.27,2.55,8,8,0,0,0,.41,3.36c.21.48-.28,1.29-.63,1.26-1.21-.08-.88.83-1.14,1.39-.11.25,0,.46-.09.68"/><path class="cls-27" d="M637.68,123.74a21.7,21.7,0,0,0,5.26,1.67l-.35-6.46"/><path class="cls-27" d="M666.21,148.48a30.74,30.74,0,0,0-3.42,4c-.2.24-.57.46-.6.86"/><path class="cls-27" d="M614.95,197.06c-.08,1.21-.87,2.18-1.16,3.33-.22.86-.52,1.72-.79,2.57"/><path class="cls-27" d="M639.24,92.65a4.62,4.62,0,0,0,2,.86,5.58,5.58,0,0,1,2.87,1.17c.39.37.75.18,1.13.2"/><path class="cls-27" d="M672.67,183.36c-.52,1.37-1.69,2.24-2.56,3.35a2.26,2.26,0,0,1-1.46.74c-.7.14-1,.39-.65,1a8.91,8.91,0,0,1,.88,3.79"/><path class="cls-27" d="M611.49,195.06c-.27,1-1.14,1.38-1.78,2-.59-.25-1.29-.18-1.75-.75-.78.52-.95,1.51-1.8,1.88a3.7,3.7,0,0,1-1.46.41,5.18,5.18,0,0,0-3.35.68c-.33.24-.71-.13-1.26-1.18a3.67,3.67,0,0,0,1-1.37"/><path class="cls-27" d="M620.74,189.93c-.14,1.1.87,1.4,1.47,1.61a25.26,25.26,0,0,1,3.71,1.62"/><path class="cls-27" d="M603.58,117.05a6.22,6.22,0,0,1,.08,2.56,11.27,11.27,0,0,0,.68,6.92,1.13,1.13,0,0,0-.09.33"/><path class="cls-27" d="M542.29,88.64c.66-.16,1,.42,1.43.7,1,.64,2.17.59,3.25.88,1.29.35,2.21,1.42,3.45,1.9.4.15-.2.33-.1.54"/><path class="cls-27" d="M700,107.14a6.17,6.17,0,0,0-2.45.57,2.34,2.34,0,0,0-1.11,2.54,5.85,5.85,0,0,1,.21,1.23"/><path class="cls-27" d="M545.3,64.23c.72,1.65,1.38,3.32,2.23,4.9"/><path class="cls-27" d="M596.56,116.94a8.3,8.3,0,0,1-3.34-1.34,4.74,4.74,0,0,0-1.47-.57c.09-.85.37-1,1.27-.69,1,.41,1.9,1.18,3,1.5a.56.56,0,0,1,.33.33c.52,1.86,2.31,1.54,3.58,2.11"/><path class="cls-27" d="M600.35,99.22c.49,1.6-.05,3.3.43,4.91,0,0-.14.15-.21.22"/><path class="cls-27" d="M657.74,218.57c1.92.55,3.48,1.81,5.25,2.66,1.4.67,2.75,1.41,4.11,2.13"/><path class="cls-27" d="M587.2,129a5.58,5.58,0,0,1,.94,2.8c.32,1.89,1,3.68,1.29,5.56"/><path class="cls-27" d="M559.67,105.46a28.53,28.53,0,0,1-1.37-3.5,5.56,5.56,0,0,0,.59,5.06"/><path class="cls-27" d="M647.93,64.9a.76.76,0,0,1,.77.23c1,1,2.37.79,3.58,1.1.14,0,.33.08.44-.1"/><path class="cls-27" d="M543.63,102.9c-1.16.33-2.06-.39-3-.81-.57-.25-1-.58-1.68-.31"/><path class="cls-27" d="M643.47,194.61c-.1.16-.28.23-.34.44-.63,2.19-2.49,3.53-3.68,5.35-.27.42-.84.48-1.22.79"/><path class="cls-27" d="M580.07,157.84c.41,0,.47.28.56.56a17.66,17.66,0,0,0,1.46,3.45c.39.73,1.1,1.2,1.48,2,.62,1.27.69,1.88-.27,2.91-.38.4-.73.75-.66,1.35"/><path class="cls-27" d="M624.08,173.66c-1.32-.39-2-1.7-3.22-2.25a1.2,1.2,0,0,0-.79-.11c-1.88.32-3-1.19-4.34-2-.06,0,0-.24.1-.32"/><path class="cls-27" d="M601.24,196.51a3,3,0,0,1-.1-1.45,44.44,44.44,0,0,0,0-4.46,3.66,3.66,0,0,1,1-2.89,2.16,2.16,0,0,0,.36-.66c.25-.63.74-1.23,0-1.78a2.25,2.25,0,0,0-2.34.65c-.08.12-.06.24-.11.34-.58,1.13-.94,1.17-2.23.81-1-.27-1.63-1.11-2.67-1.14"/><path class="cls-27" d="M732.51,168a9.43,9.43,0,0,0-2.34,4.57"/><path class="cls-27" d="M582.18,162.41a12.79,12.79,0,0,0,.84,4.51"/><path class="cls-27" d="M573.27,164.3c-.58-.92-1.47-.42-2.1-.27s-.39,1-.22,1.49a23.21,23.21,0,0,1,.65,3"/><path class="cls-27" d="M571.15,252a13.38,13.38,0,0,1,4.18,2.85c.65.57.79,1.78,1,2.73.13.5.33,1,.47,1.44"/><path class="cls-27" d="M700.86,110.37a23.91,23.91,0,0,0-3.18,2.3,3.47,3.47,0,0,0-1.28,3.27"/><path class="cls-27" d="M516.88,150.71a13.13,13.13,0,0,0,3.77-3.84c.67,1.33.91,2.57,1.55,3.63.21.36-.21.68-.64.76"/><path class="cls-27" d="M551.65,102.34c0,.11.14.27.1.33-.88,1.28,0,2.61-.1,3.91,0,.41.34.47.56.67"/><path class="cls-27" d="M585.25,118.56c-1-1-2.36-1.06-3.62-1.38a1.53,1.53,0,0,1-.55-.23"/><path class="cls-27" d="M577.5,250.33c-.82,1.42-1.09,3.08-2,4.46"/><path class="cls-27" d="M635.56,190.27c.31.41.64.83-.11,1.11-1.64.61-2.26,2.08-3,3.46-.71-.08-.92-1-1.67-1"/><path class="cls-27" d="M616.73,84.85a12.86,12.86,0,0,1,2.69,1.21,2.41,2.41,0,0,1,1.11,2.13c0,1.15,0,2.3,0,3.45,0,.23-.21.45-.32.67"/><path class="cls-27" d="M727.94,230.94a1.59,1.59,0,0,0-1.57,1.11,8.75,8.75,0,0,0-.88,2.46"/><path class="cls-27" d="M590.21,105.13a1.18,1.18,0,0,0,.77.36,5,5,0,0,1,2.6,1.17,12.36,12.36,0,0,0,3,1.61c1.18-.74,2.06-1.87,3.19-2.7"/><path class="cls-27" d="M643.81,197.62a22.35,22.35,0,0,0,4.12,1.78"/><path class="cls-27" d="M593.1,128.09c1.46.72,2.58,2,4.12,2.56"/><path class="cls-27" d="M619.4,82.4c-.4-.25-.71-.14-1.13.09a5.11,5.11,0,0,0-2.55,2.25"/><path class="cls-27" d="M600.57,199.29c-.73.88-.11,1.87-.15,2.79,0,.35.06.81,0,1.22"/><path class="cls-27" d="M530.37,132.65c-.67,1.07-1.39,2.12-.67,3.45a.8.8,0,0,0,.47.44c.52-.19.85-.85,1.61-.76a18.88,18.88,0,0,0,.93,2.89"/><path class="cls-27" d="M620.07,102.57a12.41,12.41,0,0,1,.21,3.45c-.06.87.25,1.7.15,2.57a.5.5,0,0,0,.43.56"/><path class="cls-27" d="M615.73,201.86c.18.11.08.29.11.45.28,1.58.91,1.88,2.34,1.11.12-.06.22-.15.37-.24a8.58,8.58,0,0,0-1.26-2c-.2-.22-.35-.48-.11-.78"/><path class="cls-27" d="M590.88,109c-.67-.17-.68.52-1,.79a20.1,20.1,0,0,0-2.47,3,38.79,38.79,0,0,0,4.24,2"/><path class="cls-27" d="M669.1,96.77c-.54-1.44,0-2.73.28-4.05l.49.06a7.11,7.11,0,0,1-.66,4,.68.68,0,0,1-.45.27"/><path class="cls-27" d="M731.51,232.61c1.05-.25.21-1.32.76-1.81,0,0-.25-.43-.53-.41-.48,0-.56.43-.66.78s.14.7.25,1a1.86,1.86,0,0,1-.16,1.71,1.37,1.37,0,0,1-1.1-.47"/><path class="cls-27" d="M587.42,80.95a3,3,0,0,1,.21,2.22c-.24.63.47,1.08.23,1.68"/><path class="cls-27" d="M644.25,94.1a6.11,6.11,0,0,1,2.13-1.92c-.05-1.17-.87-1.39-1.69-1.52a4,4,0,0,1-2.09-.93c-.54-.51-1.24-.42-1.81-.74-.17-.09-.36,0-.56.19a8.84,8.84,0,0,0-3,4.15,2.3,2.3,0,0,1-.57.89"/><path class="cls-27" d="M620.74,129.31c1.55.54,3.16.91,4.7,1.5.71.27,1.54.79,2.43.39"/><path class="cls-27" d="M534.82,142.24c-.34.79-1,.94-1.78,1a9.62,9.62,0,0,1-3.68-.24"/><path class="cls-27" d="M579.84,196.73a7.31,7.31,0,0,1,.56,4.68"/><path class="cls-27" d="M570.37,222.36c-.59.67-1.19,1.33-1.78,2-1.33,1.53-1.33,1.53-3,1.34"/><path class="cls-27" d="M605.36,137.45c.22.19.46.36.67.56,1.18,1.1,1.58,1.15,3,.33"/><path class="cls-27" d="M588.42,116.38a10.52,10.52,0,0,1-2.69,2,1.14,1.14,0,0,0-.77,1.26,15.41,15.41,0,0,0,.2,2.9,4,4,0,0,1-.08,1.89"/><path class="cls-27" d="M623.19,185.7a2.57,2.57,0,0,1,1.91.76c.74.69,1.85.74,2.66,1.36"/><path class="cls-27" d="M697.08,70.25a.48.48,0,0,1,.42.55c-.32,1-.2,2.12-.87,3"/><path class="cls-27" d="M644.48,196.4c0,.15.08.43.11.43,1.22,0,2,1.16,3.12,1.24"/><path class="cls-27" d="M724.38,231.61c-1.58.54-1.86,1.17-1.34,3"/><path class="cls-27" d="M626,213.33c.39.61.17,1.25.13,1.9a10.52,10.52,0,0,0-.13,2.67"/><path class="cls-27" d="M623.53,84.07A5,5,0,0,0,621,82.3c-.57-.08-1.22-.23-1.47.65-.13.48-.64.75-1,1.12"/><path class="cls-27" d="M624.2,185.7c.15-.68.81-1,1.06-1.46,2.06-.53,3.43.93,5.05,1.61.63.27,1.42-.29,1.95.61s1.84,1,2.3,2a1.13,1.13,0,0,1-.31,1.59,12.21,12.21,0,0,0-1.48,1.86c-.24.3-.51.7-1,.34"/><path class="cls-27" d="M728.05,230.38a7.13,7.13,0,0,1-.56,4.23"/><path class="cls-27" d="M581.52,123.29a35.39,35.39,0,0,0,4.12,1.45"/><path class="cls-27" d="M621.3,129.53A5.25,5.25,0,0,0,621,133"/><path class="cls-27" d="M713.57,251.45c.34.59-.08,1-.36,1.43a3,3,0,0,0-.65,2"/><path class="cls-27" d="M715.57,223.14c-.56.78-1.09,1.58-1.68,2.33-.27.34-.56.75-1.1.68"/><path class="cls-27" d="M601,140.12c0,.15,0,.34-.12.44-1.42,1.46-.73,3.16-.55,4.8"/><path class="cls-27" d="M616.51,193.94c1.6.54,2.59,2,4,2.79"/><path class="cls-27" d="M609.15,184.25c.85,1.53.93,3.3,1.56,4.9,0,0,.07.08.11.11"/><path class="cls-27" d="M551.32,120.17c.62.61.66,1.49,1,2.23a1.89,1.89,0,0,0,.68,1"/><path class="cls-27" d="M711.45,222.92a8.07,8.07,0,0,1,1.24,3.9c0,.35-.32.14-.35.33"/><path class="cls-27" d="M628.43,190.16a10.4,10.4,0,0,0,3.12,2"/><path class="cls-27" d="M657.85,153.27c.66,1.18,2,1.24,3,1.78"/><path class="cls-27" d="M625.53,213.45a4.25,4.25,0,0,1-2.79,2.34"/><path class="cls-27" d="M620.74,141.12c.88.93,2.2.78,3.23,1.34"/><path class="cls-27" d="M578.84,189.49c-.4,0-.51.29-.78.67,1,1.12,2.41,1.89,3.45,3"/><path class="cls-27" d="M641.8,192.61a8.3,8.3,0,0,0,.25-1.78,1,1,0,0,0-.49-1.2,1.24,1.24,0,0,0-1.2.32,7.5,7.5,0,0,0-.9,1"/><path class="cls-27" d="M623,83.73c-.67,1.23-2,1.87-2.79,3"/><path class="cls-27" d="M663.2,169.32c-.87.78-1,1.47-.47,2.24a.67.67,0,0,0,.8.31c.33-.05.47-.3.45-.66,0-.71.05-1.44-.68-1.89"/><path class="cls-27" d="M563.8,103.46c-.86-.74-.73-2-1.65-2.77-.45.23-.52.7-.47,1.21.08.93-.12,1.85,0,2.79.06.52-.15.63-1,.78-.21-.62-.54-1.24-.08-1.9"/><path class="cls-27" d="M656.07,64.23,652.95,66"/><path class="cls-27" d="M677,80.5c.67,1,.24,2.08,0,3.12"/><path class="cls-27" d="M674.57,70.47a1.51,1.51,0,0,1-.42,1.13,3.5,3.5,0,0,0-.86,3.23,2.54,2.54,0,0,1-.8,2.71c-.75.67-.48,1.79-.15,2.74"/><path class="cls-27" d="M647.82,92.31a15.13,15.13,0,0,1-1.92,1.75c-.47.31-.42.64-.42,1a7.63,7.63,0,0,1-.34,2.9"/><path class="cls-27" d="M626.76,191.38c0,.61.49.79.9.87.63.12,1.16.48,1.78.58"/><path class="cls-27" d="M670.78,90c-.68.24-.43.89-.53,1.34a3.69,3.69,0,0,1-.36,1.44"/><path class="cls-27" d="M544.41,98a1.05,1.05,0,0,1,.58.66c.44,1.12.49,2.33.87,3.46.11.33-.11.6-.22.89"/><path class="cls-27" d="M547.3,70c-1.28.71-2.6.23-3.9.11"/><path class="cls-27" d="M612.61,170.65c1,.41,1.77,1.39,3,1.11"/><path class="cls-27" d="M673,74.37a2.16,2.16,0,0,0-.22,2.79"/><path class="cls-27" d="M702.2,156.5c0,.15.15.39.1.43-.78.6-.87,1.62-1.44,2.35"/><path class="cls-27" d="M715.46,254.79c-.37-.52-.43-.56-1-.33a7.91,7.91,0,0,1-3.23.66"/><path class="cls-27" d="M649.49,149.93a6.59,6.59,0,0,0,1.78.8c.33,0,.66.43.9-.13a.23.23,0,0,1,.33-.11c1.12.77,2.83.42,3.57,1.89"/><path class="cls-27" d="M690.28,95.21a5.72,5.72,0,0,0,2.79,1.2c.55.17,1,.56,1.66.47"/><path class="cls-27" d="M724.6,231.39a9.64,9.64,0,0,1-.56,3.12"/><path class="cls-27" d="M591.77,115.16a5.06,5.06,0,0,0-.23,2.12c0,.44.31.13.45.22"/><path class="cls-27" d="M629.21,188.93c.81.66,1.9.47,2.82.92.47.23,1.27-.49,1.63-1.15a1,1,0,0,1,.56-.55"/><path class="cls-27" d="M665.54,101.34a1.85,1.85,0,0,1-2,.88c-.49-.06-.67.18-.78.57"/><path class="cls-27" d="M610.6,177.51c.6,0,.56.43.56.84a8.62,8.62,0,0,0,.22,1.89"/><path class="cls-27" d="M695,102.12a5.92,5.92,0,0,0,2,.65c.16,0,.3,0,.45.12a3.89,3.89,0,0,1,0,3.13"/><path class="cls-27" d="M552.54,107.8a6.66,6.66,0,0,1,1.66.91c1.37.68,2.22.49,3.57-.91"/><path class="cls-27" d="M620.74,190.6c-1.48.87-2.36,2.33-3.45,3.57"/><path class="cls-27" d="M674.57,75.82c.93.35,1.25.15,1.69-1a1.71,1.71,0,0,0-1.13-.74"/><path class="cls-27" d="M588.31,64.34a10.37,10.37,0,0,1-2.67,1.45"/><path class="cls-27" d="M673.56,85c.6.62,1,1.47.64,1.87s0,.77,0,1.14"/><path class="cls-27" d="M554.44,133.66c.64.24.48.9.63,1.35a4.58,4.58,0,0,0,.48,1.1"/><path class="cls-27" d="M636.9,180.57a6.4,6.4,0,0,0-1.23,2.56"/><path class="cls-27" d="M667.66,106.19c.46,0,.57.27.55.61a4.3,4.3,0,0,1-.33,2"/><path class="cls-27" d="M631,166.75c-.16-.16-.26-.28-.57-.13-1.63.8-2.23,2.41-3.11,3.81-.14.23-.3.45-.44.67"/><path class="cls-27" d="M610.21,245.09a8,8,0,0,1,3.95,3,2,2,0,0,0,.68.66"/><path class="cls-27" d="M642.69,90.09c-.56.31-1.11,0-1.78,0a8.08,8.08,0,0,0-1.81,2.33c-.32.68-.8.29-1.21,0"/><path class="cls-27" d="M674.68,88.08c-.86-.1-1.25.51-.95,1.09s-.66,1-.19,1.61c.3.4,1,.63.81,1.32"/><path class="cls-27" d="M672.78,99.89c-.35.2-.67.41-.56.89a8.26,8.26,0,0,1-.16,2.79,14.37,14.37,0,0,1-.1,2c-.07.28-.06.78-.21,1-.53.64,0,.76.41,1.1-.57.5-1.14,1-.65,2,.2.4-.43.93-.62,1.42"/><path class="cls-27" d="M542.18,100.78c.08-.73-.3-1.59.6-2.11a3,3,0,0,1,.29,2.55"/><path class="cls-27" d="M676.35,72a2,2,0,0,1,0,2.45"/><path class="cls-27" d="M614.95,156.39a14.33,14.33,0,0,1,2.67,1.45"/><path class="cls-27" d="M637.23,180.35c.78.08,1.51.65,2.35.13.19-.12.35.29.54.42"/><path class="cls-27" d="M677.46,71c-.52.33-1,.68-1.56,1A1.67,1.67,0,0,0,675,73.7a2.16,2.16,0,0,1-.21.89,14.49,14.49,0,0,0-.68,5.79"/><path class="cls-27" d="M577.39,145.8c.3.76.08,1.66.67,2.34"/><path class="cls-27" d="M619.07,175.78c-1.06-1.05-2.52-1.36-3.81-2-.83-.39-1.61-1.1-2.66-.93"/><path class="cls-27" d="M672.89,95.66c.63,0,.68.46.87,1.07-.94-.46-1.2.72-2,.61"/><path class="cls-27" d="M620.74,185c.41.84,1.24.93,2,1.11"/><path class="cls-27" d="M712.79,227.15c1.14.06,1,1.13,1.45,1.78"/><path class="cls-27" d="M566.25,234.84a3.7,3.7,0,0,0,2.23.89"/><path class="cls-27" d="M618.51,172.88c.86,0,1.61.15,1.89,1.11"/><path class="cls-27" d="M556,103.79a3.09,3.09,0,0,0,.45,2.23"/><path class="cls-27" d="M632,190c-.25.73,0,1.5-.22,2.23"/><path class="cls-27" d="M628,167.31a15.91,15.91,0,0,1-1.12,1.44c-.69.71-.27,1.09.34,1.46"/><path class="cls-27" d="M652.61,63.9a11.52,11.52,0,0,0,.11,2.23"/><path class="cls-27" d="M587.2,80.95a2.22,2.22,0,0,0,0,2.12"/><path class="cls-27" d="M621.08,109.92a1.77,1.77,0,0,1,0,2.12"/><path class="cls-27" d="M674.9,82.06c.67-.05.57.51.32.64-1.18.61-1,1.27-.2,1.94-.07.66-.62.44-.9.66"/><path class="cls-27" d="M616.73,98.55c.64.41,1.46.52,2,1.13-.25.32,0,.81-.35,1.1"/><path class="cls-27" d="M550.2,109.48a4.57,4.57,0,0,1,.5,2.46c.13,1.45.31,2.89.39,4.34a.85.85,0,0,1-.23.56"/><path class="cls-27" d="M540.62,95.88a1.8,1.8,0,0,1,2.22.34c.47-.38,1.12-.29,1.56-.73.15.54.52,1,.46,1.5"/><path class="cls-27" d="M673.79,69.47c-.24.86-1,1.31-1.56,1.89"/><path class="cls-27" d="M565.91,101.79a16.86,16.86,0,0,1-2.9,2.45,1.2,1.2,0,0,1-1.22.34"/><path class="cls-27" d="M640.35,202.53a3.26,3.26,0,0,1-1.89,1.11"/><path class="cls-27" d="M696.74,103a3.68,3.68,0,0,0,.11,3"/><path class="cls-27" d="M573.94,175.11c-.45.52-.33,1.32-.89,1.78"/><path class="cls-27" d="M610.93,108.92c1.28.16,2.21,1.08,3.34,1.56"/><path class="cls-27" d="M640.35,218.24c.08.63.38,1.3-.33,1.78"/><path class="cls-27" d="M625.87,196.17c-1.39.64-2.4-.21-3.53-1-.43,1.11-2.09,1.63-1.26,3.23.37.25.9-.11,1.23.32"/><path class="cls-27" d="M695,102.46c-.31.68.26,1.25.22,1.89"/><path class="cls-27" d="M548.86,114.71c-.63.06-1.22.55-1.89.22"/><path class="cls-27" d="M620.74,140.57c-.07.83-.93.93-1.34,1.45-.23.29-.63.59,0,.89"/><path class="cls-27" d="M560,100.78a4.91,4.91,0,0,1,.38,1.67,1.33,1.33,0,0,0,1.07,1.45"/><path class="cls-27" d="M674.34,78.27c.85.34,1.52.82,1.44,1.95l-1.21.28"/><path class="cls-27" d="M727.94,235.18a2.3,2.3,0,0,0-3.23.11"/><path class="cls-27" d="M642.36,201a3.47,3.47,0,0,0-1.78,1.45"/><path class="cls-27" d="M541.51,90.31c-.34.23-.77,0-1.11.22-.73.49-.68.92.22,1.89"/><path class="cls-27" d="M704,246.43a9.49,9.49,0,0,0,1.23,1.67"/><path class="cls-27" d="M552.21,100.34c.5.54,1.15.44,1.78.45"/><path class="cls-27" d="M560.68,105.58c-.53.91-1.57,1.24-2.24,2-.29.32-.69.2-.87-.21a1.76,1.76,0,0,0-.68-1"/><path class="cls-27" d="M647.93,91.76c-.51-.44-1-.89-1.78-.67"/><path class="cls-27" d="M620.85,109.92a1.66,1.66,0,0,0,0,1.78"/><path class="cls-27" d="M673.67,91.65c-.55.56-.06,1.11,0,1.67-.94.78-.92,1.14.11,1.67"/><path class="cls-27" d="M553,119.28c.64-.15,1,.59,1.67.45"/><path class="cls-27" d="M716,227.82c-2,1.16-2.37,1.34-1.67,3.57"/><path class="cls-27" d="M680.58,186.81a19.59,19.59,0,0,0-1.34,2.34"/><path class="cls-27" d="M621.3,112.37c.42.93.12,1.94.33,2.9"/><path class="cls-27" d="M676.79,80.5c-.28,1-.74,2.08,0,3.12"/><path class="cls-27" d="M550.76,115.16H549.2"/><path class="cls-27" d="M639.24,114.82c1.07-.15,1.86.59,2.79.89"/><path class="cls-27" d="M675.35,76.16c-.15.81.58.82,1,1.11"/><path class="cls-27" d="M546.3,96.55c-.11,1,.79,1.23,1.39,1.67"/><path class="cls-27" d="M612.83,228.27c-.51-.13-1-.31-1.45.22"/><path class="cls-27" d="M614.05,227c-.34.93-1.29,1.44-1.67,2.34"/><path class="cls-27" d="M547.64,69.36c0,.42-.25.75-.15,1.23.16.78-.73,1.42-1.52,1.22-.4-.1-.79-.38-1.23-.11"/><path class="cls-27" d="M676.79,76.82c-.92.85-.19,1.71,0,2.56"/><path class="cls-27" d="M660.3,237.41a5.28,5.28,0,0,1,1.34.78"/><path class="cls-27" d="M587.64,85.18c-.55.45.2.89,0,1.34"/><path class="cls-27" d="M575.5,188.82c-.51-.22-.9-.75-1.56-.56"/><path class="cls-27" d="M617,200.74a4.76,4.76,0,0,1-3.57,1.45"/><path class="cls-27" d="M544.41,97.11a3.49,3.49,0,0,1-1.23-.67"/><path class="cls-27" d="M604.92,132.65c.53.06,0,.9.67.89"/><path class="cls-27" d="M547.86,98.22c.36.31.66.74,1.23.67"/><path class="cls-27" d="M618.74,144.69a1.09,1.09,0,0,1-1.23.22"/><path class="cls-27" d="M624.42,91c-.19.63.47,1.26,0,1.84.3.45.87.12,1.15.5"/><path class="cls-27" d="M621,198.4c-.39.33-1-.13-1.34.33"/><path class="cls-27" d="M543.52,71.59c-.21-.25-.57,0-.78-.22"/><path class="cls-27" d="M611.49,171.77c.07.38.48.41.67.67"/><path class="cls-27" d="M643.25,200.85a.89.89,0,0,1,.89,0"/><path class="cls-28" d="M542.29,72"/></g></g></svg>