<svg xmlns="http://www.w3.org/2000/svg" viewBox="0 0 907.33 538.5"><defs><style>.cls-1{fill:#010101;}.cls-2{fill:#2ba8e0;}.cls-3{fill:#1fa069;}</style></defs><title>home900</title><g id="Layer_2" data-name="Layer 2"><g id="Layer_1-2" data-name="Layer 1"><rect class="cls-1" width="907.33" height="538.5"/><path class="cls-2" d="M30.45,178.4h5.29l4.34,12,4.38-12H49.7l-6,15.76,5.28,13,11-28.92h6.14L51.5,213.66H46.71L40.13,197.8l-6.64,15.86H28.71L14.1,178.25h6.08l11.07,28.92,5.29-13Z"/><path class="cls-2" d="M78.22,214.15a13.74,13.74,0,0,1-5.53-1.07,12.77,12.77,0,0,1-4.27-2.92,13,13,0,0,1-2.74-4.28,13.88,13.88,0,0,1-1-5.19,14.06,14.06,0,0,1,1-5.21,13.39,13.39,0,0,1,2.74-4.34,12.82,12.82,0,0,1,4.27-2.94,14.06,14.06,0,0,1,5.58-1.07,13.26,13.26,0,0,1,5.51,1.1A13.09,13.09,0,0,1,88,191.14a12.4,12.4,0,0,1,2.67,4.24,14,14,0,0,1,.93,5.06c0,.4,0,.77,0,1.12s-.07.64-.1.88H70.54a8.92,8.92,0,0,0,.83,3.14A8.31,8.31,0,0,0,73.11,208a7.59,7.59,0,0,0,5.31,2.11,8.84,8.84,0,0,0,2.17-.27,7.61,7.61,0,0,0,2-.8,7.05,7.05,0,0,0,1.6-1.27,6,6,0,0,0,1.09-1.64l4.69,1.34a10.89,10.89,0,0,1-4.46,4.81A13.82,13.82,0,0,1,78.22,214.15Zm7.93-15.5a8.83,8.83,0,0,0-.82-3.05,7.69,7.69,0,0,0-1.72-2.36,7.6,7.6,0,0,0-2.45-1.52,7.88,7.88,0,0,0-2.94-.55,7.74,7.74,0,0,0-2.92.55,7.53,7.53,0,0,0-2.41,1.52,7.33,7.33,0,0,0-1.7,2.36,9.28,9.28,0,0,0-.8,3.05Z"/><path class="cls-2" d="M106.69,200.59a14.18,14.18,0,0,1,1-5.18,12.8,12.8,0,0,1,2.72-4.29,13,13,0,0,1,4.26-2.92,14.07,14.07,0,0,1,5.59-1.07,13.13,13.13,0,0,1,7,1.77,11.16,11.16,0,0,1,4.36,4.71l-5.33,1.7a6.81,6.81,0,0,0-2.54-2.57,6.93,6.93,0,0,0-3.54-.92,7.34,7.34,0,0,0-3.07.64,7.51,7.51,0,0,0-2.47,1.82,8.51,8.51,0,0,0-1.64,2.77,10,10,0,0,0-.6,3.54,9.65,9.65,0,0,0,.62,3.52,8.91,8.91,0,0,0,1.7,2.81,7.7,7.7,0,0,0,2.49,1.87,7,7,0,0,0,3,.68,7.67,7.67,0,0,0,3.81-1.05,6.87,6.87,0,0,0,1.45-1.15,4.37,4.37,0,0,0,.92-1.39l5.38,1.59a10.63,10.63,0,0,1-4.33,4.81,13.43,13.43,0,0,1-7.18,1.87,13.63,13.63,0,0,1-5.54-1.09,13,13,0,0,1-4.26-3,13.5,13.5,0,0,1-2.75-4.31A14.08,14.08,0,0,1,106.69,200.59Z"/><path class="cls-2" d="M150.92,192.31a12.37,12.37,0,0,0-5.66,1.47,7.74,7.74,0,0,0-3.51,3.92v16h-5.49V187.58h5.09v5.83a11.93,11.93,0,0,1,3.51-4.31,8.54,8.54,0,0,1,4.66-1.77h.83a2.52,2.52,0,0,1,.57,0Z"/><path class="cls-2" d="M165.43,214.15a13.74,13.74,0,0,1-5.53-1.07,12.77,12.77,0,0,1-4.27-2.92,13,13,0,0,1-2.74-4.28,13.88,13.88,0,0,1-1-5.19,14.06,14.06,0,0,1,1-5.21,13.39,13.39,0,0,1,2.74-4.34,12.82,12.82,0,0,1,4.27-2.94,14.06,14.06,0,0,1,5.58-1.07,13.29,13.29,0,0,1,5.51,1.1,13.09,13.09,0,0,1,4.21,2.91,12.4,12.4,0,0,1,2.67,4.24,14,14,0,0,1,.92,5.06,9.93,9.93,0,0,1,0,1.12c0,.35-.06.64-.1.88H157.75a9.13,9.13,0,0,0,.82,3.14,8.34,8.34,0,0,0,1.75,2.42,7.68,7.68,0,0,0,2.44,1.57,7.78,7.78,0,0,0,2.87.54,8.9,8.9,0,0,0,2.17-.27,7.61,7.61,0,0,0,2-.8,6.79,6.79,0,0,0,1.59-1.27,6.05,6.05,0,0,0,1.1-1.64l4.69,1.34a10.89,10.89,0,0,1-4.46,4.81A13.82,13.82,0,0,1,165.43,214.15Zm7.93-15.5a9.06,9.06,0,0,0-.82-3.05,7.86,7.86,0,0,0-1.72-2.36,7.6,7.6,0,0,0-2.45-1.52,7.88,7.88,0,0,0-2.94-.55,7.74,7.74,0,0,0-2.92.55,7.53,7.53,0,0,0-2.41,1.52,7.33,7.33,0,0,0-1.7,2.36,9.28,9.28,0,0,0-.8,3.05Z"/><path class="cls-2" d="M190.21,214.15a9.6,9.6,0,0,1-3.51-.62,8.45,8.45,0,0,1-2.8-1.72,8.1,8.1,0,0,1-1.84-2.59,7.8,7.8,0,0,1-.67-3.24,7,7,0,0,1,.79-3.34,7.89,7.89,0,0,1,2.27-2.6,11.11,11.11,0,0,1,3.49-1.69,15.69,15.69,0,0,1,4.47-.6,21.05,21.05,0,0,1,3.64.32,18.57,18.57,0,0,1,3.24.88v-1.8a6,6,0,0,0-1.65-4.51A6.47,6.47,0,0,0,192.9,191a11.55,11.55,0,0,0-4.11.77,21.17,21.17,0,0,0-4.16,2.22l-1.7-3.49a18.5,18.5,0,0,1,10.47-3.39c3.59,0,6.39.91,8.38,2.74s3,4.46,3,7.88v9.42c0,1.17.48,1.77,1.45,1.8v4.69c-.53.09-1,.16-1.37.19a10.92,10.92,0,0,1-1.13.05,3.52,3.52,0,0,1-2.46-.79,3.43,3.43,0,0,1-1.08-2.05l-.15-1.64a11.54,11.54,0,0,1-4.31,3.51A12.58,12.58,0,0,1,190.21,214.15Zm1.5-4a9.87,9.87,0,0,0,3.76-.72,6.47,6.47,0,0,0,2.77-2,2.53,2.53,0,0,0,1-1.89V202a17,17,0,0,0-6-1.15,8.37,8.37,0,0,0-4.81,1.27,3.92,3.92,0,0,0-1.87,3.37,4.23,4.23,0,0,0,1.45,3.26A5.25,5.25,0,0,0,191.71,210.11Z"/><path class="cls-2" d="M225.71,212.31a26.15,26.15,0,0,1-2.89,1.12,12.09,12.09,0,0,1-3.94.62,8.42,8.42,0,0,1-2.44-.34,6.16,6.16,0,0,1-2-1.05,4.77,4.77,0,0,1-1.37-1.82,6.74,6.74,0,0,1-.5-2.72v-16.3h-3.44v-4.24h3.44V179H218v8.58h5.68v4.24H218v14.56a2.64,2.64,0,0,0,.87,2,2.92,2.92,0,0,0,1.92.63,6,6,0,0,0,2.19-.4c.7-.27,1.21-.48,1.55-.65Z"/><path class="cls-2" d="M240.67,214.15a13.77,13.77,0,0,1-5.53-1.07,12.72,12.72,0,0,1-4.26-2.92,12.89,12.89,0,0,1-2.75-4.28,13.88,13.88,0,0,1-1-5.19,14.06,14.06,0,0,1,1-5.21,13.25,13.25,0,0,1,2.75-4.34,12.77,12.77,0,0,1,4.26-2.94,14.06,14.06,0,0,1,5.58-1.07,13.3,13.3,0,0,1,9.73,4,12.53,12.53,0,0,1,2.66,4.24,14,14,0,0,1,.93,5.06c0,.4,0,.77,0,1.12s-.07.64-.1.88H233a8.92,8.92,0,0,0,.83,3.14,8.5,8.5,0,0,0,1.74,2.42,7.64,7.64,0,0,0,5.31,2.11,8.84,8.84,0,0,0,2.17-.27,7.47,7.47,0,0,0,2-.8,7.05,7.05,0,0,0,1.6-1.27,6,6,0,0,0,1.09-1.64l4.69,1.34a10.83,10.83,0,0,1-4.46,4.81A13.82,13.82,0,0,1,240.67,214.15Zm7.93-15.5a8.83,8.83,0,0,0-.82-3.05,7.69,7.69,0,0,0-1.72-2.36,7.56,7.56,0,0,0-2.44-1.52,8,8,0,0,0-3-.55,7.82,7.82,0,0,0-5.33,2.07,7.33,7.33,0,0,0-1.7,2.36,9.28,9.28,0,0,0-.8,3.05Z"/><path class="cls-2" d="M285.35,212.31a27,27,0,0,1-2.89,1.12,12.14,12.14,0,0,1-3.94.62,8.48,8.48,0,0,1-2.45-.34,6.21,6.21,0,0,1-2-1.05,4.79,4.79,0,0,1-1.38-1.82,6.75,6.75,0,0,1-.49-2.72v-16.3h-3.45v-4.24h3.45V179h5.48v8.58h5.68v4.24h-5.68v14.56a2.71,2.71,0,0,0,.87,2,3,3,0,0,0,1.92.63,6,6,0,0,0,2.2-.4c.69-.27,1.21-.48,1.54-.65Z"/><path class="cls-2" d="M312.52,213.66H307V199.05q0-3.6-1.27-5.31A4.29,4.29,0,0,0,302.1,192a6.22,6.22,0,0,0-2.29.45,8.15,8.15,0,0,0-2.17,1.28,9.37,9.37,0,0,0-1.82,1.94,8.45,8.45,0,0,0-1.2,2.47v15.51h-5.48v-36.4h5.48v15.55a10.86,10.86,0,0,1,4.07-4.19,11,11,0,0,1,5.61-1.49,8.24,8.24,0,0,1,4,.87,7,7,0,0,1,2.52,2.32,9.36,9.36,0,0,1,1.32,3.37,21.14,21.14,0,0,1,.37,4.06Z"/><path class="cls-2" d="M330.72,214.15a13.77,13.77,0,0,1-5.53-1.07,12.72,12.72,0,0,1-4.26-2.92,12.89,12.89,0,0,1-2.75-4.28,13.88,13.88,0,0,1-1-5.19,14.06,14.06,0,0,1,1-5.21,13.25,13.25,0,0,1,2.75-4.34,12.77,12.77,0,0,1,4.26-2.94,14.06,14.06,0,0,1,5.58-1.07,13.3,13.3,0,0,1,9.73,4,12.53,12.53,0,0,1,2.66,4.24,14,14,0,0,1,.93,5.06c0,.4,0,.77,0,1.12s-.07.64-.1.88H323a8.92,8.92,0,0,0,.83,3.14,8.5,8.5,0,0,0,1.74,2.42,7.64,7.64,0,0,0,5.31,2.11,8.84,8.84,0,0,0,2.17-.27,7.47,7.47,0,0,0,2-.8,7.05,7.05,0,0,0,1.6-1.27,6,6,0,0,0,1.09-1.64l4.69,1.34a10.83,10.83,0,0,1-4.46,4.81A13.82,13.82,0,0,1,330.72,214.15Zm7.93-15.5a8.83,8.83,0,0,0-.82-3.05,7.69,7.69,0,0,0-1.72-2.36,7.5,7.5,0,0,0-2.45-1.52,7.88,7.88,0,0,0-2.94-.55,7.82,7.82,0,0,0-5.33,2.07,7.33,7.33,0,0,0-1.7,2.36,9.28,9.28,0,0,0-.8,3.05Z"/><path class="cls-2" d="M375,214.15a10.51,10.51,0,0,1-9.22-5.23v4.74h-4.84v-36.4h5.48v15.25a12.05,12.05,0,0,1,3.87-3.94,10.84,10.84,0,0,1,10.2-.32,11.77,11.77,0,0,1,3.66,3,13.54,13.54,0,0,1,2.34,4.34,16.21,16.21,0,0,1,.83,5.16,14.42,14.42,0,0,1-.95,5.24,13.66,13.66,0,0,1-2.59,4.26,12.16,12.16,0,0,1-3.92,2.87A11.56,11.56,0,0,1,375,214.15Zm-1.45-4.68a7.39,7.39,0,0,0,3.3-.73,8.13,8.13,0,0,0,2.56-1.92,8.68,8.68,0,0,0,1.67-2.76,9.26,9.26,0,0,0,.6-3.32,10.05,10.05,0,0,0-.57-3.36,9.23,9.23,0,0,0-1.6-2.85,8.06,8.06,0,0,0-2.44-2,6.59,6.59,0,0,0-3.12-.74,6.82,6.82,0,0,0-4.51,1.64,11.07,11.07,0,0,0-3,4v6.88a5.35,5.35,0,0,0,1.05,2.07,8.18,8.18,0,0,0,1.75,1.62,8,8,0,0,0,2.14,1.07A7.06,7.06,0,0,0,373.5,209.47Z"/><path class="cls-2" d="M404,214.15a13.74,13.74,0,0,1-5.53-1.07,12.77,12.77,0,0,1-4.27-2.92,13,13,0,0,1-2.74-4.28,13.88,13.88,0,0,1-1-5.19,14.06,14.06,0,0,1,1-5.21,13.39,13.39,0,0,1,2.74-4.34,12.82,12.82,0,0,1,4.27-2.94,14.06,14.06,0,0,1,5.58-1.07,13.29,13.29,0,0,1,5.51,1.1,13.09,13.09,0,0,1,4.21,2.91,12.4,12.4,0,0,1,2.67,4.24,14,14,0,0,1,.92,5.06,9.93,9.93,0,0,1-.05,1.12c0,.35-.06.64-.1.88H396.34a9.13,9.13,0,0,0,.82,3.14,8.34,8.34,0,0,0,1.75,2.42,7.68,7.68,0,0,0,2.44,1.57,7.78,7.78,0,0,0,2.87.54,8.9,8.9,0,0,0,2.17-.27,7.61,7.61,0,0,0,2-.8,6.79,6.79,0,0,0,1.59-1.27,6.05,6.05,0,0,0,1.1-1.64l4.69,1.34a10.85,10.85,0,0,1-4.47,4.81A13.76,13.76,0,0,1,404,214.15Zm7.93-15.5a9.06,9.06,0,0,0-.82-3.05,7.86,7.86,0,0,0-1.72-2.36,7.6,7.6,0,0,0-2.45-1.52,7.88,7.88,0,0,0-2.94-.55,7.83,7.83,0,0,0-5.34,2.07A7.45,7.45,0,0,0,397,195.6a9.28,9.28,0,0,0-.8,3.05Z"/><path class="cls-2" d="M431.34,214.15a20,20,0,0,1-6.25-1,15.65,15.65,0,0,1-5.36-2.92l2.19-3.49a20.15,20.15,0,0,0,4.64,2.57,13.1,13.1,0,0,0,4.68.87,6.93,6.93,0,0,0,3.87-.94,3,3,0,0,0,1.42-2.7,2.49,2.49,0,0,0-1.6-2.39,30.79,30.79,0,0,0-5-1.64c-1.63-.44-3-.85-4.19-1.25a10.58,10.58,0,0,1-2.84-1.4,4.86,4.86,0,0,1-1.6-1.84,5.93,5.93,0,0,1-.5-2.54,7.82,7.82,0,0,1,.78-3.55,7.51,7.51,0,0,1,2.14-2.61,9.39,9.39,0,0,1,3.22-1.62,13.79,13.79,0,0,1,4-.55,16.32,16.32,0,0,1,5.48.9,14.08,14.08,0,0,1,4.54,2.59l-2.35,3.29A12.19,12.19,0,0,0,430.9,191a6.63,6.63,0,0,0-3.52.87,3,3,0,0,0-1.42,2.77,2.74,2.74,0,0,0,.3,1.34,2.46,2.46,0,0,0,1,.95,7.51,7.51,0,0,0,1.75.72c.71.22,1.6.46,2.66.73,1.76.43,3.29.86,4.57,1.29a12.93,12.93,0,0,1,3.16,1.52,5.77,5.77,0,0,1,1.85,2,6.12,6.12,0,0,1,.6,2.82A7,7,0,0,1,439,212,12.23,12.23,0,0,1,431.34,214.15Z"/><path class="cls-2" d="M461.11,212.31a27,27,0,0,1-2.89,1.12,12.09,12.09,0,0,1-3.94.62,8.42,8.42,0,0,1-2.44-.34,6.16,6.16,0,0,1-2-1.05,4.77,4.77,0,0,1-1.37-1.82,6.58,6.58,0,0,1-.5-2.72v-16.3h-3.44v-4.24H448V179h5.48v8.58h5.69v4.24h-5.69v14.56a2.68,2.68,0,0,0,.88,2,2.91,2.91,0,0,0,1.91.63,6,6,0,0,0,2.2-.4c.7-.27,1.21-.48,1.54-.65Z"/><path class="cls-2" d="M491.73,212.31a27.28,27.28,0,0,1-2.9,1.12,12.08,12.08,0,0,1-3.93.62,8.48,8.48,0,0,1-2.45-.34,6.26,6.26,0,0,1-2-1.05,4.77,4.77,0,0,1-1.37-1.82,6.74,6.74,0,0,1-.5-2.72v-16.3h-3.44v-4.24h3.44V179h5.49v8.58h5.68v4.24h-5.68v14.56a2.64,2.64,0,0,0,.87,2,2.94,2.94,0,0,0,1.92.63,6,6,0,0,0,2.19-.4c.7-.27,1.22-.48,1.55-.65Z"/><path class="cls-2" d="M506.69,214.15a13.79,13.79,0,0,1-5.54-1.07,12.83,12.83,0,0,1-4.26-2.92,13,13,0,0,1-2.75-4.28,14.08,14.08,0,0,1-1-5.19,14.26,14.26,0,0,1,1-5.21,13.42,13.42,0,0,1,2.75-4.34,12.88,12.88,0,0,1,4.26-2.94,14.07,14.07,0,0,1,5.59-1.07,13.26,13.26,0,0,1,9.72,4,12.71,12.71,0,0,1,2.67,4.24,14.18,14.18,0,0,1,.92,5.06c0,.4,0,.77,0,1.12s-.07.64-.1.88H499a8.91,8.91,0,0,0,.82,3.14,8.5,8.5,0,0,0,1.74,2.42,7.64,7.64,0,0,0,5.31,2.11,8.78,8.78,0,0,0,2.17-.27,7.34,7.34,0,0,0,2-.8,7.05,7.05,0,0,0,1.6-1.27,6.29,6.29,0,0,0,1.1-1.64l4.68,1.34a10.77,10.77,0,0,1-4.46,4.81A13.81,13.81,0,0,1,506.69,214.15Zm7.92-15.5a8.83,8.83,0,0,0-.82-3.05,7.69,7.69,0,0,0-1.72-2.36,7.56,7.56,0,0,0-2.44-1.52,7.88,7.88,0,0,0-2.94-.55,7.66,7.66,0,0,0-2.92.55,7.58,7.58,0,0,0-2.42,1.52,7.48,7.48,0,0,0-1.7,2.36,9.27,9.27,0,0,0-.79,3.05Z"/><path class="cls-2" d="M522.84,200.59a14.18,14.18,0,0,1,.95-5.18,12.65,12.65,0,0,1,2.72-4.29,12.87,12.87,0,0,1,4.26-2.92,14.06,14.06,0,0,1,5.58-1.07,13.16,13.16,0,0,1,7,1.77,11.23,11.23,0,0,1,4.36,4.71l-5.33,1.7a6.88,6.88,0,0,0-6.09-3.49,7.3,7.3,0,0,0-3.06.64,7.51,7.51,0,0,0-2.47,1.82,8.71,8.71,0,0,0-1.65,2.77,10,10,0,0,0-.6,3.54,9.65,9.65,0,0,0,.63,3.52,8.89,8.89,0,0,0,1.69,2.81,7.85,7.85,0,0,0,2.5,1.87,6.91,6.91,0,0,0,3,.68,7.67,7.67,0,0,0,3.82-1.05,6.56,6.56,0,0,0,1.44-1.15,4.24,4.24,0,0,0,.93-1.39l5.38,1.59a10.6,10.6,0,0,1-4.34,4.81,13.38,13.38,0,0,1-7.18,1.87,13.61,13.61,0,0,1-5.53-1.09,12.85,12.85,0,0,1-4.26-3,13.33,13.33,0,0,1-2.75-4.31A13.88,13.88,0,0,1,522.84,200.59Z"/><path class="cls-2" d="M575.79,213.66h-5.48V199.05q0-3.6-1.27-5.31a4.29,4.29,0,0,0-3.67-1.73,6.22,6.22,0,0,0-2.29.45,8.15,8.15,0,0,0-2.17,1.28,9.37,9.37,0,0,0-1.82,1.94,8.45,8.45,0,0,0-1.2,2.47v15.51h-5.48v-36.4h5.48v15.55a10.86,10.86,0,0,1,4.07-4.19,11,11,0,0,1,5.61-1.49,8.21,8.21,0,0,1,4,.87,7,7,0,0,1,2.52,2.32,9.36,9.36,0,0,1,1.32,3.37,21.14,21.14,0,0,1,.37,4.06Z"/><path class="cls-2" d="M605.56,213.66h-5.48V199.05q0-3.69-1.18-5.36a3.94,3.94,0,0,0-3.46-1.68,6.7,6.7,0,0,0-2.39.45,8.42,8.42,0,0,0-2.25,1.28,9.58,9.58,0,0,0-1.87,1.94,8.89,8.89,0,0,0-1.27,2.47v15.51h-5.48V187.58h5v5.23a10.62,10.62,0,0,1,4.34-4.16,13.16,13.16,0,0,1,6.28-1.52,7.64,7.64,0,0,1,3.84.85,6.26,6.26,0,0,1,2.37,2.31,10.25,10.25,0,0,1,1.22,3.4,22.9,22.9,0,0,1,.35,4.06Z"/><path class="cls-2" d="M623.66,214.15a13.59,13.59,0,0,1-5.56-1.09,12.84,12.84,0,0,1-4.21-2.95,12.67,12.67,0,0,1-2.69-4.31,14.49,14.49,0,0,1,0-10.32,12.67,12.67,0,0,1,2.71-4.31,13.64,13.64,0,0,1,19.5,0,12.84,12.84,0,0,1,2.72,4.31,14.63,14.63,0,0,1,0,10.32,12.75,12.75,0,0,1-2.72,4.31,13.07,13.07,0,0,1-4.24,2.95A13.42,13.42,0,0,1,623.66,214.15Zm-7.78-13.46a9.84,9.84,0,0,0,.6,3.49,8.6,8.6,0,0,0,1.65,2.77,7.68,7.68,0,0,0,2.46,1.84,7.27,7.27,0,0,0,6.14,0,7.63,7.63,0,0,0,2.47-1.87,9,9,0,0,0,1.64-2.79,10.36,10.36,0,0,0,0-6.95,9.13,9.13,0,0,0-1.64-2.82,7.63,7.63,0,0,0-2.47-1.87,7.07,7.07,0,0,0-3.07-.67,6.85,6.85,0,0,0-3,.69,7.86,7.86,0,0,0-2.46,1.9,9.2,9.2,0,0,0-1.67,2.82A9.45,9.45,0,0,0,615.88,200.69Z"/><path class="cls-2" d="M642,177.26h5.48v28.87a3.21,3.21,0,0,0,.75,2.26,2.7,2.7,0,0,0,2.1.83,5,5,0,0,0,1.27-.2,12.94,12.94,0,0,0,1.37-.45l.8,4.29a13.43,13.43,0,0,1-2.84.87,15.11,15.11,0,0,1-3,.32,6,6,0,0,1-4.41-1.54,5.86,5.86,0,0,1-1.57-4.39Z"/><path class="cls-2" d="M668.69,214.15a13.52,13.52,0,0,1-5.56-1.09,12.79,12.79,0,0,1-6.91-7.26,14.49,14.49,0,0,1,0-10.32,12.69,12.69,0,0,1,2.72-4.31,13.61,13.61,0,0,1,19.49,0,12.69,12.69,0,0,1,2.72,4.31,14.49,14.49,0,0,1,0,10.32,12.59,12.59,0,0,1-2.72,4.31,13.13,13.13,0,0,1-4.23,2.95A13.48,13.48,0,0,1,668.69,214.15Zm-7.78-13.46a9.84,9.84,0,0,0,.6,3.49,8.41,8.41,0,0,0,1.64,2.77,7.72,7.72,0,0,0,2.47,1.84,7.25,7.25,0,0,0,6.13,0,7.52,7.52,0,0,0,2.47-1.87,8.81,8.81,0,0,0,1.65-2.79,10.53,10.53,0,0,0,0-6.95,9,9,0,0,0-1.65-2.82,7.52,7.52,0,0,0-2.47-1.87,7,7,0,0,0-3.06-.67,6.82,6.82,0,0,0-3,.69,7.9,7.9,0,0,0-2.47,1.9,9.55,9.55,0,0,0-2.29,6.28Z"/><path class="cls-2" d="M697.31,213.9a10.78,10.78,0,0,1-4.84-1.07,11.4,11.4,0,0,1-3.76-2.91,13.72,13.72,0,0,1-2.45-4.24,14.67,14.67,0,0,1-.87-5,15.26,15.26,0,0,1,.9-5.26,13.58,13.58,0,0,1,2.49-4.29,12,12,0,0,1,3.82-2.89,11.15,11.15,0,0,1,4.91-1.07,10.17,10.17,0,0,1,5.51,1.49,12.84,12.84,0,0,1,3.91,3.89v-4.93h4.84v25.33a11.51,11.51,0,0,1-1,5,10.63,10.63,0,0,1-2.92,3.72,13.24,13.24,0,0,1-4.41,2.32,18.29,18.29,0,0,1-5.48.79,15.71,15.71,0,0,1-7.21-1.47,13.59,13.59,0,0,1-4.81-4.11L689,216.3a9.75,9.75,0,0,0,3.86,3.19,12,12,0,0,0,5.07,1.1,11.22,11.22,0,0,0,3.21-.45,7.49,7.49,0,0,0,2.67-1.4,6.82,6.82,0,0,0,1.82-2.39,8.09,8.09,0,0,0,.67-3.44v-4a9.6,9.6,0,0,1-3.84,3.69A10.85,10.85,0,0,1,697.31,213.9Zm1.79-4.43a6.75,6.75,0,0,0,2.4-.43,8.27,8.27,0,0,0,2.11-1.14,8.48,8.48,0,0,0,1.68-1.65,6,6,0,0,0,1-2v-6.83a9.21,9.21,0,0,0-1.29-2.27,9.52,9.52,0,0,0-1.82-1.77,9,9,0,0,0-2.17-1.17,6.67,6.67,0,0,0-2.3-.42,6.54,6.54,0,0,0-3.21.77,7.56,7.56,0,0,0-2.42,2,9.82,9.82,0,0,0-1.55,2.87,10.19,10.19,0,0,0-.55,3.29,9,9,0,0,0,.63,3.37,8.46,8.46,0,0,0,4.29,4.61A7.47,7.47,0,0,0,699.1,209.47Z"/><path class="cls-2" d="M719.25,219.79c.5.1,1,.18,1.47.25a10.2,10.2,0,0,0,1.17.1,2.14,2.14,0,0,0,1.12-.28,3.16,3.16,0,0,0,1-1,9.75,9.75,0,0,0,1-2c.34-.85.75-1.94,1.22-3.26l-10.72-26.08h5.63l8.08,21.24,7.18-21.24h5.19l-11.82,32.11a8.14,8.14,0,0,1-2.77,3.76,8,8,0,0,1-5.06,1.52,10.83,10.83,0,0,1-1.25-.07,8.45,8.45,0,0,1-1.44-.32Z"/><path class="cls-2" d="M18.69,273.49V252.3H15.2v-4.24h3.49V247a11.85,11.85,0,0,1,2.24-7.63A7.39,7.39,0,0,1,27,236.59a11.49,11.49,0,0,1,3.14.43,14.17,14.17,0,0,1,3,1.17l-1.2,4.09a7.6,7.6,0,0,0-1.77-.75,7,7,0,0,0-2-.3,3.4,3.4,0,0,0-3,1.45,7.21,7.21,0,0,0-1,4.18v1.2h6.68v4.24H24.17v21.19Z"/><path class="cls-2" d="M45.36,274a13.59,13.59,0,0,1-5.56-1.1,12.75,12.75,0,0,1-6.9-7.25,14.49,14.49,0,0,1,0-10.32A12.71,12.71,0,0,1,35.61,251a13.31,13.31,0,0,1,4.24-2.94,14.35,14.35,0,0,1,11,0A13.2,13.2,0,0,1,55.11,251a12.73,12.73,0,0,1,2.72,4.32,14.49,14.49,0,0,1,0,10.32A12.79,12.79,0,0,1,55.11,270a13.2,13.2,0,0,1-4.24,2.94A13.42,13.42,0,0,1,45.36,274Zm-7.78-13.46a9.88,9.88,0,0,0,.6,3.49,8.66,8.66,0,0,0,1.65,2.76,7.6,7.6,0,0,0,2.47,1.85,7.35,7.35,0,0,0,6.13,0,7.52,7.52,0,0,0,2.47-1.87A9,9,0,0,0,52.54,264a10.39,10.39,0,0,0,0-7,8.94,8.94,0,0,0-1.64-2.82,7.66,7.66,0,0,0-2.47-1.87,7.21,7.21,0,0,0-3.07-.67,6.66,6.66,0,0,0-3,.7,7.87,7.87,0,0,0-2.47,1.89,9.2,9.2,0,0,0-1.67,2.82A9.5,9.5,0,0,0,37.58,260.53Z"/><path class="cls-2" d="M78.32,252.15a12.37,12.37,0,0,0-5.66,1.47,7.72,7.72,0,0,0-3.51,3.91v16H63.66V247.41h5.09v5.84a11.88,11.88,0,0,1,3.51-4.32,8.54,8.54,0,0,1,4.66-1.77h.83a3.27,3.27,0,0,1,.57.05Z"/><path class="cls-2" d="M107.94,272.14a26.68,26.68,0,0,1-2.89,1.13,12.41,12.41,0,0,1-3.94.62,8.37,8.37,0,0,1-2.44-.35,5.8,5.8,0,0,1-2-1.05,4.71,4.71,0,0,1-1.38-1.82,6.66,6.66,0,0,1-.49-2.71V251.65H91.34v-4.24h3.44v-8.57h5.48v8.57H106v4.24h-5.69v14.56a2.75,2.75,0,0,0,.87,2,3,3,0,0,0,1.92.62,6,6,0,0,0,2.2-.4c.7-.26,1.21-.48,1.54-.64Z"/><path class="cls-2" d="M135.11,273.49h-5.48V258.88a9,9,0,0,0-1.27-5.31,4.28,4.28,0,0,0-3.67-1.72,6.22,6.22,0,0,0-2.29.45,8.11,8.11,0,0,0-2.17,1.27,9.68,9.68,0,0,0-1.82,2,8.4,8.4,0,0,0-1.2,2.46v15.51h-5.48v-36.4h5.48v15.56a10.79,10.79,0,0,1,4.07-4.19,10.91,10.91,0,0,1,5.61-1.5,8.1,8.1,0,0,1,4,.88,7,7,0,0,1,2.52,2.31,9.43,9.43,0,0,1,1.32,3.37,21.21,21.21,0,0,1,.37,4.06Z"/><path class="cls-2" d="M153.31,274a14,14,0,0,1-5.53-1.07,13,13,0,0,1-4.26-2.92,13.2,13.2,0,0,1-2.75-4.29,13.86,13.86,0,0,1-1-5.18,14,14,0,0,1,1-5.21,13.31,13.31,0,0,1,2.75-4.34,12.59,12.59,0,0,1,4.26-2.94,13.89,13.89,0,0,1,5.58-1.08,13.42,13.42,0,0,1,5.51,1.1,13.11,13.11,0,0,1,4.22,2.92,12.34,12.34,0,0,1,2.66,4.24,14,14,0,0,1,.93,5.06c0,.4,0,.77-.05,1.12s-.07.64-.1.87h-20.9a8.86,8.86,0,0,0,.83,3.14,8.36,8.36,0,0,0,1.74,2.42,7.71,7.71,0,0,0,5.31,2.12,8.84,8.84,0,0,0,2.17-.27,7.83,7.83,0,0,0,2-.8,7.05,7.05,0,0,0,1.6-1.27,5.91,5.91,0,0,0,1.09-1.65l4.69,1.35a10.88,10.88,0,0,1-4.46,4.81A13.82,13.82,0,0,1,153.31,274Zm7.93-15.51a8.72,8.72,0,0,0-.82-3,7.86,7.86,0,0,0-1.72-2.37,7.73,7.73,0,0,0-2.44-1.52,8.17,8.17,0,0,0-2.95-.55,7.84,7.84,0,0,0-2.91.55,7.75,7.75,0,0,0-2.42,1.52,7.48,7.48,0,0,0-1.7,2.37,8.91,8.91,0,0,0-.79,3Z"/><path class="cls-2" d="M223.37,273.49h-5.49V258.88c0-2.43-.39-4.2-1.19-5.33a4,4,0,0,0-3.49-1.7,6.23,6.23,0,0,0-4.27,1.72,9.68,9.68,0,0,0-2.76,4.46v15.46h-5.49V258.88q0-3.69-1.19-5.36a4,4,0,0,0-3.45-1.67,6.36,6.36,0,0,0-4.28,1.7A9.47,9.47,0,0,0,189,258v15.51h-5.48V247.41h5v5.24a11.07,11.07,0,0,1,4.06-4.22,11.22,11.22,0,0,1,5.76-1.47,7.33,7.33,0,0,1,5.11,1.7,7.24,7.24,0,0,1,2.32,4.24,12,12,0,0,1,4.14-4.42,10.7,10.7,0,0,1,5.68-1.52,7.52,7.52,0,0,1,3.82.88,6.68,6.68,0,0,1,2.41,2.31,9.55,9.55,0,0,1,1.25,3.37,23,23,0,0,1,.35,4.06Z"/><path class="cls-2" d="M241.42,274a13.59,13.59,0,0,1-5.56-1.1,12.81,12.81,0,0,1-6.91-7.25,14.63,14.63,0,0,1,0-10.32,12.73,12.73,0,0,1,2.72-4.32,13.2,13.2,0,0,1,4.24-2.94,14.35,14.35,0,0,1,11,0,13.31,13.31,0,0,1,4.24,2.94,12.89,12.89,0,0,1,2.72,4.32,14.63,14.63,0,0,1,0,10.32,12.94,12.94,0,0,1-2.72,4.31,13.31,13.31,0,0,1-4.24,2.94A13.45,13.45,0,0,1,241.42,274Zm-7.78-13.46a9.88,9.88,0,0,0,.6,3.49,8.83,8.83,0,0,0,1.64,2.76,7.71,7.71,0,0,0,2.47,1.85,7.37,7.37,0,0,0,6.14,0,7.48,7.48,0,0,0,2.46-1.87A9,9,0,0,0,248.6,264a10.39,10.39,0,0,0,0-7,9,9,0,0,0-1.65-2.82,7.62,7.62,0,0,0-2.46-1.87,7.21,7.21,0,0,0-3.07-.67,6.73,6.73,0,0,0-3,.7,8,8,0,0,0-2.47,1.89,9.61,9.61,0,0,0-1.67,2.82A9.71,9.71,0,0,0,233.64,260.53Z"/><path class="cls-2" d="M269.19,274a20.06,20.06,0,0,1-6.26-1,16,16,0,0,1-5.36-2.92l2.2-3.49a20.15,20.15,0,0,0,4.64,2.57,13.06,13.06,0,0,0,4.68.87,6.92,6.92,0,0,0,3.87-.95,3.06,3.06,0,0,0,1.42-2.69,2.48,2.48,0,0,0-1.6-2.39,31.62,31.62,0,0,0-5-1.65c-1.63-.43-3-.85-4.19-1.25a10.44,10.44,0,0,1-2.84-1.39,4.8,4.8,0,0,1-1.6-1.85,5.87,5.87,0,0,1-.5-2.54,7.88,7.88,0,0,1,.77-3.54,7.66,7.66,0,0,1,2.15-2.62,9.7,9.7,0,0,1,3.21-1.62,14.15,14.15,0,0,1,4-.55,16.38,16.38,0,0,1,5.49.9,14.38,14.38,0,0,1,4.54,2.59l-2.35,3.29a12.25,12.25,0,0,0-7.73-2.89,6.53,6.53,0,0,0-3.51.88,3,3,0,0,0-1.42,2.76,2.81,2.81,0,0,0,.3,1.35,2.53,2.53,0,0,0,1,1,8.62,8.62,0,0,0,1.74.72q1.08.33,2.67.72c1.76.43,3.28.87,4.56,1.3a12.49,12.49,0,0,1,3.17,1.52,5.66,5.66,0,0,1,1.85,2,6.28,6.28,0,0,1,.59,2.82,7.08,7.08,0,0,1-2.81,5.91A12.23,12.23,0,0,1,269.19,274Z"/><path class="cls-2" d="M299,272.14a26.68,26.68,0,0,1-2.89,1.13,12.41,12.41,0,0,1-3.94.62,8.37,8.37,0,0,1-2.44-.35,5.8,5.8,0,0,1-2-1.05,4.71,4.71,0,0,1-1.38-1.82,6.66,6.66,0,0,1-.49-2.71V251.65h-3.44v-4.24h3.44v-8.57h5.48v8.57H297v4.24h-5.69v14.56a2.75,2.75,0,0,0,.87,2,3,3,0,0,0,1.92.62,6,6,0,0,0,2.2-.4c.7-.26,1.21-.48,1.54-.64Z"/><path class="cls-2" d="M315.06,243.12v-6h5.49v6Zm0,30.37V247.41h5.49v26.08Z"/><path class="cls-2" d="M350.52,273.49H345V258.88q0-3.69-1.17-5.36a4,4,0,0,0-3.47-1.67,6.78,6.78,0,0,0-2.39.45,8.33,8.33,0,0,0-2.24,1.27,9.91,9.91,0,0,0-1.87,2,8.84,8.84,0,0,0-1.27,2.46v15.51h-5.49V247.41h5v5.24a10.59,10.59,0,0,1,4.34-4.17,13.11,13.11,0,0,1,6.28-1.52,7.8,7.8,0,0,1,3.84.85,6.51,6.51,0,0,1,2.37,2.32,10.33,10.33,0,0,1,1.22,3.39,23,23,0,0,1,.35,4.06Z"/><path class="cls-2" d="M380.28,273.49H374.8V258.88q0-3.69-1.17-5.36a4,4,0,0,0-3.47-1.67,6.74,6.74,0,0,0-2.39.45,8.39,8.39,0,0,0-2.25,1.27,10.2,10.2,0,0,0-1.87,2,9.11,9.11,0,0,0-1.27,2.46v15.51H356.9V247.41h5v5.24a10.71,10.71,0,0,1,4.34-4.17,13.17,13.17,0,0,1,6.29-1.52,7.73,7.73,0,0,1,3.83.85,6.36,6.36,0,0,1,2.37,2.32,10.34,10.34,0,0,1,1.23,3.39,23,23,0,0,1,.34,4.06Z"/><path class="cls-2" d="M398.38,274a13.59,13.59,0,0,1-5.56-1.1,12.75,12.75,0,0,1-6.9-7.25,14.49,14.49,0,0,1,0-10.32,12.73,12.73,0,0,1,2.72-4.32,13.16,13.16,0,0,1,4.23-2.94,14.35,14.35,0,0,1,11,0,13.2,13.2,0,0,1,4.24,2.94,12.73,12.73,0,0,1,2.72,4.32,14.49,14.49,0,0,1,0,10.32,12.79,12.79,0,0,1-2.72,4.31,13.2,13.2,0,0,1-4.24,2.94A13.42,13.42,0,0,1,398.38,274Zm-7.78-13.46a9.88,9.88,0,0,0,.6,3.49,8.66,8.66,0,0,0,1.65,2.76,7.6,7.6,0,0,0,2.47,1.85,7.35,7.35,0,0,0,6.13,0,7.52,7.52,0,0,0,2.47-1.87,9,9,0,0,0,1.64-2.79,10.39,10.39,0,0,0,0-7,8.94,8.94,0,0,0-1.64-2.82,7.66,7.66,0,0,0-2.47-1.87,7.21,7.21,0,0,0-3.07-.67,6.66,6.66,0,0,0-3,.7,7.87,7.87,0,0,0-2.47,1.89,9.2,9.2,0,0,0-1.67,2.82A9.5,9.5,0,0,0,390.6,260.53Z"/><path class="cls-2" d="M423.07,273.49l-10-26.08h5.64l7.48,21.44,7.53-21.44h5.18l-10,26.08Z"/><path class="cls-2" d="M449.09,274a9.81,9.81,0,0,1-3.51-.62,8.57,8.57,0,0,1-2.79-1.72,8.17,8.17,0,0,1-1.85-2.6,7.73,7.73,0,0,1-.67-3.24,6.9,6.9,0,0,1,.8-3.34,7.64,7.64,0,0,1,2.27-2.59,11,11,0,0,1,3.49-1.7,15.57,15.57,0,0,1,4.46-.6,20.12,20.12,0,0,1,3.64.33,19.52,19.52,0,0,1,3.24.87V257a6.05,6.05,0,0,0-1.65-4.52,6.45,6.45,0,0,0-4.73-1.62,11.36,11.36,0,0,0-4.12.78,20.85,20.85,0,0,0-4.16,2.21l-1.7-3.49A18.51,18.51,0,0,1,452.29,247q5.38,0,8.37,2.75c2,1.82,3,4.45,3,7.87V267c0,1.16.49,1.76,1.45,1.79v4.69a13.33,13.33,0,0,1-1.37.2c-.38,0-.76.05-1.12.05a3.53,3.53,0,0,1-2.47-.8,3.39,3.39,0,0,1-1.07-2l-.15-1.65a11.7,11.7,0,0,1-4.32,3.52A12.69,12.69,0,0,1,449.09,274Zm1.5-4a9.87,9.87,0,0,0,3.76-.72,6.49,6.49,0,0,0,2.77-2,2.53,2.53,0,0,0,1.05-1.9v-3.44a16.75,16.75,0,0,0-6-1.14,8.38,8.38,0,0,0-4.82,1.27,3.9,3.9,0,0,0-1.87,3.36,4.27,4.27,0,0,0,1.45,3.27A5.25,5.25,0,0,0,450.59,270Z"/><path class="cls-2" d="M484.6,272.14a27,27,0,0,1-2.9,1.13,12.35,12.35,0,0,1-3.93.62,8.48,8.48,0,0,1-2.45-.35,5.89,5.89,0,0,1-2-1.05,4.69,4.69,0,0,1-1.37-1.82,6.66,6.66,0,0,1-.5-2.71V251.65H468v-4.24h3.44v-8.57h5.49v8.57h5.68v4.24h-5.68v14.56a2.68,2.68,0,0,0,.87,2,2.93,2.93,0,0,0,1.92.62,6,6,0,0,0,2.19-.4c.7-.26,1.22-.48,1.55-.64Z"/><path class="cls-2" d="M488.39,243.12v-6h5.48v6Zm0,30.37V247.41h5.48v26.08Z"/><path class="cls-2" d="M507.78,273.49l-10-26.08h5.63l7.48,21.44,7.53-21.44h5.19l-10,26.08Z"/><path class="cls-2" d="M538.45,274a14,14,0,0,1-5.54-1.07,13,13,0,0,1-4.26-2.92,13.17,13.17,0,0,1-2.74-4.29,13.87,13.87,0,0,1-1-5.18,14,14,0,0,1,1-5.21,13.29,13.29,0,0,1,2.74-4.34,12.59,12.59,0,0,1,4.26-2.94A13.93,13.93,0,0,1,538.5,247a13.49,13.49,0,0,1,5.51,1.1,13.06,13.06,0,0,1,4.21,2.92,12.52,12.52,0,0,1,2.67,4.24,14.18,14.18,0,0,1,.92,5.06c0,.4,0,.77,0,1.12s-.07.64-.1.87H530.77a8.86,8.86,0,0,0,.82,3.14,8.21,8.21,0,0,0,1.75,2.42,7.66,7.66,0,0,0,5.31,2.12,8.9,8.9,0,0,0,2.17-.27,8,8,0,0,0,2-.8,7,7,0,0,0,1.59-1.27,6,6,0,0,0,1.1-1.65l4.69,1.35a10.91,10.91,0,0,1-4.47,4.81A13.78,13.78,0,0,1,538.45,274Zm7.93-15.51a8.73,8.73,0,0,0-.83-3,7.86,7.86,0,0,0-1.72-2.37,7.73,7.73,0,0,0-2.44-1.52,8.08,8.08,0,0,0-2.94-.55,7.83,7.83,0,0,0-5.34,2.07,7.46,7.46,0,0,0-1.69,2.37,8.92,8.92,0,0,0-.8,3Z"/><path class="cls-2" d="M28.91,333.82a13.56,13.56,0,0,1-5.56-1.09,12.71,12.71,0,0,1-6.91-7.26,14.49,14.49,0,0,1,0-10.32,12.79,12.79,0,0,1,2.72-4.31,13.2,13.2,0,0,1,4.24-2.94,13.42,13.42,0,0,1,5.51-1.1,13.49,13.49,0,0,1,5.51,1.1,13.31,13.31,0,0,1,4.24,2.94,12.76,12.76,0,0,1,2.71,4.31,14.49,14.49,0,0,1,0,10.32,12.71,12.71,0,0,1-2.71,4.32,13.31,13.31,0,0,1-4.24,2.94A13.48,13.48,0,0,1,28.91,333.82Zm-7.78-13.46a9.8,9.8,0,0,0,.6,3.49,8.58,8.58,0,0,0,1.64,2.77,7.57,7.57,0,0,0,2.47,1.84,7.25,7.25,0,0,0,6.13,0,7.39,7.39,0,0,0,2.47-1.87,8.81,8.81,0,0,0,1.65-2.79,10.36,10.36,0,0,0,0-6.95A9,9,0,0,0,34.44,314,7.52,7.52,0,0,0,32,312.16a7,7,0,0,0-3.06-.67,6.82,6.82,0,0,0-3,.69,7.9,7.9,0,0,0-2.47,1.9,9.4,9.4,0,0,0-1.67,2.82A9.66,9.66,0,0,0,21.13,320.36Z"/><path class="cls-2" d="M61.87,312a12.22,12.22,0,0,0-5.66,1.48,7.7,7.7,0,0,0-3.52,3.91v16H47.21V307.25h5.08v5.83a12,12,0,0,1,3.52-4.31A8.51,8.51,0,0,1,60.47,307h.82a3.3,3.3,0,0,1,.58.05Z"/><path class="cls-2" d="M74.88,333.58A10.84,10.84,0,0,1,70,332.5a11.5,11.5,0,0,1-3.76-2.91,13.7,13.7,0,0,1-2.44-4.24,14.45,14.45,0,0,1-.88-5,15.26,15.26,0,0,1,.9-5.26,13.58,13.58,0,0,1,2.49-4.29,12.1,12.1,0,0,1,3.82-2.89,11.22,11.22,0,0,1,4.91-1.07,10.17,10.17,0,0,1,5.51,1.49,12.73,12.73,0,0,1,3.91,3.89v-4.93h4.84v25.33a11.51,11.51,0,0,1-1,5,10.6,10.6,0,0,1-2.91,3.72A13.21,13.21,0,0,1,81,343.65a18.24,18.24,0,0,1-5.48.8A15.76,15.76,0,0,1,68.27,343a13.67,13.67,0,0,1-4.81-4.11L66.55,336a9.71,9.71,0,0,0,3.87,3.19,11.9,11.9,0,0,0,5.06,1.1,11.34,11.34,0,0,0,3.22-.45,7.45,7.45,0,0,0,2.66-1.4A6.7,6.7,0,0,0,83.18,336a8.09,8.09,0,0,0,.68-3.44v-4A9.6,9.6,0,0,1,80,332.28,10.87,10.87,0,0,1,74.88,333.58Zm1.8-4.44a6.7,6.7,0,0,0,2.39-.43,8.5,8.5,0,0,0,2.12-1.14,8.17,8.17,0,0,0,1.67-1.65,6,6,0,0,0,1-2v-6.83a9.57,9.57,0,0,0-1.3-2.27,9.24,9.24,0,0,0-1.82-1.77,8.62,8.62,0,0,0-2.17-1.17,6.83,6.83,0,0,0-5.51.35,7.8,7.8,0,0,0-2.42,2,9.79,9.79,0,0,0-1.54,2.87,9.92,9.92,0,0,0-.55,3.29,9.17,9.17,0,0,0,.62,3.37,8.78,8.78,0,0,0,1.72,2.74,8.54,8.54,0,0,0,2.57,1.87A7.34,7.34,0,0,0,76.68,329.14Z"/><path class="cls-2" d="M102.85,333.82a9.6,9.6,0,0,1-3.51-.62,8.41,8.41,0,0,1-2.79-1.72A7.85,7.85,0,0,1,94,325.65a6.87,6.87,0,0,1,.8-3.34,7.85,7.85,0,0,1,2.26-2.6,11.06,11.06,0,0,1,3.5-1.69,15.57,15.57,0,0,1,4.46-.6,21.05,21.05,0,0,1,3.64.32,18.57,18.57,0,0,1,3.24.88v-1.8a6,6,0,0,0-1.65-4.51,6.45,6.45,0,0,0-4.73-1.62,11.57,11.57,0,0,0-4.12.77,21.45,21.45,0,0,0-4.16,2.22l-1.7-3.49a18.51,18.51,0,0,1,10.48-3.39q5.39,0,8.37,2.74c2,1.83,3,4.46,3,7.88v9.42c0,1.17.49,1.77,1.45,1.8v4.69c-.53.1-1,.16-1.37.2s-.76.05-1.12.05a3.53,3.53,0,0,1-2.47-.8,3.41,3.41,0,0,1-1.07-2l-.15-1.64a11.57,11.57,0,0,1-4.32,3.51A12.58,12.58,0,0,1,102.85,333.82Zm1.5-4a9.88,9.88,0,0,0,3.76-.73,6.41,6.41,0,0,0,2.77-2,2.53,2.53,0,0,0,1.05-1.89v-3.44a17,17,0,0,0-6-1.15,8.38,8.38,0,0,0-4.82,1.27,3.92,3.92,0,0,0-1.87,3.37,4.26,4.26,0,0,0,1.45,3.26A5.21,5.21,0,0,0,104.35,329.79Z"/><path class="cls-2" d="M147.43,333.33H142V318.72c0-2.46-.4-4.25-1.18-5.36a3.93,3.93,0,0,0-3.46-1.67,6.91,6.91,0,0,0-2.39.44,8.42,8.42,0,0,0-2.25,1.28,9.58,9.58,0,0,0-1.87,1.94,8.89,8.89,0,0,0-1.27,2.47v15.51h-5.48V307.25h5v5.23a10.56,10.56,0,0,1,4.34-4.16,13.13,13.13,0,0,1,6.28-1.52,7.69,7.69,0,0,1,3.84.85,6.28,6.28,0,0,1,2.37,2.32,10.11,10.11,0,0,1,1.22,3.39,22.9,22.9,0,0,1,.35,4.06Z"/><path class="cls-2" d="M153.81,303v-6h5.49v6Zm0,30.37V307.25h5.49v26.08Z"/><path class="cls-2" d="M164,329.89l15.66-18.75H164.53v-3.89h20.9v3.44l-15.56,18.75h15.7v3.89H164Z"/><path class="cls-2" d="M197.39,333.82a9.6,9.6,0,0,1-3.51-.62,8.45,8.45,0,0,1-2.8-1.72,8,8,0,0,1-1.84-2.59,7.8,7.8,0,0,1-.67-3.24,7,7,0,0,1,.79-3.34,8,8,0,0,1,2.27-2.6,11.11,11.11,0,0,1,3.49-1.69,15.69,15.69,0,0,1,4.47-.6,21.05,21.05,0,0,1,3.64.32,18.57,18.57,0,0,1,3.24.88v-1.8a6,6,0,0,0-1.65-4.51,6.47,6.47,0,0,0-4.74-1.62,11.55,11.55,0,0,0-4.11.77,21.17,21.17,0,0,0-4.16,2.22l-1.7-3.49a18.5,18.5,0,0,1,10.47-3.39c3.59,0,6.39.91,8.38,2.74s3,4.46,3,7.88v9.42c0,1.17.48,1.77,1.45,1.8v4.69c-.53.1-1,.16-1.37.2s-.76.05-1.13.05a3.52,3.52,0,0,1-2.46-.8,3.43,3.43,0,0,1-1.08-2l-.15-1.64a11.54,11.54,0,0,1-4.31,3.51A12.58,12.58,0,0,1,197.39,333.82Zm1.5-4a9.88,9.88,0,0,0,3.76-.73,6.47,6.47,0,0,0,2.77-2,2.53,2.53,0,0,0,1.05-1.89v-3.44a17,17,0,0,0-6-1.15,8.37,8.37,0,0,0-4.81,1.27,3.92,3.92,0,0,0-1.87,3.37,4.23,4.23,0,0,0,1.45,3.26A5.21,5.21,0,0,0,198.89,329.79Z"/><path class="cls-2" d="M232.89,332A26.15,26.15,0,0,1,230,333.1a12.09,12.09,0,0,1-3.94.62,8.42,8.42,0,0,1-2.44-.34,6.16,6.16,0,0,1-2-1.05,4.77,4.77,0,0,1-1.37-1.82,6.71,6.71,0,0,1-.5-2.72v-16.3h-3.44v-4.24h3.44v-8.58h5.49v8.58h5.68v4.24h-5.68v14.56a2.68,2.68,0,0,0,.87,2,3,3,0,0,0,1.92.62,6,6,0,0,0,2.19-.4c.7-.27,1.21-.48,1.55-.65Z"/><path class="cls-2" d="M236.68,303v-6h5.49v6Zm0,30.37V307.25h5.49v26.08Z"/><path class="cls-2" d="M260.47,333.82a13.56,13.56,0,0,1-5.56-1.09,12.71,12.71,0,0,1-6.91-7.26,14.49,14.49,0,0,1,0-10.32,12.79,12.79,0,0,1,2.72-4.31A13.2,13.2,0,0,1,255,307.9a13.64,13.64,0,0,1,15.26,2.94,12.92,12.92,0,0,1,2.71,4.31,14.49,14.49,0,0,1,0,10.32,12.86,12.86,0,0,1-2.71,4.32,13.31,13.31,0,0,1-4.24,2.94A13.48,13.48,0,0,1,260.47,333.82Zm-7.78-13.46a9.8,9.8,0,0,0,.6,3.49,8.58,8.58,0,0,0,1.64,2.77,7.57,7.57,0,0,0,2.47,1.84,7.25,7.25,0,0,0,6.13,0,7.39,7.39,0,0,0,2.47-1.87,8.81,8.81,0,0,0,1.65-2.79,10.36,10.36,0,0,0,0-6.95A9,9,0,0,0,266,314a7.52,7.52,0,0,0-2.47-1.87,7,7,0,0,0-3.06-.67,6.82,6.82,0,0,0-3,.69,7.9,7.9,0,0,0-2.47,1.9,9.4,9.4,0,0,0-1.67,2.82A9.66,9.66,0,0,0,252.69,320.36Z"/><path class="cls-2" d="M302.15,333.33h-5.48V318.72q0-3.69-1.17-5.36a4,4,0,0,0-3.47-1.67,6.91,6.91,0,0,0-2.39.44,8.42,8.42,0,0,0-2.25,1.28,9.58,9.58,0,0,0-1.87,1.94,8.89,8.89,0,0,0-1.27,2.47v15.51h-5.48V307.25h5v5.23a10.62,10.62,0,0,1,4.34-4.16,13.16,13.16,0,0,1,6.28-1.52,7.64,7.64,0,0,1,3.84.85,6.28,6.28,0,0,1,2.37,2.32,10.11,10.11,0,0,1,1.22,3.39,22,22,0,0,1,.35,4.06Z"/><path class="cls-2" d="M318,333.82a20,20,0,0,1-6.26-1,15.9,15.9,0,0,1-5.36-2.91l2.19-3.49a20.3,20.3,0,0,0,4.64,2.56,13.13,13.13,0,0,0,4.69.88,6.89,6.89,0,0,0,3.86-.95,3,3,0,0,0,1.42-2.69,2.5,2.5,0,0,0-1.59-2.4,32.39,32.39,0,0,0-5-1.64c-1.63-.43-3-.85-4.19-1.25a10.58,10.58,0,0,1-2.84-1.4,4.83,4.83,0,0,1-1.59-1.84,5.78,5.78,0,0,1-.5-2.54,7.75,7.75,0,0,1,.77-3.54A7.54,7.54,0,0,1,310.4,309a9.48,9.48,0,0,1,3.22-1.62,13.79,13.79,0,0,1,4-.55,16.28,16.28,0,0,1,5.48.9,14.08,14.08,0,0,1,4.54,2.59l-2.34,3.29a12.23,12.23,0,0,0-7.73-2.89,6.63,6.63,0,0,0-3.52.87,3,3,0,0,0-1.42,2.77,2.74,2.74,0,0,0,.3,1.34,2.53,2.53,0,0,0,1,.95,7.51,7.51,0,0,0,1.75.72c.71.22,1.6.46,2.67.73q2.64.65,4.56,1.29a12.65,12.65,0,0,1,3.17,1.53,5.63,5.63,0,0,1,1.84,2,6.12,6.12,0,0,1,.6,2.82,7.07,7.07,0,0,1-2.82,5.91A12.28,12.28,0,0,1,318,333.82Z"/><path class="cls-2" d="M333,333.33v-6.39h4.53v6.39Z"/><path class="cls-3" d="M32.16,370.49H26v15.84H24.74V370.49h-6.2v-1.1H32.16Z"/><path class="cls-3" d="M44.57,386.33H43.38v-6.92q0-4.61-3.08-4.6a4,4,0,0,0-1.49.28,4.85,4.85,0,0,0-1.36.81,6,6,0,0,0-1.11,1.23,5.43,5.43,0,0,0-.72,1.52v7.68H34.43V368.91h1.19v8a6,6,0,0,1,2.11-2.31,5.34,5.34,0,0,1,2.9-.86,3.85,3.85,0,0,1,1.77.38,3.4,3.4,0,0,1,1.23,1.1,5,5,0,0,1,.72,1.73,10.5,10.5,0,0,1,.22,2.28Z"/><path class="cls-3" d="M53.45,386.57a5.75,5.75,0,0,1-2.43-.51,6,6,0,0,1-2-1.41,6.64,6.64,0,0,1-1.29-2.06,6.74,6.74,0,0,1-.46-2.51,6.53,6.53,0,0,1,1.74-4.5,6,6,0,0,1,6.75-1.36,6,6,0,0,1,1.93,1.39,6.13,6.13,0,0,1,1.27,2,6.74,6.74,0,0,1,.45,2.45v.3a1,1,0,0,1,0,.23H48.56a5.31,5.31,0,0,0,.5,2,5.79,5.79,0,0,0,1.08,1.59,5.17,5.17,0,0,0,1.52,1.05,4.52,4.52,0,0,0,1.84.38,4.46,4.46,0,0,0,1.26-.18,5,5,0,0,0,1.16-.49,4.14,4.14,0,0,0,.95-.75,3.63,3.63,0,0,0,.66-1l1,.29a4.06,4.06,0,0,1-.78,1.23,5.33,5.33,0,0,1-1.19,1,6,6,0,0,1-1.49.63A5.86,5.86,0,0,1,53.45,386.57Zm4.87-6.92a5.6,5.6,0,0,0-.49-2,5.35,5.35,0,0,0-1.08-1.57,4.74,4.74,0,0,0-1.51-1,4.76,4.76,0,0,0-3.68,0,4.85,4.85,0,0,0-1.51,1,5,5,0,0,0-1,1.58,6.17,6.17,0,0,0-.47,2Z"/><path class="cls-3" d="M74.28,386.57a5,5,0,0,1-2.85-.85,7,7,0,0,1-2-2.06v7.76H68.22v-17.5h1.1v2.49a6,6,0,0,1,2-2,5.12,5.12,0,0,1,2.68-.75,5.25,5.25,0,0,1,2.39.55,5.93,5.93,0,0,1,1.88,1.44A6.87,6.87,0,0,1,80,380.15a7.46,7.46,0,0,1-.4,2.46,6.35,6.35,0,0,1-1.16,2.05,5.47,5.47,0,0,1-1.8,1.4A5.23,5.23,0,0,1,74.28,386.57ZM74,385.5a4.12,4.12,0,0,0,2-.46,4.78,4.78,0,0,0,1.51-1.2,5.43,5.43,0,0,0,1-1.72,6,6,0,0,0,.34-2,5.44,5.44,0,0,0-.39-2,5.24,5.24,0,0,0-1.06-1.7,5.18,5.18,0,0,0-1.59-1.19,4.37,4.37,0,0,0-1.93-.44,3.73,3.73,0,0,0-1.37.28,5.68,5.68,0,0,0-1.37.74,5,5,0,0,0-1.1,1.06,2.58,2.58,0,0,0-.53,1.26v4.08a5.65,5.65,0,0,0,.79,1.29,6,6,0,0,0,1.08,1.05,4.6,4.6,0,0,0,1.28.71A4.4,4.4,0,0,0,74,385.5Z"/><path class="cls-3" d="M88.7,375A4.86,4.86,0,0,0,84,378.58v7.75H82.83V373.92H84V377a6,6,0,0,1,1.71-2.14A4.38,4.38,0,0,1,88,373.9a3.32,3.32,0,0,1,.43,0h.31Z"/><path class="cls-3" d="M95.62,386.57a5.83,5.83,0,0,1-2.44-.51,6,6,0,0,1-1.94-1.41A6.64,6.64,0,0,1,90,382.59a6.75,6.75,0,0,1-.47-2.51,6.6,6.6,0,0,1,1.75-4.5A6,6,0,0,1,98,374.22a6,6,0,0,1,1.93,1.39,6.29,6.29,0,0,1,1.27,2,6.74,6.74,0,0,1,.45,2.45v.3a1,1,0,0,1,0,.23H90.73a5.31,5.31,0,0,0,.5,2,5.58,5.58,0,0,0,1.08,1.59,5.17,5.17,0,0,0,1.52,1.05,4.52,4.52,0,0,0,1.84.38,4.46,4.46,0,0,0,1.26-.18,5.18,5.18,0,0,0,1.16-.49,4.37,4.37,0,0,0,1-.75,3.63,3.63,0,0,0,.66-1l1,.29a4.26,4.26,0,0,1-.78,1.23,5.33,5.33,0,0,1-1.19,1,6,6,0,0,1-1.49.63A5.86,5.86,0,0,1,95.62,386.57Zm4.87-6.92a5.6,5.6,0,0,0-.49-2,5.35,5.35,0,0,0-1.08-1.57,4.74,4.74,0,0,0-1.51-1,4.76,4.76,0,0,0-3.68,0,4.74,4.74,0,0,0-1.51,1,5,5,0,0,0-1,1.58,5.92,5.92,0,0,0-.47,2Z"/><path class="cls-3" d="M122.49,386.33H121.3v-6.92a6.58,6.58,0,0,0-.73-3.48,2.47,2.47,0,0,0-2.23-1.12,3.79,3.79,0,0,0-1.46.28,4.41,4.41,0,0,0-1.26.8,4.73,4.73,0,0,0-1,1.22,6.42,6.42,0,0,0-.66,1.56v7.66h-1.19v-6.92a6.56,6.56,0,0,0-.72-3.49,2.46,2.46,0,0,0-2.22-1.11,3.84,3.84,0,0,0-1.44.27,4.3,4.3,0,0,0-1.26.79,5.52,5.52,0,0,0-1,1.22,6.09,6.09,0,0,0-.68,1.56v7.68h-1.19V373.92h1.12v3a6.15,6.15,0,0,1,2-2.34,4.86,4.86,0,0,1,2.75-.83,3.54,3.54,0,0,1,2.55.93,3.94,3.94,0,0,1,1.17,2.43q1.77-3.36,4.87-3.36a3.12,3.12,0,0,1,2.9,1.44,7.89,7.89,0,0,1,.87,4.05Z"/><path class="cls-3" d="M126.09,371.11v-2.2h1.2v2.2Zm0,15.22V373.92h1.2v12.41Z"/><path class="cls-3" d="M136.31,386.57a5.83,5.83,0,0,1-2.44-.51,5.91,5.91,0,0,1-1.94-1.41,6.64,6.64,0,0,1-1.29-2.06,6.75,6.75,0,0,1-.47-2.51,6.58,6.58,0,0,1,.47-2.47,6.36,6.36,0,0,1,1.28-2,6,6,0,0,1,6.75-1.36,6,6,0,0,1,1.93,1.39,6.47,6.47,0,0,1,1.27,2,6.74,6.74,0,0,1,.45,2.45v.3a1,1,0,0,1,0,.23H131.41a5.51,5.51,0,0,0,.51,2,5.58,5.58,0,0,0,1.08,1.59,5,5,0,0,0,1.52,1.05,4.51,4.51,0,0,0,1.83.38,4.58,4.58,0,0,0,1.27-.18,5.18,5.18,0,0,0,1.16-.49,4.62,4.62,0,0,0,.95-.75,3.63,3.63,0,0,0,.66-1l1.05.29a4.26,4.26,0,0,1-.78,1.23,5.33,5.33,0,0,1-1.19,1,6.18,6.18,0,0,1-1.49.63A5.86,5.86,0,0,1,136.31,386.57Zm4.86-6.92a5.6,5.6,0,0,0-.48-2,5.35,5.35,0,0,0-1.08-1.57,4.85,4.85,0,0,0-1.51-1,4.76,4.76,0,0,0-3.68,0,4.74,4.74,0,0,0-1.51,1,5,5,0,0,0-1,1.58,5.92,5.92,0,0,0-.47,2Z"/><path class="cls-3" d="M150.82,375a4.86,4.86,0,0,0-4.68,3.58v7.75H145V373.92h1.14V377a6,6,0,0,1,1.71-2.14,4.31,4.31,0,0,1,2.28-.94,3.24,3.24,0,0,1,.43,0h.31Z"/><path class="cls-3" d="M164.92,385.71c-.13.07-.29.14-.5.23s-.44.17-.71.26a5.42,5.42,0,0,1-1.82.3,3.19,3.19,0,0,1-2-.63,2.31,2.31,0,0,1-.84-2v-8.38h-1.69v-1.64h1.69v-4.16h2.1v4.16H164v1.64h-2.8v7.73a1.31,1.31,0,0,0,.46,1,1.55,1.55,0,0,0,1,.31,3,3,0,0,0,1.13-.21,4.32,4.32,0,0,0,.71-.32Z"/><path class="cls-3" d="M172.22,386.57a6.39,6.39,0,0,1-2.58-.51,6.17,6.17,0,0,1-2-1.4,6.28,6.28,0,0,1-1.3-2.06,6.77,6.77,0,0,1-.47-2.5,6.67,6.67,0,0,1,.47-2.48,6.23,6.23,0,0,1,5.91-4,6,6,0,0,1,5.78,3.95,6.54,6.54,0,0,1,.44,2.4c0,.17,0,.33,0,.48s0,.25,0,.33H168.09a4.78,4.78,0,0,0,.43,1.69,4.49,4.49,0,0,0,.93,1.32,4.67,4.67,0,0,0,1.3.86,4,4,0,0,0,1.54.31,3.91,3.91,0,0,0,1.13-.16,4.56,4.56,0,0,0,1-.42,3.58,3.58,0,0,0,.85-.64,2.56,2.56,0,0,0,.56-.86l1.81.5a4.75,4.75,0,0,1-.84,1.27,6,6,0,0,1-1.24,1,6.48,6.48,0,0,1-1.57.65A6.61,6.61,0,0,1,172.22,386.57Zm4.27-7.3a4.34,4.34,0,0,0-.44-1.64,4.13,4.13,0,0,0-.93-1.27,4.19,4.19,0,0,0-1.3-.83,4.42,4.42,0,0,0-3.15,0,4,4,0,0,0-1.3.84,4.25,4.25,0,0,0-.91,1.28,4.5,4.5,0,0,0-.41,1.62Z"/><path class="cls-3" d="M180,380.08a6.86,6.86,0,0,1,.45-2.48,6,6,0,0,1,1.29-2,6.15,6.15,0,0,1,4.58-1.9,6.13,6.13,0,0,1,3.21.82,5.36,5.36,0,0,1,2,2.21l-2.05.65a3.42,3.42,0,0,0-1.34-1.38,3.85,3.85,0,0,0-1.91-.49,3.9,3.9,0,0,0-1.62.35,3.71,3.71,0,0,0-1.31,1,4.59,4.59,0,0,0-.87,1.45,5,5,0,0,0-.32,1.84,5.09,5.09,0,0,0,.33,1.84,4.92,4.92,0,0,0,.89,1.49,4.24,4.24,0,0,0,1.32,1,3.68,3.68,0,0,0,1.61.36,3.62,3.62,0,0,0,1.08-.16,4.12,4.12,0,0,0,1-.41,3.7,3.7,0,0,0,.78-.61,2.12,2.12,0,0,0,.48-.76l2.05.63a4.41,4.41,0,0,1-.8,1.26,5,5,0,0,1-1.21,1,6.68,6.68,0,0,1-3.31.88,6.21,6.21,0,0,1-4.59-1.93,6.49,6.49,0,0,1-1.3-2.07A6.68,6.68,0,0,1,180,380.08Z"/><path class="cls-3" d="M204.84,386.33h-2.1v-7a5.05,5.05,0,0,0-.66-2.87,2.25,2.25,0,0,0-2-.94,3.23,3.23,0,0,0-1.24.25,4.26,4.26,0,0,0-1.16.68,4.62,4.62,0,0,0-.95,1,4.75,4.75,0,0,0-.64,1.32v7.51H194V368.91h2.1v7.64a5.58,5.58,0,0,1,2-2.13,5.32,5.32,0,0,1,2.77-.76,3.93,3.93,0,0,1,1.86.41,3.3,3.3,0,0,1,1.22,1.09,4.84,4.84,0,0,1,.65,1.66,9.83,9.83,0,0,1,.2,2.07Z"/><path class="cls-3" d="M218.92,386.33h-2.1v-7a5.45,5.45,0,0,0-.6-2.91,2.09,2.09,0,0,0-1.85-.9,3.48,3.48,0,0,0-1.29.25,4.74,4.74,0,0,0-1.22.68,4.61,4.61,0,0,0-1,1,4.51,4.51,0,0,0-.65,1.32v7.51h-2.1V373.88H210v2.67a5.47,5.47,0,0,1,2.14-2.1,6,6,0,0,1,3-.79,3.7,3.7,0,0,1,1.79.39,3.11,3.11,0,0,1,1.15,1.1,5.11,5.11,0,0,1,.61,1.66,11.3,11.3,0,0,1,.17,2.08Z"/><path class="cls-3" d="M227.64,386.57a6.07,6.07,0,0,1-4.55-1.93,6.28,6.28,0,0,1-1.28-2.05,6.79,6.79,0,0,1-.45-2.46,6.62,6.62,0,0,1,.46-2.48,6.53,6.53,0,0,1,1.29-2.06,6.28,6.28,0,0,1,2-1.4,6.4,6.4,0,0,1,5.1,0,6.22,6.22,0,0,1,2,1.4,6.53,6.53,0,0,1,1.29,2.06,6.63,6.63,0,0,1,.47,2.48,6.8,6.8,0,0,1-.46,2.46,6.15,6.15,0,0,1-5.84,4Zm-4.13-6.42a4.94,4.94,0,0,0,.32,1.82,4.62,4.62,0,0,0,.88,1.45,4.17,4.17,0,0,0,1.31,1,3.8,3.8,0,0,0,3.23,0,4.24,4.24,0,0,0,1.32-1,4.81,4.81,0,0,0,.9-1.48,5.31,5.31,0,0,0,0-3.63,4.81,4.81,0,0,0-.9-1.48,4.24,4.24,0,0,0-1.32-1,3.76,3.76,0,0,0-3.23,0,4.43,4.43,0,0,0-1.31,1,4.65,4.65,0,0,0-.88,1.48A4.94,4.94,0,0,0,223.51,380.15Z"/><path class="cls-3" d="M236.54,368.91h2.1v14.2a1.53,1.53,0,0,0,.37,1.09,1.34,1.34,0,0,0,1,.39,3.19,3.19,0,0,0,.63-.08,5.68,5.68,0,0,0,.66-.21l.34,1.7a7.72,7.72,0,0,1-1.24.36,7,7,0,0,1-1.27.14,2.63,2.63,0,0,1-1.92-.69,2.58,2.58,0,0,1-.7-1.93Z"/><path class="cls-3" d="M248.76,386.57a6.07,6.07,0,0,1-4.55-1.93,6.28,6.28,0,0,1-1.28-2.05,6.79,6.79,0,0,1-.45-2.46,6.62,6.62,0,0,1,.46-2.48,6.53,6.53,0,0,1,1.29-2.06,6.28,6.28,0,0,1,2-1.4,6.4,6.4,0,0,1,5.1,0,6.22,6.22,0,0,1,2,1.4,6.53,6.53,0,0,1,1.29,2.06,6.63,6.63,0,0,1,.47,2.48,6.8,6.8,0,0,1-.46,2.46,6.15,6.15,0,0,1-5.84,4Zm-4.13-6.42A4.94,4.94,0,0,0,245,382a4.62,4.62,0,0,0,.88,1.45,4.17,4.17,0,0,0,1.31,1,3.73,3.73,0,0,0,1.62.36,3.68,3.68,0,0,0,1.61-.36,4.24,4.24,0,0,0,1.32-1,4.81,4.81,0,0,0,.9-1.48,5.31,5.31,0,0,0,0-3.63,4.81,4.81,0,0,0-.9-1.48,4.24,4.24,0,0,0-1.32-1,3.68,3.68,0,0,0-1.61-.36,3.73,3.73,0,0,0-1.62.37,4.43,4.43,0,0,0-1.31,1,4.65,4.65,0,0,0-.88,1.48A4.94,4.94,0,0,0,244.63,380.15Z"/><path class="cls-3" d="M262.57,386.48a5.14,5.14,0,0,1-2.32-.53,5.76,5.76,0,0,1-1.83-1.41,6.41,6.41,0,0,1-1.18-2,6.82,6.82,0,0,1-.42-2.38,7.41,7.41,0,0,1,.42-2.5,6.44,6.44,0,0,1,1.18-2.06,5.73,5.73,0,0,1,1.83-1.4,5.33,5.33,0,0,1,2.35-.51,4.87,4.87,0,0,1,2.72.76,7,7,0,0,1,1.93,1.94v-2.48h1.86v12.31a5.31,5.31,0,0,1-.5,2.35,5,5,0,0,1-1.36,1.71,6,6,0,0,1-2,1.05,8.24,8.24,0,0,1-2.47.35,7.17,7.17,0,0,1-3.44-.72,6.37,6.37,0,0,1-2.21-2l1.22-1.07a4.56,4.56,0,0,0,1.9,1.64,5.84,5.84,0,0,0,2.53.55,5.51,5.51,0,0,0,1.64-.24,3.79,3.79,0,0,0,1.35-.71,3.69,3.69,0,0,0,.92-1.2,3.83,3.83,0,0,0,.34-1.69V384a5.45,5.45,0,0,1-1.91,1.83,5.12,5.12,0,0,1-1.21.49A5.31,5.31,0,0,1,262.57,386.48Zm.65-1.72a3.6,3.6,0,0,0,1.29-.24,4.87,4.87,0,0,0,1.14-.63,3.94,3.94,0,0,0,.88-.9,2.79,2.79,0,0,0,.48-1v-3.58a4.54,4.54,0,0,0-.68-1.17,5.11,5.11,0,0,0-.94-.92,4.27,4.27,0,0,0-1.13-.61,3.8,3.8,0,0,0-1.23-.22,3.54,3.54,0,0,0-1.71.41A4.14,4.14,0,0,0,260,377a5.16,5.16,0,0,0-.81,1.52,5.28,5.28,0,0,0-.28,1.71,4.71,4.71,0,0,0,.33,1.76,4.52,4.52,0,0,0,2.25,2.45A4,4,0,0,0,263.22,384.76Z"/><path class="cls-3" d="M273.07,389.72c.21,0,.42.06.62.07l.48,0a1.07,1.07,0,0,0,.51-.13,1.34,1.34,0,0,0,.46-.52,9,9,0,0,0,.51-1.06c.19-.45.43-1.05.72-1.78l-5.28-12.45h2.17l4.25,10.57,3.87-10.57h2l-6.06,15.72a3.55,3.55,0,0,1-1.11,1.47,3.3,3.3,0,0,1-2.13.63l-.45,0-.56-.1Z"/><path class="cls-3" d="M284.6,388.27l.48-2.13h-.72v-2.48h2v2.48l-.71,2.13Z"/><path class="cls-3" d="M300,386.57a9.68,9.68,0,0,1-3-.46,7.29,7.29,0,0,1-2.51-1.35l.91-1.41a8.63,8.63,0,0,0,2.2,1.25,6.39,6.39,0,0,0,2.31.42,3.79,3.79,0,0,0,2.16-.54,1.71,1.71,0,0,0,.8-1.51,1.42,1.42,0,0,0-.21-.78,1.91,1.91,0,0,0-.65-.56,5.37,5.37,0,0,0-1.1-.43c-.44-.12-1-.26-1.55-.4-.75-.19-1.39-.38-1.93-.55a5.41,5.41,0,0,1-1.34-.62,2.21,2.21,0,0,1-.76-.86,2.89,2.89,0,0,1-.24-1.24,3.56,3.56,0,0,1,.37-1.66,3.52,3.52,0,0,1,1-1.22,4.78,4.78,0,0,1,1.52-.74,6.65,6.65,0,0,1,1.87-.25,7.53,7.53,0,0,1,2.63.45,6.52,6.52,0,0,1,2.05,1.2l-.95,1.26a5.66,5.66,0,0,0-1.77-1,6,6,0,0,0-2-.34,3.62,3.62,0,0,0-1.95.49,1.69,1.69,0,0,0-.8,1.56,1.42,1.42,0,0,0,.16.72,1.36,1.36,0,0,0,.51.5,4.05,4.05,0,0,0,.92.38q.56.17,1.35.36c.82.19,1.54.38,2.16.58a6.16,6.16,0,0,1,1.52.71,2.73,2.73,0,0,1,.91.95,2.76,2.76,0,0,1,.3,1.34,3.33,3.33,0,0,1-1.34,2.77A5.79,5.79,0,0,1,300,386.57Z"/><path class="cls-3" d="M313.83,385.71a5.12,5.12,0,0,1-.5.23c-.2.09-.44.17-.7.26a6.34,6.34,0,0,1-.86.22,6,6,0,0,1-1,.08,3.21,3.21,0,0,1-2-.63,2.33,2.33,0,0,1-.83-2v-8.38h-1.7v-1.64H308v-4.16h2.1v4.16h2.79v1.64h-2.79v7.73a1.3,1.3,0,0,0,.45,1,1.58,1.58,0,0,0,1,.31,3,3,0,0,0,1.13-.21,4.1,4.1,0,0,0,.7-.32Z"/><path class="cls-3" d="M322.38,375.71a5.55,5.55,0,0,0-2.78.81,4.1,4.1,0,0,0-1.71,2.13v7.68h-2.1V373.88h2v2.88a5.81,5.81,0,0,1,1.69-2.08,4.14,4.14,0,0,1,2.25-.9h.4l.29,0Z"/><path class="cls-3" d="M327.65,386.57a4.48,4.48,0,0,1-1.65-.3,4.14,4.14,0,0,1-1.32-.82,3.85,3.85,0,0,1-.88-1.23,3.58,3.58,0,0,1-.33-1.54,3.17,3.17,0,0,1,.39-1.56,3.54,3.54,0,0,1,1.08-1.21,5.73,5.73,0,0,1,1.67-.78,7.47,7.47,0,0,1,2.11-.29,10.5,10.5,0,0,1,1.84.17,8.55,8.55,0,0,1,1.65.45v-1a3,3,0,0,0-3.29-3.27,7,7,0,0,0-4,1.45l-.69-1.36a8.63,8.63,0,0,1,4.85-1.62,5.34,5.34,0,0,1,3.83,1.31,4.9,4.9,0,0,1,1.37,3.7v5.09c0,.49.22.74.67.76v1.81l-.55.07a3.29,3.29,0,0,1-.45,0,1.34,1.34,0,0,1-1-.37,1.6,1.6,0,0,1-.44-.9l0-.88a5.44,5.44,0,0,1-2.12,1.71A6.46,6.46,0,0,1,327.65,386.57Zm.55-1.57a5.2,5.2,0,0,0,2.09-.42,3.54,3.54,0,0,0,1.47-1.11,1.32,1.32,0,0,0,.45-.93V380.7a8.62,8.62,0,0,0-3.17-.6,4.56,4.56,0,0,0-2.57.67,2,2,0,0,0-1,1.74,2.45,2.45,0,0,0,.2,1,2.28,2.28,0,0,0,.58.79,2.71,2.71,0,0,0,.87.53A3.12,3.12,0,0,0,328.2,385Z"/><path class="cls-3" d="M344,385.71c-.13.07-.29.14-.5.23s-.44.17-.7.26a6.74,6.74,0,0,1-.86.22,6,6,0,0,1-1,.08,3.21,3.21,0,0,1-2-.63,2.3,2.3,0,0,1-.83-2v-8.38h-1.7v-1.64h1.7v-4.16h2.1v4.16h2.79v1.64h-2.79v7.73a1.3,1.3,0,0,0,.45,1,1.57,1.57,0,0,0,.95.31,3,3,0,0,0,1.14-.21,4.53,4.53,0,0,0,.7-.32Z"/><path class="cls-3" d="M351.32,386.57a6.37,6.37,0,0,1-2.57-.51,6.11,6.11,0,0,1-2-1.4,6.44,6.44,0,0,1-1.3-2.06,6.77,6.77,0,0,1-.46-2.5,6.66,6.66,0,0,1,.46-2.48,6.23,6.23,0,0,1,5.91-4,6.11,6.11,0,0,1,2.56.53,6,6,0,0,1,2,1.39,6.31,6.31,0,0,1,1.26,2,6.76,6.76,0,0,1,.44,2.4c0,.17,0,.33,0,.48s0,.25,0,.33H347.2a4.58,4.58,0,0,0,.43,1.69,4.15,4.15,0,0,0,.93,1.32,4.39,4.39,0,0,0,1.3.86,4,4,0,0,0,1.54.31,3.89,3.89,0,0,0,1.12-.16,4.38,4.38,0,0,0,1-.42,3.58,3.58,0,0,0,.85-.64,2.56,2.56,0,0,0,.56-.86l1.82.5a4.79,4.79,0,0,1-.85,1.27,5.74,5.74,0,0,1-1.24,1,6.32,6.32,0,0,1-1.57.65A6.61,6.61,0,0,1,351.32,386.57Zm4.28-7.3a4.54,4.54,0,0,0-.45-1.64,4.13,4.13,0,0,0-.93-1.27,4.07,4.07,0,0,0-1.3-.83,4.29,4.29,0,0,0-1.57-.29,4.39,4.39,0,0,0-1.58.29,4.15,4.15,0,0,0-1.3.84,4.22,4.22,0,0,0-.9,1.28,4.72,4.72,0,0,0-.42,1.62Z"/><path class="cls-3" d="M364.88,386.48a5.21,5.21,0,0,1-2.33-.53,5.72,5.72,0,0,1-1.82-1.41,6.22,6.22,0,0,1-1.18-2,6.82,6.82,0,0,1-.42-2.38,7.41,7.41,0,0,1,.42-2.5,6.26,6.26,0,0,1,1.18-2.06,5.69,5.69,0,0,1,1.82-1.4,5.36,5.36,0,0,1,2.35-.51,4.85,4.85,0,0,1,2.72.76,7,7,0,0,1,1.94,1.94v-2.48h1.86v12.31a5.31,5.31,0,0,1-.5,2.35,5.08,5.08,0,0,1-1.36,1.71,6.16,6.16,0,0,1-2,1.05,8.24,8.24,0,0,1-2.47.35,7.19,7.19,0,0,1-3.45-.72,6.46,6.46,0,0,1-2.21-2l1.22-1.07a4.59,4.59,0,0,0,1.91,1.64,5.81,5.81,0,0,0,2.53.55,5.56,5.56,0,0,0,1.64-.24,3.83,3.83,0,0,0,1.34-.71,3.44,3.44,0,0,0,.92-1.2,3.83,3.83,0,0,0,.35-1.69V384a5,5,0,0,1-.85,1,5.31,5.31,0,0,1-1.06.79,5.19,5.19,0,0,1-1.22.49A5.29,5.29,0,0,1,364.88,386.48Zm.64-1.72a3.52,3.52,0,0,0,1.29-.24,4.75,4.75,0,0,0,1.15-.63,4.16,4.16,0,0,0,.88-.9,2.79,2.79,0,0,0,.48-1v-3.58a4.84,4.84,0,0,0-.68-1.17,5.11,5.11,0,0,0-.94-.92,4.18,4.18,0,0,0-1.14-.61,3.71,3.71,0,0,0-1.23-.22,3.53,3.53,0,0,0-1.7.41,4.14,4.14,0,0,0-1.28,1.07,5.16,5.16,0,0,0-.81,1.52,5.29,5.29,0,0,0-.29,1.71,4.52,4.52,0,0,0,.34,1.76,4.71,4.71,0,0,0,.9,1.46,4.45,4.45,0,0,0,1.35,1A4,4,0,0,0,365.52,384.76Z"/><path class="cls-3" d="M375.38,389.72c.21,0,.41.06.62.07l.48,0a1.07,1.07,0,0,0,.51-.13,1.41,1.41,0,0,0,.45-.52,8.78,8.78,0,0,0,.52-1.06c.19-.45.43-1.05.71-1.78l-5.27-12.45h2.17l4.25,10.57,3.86-10.57h2l-6.06,15.72a3.73,3.73,0,0,1-1.11,1.47,3.31,3.31,0,0,1-2.14.63l-.44,0c-.15,0-.34-.05-.56-.1Z"/><path class="cls-3" d="M386.91,388.27l.47-2.13h-.71v-2.48h2v2.48l-.72,2.13Z"/><path class="cls-3" d="M401,386.57a4.27,4.27,0,0,1-2.9-1.11,3.41,3.41,0,0,1-.87-1.22,3.61,3.61,0,0,1-.31-1.51,2.89,2.89,0,0,1,.38-1.48,3.64,3.64,0,0,1,1.06-1.16,5.34,5.34,0,0,1,1.63-.76,7.73,7.73,0,0,1,2.1-.28,11.58,11.58,0,0,1,2,.18,10.54,10.54,0,0,1,1.83.49v-1.21a3.87,3.87,0,0,0-1-2.81,3.59,3.59,0,0,0-2.72-1,5.39,5.39,0,0,0-1.92.39,10.05,10.05,0,0,0-2.06,1.09l-.46-.81a8.2,8.2,0,0,1,4.54-1.62,4.74,4.74,0,0,1,3.53,1.3,4.87,4.87,0,0,1,1.29,3.59v6.06c0,.4.17.6.52.6v1.07l-.25,0h-.22a1,1,0,0,1-.77-.32,1.34,1.34,0,0,1-.33-.78v-1a5.61,5.61,0,0,1-2.2,1.72A7.1,7.1,0,0,1,401,386.57Zm.24-.95a6.11,6.11,0,0,0,2.54-.53,4.32,4.32,0,0,0,1.77-1.38,1.59,1.59,0,0,0,.39-1v-2.19a9.89,9.89,0,0,0-1.79-.5,11.11,11.11,0,0,0-1.94-.17,6.81,6.81,0,0,0-1.69.2,4.5,4.5,0,0,0-1.31.56,2.61,2.61,0,0,0-.85.87,2.23,2.23,0,0,0-.3,1.14,2.92,2.92,0,0,0,.24,1.17,2.74,2.74,0,0,0,.67.94,3.12,3.12,0,0,0,1,.62A3.48,3.48,0,0,0,401.23,385.62Z"/><path class="cls-3" d="M420.89,386.33H419.7v-6.92a7,7,0,0,0-.68-3.51,2.37,2.37,0,0,0-2.16-1.09,4.53,4.53,0,0,0-1.57.28,5.27,5.27,0,0,0-1.44.81,5.69,5.69,0,0,0-1.17,1.23,5.23,5.23,0,0,0-.74,1.52v7.68h-1.19V373.92h1.12v3a6,6,0,0,1,.94-1.3,5.9,5.9,0,0,1,1.27-1,6.15,6.15,0,0,1,1.49-.64,5.47,5.47,0,0,1,1.62-.23,3,3,0,0,1,2.86,1.42,8.07,8.07,0,0,1,.84,4.07Z"/><path class="cls-3" d="M429.6,386.57a5.34,5.34,0,0,1-2.39-.54,5.91,5.91,0,0,1-1.89-1.43,6.29,6.29,0,0,1-1.24-2.05,6.55,6.55,0,0,1-.45-2.4,7.23,7.23,0,0,1,.43-2.46,6.63,6.63,0,0,1,1.2-2.05,5.87,5.87,0,0,1,1.8-1.41,5,5,0,0,1,2.28-.52,4.7,4.7,0,0,1,1.52.24,6.1,6.1,0,0,1,1.34.63,5.84,5.84,0,0,1,1.12.92,6.08,6.08,0,0,1,.86,1.12v-7.71h1.19v15.75q0,.6.51.6v1.07l-.24,0h-.19a1,1,0,0,1-.81-.37,1.12,1.12,0,0,1-.34-.77v-1.39a5.69,5.69,0,0,1-2,2A5.17,5.17,0,0,1,429.6,386.57Zm.21-1.07a4.29,4.29,0,0,0,1.39-.26,5.47,5.47,0,0,0,1.37-.73,5.77,5.77,0,0,0,1.09-1.06,2.58,2.58,0,0,0,.52-1.29v-4.08a4.52,4.52,0,0,0-.75-1.28,5.5,5.5,0,0,0-1.11-1.05,5.19,5.19,0,0,0-1.34-.7,3.88,3.88,0,0,0-1.38-.27,4.14,4.14,0,0,0-2,.47,4.69,4.69,0,0,0-1.5,1.22,5.73,5.73,0,0,0-1,1.71,6.17,6.17,0,0,0-.33,2,5.45,5.45,0,0,0,.38,2,5.61,5.61,0,0,0,1.06,1.7,5.33,5.33,0,0,0,1.58,1.17A4.52,4.52,0,0,0,429.81,385.5Z"/><path class="cls-3" d="M448.33,386.57a4.64,4.64,0,0,1-1.68-.3,4.13,4.13,0,0,1-1.34-.82,3.94,3.94,0,0,1-.88-1.24,3.8,3.8,0,0,1-.32-1.55,3.4,3.4,0,0,1,.38-1.6,3.77,3.77,0,0,1,1.09-1.24,5.2,5.2,0,0,1,1.67-.81,7.46,7.46,0,0,1,2.13-.29,9.34,9.34,0,0,1,1.75.16,9.19,9.19,0,0,1,1.55.41v-.86a2.92,2.92,0,0,0-.79-2.16,3.13,3.13,0,0,0-2.27-.77,5.42,5.42,0,0,0-2,.37,10.19,10.19,0,0,0-2,1.06l-.81-1.67a8.87,8.87,0,0,1,5-1.62,5.7,5.7,0,0,1,4,1.31,4.86,4.86,0,0,1,1.43,3.77v4.51c0,.56.23.84.69.86v2.24c-.25.05-.47.08-.65.1l-.54,0a1.66,1.66,0,0,1-1.18-.38,1.59,1.59,0,0,1-.51-1l-.08-.79A5.44,5.44,0,0,1,451,386,6.06,6.06,0,0,1,448.33,386.57Zm.72-1.93a4.69,4.69,0,0,0,1.8-.35,3.12,3.12,0,0,0,1.33-1,1.23,1.23,0,0,0,.5-.91v-1.65a8,8,0,0,0-1.42-.4,7.48,7.48,0,0,0-1.47-.15,4,4,0,0,0-2.3.61,1.86,1.86,0,0,0-.9,1.61,2.06,2.06,0,0,0,.69,1.57A2.52,2.52,0,0,0,449.05,384.64Z"/><path class="cls-3" d="M469.67,386.33H467v-7a4.48,4.48,0,0,0-.56-2.56,1.88,1.88,0,0,0-1.66-.8,3.28,3.28,0,0,0-1.14.21,4.15,4.15,0,0,0-1.08.61,4.64,4.64,0,0,0-.89.93,4.27,4.27,0,0,0-.61,1.18v7.42h-2.62V373.85h2.38v2.51a5,5,0,0,1,2.08-2,6.19,6.19,0,0,1,3-.73,3.69,3.69,0,0,1,1.84.4,3,3,0,0,1,1.14,1.11,5,5,0,0,1,.58,1.63,10.94,10.94,0,0,1,.17,1.94Z"/><path class="cls-3" d="M476,386.57a4.56,4.56,0,0,1-1.68-.3,4,4,0,0,1-1.34-.82,3.78,3.78,0,0,1-.88-1.24,3.65,3.65,0,0,1-.32-1.55,3.29,3.29,0,0,1,.38-1.6,3.63,3.63,0,0,1,1.08-1.24A5.3,5.3,0,0,1,475,379a7.59,7.59,0,0,1,2.14-.29,9.16,9.16,0,0,1,1.74.16,9,9,0,0,1,1.55.41v-.86a2.92,2.92,0,0,0-.78-2.16,3.15,3.15,0,0,0-2.27-.77,5.38,5.38,0,0,0-2,.37,9.91,9.91,0,0,0-2,1.06l-.81-1.67a8.83,8.83,0,0,1,5-1.62,5.72,5.72,0,0,1,4,1.31,4.86,4.86,0,0,1,1.43,3.77v4.51c0,.56.23.84.69.86v2.24c-.25.05-.47.08-.66.1l-.53,0a1.56,1.56,0,0,1-1.7-1.36l-.07-.79a5.52,5.52,0,0,1-2.06,1.69A6.06,6.06,0,0,1,476,386.57Zm.72-1.93a4.77,4.77,0,0,0,1.8-.35,3.15,3.15,0,0,0,1.32-1,1.2,1.2,0,0,0,.5-.91v-1.65a7.79,7.79,0,0,0-1.42-.4,7.46,7.46,0,0,0-1.46-.15,4.09,4.09,0,0,0-2.31.61,1.88,1.88,0,0,0-.89,1.61A2.06,2.06,0,0,0,475,384,2.52,2.52,0,0,0,476.76,384.64Z"/><path class="cls-3" d="M486.21,368.91h2.62v13.82a1.58,1.58,0,0,0,.36,1.09,1.29,1.29,0,0,0,1,.39,2.09,2.09,0,0,0,.61-.1,6.37,6.37,0,0,0,.66-.21l.38,2.05a5.74,5.74,0,0,1-1.36.42,7.71,7.71,0,0,1-1.41.15,2.84,2.84,0,0,1-2.11-.74,2.81,2.81,0,0,1-.75-2.1Z"/><path class="cls-3" d="M493.53,389.27l.71.12a4.58,4.58,0,0,0,.56.05,1,1,0,0,0,.53-.14,1.44,1.44,0,0,0,.47-.46,5,5,0,0,0,.49-.94c.17-.41.36-.93.58-1.57l-5.13-12.48h2.7L498.31,384l3.43-10.17h2.48l-5.65,15.37a3.88,3.88,0,0,1-1.33,1.8,3.81,3.81,0,0,1-2.42.73,4.22,4.22,0,0,1-.6,0,3.61,3.61,0,0,1-.69-.15Z"/><path class="cls-3" d="M513.1,385.69a12.53,12.53,0,0,1-1.38.54,6.13,6.13,0,0,1-1.89.29,4.08,4.08,0,0,1-1.17-.16,2.83,2.83,0,0,1-1-.5A2.35,2.35,0,0,1,507,385a3.14,3.14,0,0,1-.24-1.3v-7.8h-1.65v-2h1.65v-4.1h2.63v4.1h2.72v2h-2.72v7a1.33,1.33,0,0,0,.41,1,1.49,1.49,0,0,0,.92.29,2.84,2.84,0,0,0,1.05-.19,6.39,6.39,0,0,0,.74-.31Z"/><path class="cls-3" d="M514.91,371.8v-2.89h2.63v2.89Zm0,14.53V373.85h2.63v12.48Z"/><path class="cls-3" d="M519.88,380.08a6.86,6.86,0,0,1,.45-2.48,6.1,6.1,0,0,1,3.34-3.45,6.78,6.78,0,0,1,2.68-.51,6.32,6.32,0,0,1,3.32.84,5.35,5.35,0,0,1,2.09,2.26l-2.55.81a3.29,3.29,0,0,0-2.91-1.67,3.43,3.43,0,0,0-1.47.31,3.62,3.62,0,0,0-1.18.87,4.12,4.12,0,0,0-.79,1.33,4.79,4.79,0,0,0-.28,1.69,4.56,4.56,0,0,0,.29,1.68,4.34,4.34,0,0,0,.81,1.35,3.9,3.9,0,0,0,1.2.9,3.37,3.37,0,0,0,1.44.32,4,4,0,0,0,1-.13,3.74,3.74,0,0,0,.87-.37,3.41,3.41,0,0,0,.69-.55,2,2,0,0,0,.44-.67l2.58.76a5.18,5.18,0,0,1-2.08,2.31,7,7,0,0,1-6.08.37,6.22,6.22,0,0,1-2-1.42,6.42,6.42,0,0,1-1.32-2.07A6.62,6.62,0,0,1,519.88,380.08Z"/><path class="cls-3" d="M538.56,386.57a9.41,9.41,0,0,1-3-.49,7.56,7.56,0,0,1-2.57-1.39l1-1.67a9.45,9.45,0,0,0,2.22,1.22,6.23,6.23,0,0,0,2.25.42,3.33,3.33,0,0,0,1.85-.45,1.46,1.46,0,0,0,.68-1.29,1.21,1.21,0,0,0-.77-1.15,15.66,15.66,0,0,0-2.38-.78q-1.17-.32-2-.6a4.92,4.92,0,0,1-1.36-.67,2.33,2.33,0,0,1-.76-.88,2.79,2.79,0,0,1-.24-1.22,3.69,3.69,0,0,1,.37-1.69,3.75,3.75,0,0,1,1-1.25,4.48,4.48,0,0,1,1.54-.78,6.53,6.53,0,0,1,1.91-.26,7.76,7.76,0,0,1,2.63.43,6.77,6.77,0,0,1,2.17,1.24l-1.12,1.57a5.87,5.87,0,0,0-3.7-1.38,3.12,3.12,0,0,0-1.68.42,1.42,1.42,0,0,0-.68,1.32,1.3,1.3,0,0,0,.14.65,1.28,1.28,0,0,0,.47.45,3.47,3.47,0,0,0,.83.34c.34.11.77.22,1.28.35.84.21,1.57.41,2.18.62a6.15,6.15,0,0,1,1.52.73,2.72,2.72,0,0,1,.88,1,2.93,2.93,0,0,1,.29,1.35,3.36,3.36,0,0,1-1.35,2.82A5.82,5.82,0,0,1,538.56,386.57Z"/><path class="cls-3" d="M551.19,380.08a6.86,6.86,0,0,1,.45-2.48,6.13,6.13,0,0,1,1.27-2,5.92,5.92,0,0,1,1.93-1.36,6,6,0,0,1,2.46-.5,5.72,5.72,0,0,1,3,.76,4.8,4.8,0,0,1,1.93,2.13L561,377a3.9,3.9,0,0,0-1.56-1.61,4.4,4.4,0,0,0-2.23-.59,4.55,4.55,0,0,0-1.91.41,4.73,4.73,0,0,0-1.54,1.12,5.53,5.53,0,0,0-1,1.68,5.75,5.75,0,0,0-.38,2.09,5.8,5.8,0,0,0,1.45,3.83,4.82,4.82,0,0,0,1.55,1.16,4.39,4.39,0,0,0,1.89.43,4.67,4.67,0,0,0,1.28-.19,6.15,6.15,0,0,0,1.17-.5,4,4,0,0,0,.93-.73,2.41,2.41,0,0,0,.54-.87l1.17.33a4.12,4.12,0,0,1-.73,1.21,5,5,0,0,1-1.16,1,5.79,5.79,0,0,1-1.48.63,5.86,5.86,0,0,1-1.67.23,5.78,5.78,0,0,1-2.43-.51,6,6,0,0,1-1.95-1.41,6.64,6.64,0,0,1-1.29-2.06A6.74,6.74,0,0,1,551.19,380.08Z"/><path class="cls-3" d="M570.14,386.57a5.75,5.75,0,0,1-2.43-.51,5.94,5.94,0,0,1-1.92-1.4,6.41,6.41,0,0,1-1.26-2.05,6.79,6.79,0,0,1-.45-2.46,6.63,6.63,0,0,1,1.74-4.53,5.94,5.94,0,0,1,1.92-1.4,5.68,5.68,0,0,1,2.4-.51,5.56,5.56,0,0,1,2.38.51,6.05,6.05,0,0,1,1.92,1.4,6.48,6.48,0,0,1,1.29,2.05,6.75,6.75,0,0,1-1.27,7,6.05,6.05,0,0,1-1.92,1.4A5.68,5.68,0,0,1,570.14,386.57Zm-4.87-6.37a5.63,5.63,0,0,0,.38,2.06,5.28,5.28,0,0,0,1,1.69,5.07,5.07,0,0,0,1.54,1.13,4.31,4.31,0,0,0,1.88.42,4.35,4.35,0,0,0,1.89-.42,4.85,4.85,0,0,0,1.55-1.16,5.55,5.55,0,0,0,1.43-3.79,5.5,5.5,0,0,0-1.43-3.76,5.25,5.25,0,0,0-1.54-1.16,4.27,4.27,0,0,0-1.87-.43,4.36,4.36,0,0,0-1.89.43,5,5,0,0,0-1.54,1.17,5.78,5.78,0,0,0-1.44,3.82Z"/><path class="cls-3" d="M597.29,386.33H596.1v-6.92a6.49,6.49,0,0,0-.73-3.48,2.46,2.46,0,0,0-2.23-1.12,3.74,3.74,0,0,0-1.45.28,4.33,4.33,0,0,0-1.27.8,5.18,5.18,0,0,0-1,1.22,6.42,6.42,0,0,0-.66,1.56v7.66h-1.19v-6.92a6.67,6.67,0,0,0-.71-3.49,2.46,2.46,0,0,0-2.22-1.11,3.93,3.93,0,0,0-1.45.27,4.25,4.25,0,0,0-1.25.79,5.88,5.88,0,0,0-1.69,2.78v7.68h-1.2V373.92h1.12v3a6.08,6.08,0,0,1,2-2.34,4.85,4.85,0,0,1,2.74-.83,3.58,3.58,0,0,1,2.56.93,3.94,3.94,0,0,1,1.17,2.43c1.17-2.24,2.8-3.36,4.86-3.36a3.11,3.11,0,0,1,2.9,1.44,7.89,7.89,0,0,1,.87,4.05Z"/><path class="cls-3" d="M607,386.57a4.91,4.91,0,0,1-2.85-.85,6.83,6.83,0,0,1-2-2.06v7.76H600.9v-17.5H602v2.49a6,6,0,0,1,2-2,5.3,5.3,0,0,1,5.07-.2A6,6,0,0,1,611,375.7a6.93,6.93,0,0,1,1.23,2.07,6.77,6.77,0,0,1,.44,2.38,7.47,7.47,0,0,1-.41,2.46,6.33,6.33,0,0,1-1.15,2.05,5.51,5.51,0,0,1-1.81,1.4A5.22,5.22,0,0,1,607,386.57Zm-.29-1.07a4.14,4.14,0,0,0,2-.46,4.63,4.63,0,0,0,1.5-1.2,5.27,5.27,0,0,0,1-1.72,6,6,0,0,0,.33-2,5.64,5.64,0,0,0-.38-2,5.42,5.42,0,0,0-1.06-1.7,5.18,5.18,0,0,0-1.59-1.19,4.4,4.4,0,0,0-1.93-.44,3.73,3.73,0,0,0-1.37.28,5.75,5.75,0,0,0-1.38.74,5,5,0,0,0-1.09,1.06,2.49,2.49,0,0,0-.53,1.26v4.08a5.65,5.65,0,0,0,.79,1.29,5.9,5.9,0,0,0,1.07,1.05,4.8,4.8,0,0,0,1.29.71A4.35,4.35,0,0,0,606.67,385.5Z"/><path class="cls-3" d="M618.56,386.57a4.22,4.22,0,0,1-1.6-.3,4.32,4.32,0,0,1-1.3-.81,3.41,3.41,0,0,1-.87-1.22,3.61,3.61,0,0,1-.31-1.51,2.89,2.89,0,0,1,.38-1.48,3.64,3.64,0,0,1,1.06-1.16,5.29,5.29,0,0,1,1.64-.76,7.62,7.62,0,0,1,2.1-.28,11.46,11.46,0,0,1,2,.18,10.54,10.54,0,0,1,1.83.49v-1.21a3.91,3.91,0,0,0-1-2.81,3.63,3.63,0,0,0-2.73-1,5.39,5.39,0,0,0-1.92.39,10.05,10.05,0,0,0-2.06,1.09l-.45-.81a8.14,8.14,0,0,1,4.53-1.62,4.73,4.73,0,0,1,3.53,1.3,4.87,4.87,0,0,1,1.29,3.59v6.06c0,.4.18.6.53.6v1.07l-.25,0h-.23a1,1,0,0,1-.76-.32,1.29,1.29,0,0,1-.34-.78v-1a5.64,5.64,0,0,1-2.19,1.72A7.18,7.18,0,0,1,618.56,386.57Zm.24-.95a6.08,6.08,0,0,0,2.54-.53,4.42,4.42,0,0,0,1.78-1.38,1.63,1.63,0,0,0,.38-1v-2.19a9.67,9.67,0,0,0-1.79-.5,11.11,11.11,0,0,0-1.94-.17,6.81,6.81,0,0,0-1.69.2,4.5,4.5,0,0,0-1.31.56,2.61,2.61,0,0,0-.85.87,2.23,2.23,0,0,0-.3,1.14,2.92,2.92,0,0,0,.24,1.17,2.74,2.74,0,0,0,.67.94,3.23,3.23,0,0,0,1,.62A3.48,3.48,0,0,0,618.8,385.62Z"/><path class="cls-3" d="M638.46,386.33h-1.19v-6.92a7,7,0,0,0-.68-3.51,2.37,2.37,0,0,0-2.16-1.09,4.53,4.53,0,0,0-1.57.28,5.42,5.42,0,0,0-1.44.81,6.22,6.22,0,0,0-1.17,1.23,5.23,5.23,0,0,0-.74,1.52v7.68h-1.19V373.92h1.12v3a6,6,0,0,1,.94-1.3,6.21,6.21,0,0,1,2.76-1.64,5.47,5.47,0,0,1,1.62-.23,3.06,3.06,0,0,1,2.87,1.42,8.19,8.19,0,0,1,.83,4.07Z"/><path class="cls-3" d="M642.61,390.53a1.6,1.6,0,0,0,.36,0,2.94,2.94,0,0,0,.44,0,1,1,0,0,0,.4-.12.79.79,0,0,0,.26-.2,3,3,0,0,0,.33-.54,12.3,12.3,0,0,0,.55-1.19c.22-.52.53-1.24.91-2.15l-5.54-12.41h1.24l4.94,11.24,4.61-11.24h1.17l-6.8,16.33a2.18,2.18,0,0,1-.85,1,3,3,0,0,1-1.59.36h-.2a.93.93,0,0,1-.23,0Z"/><path class="cls-3" d="M23.91,415.21a8,8,0,0,1-2.75-.48,6.34,6.34,0,0,1-2.29-1.43l.6-.81a7.1,7.1,0,0,0,2.07,1.34,6.49,6.49,0,0,0,2.37.42,4.48,4.48,0,0,0,2.61-.68,2.16,2.16,0,0,0,1-1.89,1.75,1.75,0,0,0-.25-1,2.15,2.15,0,0,0-.75-.67,7.12,7.12,0,0,0-1.24-.49c-.5-.14-1.07-.29-1.72-.45s-1.31-.32-1.83-.48a4.87,4.87,0,0,1-1.27-.57,2.17,2.17,0,0,1-.76-.81,2.73,2.73,0,0,1-.25-1.22,3.46,3.46,0,0,1,.36-1.62,3.32,3.32,0,0,1,1-1.15,4.56,4.56,0,0,1,1.46-.68,6.61,6.61,0,0,1,1.75-.22,6.35,6.35,0,0,1,2.58.49,4.39,4.39,0,0,1,1.74,1.25l-.67.64A3.83,3.83,0,0,0,26,403.66a6.11,6.11,0,0,0-2.11-.36,6,6,0,0,0-1.3.14,3.1,3.1,0,0,0-1.06.46,2.14,2.14,0,0,0-.72.8,2.44,2.44,0,0,0-.26,1.15,1.9,1.9,0,0,0,.18.89,1.55,1.55,0,0,0,.57.57,4.21,4.21,0,0,0,1,.42c.42.12.91.25,1.48.39.78.19,1.48.38,2.08.55a6.55,6.55,0,0,1,1.52.64,3,3,0,0,1,.93.91,2.58,2.58,0,0,1,.32,1.34,3.19,3.19,0,0,1-1.3,2.66A5.6,5.6,0,0,1,23.91,415.21Z"/><path class="cls-3" d="M36.72,415.21a5.78,5.78,0,0,1-2.43-.51,6.25,6.25,0,0,1-1.95-1.41,6.67,6.67,0,0,1-1.75-4.57,6.53,6.53,0,0,1,1.74-4.5,5.86,5.86,0,0,1,1.92-1.37,5.67,5.67,0,0,1,2.4-.5,5.78,5.78,0,0,1,2.43.51A6,6,0,0,1,41,404.24a6.31,6.31,0,0,1,1.26,2,6.7,6.7,0,0,1,.45,2.45v.3a.53.53,0,0,1,0,.22H31.83a5.56,5.56,0,0,0,.5,2,5.62,5.62,0,0,0,1.09,1.58,4.66,4.66,0,0,0,1.51,1.05,4.4,4.4,0,0,0,1.84.38,4.45,4.45,0,0,0,1.26-.17,5.46,5.46,0,0,0,1.16-.49,4.18,4.18,0,0,0,1-.76,3.62,3.62,0,0,0,.65-1l1.05.28a3.8,3.8,0,0,1-.77,1.23,5.16,5.16,0,0,1-1.2,1,6,6,0,0,1-1.49.63A6.23,6.23,0,0,1,36.72,415.21Zm4.87-6.92a5.71,5.71,0,0,0-.49-2A5.61,5.61,0,0,0,40,404.72a4.92,4.92,0,0,0-1.52-1,4.72,4.72,0,0,0-1.84-.37,4.67,4.67,0,0,0-1.83.37,4.83,4.83,0,0,0-2.57,2.61,6.11,6.11,0,0,0-.47,2Z"/><path class="cls-3" d="M51.23,403.63a5,5,0,0,0-2.92,1,4.92,4.92,0,0,0-1.76,2.58V415H45.36V402.56H46.5v3.06a6,6,0,0,1,1.71-2.14,4.38,4.38,0,0,1,2.28-.94l.43,0h.31Z"/><path class="cls-3" d="M57.32,415l-5.18-12.41h1.24L58,413.78l4.61-11.22h1.16L58.56,415Z"/><path class="cls-3" d="M66.1,399.75v-2.2h1.19v2.2Zm0,15.22V402.56h1.19V415Z"/><path class="cls-3" d="M81.18,415H80v-6.92a6.93,6.93,0,0,0-.68-3.51,2.37,2.37,0,0,0-2.16-1.1,4.54,4.54,0,0,0-1.57.29,5.27,5.27,0,0,0-1.44.81A5.69,5.69,0,0,0,73,405.77a5.23,5.23,0,0,0-.74,1.52V415H71V402.56h1.12v3a5.75,5.75,0,0,1,.94-1.3,5.9,5.9,0,0,1,1.27-1,6.18,6.18,0,0,1,1.49-.65,5.81,5.81,0,0,1,1.62-.22,3,3,0,0,1,2.86,1.42,8,8,0,0,1,.84,4.07Z"/><path class="cls-3" d="M89.79,415.16a5.21,5.21,0,0,1-2.36-.54,5.86,5.86,0,0,1-1.85-1.43,6.72,6.72,0,0,1-1.21-2,6.38,6.38,0,0,1-.45-2.36,7.14,7.14,0,0,1,.42-2.43,6.6,6.6,0,0,1,1.18-2.07,5.65,5.65,0,0,1,1.83-1.42,5.23,5.23,0,0,1,2.35-.52,4.85,4.85,0,0,1,2.83.84,8.36,8.36,0,0,1,2,2.07v-2.7h1.1v12.65A4.68,4.68,0,0,1,93.91,419a5.46,5.46,0,0,1-1.86,1,7.47,7.47,0,0,1-2.23.32,8.67,8.67,0,0,1-1.93-.2,6.17,6.17,0,0,1-1.52-.57,5,5,0,0,1-1.17-.91,6.41,6.41,0,0,1-.89-1.18l.81-.55a4.46,4.46,0,0,0,2,1.85,6.33,6.33,0,0,0,2.7.58,5.89,5.89,0,0,0,1.8-.26,4.35,4.35,0,0,0,1.48-.77,3.7,3.7,0,0,0,1-1.28,4,4,0,0,0,.37-1.79v-2.72a5.64,5.64,0,0,1-2,1.94A5.17,5.17,0,0,1,89.79,415.16Zm.29-1a4.1,4.1,0,0,0,1.54-.3,5.53,5.53,0,0,0,1.36-.78A4.38,4.38,0,0,0,94,412a2.91,2.91,0,0,0,.49-1.2v-4.08a5.27,5.27,0,0,0-.76-1.32,5.11,5.11,0,0,0-1.09-1,5.26,5.26,0,0,0-1.31-.68,4.13,4.13,0,0,0-1.42-.25,4.08,4.08,0,0,0-2,.48,4.88,4.88,0,0,0-1.5,1.24,5.76,5.76,0,0,0-.93,1.73,6.21,6.21,0,0,0-.32,1.94,5.47,5.47,0,0,0,.38,2,5.91,5.91,0,0,0,1,1.7,5.08,5.08,0,0,0,1.58,1.17A4.54,4.54,0,0,0,90.08,414.14Z"/><path class="cls-3" d="M115.66,415h-1.19v-6.92a6.93,6.93,0,0,0-.68-3.51,2.35,2.35,0,0,0-2.16-1.1,4.48,4.48,0,0,0-1.56.29,5.32,5.32,0,0,0-1.45.81,6.22,6.22,0,0,0-1.17,1.23,5.23,5.23,0,0,0-.74,1.52V415h-1.19V402.56h1.12v3a6,6,0,0,1,2.21-2.3,6.36,6.36,0,0,1,1.49-.65,5.92,5.92,0,0,1,1.62-.22,3,3,0,0,1,2.87,1.42,8.17,8.17,0,0,1,.83,4.07Z"/><path class="cls-3" d="M124.47,415.21a5.7,5.7,0,0,1-2.42-.51,6.1,6.1,0,0,1-1.92-1.4,6.26,6.26,0,0,1-1.27-2.05,6.79,6.79,0,0,1-.45-2.46,6.66,6.66,0,0,1,.46-2.48,6.52,6.52,0,0,1,1.28-2.05,5.94,5.94,0,0,1,1.92-1.4,5.88,5.88,0,0,1,4.79,0,6.17,6.17,0,0,1,1.92,1.4,6.37,6.37,0,0,1,1.29,2.05,6.71,6.71,0,0,1-1.28,7,6.1,6.1,0,0,1-1.92,1.4A5.68,5.68,0,0,1,124.47,415.21Zm-4.87-6.37a5.63,5.63,0,0,0,.38,2.06,5.3,5.3,0,0,0,1,1.68,4.94,4.94,0,0,0,1.54,1.14,4.44,4.44,0,0,0,3.77,0,4.89,4.89,0,0,0,1.55-1.16,5.33,5.33,0,0,0,1.05-1.71,5.86,5.86,0,0,0,0-4.15,5.24,5.24,0,0,0-1.05-1.69,5.12,5.12,0,0,0-1.54-1.16,4.11,4.11,0,0,0-1.87-.43,4.22,4.22,0,0,0-1.89.43A5.16,5.16,0,0,0,121,405a6.11,6.11,0,0,0-1.05,1.73A5.66,5.66,0,0,0,119.6,408.84Z"/><path class="cls-3" d="M143.54,415h-1.2v-6.92a6.82,6.82,0,0,0-.68-3.51,2.35,2.35,0,0,0-2.16-1.1,4.53,4.53,0,0,0-1.56.29,5.13,5.13,0,0,0-1.44.81,5.69,5.69,0,0,0-1.17,1.23,5,5,0,0,0-.74,1.52V415h-1.2V402.56h1.13v3a5.46,5.46,0,0,1,.94-1.3,5.84,5.84,0,0,1,1.26-1,6.25,6.25,0,0,1,1.5-.65,5.81,5.81,0,0,1,1.62-.22,3,3,0,0,1,2.86,1.42,8,8,0,0,1,.84,4.07Z"/><path class="cls-3" d="M153.2,415.21a5,5,0,0,1-2.85-.85,6.83,6.83,0,0,1-2-2.06v7.75h-1.19V402.56h1.1V405a6.12,6.12,0,0,1,2-1.94,5.16,5.16,0,0,1,2.69-.75,5.25,5.25,0,0,1,2.39.55,5.93,5.93,0,0,1,1.88,1.44,6.49,6.49,0,0,1,1.23,2.06,6.83,6.83,0,0,1,.44,2.39,7.46,7.46,0,0,1-.4,2.46,6.35,6.35,0,0,1-1.16,2.05,5.61,5.61,0,0,1-1.8,1.4A5.26,5.26,0,0,1,153.2,415.21Zm-.28-1.07a4.25,4.25,0,0,0,2-.46,4.78,4.78,0,0,0,1.51-1.2,5.54,5.54,0,0,0,1-1.72,6.08,6.08,0,0,0,.33-2,5.36,5.36,0,0,0-.38-2,5.58,5.58,0,0,0-1.06-1.71,5.32,5.32,0,0,0-1.59-1.18,4.4,4.4,0,0,0-1.93-.44,3.92,3.92,0,0,0-1.37.27,6.05,6.05,0,0,0-1.37.74,5.09,5.09,0,0,0-1.1,1.07,2.54,2.54,0,0,0-.53,1.26v4.08a6.12,6.12,0,0,0,.79,1.29,6.24,6.24,0,0,0,1.07,1.05,4.76,4.76,0,0,0,1.29.7A4.13,4.13,0,0,0,152.92,414.14Z"/><path class="cls-3" d="M167.62,403.63a5,5,0,0,0-2.93,1,4.9,4.9,0,0,0-1.75,2.58V415h-1.19V402.56h1.14v3.06a6,6,0,0,1,1.71-2.14,4.31,4.31,0,0,1,2.28-.94l.43,0h.31Z"/><path class="cls-3" d="M174.47,415.21a5.75,5.75,0,0,1-2.43-.51,6.1,6.1,0,0,1-1.92-1.4,6.41,6.41,0,0,1-1.26-2.05,6.6,6.6,0,0,1-.46-2.46,6.67,6.67,0,0,1,.47-2.48,6.35,6.35,0,0,1,1.28-2.05,5.94,5.94,0,0,1,1.92-1.4,5.68,5.68,0,0,1,2.4-.51,5.59,5.59,0,0,1,2.38.51,6.17,6.17,0,0,1,1.92,1.4,6.37,6.37,0,0,1,1.29,2.05,6.73,6.73,0,0,1,0,4.94,6.46,6.46,0,0,1-1.28,2.05,6.1,6.1,0,0,1-1.92,1.4A5.67,5.67,0,0,1,174.47,415.21Zm-4.87-6.37a5.43,5.43,0,0,0,.38,2.06,5.12,5.12,0,0,0,1,1.68,4.83,4.83,0,0,0,1.54,1.14,4.28,4.28,0,0,0,1.88.42,4.35,4.35,0,0,0,1.89-.42,5,5,0,0,0,1.55-1.16,5.77,5.77,0,0,0,1.05-5.86,5.6,5.6,0,0,0-1.05-1.69,5.25,5.25,0,0,0-1.54-1.16,4.14,4.14,0,0,0-1.87-.43,4.22,4.22,0,0,0-1.89.43A5,5,0,0,0,171,405a5.78,5.78,0,0,0-1.44,3.82Z"/><path class="cls-3" d="M183.75,403.54H182v-1h1.74v-.4a6.32,6.32,0,0,1,.24-1.69,4.68,4.68,0,0,1,.74-1.56,4,4,0,0,1,1.3-1.15,3.84,3.84,0,0,1,1.92-.45,5.68,5.68,0,0,1,1.2.12,7.67,7.67,0,0,1,1,.27,4.07,4.07,0,0,1,.72.34l.41.27-.6.84a2.69,2.69,0,0,0-1-.54,5.42,5.42,0,0,0-1.62-.23,2.72,2.72,0,0,0-1.4.35,3,3,0,0,0-.95.88,3.59,3.59,0,0,0-.54,1.21,5.42,5.42,0,0,0-.17,1.31v.43H191V415h-1.2V403.54h-4.89V415h-1.19Z"/><path class="cls-3" d="M200.29,414.37l-.33.18a3.11,3.11,0,0,1-.57.25,6.48,6.48,0,0,1-.77.22,4.59,4.59,0,0,1-.93.09,3,3,0,0,1-.95-.14,2.16,2.16,0,0,1-.77-.43,2,2,0,0,1-.53-.69,2.19,2.19,0,0,1-.19-1v-9.35h-1.74v-1h1.74v-4.25h1.19v4.25h2.89v1h-2.89v9.07a1.2,1.2,0,0,0,.48,1A1.8,1.8,0,0,0,198,414a2.94,2.94,0,0,0,1.27-.25c.36-.17.58-.27.66-.32Z"/><path class="cls-3" d="M206.32,415.21a7.9,7.9,0,0,1-2.74-.48,6.25,6.25,0,0,1-2.29-1.43l.6-.81a7.1,7.1,0,0,0,2.07,1.34,6.47,6.47,0,0,0,2.36.42,4.49,4.49,0,0,0,2.62-.68,2.16,2.16,0,0,0,1-1.89,1.84,1.84,0,0,0-.25-1,2.15,2.15,0,0,0-.75-.67,6.94,6.94,0,0,0-1.25-.49q-.74-.21-1.71-.45t-1.83-.48a5.11,5.11,0,0,1-1.28-.57,2.23,2.23,0,0,1-.75-.81,2.73,2.73,0,0,1-.25-1.22,3.46,3.46,0,0,1,.36-1.62,3.32,3.32,0,0,1,1-1.15,4.56,4.56,0,0,1,1.46-.68,6.56,6.56,0,0,1,1.75-.22,6.35,6.35,0,0,1,2.58.49,4.46,4.46,0,0,1,1.74,1.25l-.67.64a3.83,3.83,0,0,0-1.61-1.07,6.11,6.11,0,0,0-2.11-.36,6,6,0,0,0-1.3.14,3.1,3.1,0,0,0-1.06.46,2.06,2.06,0,0,0-.72.8,2.33,2.33,0,0,0-.26,1.15,1.9,1.9,0,0,0,.18.89,1.55,1.55,0,0,0,.57.57,4.21,4.21,0,0,0,1,.42c.42.12.91.25,1.48.39.78.19,1.47.38,2.08.55a6.29,6.29,0,0,1,1.51.64,2.93,2.93,0,0,1,.94.91,2.58,2.58,0,0,1,.32,1.34,3.19,3.19,0,0,1-1.3,2.66A5.62,5.62,0,0,1,206.32,415.21Z"/><path class="cls-3" d="M213.6,415v-2h1.05v2Z"/></g></g></svg>