<svg xmlns="http://www.w3.org/2000/svg" viewBox="0 0 1208.6 836.2"><defs><style>.cls-1{fill:#fff;}.cls-2{fill:#58be98;}.cls-3{fill:#62cdf6;}.cls-4{font-size:20.57px;font-family:Raleway-Light, Raleway;}.cls-4,.cls-41{fill:#231f20;}.cls-5{letter-spacing:-0.06em;}.cls-6{letter-spacing:-0.03em;}.cls-7{letter-spacing:-0.02em;}.cls-8{letter-spacing:-0.01em;}.cls-9{letter-spacing:-0.01em;}.cls-10{letter-spacing:-0.02em;}.cls-11{letter-spacing:-0.03em;}.cls-12{letter-spacing:-0.01em;}.cls-13{letter-spacing:0em;}.cls-14{letter-spacing:-0.02em;}.cls-15{letter-spacing:0em;}.cls-16{letter-spacing:-0.01em;}.cls-17{letter-spacing:0em;}.cls-18{letter-spacing:0em;}.cls-19{letter-spacing:0em;}.cls-20{letter-spacing:-0.02em;}.cls-21{letter-spacing:0em;}.cls-22{letter-spacing:-0.01em;}.cls-23{letter-spacing:-0.01em;}.cls-24{letter-spacing:-0.05em;}.cls-25{letter-spacing:-0.02em;}.cls-26{letter-spacing:-0.01em;}.cls-27{letter-spacing:-0.02em;}.cls-28{letter-spacing:-0.02em;}.cls-29{letter-spacing:-0.01em;}.cls-30{letter-spacing:-0.01em;}.cls-31{letter-spacing:-0.03em;}.cls-32{letter-spacing:-0.01em;}.cls-33{letter-spacing:-0.02em;}.cls-34{letter-spacing:0em;}.cls-35{opacity:0.3;}.cls-36,.cls-39,.cls-40{fill:none;stroke-miterlimit:10;}.cls-36{stroke:#a3d5c2;}.cls-36,.cls-39{stroke-width:0.98px;}.cls-37{fill:#a3d5c2;}.cls-38{fill:#b2def1;}.cls-39{stroke:#b2def1;}.cls-40{stroke:#010101;stroke-width:5px;}.cls-41{font-size:37.97px;font-family:Raleway-SemiBold, Raleway;font-weight:700;}.cls-42{letter-spacing:-0.02em;}.cls-43{letter-spacing:-0.01em;}.cls-44{letter-spacing:-0.03em;}.cls-45{letter-spacing:-0.04em;}.cls-46{letter-spacing:-0.01em;}</style></defs><title>indexabout1200</title><g id="Layer_2" data-name="Layer 2"><g id="Layer_1-2" data-name="Layer 1"><rect class="cls-1" x="2.55" y="4.61" width="1205.93" height="831.09"/><rect class="cls-2" x="36.39" y="184.87" width="827.85" height="239.11"/><rect class="cls-3" y="137.76" width="834.15" height="248.15"/><text class="cls-4" transform="translate(73.93 196.81)"><tspan class="cls-5">W</tspan><tspan x="20.14" y="0">e</tspan><tspan class="cls-6" x="32.13" y="0"> </tspan><tspan class="cls-7" x="36.86" y="0">w</tspan><tspan x="53.04" y="0">ork</tspan><tspan class="cls-6" x="82.97" y="0"> </tspan><tspan x="87.7" y="0">with ma</tspan><tspan class="cls-8" x="162.11" y="0">n</tspan><tspan class="cls-6" x="173.71" y="0">y</tspan><tspan x="184.26" y="0"> </tspan><tspan class="cls-9" x="189.54" y="0">o</tspan><tspan class="cls-10" x="201.56" y="0">f</tspan><tspan x="207.66" y="0" xml:space="preserve"> the la</tspan><tspan class="cls-11" x="265.02" y="0">r</tspan><tspan x="271.5" y="0">gest and most inn</tspan><tspan class="cls-7" x="439.37" y="0">o</tspan><tspan class="cls-12" x="451.15" y="0">v</tspan><tspan class="cls-13" x="461.75" y="0">a</tspan><tspan x="472.71" y="0">ti</tspan><tspan class="cls-14" x="483.55" y="0">v</tspan><tspan class="cls-15" x="494.03" y="0">e nonp</tspan><tspan class="cls-11" x="559.77" y="0">r</tspan><tspan class="cls-16" x="566.24" y="0">o</tspan><tspan x="578.26" y="0">fits in the </tspan><tspan class="cls-7" x="0" y="24.68">w</tspan><tspan x="16.19" y="24.68">orld </tspan><tspan class="cls-12" x="58.64" y="24.68">t</tspan><tspan class="cls-17" x="64.95" y="24.68">o ide</tspan><tspan class="cls-18" x="111.31" y="24.68">n</tspan><tspan x="123.05" y="24.68">tif</tspan><tspan class="cls-6" x="140.43" y="24.68">y</tspan><tspan x="150.98" y="24.68" xml:space="preserve"> and build d</tspan><tspan class="cls-19" x="261.92" y="24.68">a</tspan><tspan x="272.88" y="24.68">ta-</tspan><tspan class="cls-11" x="299.18" y="24.68">f</tspan><tspan x="305.19" y="24.68">ocused </tspan><tspan class="cls-12" x="380.46" y="24.68">t</tspan><tspan x="386.78" y="24.68">echnolog</tspan><tspan class="cls-6" x="475.94" y="24.68">y</tspan><tspan x="486.49" y="24.68" xml:space="preserve"> th</tspan><tspan class="cls-13" x="510.2" y="24.68">a</tspan><tspan x="521.16" y="24.68">t </tspan><tspan class="cls-18" x="533.03" y="24.68">c</tspan><tspan x="544.14" y="24.68">onser</tspan><tspan class="cls-20" x="597.05" y="24.68">v</tspan><tspan x="607.54" y="24.68">es mo</tspan><tspan class="cls-11" x="665.71" y="24.68">r</tspan><tspan x="672.18" y="24.68">e </tspan><tspan x="0" y="49.36">land, engages mo</tspan><tspan class="cls-11" x="169.26" y="49.36">r</tspan><tspan x="175.74" y="49.36">e</tspan><tspan class="cls-6" x="187.73" y="49.36"> </tspan><tspan class="cls-14" x="192.46" y="49.36">v</tspan><tspan x="202.95" y="49.36">olu</tspan><tspan class="cls-21" x="232.53" y="49.36">n</tspan><tspan class="cls-12" x="244.27" y="49.36">t</tspan><tspan x="250.59" y="49.36">eers, </tspan><tspan class="cls-22" x="301.65" y="49.36">r</tspan><tspan x="308.52" y="49.36">aises mo</tspan><tspan class="cls-11" x="391.88" y="49.36">r</tspan><tspan x="398.36" y="49.36">e mon</tspan><tspan class="cls-23" x="458.48" y="49.36">e</tspan><tspan class="cls-24" x="470.18" y="49.36">y</tspan><tspan x="480.3" y="49.36">, and deli</tspan><tspan class="cls-25" x="565.52" y="49.36">v</tspan><tspan x="576.01" y="49.36">ers mo</tspan><tspan class="cls-11" x="641.19" y="49.36">r</tspan><tspan x="647.67" y="49.36">e </tspan><tspan class="cls-21" x="0" y="74.04">c</tspan><tspan x="11.11" y="74.04">omp</tspan><tspan class="cls-11" x="54.69" y="74.04">r</tspan><tspan x="61.17" y="74.04">ehensi</tspan><tspan class="cls-14" x="122.99" y="74.04">v</tspan><tspan x="133.48" y="74.04">e servi</tspan><tspan class="cls-18" x="194.77" y="74.04">c</tspan><tspan x="205.87" y="74.04">es </tspan><tspan class="cls-26" x="233.04" y="74.04">t</tspan><tspan x="239.36" y="74.04">o </tspan><tspan class="cls-21" x="256.82" y="74.04">c</tspan><tspan x="267.92" y="74.04">ommunities. Ou</tspan><tspan class="cls-27" x="415.12" y="74.04">r</tspan><tspan x="421.64" y="74.04" xml:space="preserve"> mission is </tspan><tspan class="cls-26" x="522.79" y="74.04">t</tspan><tspan x="529.1" y="74.04">o t</tspan><tspan class="cls-22" x="553.14" y="74.04">r</tspan><tspan x="560.01" y="74.04">ans</tspan><tspan class="cls-11" x="592.8" y="74.04">f</tspan><tspan x="598.8" y="74.04">orm ou</tspan><tspan class="cls-28" x="666.34" y="74.04">r</tspan><tspan x="672.86" y="74.04"> </tspan><tspan x="0" y="98.72">clie</tspan><tspan class="cls-21" x="32.78" y="98.72">n</tspan><tspan x="44.53" y="98.72">ts so much th</tspan><tspan class="cls-19" x="171.3" y="98.72">a</tspan><tspan x="182.26" y="98.72">t th</tspan><tspan class="cls-29" x="212.56" y="98.72">e</tspan><tspan class="cls-6" x="224.26" y="98.72">y</tspan><tspan class="cls-15" x="234.81" y="98.72" xml:space="preserve"> ca</tspan><tspan class="cls-30" x="262.35" y="98.72">n</tspan><tspan x="273.97" y="98.72">’t imagine a b</tspan><tspan class="cls-13" x="398.54" y="98.72">e</tspan><tspan x="410.45" y="98.72">t</tspan><tspan class="cls-26" x="417.03" y="98.72">t</tspan><tspan x="423.35" y="98.72">e</tspan><tspan class="cls-27" x="435.34" y="98.72">r</tspan><tspan class="cls-6" x="441.86" y="98.72"> </tspan><tspan class="cls-26" x="446.59" y="98.72">wa</tspan><tspan class="cls-31" x="473.67" y="98.72">y</tspan><tspan x="484.22" y="98.72"> </tspan><tspan class="cls-32" x="489.51" y="98.72">o</tspan><tspan class="cls-33" x="501.52" y="98.72">f</tspan><tspan class="cls-34" x="507.63" y="98.72" xml:space="preserve"> ope</tspan><tspan class="cls-22" x="549.67" y="98.72">r</tspan><tspan class="cls-13" x="556.54" y="98.72">a</tspan><tspan x="567.5" y="98.72">ting.</tspan></text><g class="cls-35"><path class="cls-36" d="M651,0V40a8.25,8.25,0,0,1-8.25,8.25H591.7a8.25,8.25,0,0,0-8.25,8.25v32.3"/><path class="cls-36" d="M678,1.9V92.8a8.25,8.25,0,0,1-8.25,8.25h-.46A8.25,8.25,0,0,1,661,92.8V81.9a8.25,8.25,0,0,0-8.25-8.25H636.64a8.25,8.25,0,0,0-8.25,8.25v56.56a8.25,8.25,0,0,0,8.25,8.25H731a8.25,8.25,0,0,0,8.25-8.25V108a8.25,8.25,0,0,1,8.25-8.25h44.82A8.25,8.25,0,0,1,800.6,108v8.29a8.24,8.24,0,0,0,8.25,8.24H967.16a8.25,8.25,0,0,1,8.25,8.25V343.29a8.25,8.25,0,0,1-8.25,8.25H881.9a8.25,8.25,0,0,0-8.25,8.25v46.12a8.25,8.25,0,0,1-8.25,8.25H783.27a8.25,8.25,0,0,0-8.25,8.25V529.85a8.26,8.26,0,0,0,8.25,8.25H835.4a8.26,8.26,0,0,0,8.25-8.25v-38.3a8.26,8.26,0,0,0-8.25-8.25H799.71a8.25,8.25,0,0,1-8.25-8.25V458.94a8.25,8.25,0,0,1,8.25-8.25h70.91a8.25,8.25,0,0,1,8.25,8.25V600.59"/><circle class="cls-37" cx="878.87" cy="600.59" r="3.81"/><circle class="cls-38" cx="582.09" cy="27.35" r="3.81"/><circle class="cls-38" cx="641.15" cy="106.55" r="3.81"/><path class="cls-39" d="M612,2.71V116.3a9.21,9.21,0,0,0,9.21,9.21h50.35a9.22,9.22,0,0,1,9.21,9.21v17.19a9.21,9.21,0,0,0,9.21,9.22h18.42a9.22,9.22,0,0,0,9.21-9.22V137.18a9.21,9.21,0,0,1,9.21-9.21h24.56a9.21,9.21,0,0,1,9.21,9.21h0a9.21,9.21,0,0,0,9.21,9.21h51.58a9.21,9.21,0,0,0,9.21-9.21V124.9a9.21,9.21,0,0,1,9.21-9.21h19.64a9.21,9.21,0,0,1,9.22,9.21v30.7a9.21,9.21,0,0,0,9.21,9.21h3.68a9.21,9.21,0,0,1,9.21,9.21V461.38a9.21,9.21,0,0,1-9.21,9.21H773.51a9.21,9.21,0,0,0-9.21,9.21v11.05a9.21,9.21,0,0,0,9.21,9.21h35.62a9.21,9.21,0,0,1,9.21,9.21v56.49a9.21,9.21,0,0,0,9.21,9.21h35"/><circle class="cls-37" cx="583.42" cy="90.07" r="3.81"/><circle class="cls-37" cx="782.31" cy="129.18" r="3.81"/><circle class="cls-38" cx="862.54" cy="574.97" r="3.81"/><circle class="cls-38" cx="853.69" cy="365.2" r="3.81"/><path class="cls-39" d="M630.37,2.06V20.7a6.66,6.66,0,0,1-6.66,6.65H582.09"/><path class="cls-39" d="M666.15,6.05V52.11A10.92,10.92,0,0,1,655.23,63H652.1a10.91,10.91,0,0,0-10.92,10.91v32"/><path class="cls-39" d="M923.12,555h-52.8a7.46,7.46,0,0,1-7.46-7.46V439.39a7.46,7.46,0,0,0-7.46-7.46H830.58a7.46,7.46,0,0,1-7.46-7.46V402.22a7.46,7.46,0,0,1,7.46-7.47h15.85a7.46,7.46,0,0,0,7.46-7.46V366.55"/><path class="cls-36" d="M782.31,129.18h0a14.11,14.11,0,0,0-14.11-14.11H711A14.11,14.11,0,0,1,696.93,101V5.7"/></g><polyline class="cls-40" points="1208.61 640.6 686.5 640.6 686.5 784.68 1208.61 784.68"/><text class="cls-41" transform="translate(826.37 702.8)">SEL<tspan class="cls-42" x="68.27" y="0">E</tspan><tspan class="cls-43" x="90.59" y="0">C</tspan><tspan class="cls-44" x="116.29" y="0">T</tspan><tspan x="138.62" y="0" xml:space="preserve"> CLIENTS</tspan><tspan x="-67.58" y="45.56">AND </tspan><tspan class="cls-45" x="23.73" y="45.56">P</tspan><tspan x="45.68" y="45.56">A</tspan><tspan class="cls-46" x="71.3" y="45.56">R</tspan><tspan x="95.98" y="45.56">TNERSHIPS</tspan></text><g class="cls-35"><path class="cls-36" d="M7.36,481.34c75.2,1.14,149.2-2.86,224.2,2.14,4,0,7,3,8,7,3,51-1,101,2,151,0,5,5,9,9,9,26,2,52,0,78,1,5,0,11,1,14,5a26.63,26.63,0,0,1,3,12c1,46-1,91,0,137,0,5,5,9,10,10,55,3,109,1,163,0,7,0,14,1,21,0,3,0,8-1,8-3,11-31,3-65,4-98,0-4-2-8-6-11a20.16,20.16,0,0,0-11-3c-20,0-41,0-61,1-5,1-11,3-12,9-3,22,0,43-1,64,0,6-3,11-8,13-11,3-22,2-34,1a15,15,0,0,1-13-15c0-41-3-81,2-122,0-4,5-8,10-8,80-2,159-1,238.6-.54"/><circle class="cls-37" cx="656.16" cy="642.94" r="6.36"/><path class="cls-39" d="M11.79,623.12c138.77-1.64,278.77-.64,417.77.36,4,0,7,4,7,8,7,64,1,128,4,192,0,6,6,10,11,11,12,2,29,3,36-9,2-23,0-47,1-70,0-1,2-1,2-2,0-8,7-9,13-10,32-1,64,1,96,1,7,0,13-6,14-13,1-20,0-41-.15-61.3"/><circle class="cls-38" cx="613.41" cy="670.18" r="6.36"/><circle class="cls-38" cx="263.44" cy="684.95" r="6.36"/><path class="cls-39" d="M580.11,569.12V657.2a12.46,12.46,0,0,1-12.45,12.45H387.22a12.45,12.45,0,0,0-12.45,12.45v41.41A12.44,12.44,0,0,1,362.32,736H325.19a12.45,12.45,0,0,1-12.45-12.44V697.07a12.44,12.44,0,0,0-12.45-12.45h-34.6"/></g></g></g></svg>