<svg xmlns="http://www.w3.org/2000/svg" viewBox="0 0 904.17 635.02"><defs><style>.cls-1{fill:#fff;}.cls-2{fill:#c12053;}.cls-3{fill:none;stroke:#000;stroke-linecap:round;stroke-linejoin:round;}.cls-3,.cls-4{stroke-width:0.75px;}.cls-4{fill:#070707;stroke:#fff;stroke-miterlimit:10;}</style></defs><title>map900</title><g id="Layer_2" data-name="Layer 2"><g id="Layer_1-2" data-name="Layer 1"><rect class="cls-1" width="904.17" height="635.02"/><path class="cls-2" d="M504.3,364l-.84-1.49a15.06,15.06,0,0,1-.39-2.71,11,11,0,0,0-.54-3.27c-.34-1.07-1.87-4.11-1.87-4.11a30.73,30.73,0,0,0-1.6-3.58c-.46-.63-1.63-1.11-1.65-4.74a12.17,12.17,0,0,1,2.41-6.72s5-1.78,6.35-1,4,.71,5.7,4.42,1.55,5.11,1.55,5.11-.9,4.39-2.39,5.89l-3.46,6.63-1.68,3.92Z"/><path class="cls-3" d="M769.75,164.29a119.68,119.68,0,0,1-7.19,14.14c-4.1,7.07-8.23,14.14-12.09,21.35-5.06,9.43-10.48,18.65-14.87,28.47-4.7,10.5-9.31,21.09-15.9,30.7-2.93,4.27-4.82,9.32-7.67,13.73-3.33,5.15-6.27,10.54-9.68,15.65-3.14,4.72-5.9,9.72-8.79,14.62-4.25,7.2-7.86,14.77-12.61,21.68a22.45,22.45,0,0,0-1.47,3.15c-3.58,7.53-8.27,14.42-12.35,21.66q-9,16-18.38,31.88c-3.63,6.16-7.12,12.44-10.58,18.67-2.83,5.08-6,10.07-8.23,15.48-.7,1.68-2.35,2.89-2.36,4.88"/><path class="cls-3" d="M210.93,225.27a4,4,0,0,0-.57,3.6q3.12,12.11,7.09,24c2.45,7.32,4,15,5.88,22.45,1,4.07,2.54,8,3.53,12.1,1.06,4.41,1.65,8.9,2.77,13.29,1.2,4.73,2.69,9.37,3.88,14.1,2.05,8.13,3.41,16.4,5.41,24.53,1.31,5.32,2.11,10.75,4.22,15.9,1.29,3.15,1.68,6.68,2.37,10.06a3.51,3.51,0,0,1-.26,2.59"/><path class="cls-3" d="M137.69,292.6c1.31,6.81,4,13.23,5.92,19.85s4,13.36,7.08,19.64c2.46,5,3.49,10.69,6.84,15.34.42.58-.06,1.72.34,2.46,0,.5-.26.52-.56.69-4.94,2.73-5.07,2.8-7.47-2.35s-4-11-6.15-16.4c-1.84-4.77-3.25-9.7-5.2-14.41-2.48-6-3.69-12.36-5.61-18.51a6.94,6.94,0,0,0-1-1.7"/><path class="cls-3" d="M345,328.07a41.85,41.85,0,0,0,8.55-7.59c6.29-6.82,13.8-12.34,20-19.25.86-1,2.51-.81,2.91-2.26-5.23-4.63-11.8-6.78-17.88-9.82-5-2.48-10-4.81-14.93-7.33s-9.73-4.56-14.49-7.06c-9.34-4.89-18.81-9.5-27.75-15.18-5.36-3.41-10.82-7-17-9-2.28-.75-3.38-3.4-6-3.25"/><path class="cls-3" d="M194.78,131.42c2.58-3.75,3.07-4,7.2-2,3.35,1.6,6.45,3.7,10.39,3.8,1.21,0,2,.36,3-.89a13.14,13.14,0,0,1,3.4-2.64c3.72-2.52,6.39-2,8.57,2a9,9,0,0,0,2.93,2.88,25.07,25.07,0,0,0,8.1,4.31c2.19.66,3.68,2.45,5.47,3.75.64.46,1.33,1.07,1.15,2-.54,2.88,1.09,4.74,2.87,6.66,2.51,2.69,3.48,6.28,4.81,9.54,2.55,6.27,3.9,13,6.43,19.28a76.49,76.49,0,0,1,3.27,10.06,4.25,4.25,0,0,0,2.21,3.25,2.62,2.62,0,0,1,.85,1.39c2.24,9.27,5.8,18.22,7.21,27.68,1.71,11.45,4.51,22.67,6.7,34,1.42,7.33,4.38,14.29,5.66,21.65.46,2.64,2.17,5.21.95,8.06"/><path class="cls-3" d="M400.37,439.08c-.59,1.54-1.87,2.63-2.38,4.3-1.23,4,.63,7.71.91,11.56.43,5.91,2.2,11.64,2.3,17.59a3.07,3.07,0,0,0,1.71,3,52.39,52.39,0,0,0,12.18,5.33c2.49.81,4.41,2.86,7.18,3,1.08,0,2.32,1.31,3.11.74,1.35-1,2.9-1.81,3.83-3.36a124.05,124.05,0,0,1,8-12.13c2.56-3.29,5.07-6.57,7.91-9.67,2.68-2.93,5.67-6.05,6.85-10.2a6.93,6.93,0,0,1,1.72-2.86c2.21-2.21,2.33-5.46,4.21-7.88,1.11-1.43.5-3.37-.78-4.84-2.54-2.93-6-4.24-9.52-5.48"/><path class="cls-3" d="M584.34,82.4a4.12,4.12,0,0,0-.59,2.31c.43,10.85-2.15,21.26-4.51,31.74-1.37,6.09-2.64,12.23-3.65,18.42-.67,4.07-1.94,8.06-2.77,12.13a38.56,38.56,0,0,1-9.22,18.76A2.69,2.69,0,0,0,563,168"/><path class="cls-3" d="M627.59,420.92a78.82,78.82,0,0,1-7,13.48c-3.31,5-5.67,10.45-8.49,15.67-5.33,9.87-10.31,19.93-15.39,29.93a120.2,120.2,0,0,1-8.09,13.24c-1.16,1.7-1.26,4-3.1,5.24"/><path class="cls-3" d="M435.26,158.81c-.89,3.65-.35,7.38.14,10.94a84.58,84.58,0,0,1,.32,14.72c-.15,4.13-.27,8.29-.35,12.41-.17,8.74-.59,17.49.11,26.24a24.79,24.79,0,0,0,0,3.46c.19.87-.27,1.46-1.09,2.05-4.18,3-7.36,7.06-10.91,10.7-1.47,1.51-3.93,1.73-4.69,4"/><path class="cls-3" d="M185.55,193.41c-1,2.29.38,4.3.93,6.33,1.89,7.08,5,13.83,6.24,21.07a133.39,133.39,0,0,0,5.36,20.52c1.78,5.13,2.92,10.58,4.62,15.76,2.33,7.09,4.23,14.29,6.44,21.4,1.73,5.58,2.66,11.41,4.45,17,2.21,6.87,3.93,13.88,5.9,20.81,1.16,4.08,4.1,6.15,7.34,8,1.34.75,2.26,1.81,3.41,2.58.08,1.59-1,2.26-1.78,2.92-5.71-2.37-11.85-3.19-16.94-6.58a7.4,7.4,0,0,1-1.26-1.5,105,105,0,0,1,7.59-8.58"/><path class="cls-3" d="M661,382.86c2.17,3.37,3.42,3.35,5.79.31,5.58-7.17,8.3-15.85,12.57-23.71,1.71-3.15,4-6.09,4.71-9.75-2.51-1.82-5.06-1.48-6.93.85-3,3.75-4.47,8.34-6.87,12.43-2.59,4.41-4.8,9.05-7.09,13.61-2.18,4.32-5.52,8.07-7.16,12.4-3.3,8.73-9,16-13.21,24.13-2.48,4.79-4.25,10-6.79,14.62-3.25,6-6,12.17-9.55,18-3.79,6.31-7.69,12.59-11.22,19-4.95,9.06-10.57,17.74-15.17,27-2.12,4.27-5.11,8.11-7.7,12.15-.19.29-.38.38-.58.29"/><path class="cls-3" d="M405,143.81c1.33,4.3.1,8.65.22,13,.17,6.34-.89,12.67-.81,19,.05,4,.09,8.08-.23,12.11a45.72,45.72,0,0,0,.24,4.9c.31,10.77,0,21.54-.6,32.29-.21,3.79.47,7.5.71,11.24a6.05,6.05,0,0,1-.68,2.89"/><path class="cls-3" d="M208.33,358.92c4.88,3.21,10.3,5.46,14.8,9.41,3.67,3.22,8.23,5.39,12.34,8.13,5.45,3.64,11.12,7,16.69,10.43,7.72,4.81,15.39,9.72,23.35,14.14,1.28.71,2.5,1.53,3.75,2.3"/><path class="cls-3" d="M419.41,403c.74.06,1.48.65,1.38,1.14-1,5-.3,10-.76,15-.68,7.28-.3,14.6-.33,21.91,0,6.15,0,12.3-.27,18.46-.14,3.26,0,6.54,0,10.12a36.84,36.84,0,0,1-10.09-3.78"/><path class="cls-3" d="M599.62,82.68c-.84,5.94-1.67,11.88-2,17.88-.51,8.13-2.79,16-4.3,23.93-1.62,8.56-2.84,17.2-5,25.65-.63,2.5-1.09,5-1.67,7.51"/><path class="cls-3" d="M278.4,409.1c-.18,4.24,1.4,8.22,1.81,12.39.43,4.36,1.51,8.65,2.22,13,1.12,6.87,2.7,13.65,4,20.48,1.36,7.2,3.41,14.28,4.09,21.62"/><path class="cls-3" d="M298.59,400.16a100.4,100.4,0,0,1,5.16,17.31,58.56,58.56,0,0,0,2.64,8.93c2.21,5.53,3.08,11.46,5.17,17,2.7,7.17,4.39,14.71,7.83,21.6.43.87-.33,2,.82,2.62"/><path class="cls-3" d="M397.2,312.5c6.87,4.37,14.38,7.44,21.93,10.34,8.38,3.21,16.59,6.8,24.78,10.42,5.28,2.33,10.53,4.71,15.88,6.86a31.85,31.85,0,0,1,3.72,2.08"/><path class="cls-3" d="M89.82,261.46c-.15,3.49,1.88,6.23,3.16,9.23,3.15,7.39,5.44,15.15,8.78,22.43,3.53,7.69,6.12,15.79,9.84,23.34,3.46,7,5.1,14.7,8.47,21.71a4.36,4.36,0,0,1,0,1.72"/><path class="cls-3" d="M476.5,292c-1.33-1.75-3.66-2-5-3.52-3,1.3-3.44,3.53-3.4,6.41a65.78,65.78,0,0,1-1.62,15.29c-.57,2.54-1.21,5.72-.07,7.63s4.26,2.92,6.69,3.85c6.93,2.64,13.6,5.88,20.44,8.74,2.73,1.14,5.3,2.67,8.09,3.71a3.71,3.71,0,0,1,1.73,1.74"/><path class="cls-3" d="M272.64,107.48c1.77-.21,2.63.81,3.17,2.31a90,90,0,0,1,4.66,23.06c.37,4.16,1.36,8.26,1.93,12.41.23,1.67.11,3.47-2,4a4,4,0,0,1-4.29-2.86c-.95-4.87-1.84-9.75-2.4-14.69-.5-4.45-1.4-8.86-2.16-13.28-.61-3.51-1-7.15.47-10.67.56-1.31-.52-2.44-2-2.29-2.51.25-3.41,1.57-3.19,4.33.63,7.8.93,15.66,2.4,23.34s1.73,15.73,5,23.13c.9,2,.72,4.64,1.56,6.87"/><path class="cls-3" d="M211.51,323.74c-.88,1.58.2,3,.62,4.31,3,9.62,6.32,19.17,9.23,28.84a21.55,21.55,0,0,1,.48,2.33,6,6,0,0,0,4.34,5c2.75,1,5.08,3,7.81,4.25,1.51.69,3.11,1.07,4.64,1.66,1.29.5,2.68.66,3.73-.56,1.3-1.52,2.63-1.95,4.35-.59.91.72,2.1.17,3.15.31"/><path class="cls-3" d="M402.1,475.42c-.42,2.17.31,4.23.52,6.35.15,1.47,1.5,1.26,2,1.82,2.93,3.53,7.11,5.57,10.19,8.86,1.24,1.32,1.18,4.46,0,6.63-1.78,3.31-4.27,6.17-6.21,9.31-2.93,4.74-6.35,9.11-9.32,13.78-4,6.23-9,11.6-13.61,17.26a3.3,3.3,0,0,1-2,1.45"/><path class="cls-3" d="M553.78,473.11c-3.34,6-7.58,11.54-10.37,17.88-1.17,2.67-2.94,5-4.35,7.48a88.31,88.31,0,0,0-6.26,13.3,58.82,58.82,0,0,0-2.41,6.31c-.53,2.21-2.3,1.13-3.09.52a80.61,80.61,0,0,0-12.72-7.46,14,14,0,0,0-4-1.49,12.9,12.9,0,0,1-5.24-2.47c-3.44-2.48-5-2.53-8,.28-6.76,6.25-12.77,13.11-15.61,22.16-.65,2.07-2.18,3.79-2.36,6.19a14.42,14.42,0,0,0,5.82,1c2.51-.16,5,1.18,6.78,2.23,3.67,2.12,7.35,4.43,10.91,6.81a28.76,28.76,0,0,0,13.77,5c4.32-6.55,9.29-13,12.63-20.41.86-1.92,2.09-3.62,2.72-5.73.71-2.38.43-4.14-1.26-5.8"/><path class="cls-3" d="M308.68,111.52c-.42-5.51-1-11-1.8-16.47-1.07-7-2.78-13.9-2.79-21,0-1.73-.67-2-2.31-2.41-4.48-1.08-9.06-1.79-13.35-3.8-2.34-1.1-1.84-2.41-1-3.53a18.6,18.6,0,0,1,4.81-4.41,2.1,2.1,0,0,1,1.74-.22c5.88,1.34,11.76,2.76,16.41,6.92,1.27,1.13,1.37,3,1.78,4.57,1.66,6.64,2.35,13.42,3.18,20.19,1.17,9.63,2.3,19.27,3.8,28.87.86,5.51,2.14,11,2.23,16.69"/><path class="cls-3" d="M188.44,335.85c-2.2-6.7-4.57-13.35-7.23-19.89-3.23-8-6.88-15.74-9.48-23.95-1-3.08-.48-4,2.75-5.25,2.66,2,2.32,5.44,3.18,8.17,2.91,9.23,6.12,18.34,9.55,27.39,1.64,4.31,3,8.69,5.49,12.79,3.06-1.39,4.2-4.59,6.55-6.9-4.6-8.14-6.67-17.39-10.74-25.84a60.08,60.08,0,0,1-3.21-9.49c-2-7.1-4.47-14-9.54-19.6"/><path class="cls-3" d="M580.88,501.94c-2.88,5-5.74,10-8.66,15-4.1,7-7.17,14.48-10.91,21.65-2.88,5.53-5.46,11.2-8.4,16.7a14.21,14.21,0,0,0-.58,1.44"/><path class="cls-3" d="M347,353.88c1.72-2.43,0-4.91-.5-7A158.51,158.51,0,0,1,343.87,331c-.19-1.65-1-2.45-2.57-3.24-9.74-5-20.36-8-30-13.23-7.09-3.8-14.63-6.73-21.38-11.17a4,4,0,0,1-2-3.49c-.28-4.39-1.51-8.65-2.25-13"/><path class="cls-3" d="M548.87,387.47c-3.13-.83-6.77-.55-8.84-4.38-2.27,3.34-5.19,6-5.05,10.44.12,3.87-1.4,7.54-2.41,11.2a29.34,29.34,0,0,0-1.11,6.39c-.14,3.44-1.23,6.6-2.06,9.76-1.09,4.12-1.34,8.34-2.34,12.46-.65,2.7-2.36,5.13-2.12,8"/><path class="cls-3" d="M784.45,170.92a57.46,57.46,0,0,1-5.23,10.93,259,259,0,0,0-14.08,27.42c-2.3,5.4-5.52,10.31-8.08,15.57"/><path class="cls-3" d="M474.34,232.34a77.21,77.21,0,0,0,1.28-15.54,2.28,2.28,0,0,0-2.27,1.14c-4.36,6.14-9.79,11.36-14.81,16.92-2,2.24-4.69,4-6.52,6.44a151.11,151.11,0,0,1-11,13.49c-3.57,3.82-7.06,7.72-10.88,11.32-3,2.79-6.35,1.46-9.54,1.31-2-.09-4-.76-6.06-1.05"/><path class="cls-3" d="M492.65,398.71c-3.76-1.16-3.78-1.12-4.34,2.59-.52,3.44-.28,6.94-.81,10.39a21.25,21.25,0,0,1-1.22,4.31,3.42,3.42,0,0,1-3.73,2.38c-4.15-.08-4.15.06-6.07,4.3,1.91,3.67,5.85,4.75,9,6.87a41.63,41.63,0,0,0,9.49,4.67c2,.73,3.8.78,5.18-.93,1.65-2,1.8-5.58.3-7.17-3.46-3.66-8-5.46-12.66-7a5.32,5.32,0,0,1-2.31-.84"/><path class="cls-3" d="M636.82,465.9c1.34,4.44,4.18,8.11,6.4,12.08,3.21,5.75,5.43,11.9,8,17.91a3.23,3.23,0,0,0,1.73,2c2,.78,2,2.36,1.42,4a31.48,31.48,0,0,0-1.44,4.91,2,2,0,0,1-.57,1.14c-4.83,3.87-5.9,9.87-8.23,15.06a143.29,143.29,0,0,1-9,17,196.49,196.49,0,0,0-9.8,18.16,26.86,26.86,0,0,1-1.48,2.58"/><path class="cls-3" d="M636.82,472.53c-1.6.51-2.57,1.82-3.76,2.87-5.38,4.82-7.43,8-9.5,15-.86,2.91-2.58,5.43-3.58,8.32-1.64,4.76-3.63,9.42-5.39,14.16a30.58,30.58,0,0,1-3.26,6.28c-2.47,3.68-3,7.93-4.51,11.89-.38,1,.47,1.72.67,2.58a24.16,24.16,0,0,0,1.93,4.35"/><path class="cls-3" d="M236,295.2c1-2.63-.88-4.78-1.2-7.2-.3-2.23-1.19-4.35-1.5-6.62-.14-1,.29-1.42.76-2.16,2.73,1.61,2.56,4.67,3.3,7.07a282.68,282.68,0,0,1,7.36,29.95c1.15,6,3.7,11.6,4.8,17.61.31,1.66,1.77,3.67-.8,4.92a7.33,7.33,0,0,1-2.06-4.35q-3-14.27-7.2-28.26c-.86-2.9-1.55-5.84-2.65-8.68-.69-1.79-1.59-3-3.4-3.43"/><path class="cls-3" d="M680.65,508.29c1,3.11-.25,5.85-1.78,8.33a87.83,87.83,0,0,0-5.09,9.28,199.5,199.5,0,0,1-11.48,22,29.36,29.36,0,0,0-3.62,7.13c-.56,1.91-2.67,2.19-4.28,2.55-3.07.69-6.25.82-9.23,2a3.24,3.24,0,0,1-2.58-.24"/><path class="cls-3" d="M483.71,61.92c-.26,1.84-2.22,1.89-3.11,2.93-3.06,3.56-6.45,3.27-10.16,1.4a4.32,4.32,0,0,0-1.15-.3c-5.82-1.08-4.39-.38-4.44,4-.05,4.9.1,9.82-.21,14.7-.42,6.66-1.66,13.24-2.33,19.89-.49,4.87,5.29,8.67,9,7.4,2.32-.8,4.82.19,7-1.27.63-.42,1.45.31,1.11,1.37"/><path class="cls-3" d="M643.74,489.26c-.76,1.57-1.89,2.87-1.83,4.9s-2.11,3-3.17,4.78a12.82,12.82,0,0,1,2.66,6.1c3.55-1.09,3.3-5.56,6.57-6.92,2.05,1.69.9,4.15.22,5.48-1.52,3-1.84,6.35-3.3,9.31-3.7,7.47-7.37,15-10.86,22.54-3.65,7.92-9.23,14.78-12.25,23.25,1.1,1.38,2.21,3,3.53,4.36s3.15,1.06,4-.84c1.6-3.51,3.21-6.86,6.18-9.68,1.83-1.74,2.88-4.74,3.86-7.35,2.07-5.5,5.56-10.31,7.56-15.84.17-.48.59-.86.56-1.45-.19-5.33,3.24-9.32,5.24-13.81a5.21,5.21,0,0,0-.35-5.51"/><path class="cls-3" d="M322.23,429c1.54-1,2.59.25,3.74.87,7.81,4.23,16.12,7.37,24.28,10.83,2.09.89,4.66.84,6.87,1.84,1,.44,1.6.92.86,2-1.11,1.66-1.74,3.64-3.45,4.91-3.35,2.48-4.38,6.56-6.6,9.82-1.21,1.77-1.43,4.58-3.8,5.07a10.33,10.33,0,0,1-8.94-2.18c-1.55-1.27-3-3-5.45-2.34"/><path class="cls-3" d="M213.81,218.79c2.55,2.55,3,6.08,3.59,9.25.81,4.56,2.54,8.79,3.63,13.23.73,3,2.53,5.59,1.85,9a7.5,7.5,0,0,0,.69,4.32,8,8,0,0,1,.66,5.47c-.61,2.43,1.14,4.41,1.69,6.62,1.37,5.5,2.17,11.15,4.34,16.43,2.44,5.94,2.36,12.48,4.57,18.47,1.11,3,1.77,6.19,2.88,9.23,1.69,4.64,1.9,9.61,2.9,14.41,1.26,6,3.69,11.72,4.38,17.87a1.79,1.79,0,0,0,1.12,1.45"/><path class="cls-3" d="M287.05,67.69c-.41,3.4.87,6.55,1.43,9.81,1.14,6.69,2.71,13.29,2.71,20.18,0,3.94.94,7.9,1.65,11.82.78,4.3.55,8.67,1.12,13"/><path class="cls-3" d="M418.83,141.8c1.23,3.65.29,7.32,0,11-.37,4.16.41,8.26.35,12.4-.07,5.1,1,10.12.65,15.29-.45,6.89,0,13.83-.12,20.75-.12,10.77.6,21.53.31,32.3-.07,2.59-.71,5.19,0,7.79"/><path class="cls-3" d="M631.92,491c-2.69,5.16-5,10.47-7.4,15.77-3.15,7-5.66,14.33-9.24,21.18A78.29,78.29,0,0,0,610,539.72"/><path class="cls-3" d="M529.84,82.4c-1.09-.6-.86-1.64-.86-2.6,0-3.46-.09-6.92.08-10.38,0-.58,0-.82-.36-1.17-.64-.53-1.07-.09-1.44.3q-4.92,5.17-9.8,10.38a2.92,2.92,0,0,0-.61,2c-.2,6-.8,11.9-1,17.87s-.55,11.93-1.06,17.88c-.35,4,0,8.09-.31,12.55a93.6,93.6,0,0,0-9.13-3.4c-3.76-1-7.3-2.66-11.25-3.22-2.38-.34-4.42-2.32-6.94-2.75s-4.79-.91-7.21-1.12c-2-.17-4.22-.46-5.64,1.24-1,7.2.24,14.34.16,21.5"/><path class="cls-3" d="M367.21,537.7c-2.81,3.86-5.92,7.5-8.09,11.81a41.89,41.89,0,0,1-5.59,8c-4,4.71-6.73,10.23-10.81,14.83-3.07,3.47-6.5,6.6-9.28,10.34a10.71,10.71,0,0,0-1.7,3.48"/><path class="cls-3" d="M431.23,394.1a6.76,6.76,0,0,0,1.15.28c3.75.25,10.94,3.15,13.85,4.61,1.89.95,1.84,2.24.54,3.45-3,2.76-5,6.22-7.15,9.56a11.9,11.9,0,0,0-1.67,8c.06.49-.24,1.42.49,1.72,2.09.87,1.64,2.69,1.73,4.34a204.25,204.25,0,0,1,0,23.07,3.51,3.51,0,0,0,.24,2.32c1.46,2.33.33,4.1-1.09,6.08-4.88,6.79-9.53,13.75-16,19.57C417.48,474.27,411,472,405,468.27c.49-1.69,1-3.62,3.17-4.39"/><path class="cls-3" d="M705.45,297.79c-3.07,1.29-4.13,4.57-4.66,7-1.14,5.17-4,9.32-6.4,13.73-3.06,5.72-5.85,11.61-9.41,17.07-.8,1.23.13,2,.83,2.89a3.12,3.12,0,0,0,3.73.73,6.84,6.84,0,0,0,3.43-2.81c1.95-3.51,4.37-6.84,5.93-10.43s3.39-7.36,4.79-11.17c.8-2.17,2.59-3.66,3.54-5.73a6,6,0,0,0,.51-2.91c-.09-2-1.38-2.81-3.16-2-1.42.63-2.25,2.09-3.75,2.6"/><path class="cls-3" d="M648.07,526.45c3-1.9,3.75-5.31,5.52-8,1.45-2.26,2-5,4.52-6.74,2.84-1.95,2.65-2.24,5.07.2-1.7,5.47-4.11,10.54-6.12,15.77-2.13,5.52-4.76,10.79-7.15,16.18-2.28,5.14-5.71,9.66-7.55,15-.37,1.07-1.27,1.48-1.78,2.29"/><path class="cls-3" d="M233.42,477.15c3.67,1.5,7.44,2.7,10.73,5.11,1.34,1,1.14,2.2,1.32,3.26.84,5.1,3.32,9.61,5,14.41,1.1,3.21,2.15,6.43,3.21,9.63a1.65,1.65,0,0,1-2.06.18c-6-3.24-12.18-6.26-17.9-10.06a34.45,34.45,0,0,0-5.16-2.35"/><path class="cls-3" d="M537.34,387.76c1.46,1.93,4.14.75,5.81,2.26a5.2,5.2,0,0,0,1.42.57c4,1.43,2.34,4.41,2,7-.69,4.91-1.32,9.85-2.33,14.7-1.56,7.48-2.3,15.1-4.22,22.51-.4,1.54-1.13,3.2-.34,4.89"/><path class="cls-3" d="M529.84,103.45a11.59,11.59,0,0,1-1.11,7.3c-1.67,3.55-1.52,7.78-2.1,11.73s-1.22,7.73-1.48,11.55c-.18,2.62.13,5.34-.17,8.06-.87,8-1.4,16-2.85,23.94-1.15,6.27-1.65,12.67-2.34,19a2.57,2.57,0,0,1-.91,2"/><path class="cls-3" d="M527.54,87c-2.27,1.87-2.82,4.58-3.11,7.22A104.91,104.91,0,0,1,521.73,108c-1.17,4.67-1.86,9.39-2.61,14.13-1.29,8.16-1.11,16.55-3.7,24.52"/><path class="cls-3" d="M680.36,501.37a6.15,6.15,0,0,0-2.5,3.77,7.31,7.31,0,0,1-2.78,4.44c-3.47,2-4,5.6-5.63,8.55-4.4,8-7,16.72-11.22,24.81-2.26,4.36-4.81,8.54-7,12.92-.32.63-.9,1-.25,1.75"/><path class="cls-3" d="M636.53,499.35c-2.85,3.09-4.55,6.94-5.9,10.72a102.86,102.86,0,0,1-4.94,10.82c-2.85,5.78-5.59,11.62-8.4,17.42-.82,1.68-1.91,3.19-2.62,4.89-.36.85-1.17,2-.59,2.82,2.71,3.82,4.35,8.29,7.45,11.86"/><path class="cls-3" d="M655,499.64c6,.06,11.85-1.69,17.88-1.23a7.36,7.36,0,0,0,4-.89c3.16-2,6.65-2.78,10.15-3.66.88-.22,1.3-1,1.74-1.61-2.33-5.77-4.57-11.47-6.94-17.12-1.69-4-4.56-7.35-7-10.9-1.53-2.21-4.61-1.59-6.8-1.12a75.9,75.9,0,0,1-24.82,1.05c-5.74-.64-10.07,2.22-11.81,7.78a3.84,3.84,0,0,0,.57,4"/><path class="cls-3" d="M575.69,500.79c-2.45,5.68-6,10.78-8.82,16.21-3.76,7.16-8,14-11.75,21.22-1.4,2.7-2.83,5.41-4.23,8.12"/><path class="cls-3" d="M655.85,391.51c1.55-.22,2.51.75,3.5,1.78-.38,2.76-1.86,5-3.16,7.48-3.14,5.88-6.52,11.63-9,17.84a81.28,81.28,0,0,1-6.61,12.4,4.13,4.13,0,0,1-1.15,1.15c-1.81,1.26-2.88.76-3.17-1.43-.06-.48-.19-1-.28-1.44"/><path class="cls-3" d="M712.66,280.78a8.23,8.23,0,0,0-1.22,4.91c.3,2.29-1.89,3.71-2.64,5.72a41.93,41.93,0,0,1-2.18,4.08c-1,1.87-.52,4.37.86,5.19,1.18.7,3.91-.51,4.91-2,4.86-7.29,9.21-14.89,13.6-22.46,1.3-2.24,2-4.69,3-7a2.64,2.64,0,0,0-.81-3.44,8.25,8.25,0,0,0-6.15,4.56c-2.69,4.71-5.34,9.49-8.49,13.94a3.1,3.1,0,0,1-1.76,1.42"/><path class="cls-3" d="M475.92,217.06a27.94,27.94,0,0,1,10,2.69c6.91,3.26,14.09,5.9,21.18,8.61,5.39,2.06,10.68,4.64,16.36,5.94,1.24.28,1.76,1.78,3.16,1.5"/><path class="cls-3" d="M583.19,322.3c6.89,1.3,13.24,4.29,19.9,6.34a51.86,51.86,0,0,1,14.67,7.52c-2.8,2.93-4.42,6.51-6.9,9.62-9.49-2.87-18.73-6.24-27.1-11.65-4.29-2.77-6.7-5.89-1.15-11.83"/><path class="cls-3" d="M415.37,260.31c-4.37,3.72-9.11,7.09-11.84,12.39a2,2,0,0,1-1.1,1c-4.45,1.89-8,5.14-11.83,8-1.7,1.29-3.87,1.94-5.3,3.92,2.59,5.21,2.15,11.09,2.62,16.81.17,2.07-1,4.18-.22,6.34"/><path class="cls-3" d="M487.74,64.81c-.79,3.72-.43,7.5-.63,11.24-.1,1.81.7,3.4.69,5.19,0,5.61-.65,11.16-1.18,16.73-.22,2.29,0,4.61,0,7-2.67,1.58-5.36,3.26-7.21,5.94"/><path class="cls-3" d="M641.15,505.4a50.27,50.27,0,0,0-5.65,12.15c-2.08,6-5.31,11.39-8.18,17-2.42,4.7-4.33,9.66-7.21,14.13"/><path class="cls-3" d="M540.51,119.59q-.72,11.85-1.92,23.65c-.82,8.15-1.84,16.28-2.28,24.49-.32,6-.92,12-1.81,17.89a22.71,22.71,0,0,1-1.75,5.19,3.81,3.81,0,0,1-4.63,2.54c-1.58-.28-2.81,1.07-4.33.62"/><path class="cls-3" d="M497.4,347.68c.57-2.67-.7-5.56,1.24-8.12.75-1,.83-2.52,2.37-2.83,2.09-.42,4.2-1.09,6.34-.29,3.11,1.17,6.34,6.25,6,9.51a11.72,11.72,0,0,1-2.07,5.44c-2.67,3.92-4,8.5-6.46,12.51-.87,1.4-.57,3.58-.67,5.41-.45,8.65-.49,17.31-1.18,25.95a7.29,7.29,0,0,1-.28,1.15"/><path class="cls-3" d="M206,86.43c2.75,2.35,3.68,5.51,4.76,8.89,2.29,7.19,4.31,14.46,6.39,21.7,1.08,3.74,2,7.49,3.85,10.93"/><path class="cls-3" d="M223.33,493.87a11.78,11.78,0,0,1-3.78,7.75c-2.87,2.74-5.25,5.89-8,8.71-2.26,2.29-2,3.95.86,5.43,9.4,4.82,18.43,10.27,27.43,15.8,3.52,2.16,7.53,3.56,11.19,5.56"/><path class="cls-3" d="M539.36,389.49,531.57,435"/><path class="cls-3" d="M348.47,355.17c-5-2.5-10-4.92-15-7.51-7.25-3.79-14.75-7-22.21-10.36-1.42-.63-2.17-2.93-4.32-1.73"/><path class="cls-3" d="M514.85,128.82a1.67,1.67,0,0,1,.85,1.73c-1,4.17-.58,8.53-1.65,12.71a5.08,5.08,0,0,0,.46,3.76c1.05,1.92-.33,3.85-.63,5.72-.8,5-1.24,10-1.67,15-.4,4.62-1,9.22-1.43,13.84-.41,4.28,2.54,10.23,6.39,12.09,2.06,1,4.22.46,6.33,0"/><path class="cls-3" d="M202.57,154.2a10.06,10.06,0,0,1-4-.36,6.9,6.9,0,0,0-1.39,5.58c.65,4.24,2.49,7.91,3.85,11.82s3.46,7.15,4.68,10.93c.68,2.11.42,4.52,2,6.34"/><path class="cls-3" d="M209.2,197.16c.22,5.21,2.34,10,3.36,15,.72,3.54.28,7.36.81,10.92a148.68,148.68,0,0,0,5,21.37c1.53,5,3,10,4.67,15"/><path class="cls-3" d="M263.41,193.41c-8.84,8.82-18.81,16.27-29,23.59-2.68-1-5.57-2-8.45-3.12a2.32,2.32,0,0,1-1.5-2c-1.53-7.27-2.73-14.6-4.1-21.9-.56-3-2.5-6-2-8.93.53-3.21-.23-6.18-.19-9.26,0-1,.33-2.21-1.15-2.6"/><path class="cls-3" d="M275.81,355.75c.89.53,1.55,1.47,2.6,1.72,2.93.69,3.83,2.86,4.34,5.49,1.09,5.59,2.32,11.15,3.4,16.74.17.9.86,1.31,1.12,2.3,2.33-2,3.78-4.48,5.53-6.65,1.09-1.36,2-1.66,3.81-.94,2.24.91,4.77,1.08,7,2.11"/><path class="cls-3" d="M474.77,123.34c6.42,4.28,13.87,6,21.06,8.32,2.07.67,3.9,1.85,6,2.38a19.81,19.81,0,0,0,12.7-.62"/><path class="cls-3" d="M202.57,89c-.37,3.5.64,8.21,1.64,12.13s1,8.09,1.87,12.08a67.75,67.75,0,0,0,6,18.16,4.28,4.28,0,0,1,.25,1.46"/><path class="cls-3" d="M497,346.52c-6.73-3.27-13.49-6.47-20.16-9.85a9.7,9.7,0,0,0-4.93-1.39c-3.35,6.42-8.2,11.82-12.16,17.84-3.51,5.35-7.49,10.38-11.17,15.62-1.11,1.58-3,2.57-3.49,4.6"/><path class="cls-3" d="M443,471.09c2.78,1.35,3.44,2.4,2.57,4.89-1.47,4.22-1.21,8.68-2,13-.16.89.14,1.45,1.09,2.08,4.86,3.24,10.36,5.25,15.39,8.19,2,1.17,4,2.44,6,3.57"/><path class="cls-3" d="M497,348.83c1,2.64.15,5.38-.44,7.75-1.92,7.66-2.88,15.28-1.57,23.11.09.56-.3.8-.57,1.16-3.47,4.6-7.13,9.09-10.33,13.88-2.55,3.81-4.7,7.89-7.58,11.47-3.12,3.87-5.4,8.26-8,12.42"/><path class="cls-3" d="M449.68,511.46c-4.84-2.91-10.26-4.68-15-7.77-2.39-1.56-4.62-3.36-7.31-4.52-4.56,5.79-10.37,10.75-14,17.47-3,5.52-6.25,10.94-9.8,16.15-1.42,2.08-1,4.41-1.43,6.65a52,52,0,0,0-.56,13.27"/><path class="cls-3" d="M592.13,82.11a2.66,2.66,0,0,1-.58,3.17c-2.18,2.67-2.42,5.67-1.77,8.95.4,2-.43,4-.82,6-1.47,7.57-2.45,15.23-3.94,22.8-.51,2.61-.61,5.37-1,8-.21,1.45.6,2.67.6,4"/><path class="cls-3" d="M503.89,363.54c-1.19-2.56-.34-5.53-1.71-8.09s-2.14-5.48-4-7.94c-4,1.95-5.22,6-7.5,9.14-4.74,6.49-9.47,13-14.47,19.28-1.83,2.31-3.38,4.81-5.44,7-1.76,1.84-.93,4.15-.6,6.31a14.28,14.28,0,0,1-.19,4.63,100.61,100.61,0,0,0-1.19,12.38,10.12,10.12,0,0,1-.79,4.24,7.9,7.9,0,0,0-.26,6.94c1.49,4.17-1.1,6.72-2.88,9.51-.9,1.41-3.29,1.38-4.76.83a43.36,43.36,0,0,1-7.51-4,2.87,2.87,0,0,1-1.31-3.44c.51-2.49.13-5.16.13-7.76"/><path class="cls-3" d="M375.86,300.39c2.07,4.09,2.6,8.63,3.87,12.94,1.05,3.56-.08,5.5-2.69,7.57-8.24,6.51-14.58,14.84-21.41,22.71-2.35,2.71-5.15,5-7.75,7.53"/><path class="cls-3" d="M241.49,502.52c-1.6-5.36-3.36-10.67-5.4-15.89-1.2-3.06-3.24-5.92-3-9.49.05-.76-.58-1.43-1.19-2.2A79.47,79.47,0,0,1,243,463.09c1.43-1.3,3.23.35,4.84.78,3.6,1,5.87,4,8.89,5.85,1.87,1.15,3.46,2.71,5.45,3.81,1.36.75,2.3,2.35,3.12,4.12,3.81,8.17,6.61,16.75,10.44,24.9,1.62,3.44,3.92,6.48,5.33,10a8.76,8.76,0,0,0,.78,2.05"/><path class="cls-3" d="M477.65,74.32c-.72,10.46-.64,21-.86,31.43a21.85,21.85,0,0,0,.28,5.19"/><path class="cls-3" d="M158.16,272.71a6.19,6.19,0,0,0-3.37,2.94,3.74,3.74,0,0,0-.24,3.76c3.35,8.18,5.62,16.76,8.61,25.09a42.06,42.06,0,0,1,2.79,10.6"/><path class="cls-3" d="M390.86,360.65l-.62-2.56a1.83,1.83,0,0,1,2.37-.35c2.66,1.31,5.38,2.5,8.06,3.78,9.23,4.41,18.48,8.78,27.67,13.29,4.21,2.06,8.94,3,12.72,6,.49.39,1.11,1.08,2.07.1a1.67,1.67,0,0,0,.55-1.81,8.5,8.5,0,0,1,.82-5.18"/><path class="cls-3" d="M536.19,380.26c-4.1-.83-6.31-4.57-9.8-6.35-2.65-1.35-5-3.19-8.06-3.81a3.25,3.25,0,0,0-2.93.59c-3.28,2.3-4.34,5.9-5.66,9.31a16.06,16.06,0,0,0-1.31,4c-.36,3.06-2.91,4.58-6,3.73-2.34-.65-4.46-.91-6.7.52a5.87,5.87,0,0,0-1.66,1.54c-1.36,1.85-2,4.17-3.7,5.82-.38.36-.06,1.48-.06,2.25"/><path class="cls-3" d="M335.5,156.5c4.52,3.14,9.14,2.91,13.5-.08,1.62-1.11,3.46-1.82,4.93-3.35a14.16,14.16,0,0,1,2.67,7.17c.72,7.81,1.2,15.67,2.92,23.34.35,1.55.16,3.16.78,4.63"/><path class="cls-3" d="M449.39,514.92c-5.14,5.57-10.21,11.19-14.75,17.21,1.81,3.51,1.76,3.86-1.41,5.83-1.28.79-2.64,1.27-2.68,3.19a3.29,3.29,0,0,1-1.08,2c-3.89,3.11-3.64,7.28-3.16,11.56a38.83,38.83,0,0,1,0,10.09"/><path class="cls-3" d="M222.9,155.64c-1-.29-1.95-.89-3-1.19a32.3,32.3,0,0,1-10.73-4.8c-4-2.9-8.9-3.58-13.5-5-1.78-.54-3.48-1.31-5.22-1.95-2-.72-3.43.63-3.44,2.82a21.46,21.46,0,0,0,.58,4.9"/><path class="cls-3" d="M460.64,146.7c.38.48,1.12,1,1.1,1.44-.2,3.76.69,7.33,1.39,11a82.52,82.52,0,0,1,.95,11.8,69.2,69.2,0,0,1-.94,13.83c-.37,2.39-.72,4.67.12,6.92,1,2.62,0,4.55-1.74,6.37-.78.8-2.09,1.36-1.75,2.87"/><path class="cls-3" d="M434.4,397.85c1,2.41.82,5,.77,7.5-.1,5.51.39,11,.78,16.43.52,7.31,1.38,14.58,1.73,21.92.24,5.11-1.48,9.44-3.93,13.52-2.95,4.9-6.41,9.5-9.62,14.2-1.59-.41-3.27-.19-4.44-1.47"/><path class="cls-3" d="M365.77,376.22a35.2,35.2,0,0,1-9.14-4.18c-3.54-2.12-7.63-2.66-11.14-4.89-2.06-1.31-5.24-.3-7,1.38a66.11,66.11,0,0,0-7.87,8.56c-2.85,3.87-2.88,8.25-2,12.67.26,1.25,0,2.55.7,3.82.43.78,0,1.88-1,2.92-2.74,2.84-4.51,6.53-7.58,9.15-.94.8-1.67,1.85-2.89,2.3"/><path class="cls-3" d="M414.79,275.3c2.06,0,3.6,1.47,5.46,2.07,2.05.65,1.18,2.36.54,3.38-3.6,5.74-6.77,11.78-11.48,16.76a138.25,138.25,0,0,0-10.95,12.69c-5.93,8-13.49,14.7-19.15,23a27.78,27.78,0,0,1-5.12,5.8,4.89,4.89,0,0,0-1.7,4.64"/><path class="cls-3" d="M388.26,450.62c1.23,11.19,4.13,22.15,4.61,33.45"/><path class="cls-3" d="M598.18,323.17c-6.71-4.66-14.35-7.31-21.93-10-2.32-.84-4.39-2.22-6.88-2.74-1.57-.33-2.17-2.08-1.71-3.64.64-2.18,3.2-3.69,5.14-3.16,1.67.46,3.26,1.16,4.91,1.7,5.88,1.91,11.32,4.93,17.27,6.72a17.26,17.26,0,0,1,7.46,3.89c-1.73,2-2.53,4.41-4,6.41"/><path class="cls-3" d="M503,168.61c1.92,0,.62,1.52.51,1.68a49.44,49.44,0,0,1-4.28,5.5c-4.92,5.22-8.44,11.62-13.8,16.47-1,.89-1.84,1.84-3.39,1.3-.95-1.9-.58-4.08-.67-6.22-.12-3.08.18-6.16-.48-9.25-.32-1.52.44-3.16.33-4.89-.17-2.58-1.47-3.25-3.58-3.78-2.48-.62-5.09-.47-7.51-1.4"/><path class="cls-3" d="M206.32,155.93c1.28-.59.77-2.78,2.84-2.92,1.22,1.82,1.11,4,1.21,6.09.22,4.92,1.75,9.61,2.59,14.42,1,5.78,2.29,11.51,3.12,17.31,1.28,9,3.94,17.85,4.11,26.82.21,10.61,5,19.87,6.63,30,.34,2.13,1.2,4.17,1.42,6.35.1.95.48,2-1.17,1.59"/><path class="cls-3" d="M296.86,452.06c2.39,2.62,2.79,6.13,4,9.25,2.91,7.7,6,15.35,8.14,23.33"/><path class="cls-3" d="M456.31,515.21a25,25,0,0,0-6-3.72c-.08,1.8-1.23,3.13.16,4.94,1.1,1.44.41,3.59.83,5.44.59,2.58.33,5.35.41,8,.06,2-1.92,2.58-3,3.68a104.15,104.15,0,0,0-19.82,29.77"/><path class="cls-3" d="M542.53,390.35c-.45,3.85-.8,7.7-1.39,11.54-.81,5.25-2.56,10.29-3.24,15.56-.56,4.34-1.39,8.64-2,13a15.34,15.34,0,0,1-.62,4"/><path class="cls-3" d="M385.09,508.29c1.06,1.26,1,3,1,4.33,0,6.73,1.11,13.44.44,20.19a3.6,3.6,0,0,1-.56,1.46c-1.19,2.17-3,4.08-2.72,6.91.07.82-.77,1.81-1.38,2.57-2.47,3.11-3.48,6.92-5.2,10.38-2.13,4.3-5.48,7.81-8.11,11.79-1.34,2-2.36,4.25-4,6.1"/><path class="cls-3" d="M311,203.5c-3.49-1.55-7.42-1-11-2.28a1.74,1.74,0,0,0-1.14.27c-2.44,1.21-5,2.15-7.44,3.3-1.14.54-1.38,2.36-1.4,4.19,0,5.05,1.26,10,1,15a6.19,6.19,0,0,0,.88,3.75"/><path class="cls-3" d="M499.28,63.08a1.32,1.32,0,0,0-.76-1.52c-2.3,1.69-4.87,3.05-6.54,5.79-1.09,1.77-.49,3.39-.4,5,.47,7.9-.1,15.77-.32,23.65-.19,6.66-1.34,13.24-1.51,19.89a8.71,8.71,0,0,1-.28,1.44"/><path class="cls-3" d="M191.61,131.13c.1.1.29.25.27.28-2.78,5.25-1.72,4.93,3.76,7.23,4.45,1.86,8.88,3.77,13.26,5.78,2.62,1.2,4.43,3.77,7.5,4.36,1.71.33,3.54.66,4.93,2,5.84-2.91,11.34-6.23,14.4-12.39"/><path class="cls-3" d="M435.55,154.2c1.28-.22,2.32.68,3.11,1.24,4.06,2.87,8.73,4.16,13.33,5.67a12.38,12.38,0,0,1,4.93,2.82c-1.23,2.85-1.1,5.89-1.07,8.73.07,6,.79,11.92-.12,17.88-.4,2.62-2.05,4.81-2.4,7.48-.13,1-1.59.63-2.5.59-1.55-.08-3.09-.15-4,1.44"/><path class="cls-3" d="M498.41,300.68c.87-1.63,1.46-3.51,2.65-4.86,3.73-4.23,7-8.87,11.41-12.49.76.17,1.58.44,1.48,1.19-1.06,7.66-.84,15.4-1.66,23.08-.33,3.09-1.62,5.85-2.73,8.61-1.62,4-4,7.71-5.92,11.59-.31.61-.75.63-1.19.85"/><path class="cls-3" d="M535.61,113.54c-1.2-.6-1.08-1.86-1.44-2.89-2.81,0-2.08,2.75-2.14,3.77-.5,7.91-2.72,15.53-3.56,23.35-.6,5.56-1.63,11-1.78,16.71-.15,5.93-1.85,11.91-2.54,17.89a177,177,0,0,0-1.53,18.45,5,5,0,0,0,.59,2.6"/><path class="cls-3" d="M182.09,162.85a4.48,4.48,0,0,1,3.76-.63,38.2,38.2,0,0,1,7.53,2.26,4,4,0,0,1,2.4,3c-.19,4.57,2.29,8.4,3.17,12.66,1.83,8.9,5,17.5,6.22,26.55.32,2.33.92,4.62,1.42,6.92a4.69,4.69,0,0,0,1.4,2.92c1.55,1.33.88,3.45,1.36,5.18.31,1.13.65,2.29,1,3.43"/><path class="cls-3" d="M273.5,342.2c-.09,1.64-1.7,1.6-2.62,2.27-2.87,2.09-4.09,4.39-2.8,7.22,3.31,7.28,4.73,15,5.94,22.81a37.18,37.18,0,0,0,3.5,11.53c.74,1.44,1.41,3,.31,4.6"/><path class="cls-3" d="M474.77,232.34c1.35,1.88,3.57,2.13,5.49,2.85,5.18,1.95,10.06,4.68,15.55,5.82,2.23.46,3.73,1.7,3.47,4.3a10.08,10.08,0,0,0,.57,3.46"/><path class="cls-3" d="M500.14,187.07c-5.14,5.39-9.79,11.18-14.45,17-2.51,3.13-5.35,6-8,9-1,1.07-2.3,1.88-2.59,3.46"/><path class="cls-3" d="M255.62,484.07c2.36,6.49,5.54,12.68,7.46,19.33,1.3,4.5,2.94,8.91,3.79,13.54"/><path class="cls-3" d="M178.92,251.95a164.92,164.92,0,0,1,6,21.34c.28,1.19.25,1.2-.9,3.25a7.32,7.32,0,0,0-5.15.21"/><path class="cls-3" d="M414.21,261.75c1.75,1.54.16,3.38.09,4.89-.18,3.64-.06,7.31-.49,11-.5,4.23-2.64,7-5.36,9.79-5.06,5.15-9.74,10.65-14.47,16.1a21.61,21.61,0,0,1-5.72,5.23,3.38,3.38,0,0,0-1.44,1.73"/><path class="cls-3" d="M306.95,235.51c-1.27-1.23-2.08-2.78-3.7-3.82-4.91-3.13-8.23-2.55-11.29,2.38,2.5,2.74,2.93,2.85,5.44.25,1.13-1.17,2.37-1.54,3.45-.76,1.58,1.14,3.08.66,4.66.51"/><path class="cls-3" d="M330.88,406.5c-2.2,3.33-5.21,5.94-7.83,8.9a9.09,9.09,0,0,0-2.34,8.13c.73,4.62,2.09,9,3.21,13.55,1.31,5.27,2.19,10.66,3.83,15.84,1.15,3.61,1.47,7.43,2.85,11"/><path class="cls-3" d="M528.69,361.52a23.09,23.09,0,0,0,7.25,4.24c3.8,1.63,7.5,3.5,11.46,4.81,2.77.91,5.29,2.68,7.79,4.26,1.3.82,1.34,2,.06,3.17-.79.74-2.23.84-2.34,2.27"/><path class="cls-3" d="M410.75,399.58a5.69,5.69,0,0,0-1.83,5.2,147.84,147.84,0,0,1,0,23.92c-.18,2.51,0,5-.21,7.5-.07,1,.26,2.05-.58,2.88"/><path class="cls-3" d="M485.44,536.55c-2.11-3.22-.47-5.61.92-8.75a39.35,39.35,0,0,1,9.41-13.51,4.1,4.1,0,0,1,2.06-1.14c3.43-.82,8.31,1.56,9.22,3.81.79,1.94.92,7.33-1.7,10.1a37,37,0,0,0-4.63,5.46c-1.86,2.94-4.13,5.4-7.78,6.06"/><path class="cls-3" d="M288.5,411.4c-1.5,2.5-.57,5.33.16,7.44,3.08,8.89,4,18.3,7,27.17,1.06,3.08.37,6.34.64,9.51.62,7.17,1.68,14.27,4.29,21.05"/><path class="cls-3" d="M481.69,487.53c3.78,2.26,7.35,4.84,11.23,6.94,5.33,2.89,10.58,5.94,15.87,8.92"/><path class="cls-3" d="M376.73,514.63c.67,2,.37,4,.37,6.06,0,4.13.65,8.26.73,12.4.06,3,1,6-.24,8.94"/><path class="cls-3" d="M421.42,333.55c.41-1,1.4-1.49,2.34-2.55-5.9-2.81-10.82-6.94-16.5-9.79-2.5-1.25-5.38-.83-8,0a2,2,0,0,0-1.47,2.84c.42,1.16.41,1.82-1.08,2.69a49,49,0,0,0-13.9,12.58"/><path class="cls-3" d="M181.23,219.94c-1.64-1.2-4.86-.7-5.07,1.17-.61,5.57-5.32,7.11-8.68,10.19-3.79,3.48-7.12,4.08-11.06.76"/><path class="cls-3" d="M377.31,410.83c-5.23-4-11.49-6.07-17-9.51-1.08-.67-1.91-.25-2.91.53-3.57,2.77-7.62,4.94-10.62,8.42a4.46,4.46,0,0,1-2.32,1.43"/><path class="cls-3" d="M458.62,511.75c-5.8-3.41-11-7.78-17.27-10.45a14.68,14.68,0,0,1-5.25-3.13L433,501.94"/><path class="cls-3" d="M304.64,568.26c-.18,1.6,1,2.5,2.05,3.11,2.72,1.64,5.32,3.58,8.61,4.13a14.8,14.8,0,0,1,6.57,3.23,30.58,30.58,0,0,0,8.14,4.53"/><path class="cls-3" d="M294.26,123.34c0,7.06-1.78,14-1.73,21a19.57,19.57,0,0,0,0,2.31c.56,4.4.17,5.14-3.76,6.92a.31.31,0,0,1-.28,0s0-.18,0-.28"/><path class="cls-3" d="M341,173.51c-2.45-2.21-5.54-3.33-8.35-4.92-2.54-1.44-5.43-1.79-8.36-2.91-3,3.52-7.25,6-9.85,10.19,1.26,2.72.85,6,2.62,8.59"/><path class="cls-3" d="M245.53,483.2c1.92-.43,3.11,1,4.65,1.64,2.06.79,1.68,2.3,2.05,3.82a64.16,64.16,0,0,0,2.85,8.65c1.75,4.32,2,9.24,5.16,13-.87,3.33,2.38,4.11,3.75,6.06"/><path class="cls-3" d="M305.51,337c-5.76,4.89-10.43,11-17,15.07a27.58,27.58,0,0,0-7,6.84"/><path class="cls-3" d="M571.65,172.07c-1.11,3.08-.9,3.41,2.88,4.61a42.65,42.65,0,0,1,12.45,5.7c1.49,1.07,2.13,2.08,2,3.82-.18,2,.36,4.11-.59,6.05"/><path class="cls-3" d="M319.64,127.67c-1.21.9-1.88,2.27-3.08,3.28-3,2.52-5.83,2-9,.8a51.73,51.73,0,0,1-10.08-4.65,2.29,2.29,0,0,0-2.59-.3"/><path class="cls-3" d="M528.11,235.51a78.23,78.23,0,0,1-3.2,18.73c-.71,2.19-.18,4.68-1.69,6.75a18.11,18.11,0,0,0-4.91-1.58c-2.47-.35-3.25-1.93-2.9-4.3.62-4.22.94-8.5,1.83-12.67.49-2.31.39-4.67,1-7,.21-.81.86-1.24,1-2"/><path class="cls-3" d="M369.81,532.8c-2.52.88-4-1.33-5.38-2.43-4-3.16-8.52-5.41-12.6-8.39a49.09,49.09,0,0,1-5.37-4.15c-5.76,9.24-12.6,17.37-19.62,25.35"/><path class="cls-3" d="M571.08,175.53c-.86,2.92-.93,6-1.66,9a17.21,17.21,0,0,1-1.43,4.65,11.91,11.91,0,0,0-.8,8.56c.44,1.8,2.82,2.65,4.75,2.87,5.57.64,10.73,2.66,15.82,4.73,3.42,1.39,6.42-.26,8.52-1.74,2.64-1.87,5.6-4.46,6.15-8.14.52-3.44,1.31-6.9-.42-10.42-.92-1.87-1-4.2-1.43-6.32-.29-1.3-1.28-1.88-1.79-1.62-2.41,1.26-5,1.13-7.54,1.34-.46,0-.57.4-.86.59"/><path class="cls-3" d="M537.63,503.1c5.9,2.62,11.52,5.79,17.3,8.65,3.78,1.87,3.89,1.87,2.86,5.48-2,7.13-3.63,14.4-6.29,21.35a4.18,4.18,0,0,1-.61.85"/><path class="cls-3" d="M514.56,410c-.21,8.4-1.61,16.7-2,25.09"/><path class="cls-3" d="M374.71,514.92c-1.07,1.07-1,2.44-.84,3.75a43.23,43.23,0,0,1,0,10.38c-.4,3.11.51,6.14.69,9.22,0,.62-.33,1.16-.11,1.74"/><path class="cls-3" d="M403.83,411.11a6.11,6.11,0,0,0,.43,3.81c1.4,3.09.69,6.68,1.28,10,.83,4.68.16,9.59,2,14.13"/><path class="cls-3" d="M180.08,214.17c-3.74,1.15-6.11,4.28-9.22,6.35-3.46,2.3-6.69,4.94-10.36,7a18.07,18.07,0,0,0-5.45,4.9c-1.38,1.8-1.27,4.24-.81,6.28s2.66,2.26,4.51,2.3c1.05,0,2.11.76,3.17,0"/><path class="cls-3" d="M473.33,185.77c-2.3.87-1.32,3-1,4.15a80.15,80.15,0,0,1,1.35,9.83,8.21,8.21,0,0,0,1.54,3.55c-1.76,2.91-4.27,5.2-6.53,7.65-5.2,5.65-10.71,11-16.08,16.49-.14.15,0,.38.28.57"/><path class="cls-3" d="M443.91,373.34c2.83,1.36,5.64,2.85,8.28,4.45a44.1,44.1,0,0,0,11.92,5,37.22,37.22,0,0,1,5.46,2.11"/><path class="cls-3" d="M492.65,67.4c1.86,2.75,5.17,2.82,7.84,3.92,3.42,1.41,6.36,3.62,9.66,5.22,2.31,1.12,4.79,1.53,7,2.69"/><path class="cls-3" d="M402.1,555c2.61,2.43,6.21,2.74,9.26,4.27,5.36,2.69,11.27,4.11,16.7,6.69"/><path class="cls-3" d="M248.41,339c-2.17,3.12-2.13,6.62-1.38,10.08a25.92,25.92,0,0,1,.59,7.23c-.26,4.35,1.78,8.39,2.29,12.68.09.72,1.08,1.07,2,.87"/><path class="cls-3" d="M337.51,260.88c-1.57-5.57-1.44-11.41-2.81-17a7.25,7.25,0,0,1,1-5.23c1.78-3.27,3.19-6.76,5-10.31-3.12-1.26-6.06-4-9.8-1.69a20,20,0,0,0-5.61,4.48c-.9,1.16-1.46,2.93-3.35,3.29-.74.14-.48,1.06-.61,1.68-.9,4.27.67,8.28,1.17,12.4a69.06,69.06,0,0,1,.87,8.36"/><path class="cls-3" d="M479.09,459.56c-7.43-2.77-14.86-5.56-22.1-9.85-4,5-8.58,9.86-13,15,1.92,2.61,5,2.81,7.45,4a135.37,135.37,0,0,1,18.72,10.43"/><path class="cls-3" d="M342.13,173.8a1.71,1.71,0,0,0-.82,2.29,54.56,54.56,0,0,1,3.74,11.83,2.19,2.19,0,0,0,1.36,1.53,45.5,45.5,0,0,1,7.78,5.06,1.32,1.32,0,0,1-.27,1.29c-5.15,2.31-7.72,7.22-11.16,11.21-1.33,1.54-1.5,3.45-.81,5.77.63,2.11,1.14,4.37,1.62,6.58"/><path class="cls-3" d="M304.35,334.41a27.12,27.12,0,0,0-10.1,6,43,43,0,0,1-14.15,9.74c-2,.8-3.45,1.71-4,3.81a3,3,0,0,1-.58,1.15c-.59.69-1.05.34-1.43-.28"/><path class="cls-3" d="M391.72,398.43c-5.48-3.06-11-6.06-16.74-8.62a29.53,29.53,0,0,0-3.18-1.7c-1.06-.31-2.29-1.37-3.44-.07"/><path class="cls-3" d="M324.25,545.77c-4.21,4.13-7.1,9.35-11.23,13.57-3,3.07-5.5,6.59-9.19,9-1.08.7-1.06,2.51-1.25,3.95a77.74,77.74,0,0,0-.54,10.39"/><path class="cls-3" d="M569.06,188.8a115.68,115.68,0,0,0,15,5c2.7.65,5.43,1.56,8.11,2.46"/><path class="cls-3" d="M352.51,203.21c0,2.31,2.35,2.92,3.47,3,4.73.37,4.91,3.73,5.48,7.08,1,5.83.2,11.75.85,17.59"/><path class="cls-3" d="M275.23,341.62c-2.55.51-5-.33-7.5-.55-3.68-.32-7.26-1.25-11-1.53a6.78,6.78,0,0,1-3.69-1.46c-.95-.81-1.77-.43-2.66-.5"/><path class="cls-3" d="M403,536.55c5,3,10,6,15,8.92a16.79,16.79,0,0,0,7.78,2"/><path class="cls-3" d="M329.44,396.12c1,1.23.49,2.68.56,4,.19,3.35.94,6.16,4.6,7.56,3.24,1.24,6.19,3.21,9.54,4.26"/><path class="cls-3" d="M476.5,293.47a68.69,68.69,0,0,0,9.74,3.71,83.33,83.33,0,0,1,11.59,3.52,2.46,2.46,0,0,1,1.74,2c.57,5.38,1.09,10.77,1.76,16.14a34.58,34.58,0,0,1,.23,6.06c-.12,2.38,1.22,4.54.88,6.92a15.68,15.68,0,0,1-.56,2"/><path class="cls-3" d="M345.3,418.61c4.23,2.4,8.43,4.85,12.7,7.18,1.55.85,2.63,2.2,4,3.21a20.58,20.58,0,0,0,9,3.66c1.38-1.21,2.28-3.21,3.78-4.76.45.27,1.1.48,1,1.38-.33,4.88,1.17,9.58,1.57,14.4.2,2.41,2.22,4.27,4.39,5.89s3.78,1.57,6.16.86a44.73,44.73,0,0,0,8.91-3.85"/><path class="cls-3" d="M367.79,432.45c2.42,7.35,3.68,15,5.46,22.5a8.94,8.94,0,0,1,0,2"/><path class="cls-3" d="M447.09,474a11.65,11.65,0,0,0,3.72,1.81c5.51,1.77,10.27,5.2,15.57,7.48,1,.42,1.7,1.07,2.77.51"/><path class="cls-3" d="M317.33,121.32c-.26,1.86-2.12,2.11-3.18,3.16-1.36,1.34-2.8,2.59-4.32,4-5.4-2.62-10.76-5.17-16.72-6"/><path class="cls-3" d="M435.84,147c3.76,2.13,7.2,4.84,11,6.82,3.43,1.79,7.69,1.35,11.33,3.19-.8,2.07-.48,4.35-1.87,6.13"/><path class="cls-3" d="M282.73,550.67c-2.78-2.51-4-6.1-6.34-8.94-6.51.54-11.35,8-9.77,15.56a51.19,51.19,0,0,0,2.85,8.66"/><path class="cls-3" d="M537.05,380.26c-1.81.46-1.25,2.41-2.23,3.53-3.6,4.09-7,8.32-10.67,12.4-3.3,3.71-7,7.32-8.41,12.34-.38,1.33-1.07,1.36-2,.85-6.71-3.5-13.94-5.93-20.48-9.8"/><path class="cls-3" d="M321.08,420.34a46.65,46.65,0,0,1,14.66,5c2.72,1.46,5.41,3,8.26,4.27-.72,1.75-.2,3.14.08,4.6.21,1.1.93,2.38-.23,3.45"/><path class="cls-3" d="M380.48,120.17c2.32,6.94,2.64,14.11,2.31,21.34"/><path class="cls-3" d="M375.86,216.48c-1-1.6.33-2.9.6-4.32.4-2.06,2.15-1.52,3.43-1.39a1.39,1.39,0,0,0,1.65-1.46c-1.31-3.52,2.18-3.63,3.27-5.22.36,0,.49,0,.55,0,4.22,3.35,4.23,3.36,1.73,8.35a25.5,25.5,0,0,0-2.54,10.67c-.19,5.86-1,11.77.53,17.59"/><path class="cls-3" d="M373.27,496.75c.49-.87-.38-.39-.56-.59-4.48-4.86-4.71-3.16-1.06-8.8,3.92,1.38,8.43,2,10.74,6,1.36,2.32,2,5.15,3,7.73,1.62,4.11.69,6.35-3.45,8.33a6.53,6.53,0,0,0-3.74,4.06"/><path class="cls-3" d="M300.32,331.53c6.88,2.65,8.89,8.26,9.27,15a33.94,33.94,0,0,0,1.53,7.75c1.21,4,.83,8.41,3,12.15,1,1.64-.48,2.24-1.45,2.86-2.68,1.7-4.83,4.09-7.51,5.75-1.94,1.2-1.43,3-1.76,4.65-.37,1.86-.29,3,1.76,3.83,1.68.68,2.36,2.81,4.07,3.67"/><path class="cls-3" d="M250.72,339.6a5.21,5.21,0,0,1,1.3,2.86c.87,5.2,2.39,10.39,2.54,15.6.13,4.69,2.64,8.5,3.22,13a23.19,23.19,0,0,1,.53,4.9c-.45,3.61,1.37,5.4,4,6.93,3.52,2.09,6.47,5.17,10.66,6.07"/><path class="cls-3" d="M500.14,482.34a5.44,5.44,0,0,0,.86,0c1.6-.26,3.24-.52,3.45-2.59s-1.2-3-2.61-3.7a2.76,2.76,0,0,0-3.89,1.72c-.78,2.55-2.65,4.12-4.18,6a11.55,11.55,0,0,0-1.64,4.07,2.3,2.3,0,0,0,1.95,3.15c2.46.52,4.62-.1,5.37-2.35.68-2,2.87-3.53,2.12-6"/><path class="cls-3" d="M520.33,153.91c1.42,2.4.34,4.85-.07,7.2-.54,3.07-.77,6.15-1.11,9.24-.16,1.43.1,3.06-1.42,4"/><path class="cls-3" d="M501.58,151.31c-2.56,3.48-5.88,6.26-9,9.15-2.84,2.63-5.89,5.05-8.57,7.87a4.62,4.62,0,0,1-2.89,1.72"/><path class="cls-3" d="M311,384.87c1.12,7.33,3.67,14.27,5.73,21.35,1,3.6,1.81,7.28,2.59,11a3.36,3.36,0,0,0,.91,2"/><path class="cls-3" d="M223,157.66c-1.6,1.68-.62,3.88-.4,5.45.92,6.44,1.87,12.86,2.39,19.35.06.75.92,1.2.6,2"/><path class="cls-3" d="M398.07,359.79a11.49,11.49,0,0,0,1.19-3.11c-1.78-1.87-3.63-3.81-6.66-3.81-.19,0-.47.08-.56,0-2.9-3-7.14-4-10.13-6.88-1.68-1.63-4.12-2.12-6.08-3.4-.89-.58-2.22.45-3.09,1.1a56.93,56.93,0,0,0-11.93,11.44c-2.79,3.71-5.64,7.41-8.57,11"/><path class="cls-3" d="M362.6,276.74c-5.12-2.37-10.65-3.62-15.89-5.68-1.46-.58-2.9-1.51-4.58-1.53"/><path class="cls-3" d="M191.9,335.57c-2.23,2-5,3.34-7.56,4.79-2.3,1.3-5.13,0-7.72.05a29.53,29.53,0,0,1-5.19-.81"/><path class="cls-3" d="M181.23,161.69c2.08,3.06,2.1,6.56,2.39,10.09.32,4,1.24,7.89,1.95,11.83a18.41,18.41,0,0,1-.34,9.06,89.69,89.69,0,0,1,10.48,5.84,9.23,9.23,0,0,0,8,1.25"/><path class="cls-3" d="M435.26,147.85a5.31,5.31,0,0,0-.67,3.48,10.43,10.43,0,0,1,.16,4.62c-.38,1.37.14,2.37,1.92,2.95,5.41,1.76,10.46,4.48,15.88,6.27,1.22.4,1.9,1.68,3.17,2"/><path class="cls-3" d="M519.46,154.2c-1.84,3.63-2.23,7.57-2.27,11.53,0,3.17-.92,6.36.21,9.53a2.16,2.16,0,0,1-.25,2"/><path class="cls-3" d="M379.61,189.66c-7.86,4.42-13.77,11-19.32,17.88"/><path class="cls-3" d="M480,484.64c.22-3.95.95-7.86.86-11.82-.07-3.08,2.34-5.35,2.73-8.35.13-1,1.57-1.95.7-3.16s-2.42-1-3.71-.86c-3.11.32-5,4.75-3.17,7.18"/><path class="cls-3" d="M365.2,376.8c.59,2.06-1,3.09-2.33,3.36-2.88.59-4.22,2.68-5.75,4.72a46.07,46.07,0,0,1-5.5,5.75c-1.74,1.64-3.78,2.27-6,.89"/><path class="cls-3" d="M503.89,514.92c-.75,1.59,1.62,3,0,4.86-1.11-.78-1.93-.74-3,.84-2.41,3.6-4.6,7.33-6.73,11.07-1.06,1.87-2.29,1.48-3.53,1s-2.31-1.42-1.47-3.11c1.86-3.73,3.73-7.46,5.58-11.2.9-1.82,3.68-2.43,3.94-4.95"/><path class="cls-3" d="M384.52,219.07c-2.09-.74-4.3-1.1-6.35-2s-3.51-.1-3.72,2a86,86,0,0,0,.26,17.59"/><path class="cls-3" d="M289.07,303.27c-1.37,1.54-.23,3.27.14,4.57.77,2.74-.4,4.54-1.88,6.38-3.79,4.69-8,8.9-13.54,11.55a14.83,14.83,0,0,0-1.74,1.14"/><path class="cls-3" d="M175.17,272.71c-3.11-3.51-6.06-7.19-9.95-10.2a32.39,32.39,0,0,0-6.15,5.92c-2.09,2.54.21,7.8,3.4,8.66a28.9,28.9,0,0,0,6.64.53c3.05.11,3.82-2.67,5.48-4.33"/><path class="cls-3" d="M245,148.43c-4.64,4.06-10,7.09-15,10.64a7.6,7.6,0,0,1-4.59,1.76"/><path class="cls-3" d="M280.71,529.62a9.11,9.11,0,0,0-4,4c-1.53,2.48-1.12,4.56,1.46,5.7,1.74.76,3.38,1.75,5.17,2.34a7.2,7.2,0,0,0,7.33-1.58c-3.31-3.2-6.32-6.72-9.36-10.21"/><path class="cls-3" d="M242.65,142.66c-2,2.5-4.87,3.95-7.56,5.37-3.5,1.85-6.57,4.38-10.09,6.06-2.54,1.21-2.11,2.31-1.13,4.16,1.62,3,1.7,6.54,2.62,9.79.34,1.19,0,2.55,2,3,1.43.33,2.33,4.36,1.41,6.19-1.05,2.09-.77,4-.23,6.09"/><path class="cls-3" d="M393.45,178.42c-2.9-.39-5.17-2.36-8.05-3-3.34-.72-6.72-1.74-9.06-4.72a2.81,2.81,0,0,0-2.5-.94"/><path class="cls-3" d="M438.15,264.63c-3.82.77-6.6,2.49-7.91,6.59-.75,2.35-3.63,2.85-6.21,1.76s-5.2-1.87-7.5-3.45"/><path class="cls-3" d="M329.87,369c-5.24,5.19-10.45,10.41-15.74,15.55-1,1-1.58,2.88-3.76,2.14-.34-.12-1.26,1-1.67,1.65a45.3,45.3,0,0,1-11.37,12c-2.59,2-4.35,4-5.07,7.06-.33,1.41-1.58,2.11-2.39,3.11s-2,.88-3.12.08c-2.18-1.49-4.1-3.36-6.6-4.37a1.81,1.81,0,0,1-.81-2.54c1.72-2.94,2.67-6.39,5.41-8.69"/><path class="cls-3" d="M467,412c-4-1.76-8-3.62-11.85-5.72-1.26-.68-2-1.2-.92-2.7-2.07-.89-3.09.09-4.3,1.46-1.77,2-2.24,4.71-4,6.67-2.28,2.55-3.77,5.95-7.5,6.92"/><path class="cls-3" d="M445.07,266.36c-3,1.48-3.71,1.27-6.75-2.15.71-.94,1.2-2.46,2.69-2.1a5.27,5.27,0,0,1,3.85,2.77c1.58,3,1.17,6.17,1,9.27-.2,3.87-.6,7.71.34,11.54"/><path class="cls-3" d="M395.47,421.78c-1.84,1.22-.87,3.19-.45,4.28,1.68,4.34.88,8.93,1.81,13.33.41,1.93-1.66,2.77-3.11,3.05a33.79,33.79,0,0,0-4.31,1.25c-2.57.87-5.07.08-7.48-.63a16.13,16.13,0,0,0-4.34-.51"/><path class="cls-3" d="M381.92,242.43c-5.32-3.57-9.06-3-13.78,2.93a61.39,61.39,0,0,1-14.43,13.29,11.56,11.56,0,0,1-2.65,1.35c-2.33.79-4.73,1.37-5.83,4a1.72,1.72,0,0,1-2,.6"/><path class="cls-3" d="M467,140.93c.53,2.49,1.1,4.88,2.82,7,1.05,1.28.7,3.19.63,4.85-.36,8.27-.76,16.53-1.14,24.8a4.69,4.69,0,0,0,0,1.72c2.28,6.28-.86,10.56-5.21,14.43"/><path class="cls-3" d="M363.75,276.45c-1.23,4.2-1.17,4.11,4.05,6.6,3.43,1.64,7.31,2.16,10.66,4.07"/><path class="cls-3" d="M466.26,140.35c3.68,1.5,7.61,2.11,11.19,4.17,3.41,2,7.76,1.95,11.44,3.62s7.5,2.6,11,4.61"/><path class="cls-3" d="M390.86,332.11c5.8,2.62,11.09,6.26,17,8.66a4.52,4.52,0,0,0,2,.56"/><path class="cls-3" d="M228.23,256c.63,2.17,1.59,4.18.67,6.67-.74,2,.18,4.26.81,6.3,1,3.35,2.06,6.69,2.83,10.11.12.52.65.51.88.86"/><path class="cls-3" d="M195.65,236.09c-1.46.15-2.09,1.43-2.84,2.34a68.72,68.72,0,0,1-13.61,12.92,3.33,3.33,0,0,1-3.2.46c-4.59-1.29-9-2.39-12.78-5.77-1.79-1.6-4.5-2.24-5.64-4.76"/><path class="cls-3" d="M234.57,279.34c.36-3.43-1-6.57-1.84-9.78-.47-1.92-.9-3.91-1.55-5.82a5.63,5.63,0,0,0-1.52-2.57"/><path class="cls-3" d="M263.7,517.51c-.19,3.36-2.8,5.44-4.36,8.05-2.32,3.9-5.84,6.85-8.62,10.4"/><path class="cls-3" d="M398.07,326.34c5.36,3.57,11.25,6.13,17,8.91.49.24.73.64,1.14.9"/><path class="cls-3" d="M376.44,256.56c5.69,2.95,11.19,6.25,17,8.95,1.15.53,2.16,1,3.19-.29a33.6,33.6,0,0,1,8.63-7.51c.56-.36.19-1,.29-1.44"/><path class="cls-3" d="M565.31,312.21a9.82,9.82,0,0,0-5.08-3.54c-1.36,1.12-3.08,2-3.94,4.05a7.07,7.07,0,0,0,6.15,3.38c1.64.06,3-1.5,2.88-3.6"/><path class="cls-3" d="M382.5,242.72c2.6,1.73,5.42,3.2,7.73,5.25,3.54,3.14,8.11,3.45,12.19,5.06a80.92,80.92,0,0,1,9.19,4.12,4.41,4.41,0,0,1,2.61,3.44"/><path class="cls-3" d="M687.57,494.16c2.15,2.22,1,4.57.3,6.92-.88,2.87-2.91,5.17-3.86,8-.33,1-1.1,2.48-2.79,2.34"/><path class="cls-3" d="M481.11,469.07c-1.09-.41-2.32-.5-3-1.6-4.38,4-5.27,9.74-8.15,14.34a6.8,6.8,0,0,0-.52,2.82c-.2,5.78-.82,11.54-1.31,17.31"/><path class="cls-3" d="M435.26,146.12c-1.22-1.06-.24-2.31-.26-3.46-.07-3.36-.14-6.73,0-10.09a4.51,4.51,0,0,0-1.79-4A33.79,33.79,0,0,0,418,121.93a3.58,3.58,0,0,0-3.46.82c-3,3.08-6.29,5.85-8.9,9.26-3,3.88-2.38,5.55,2.28,6.86,3.32.93,6.7,1.65,10.09,2.3,1.37.26,3.05.17,4-.87,3.58-4,8.12-6.85,11.87-10.63"/><path class="cls-3" d="M311.85,204.66c2,2.56,1.2,5.79,2,8.67s.68,6,1.5,8.92"/><path class="cls-3" d="M422.87,246.47c.53-1.94,2.24-3.12,3.55-4.22,3.11-2.6,5.34-6,8.51-8.54a10.1,10.1,0,0,1,3.23-1.48c0,3.36,0,6.64,0,9.91,0,.2-.32.38-.25.58,1.59,4.66-1.42,7.56-4,10.68a97,97,0,0,0-8.67,11.81"/><path class="cls-3" d="M392,380c-.69-2.49-3.19-2.51-4.94-3.39-2.79-1.42-5.91-2.18-8.6-3.84-1.69-1-2.37-.28-2.9,1.17a55.53,55.53,0,0,1-5.47-1.46c-5.38-2-5-3.5-3.15-7.45a6.43,6.43,0,0,1,2-2.61"/><path class="cls-3" d="M408.16,345.95c-1.2,1-1.25,2,0,2.87a38.71,38.71,0,0,0,5.74,3.5c2.93,1.34,5.78,2.86,8.84,4.39l.68-2.39"/><path class="cls-3" d="M403.55,483.78c-.19.38-.62.83-.54,1.14,1.32,5.21.4,10.7,2,15.87"/><path class="cls-3" d="M280.71,149.58a16.22,16.22,0,0,1,1.48,6.34c.1,3.52,1.09,6.93,1.89,10.62.34.41,1.18-.18,1.84.31,1,.77,2.45,1.13,3.37.25s.67-2.41.28-3.36c-1.33-3.22-1-6.53-1.08-9.83"/><path class="cls-3" d="M192.76,234.93c-4.71,2.88-8.78,6.62-13.22,9.86a14.76,14.76,0,0,0-3.21,2.54"/><path class="cls-3" d="M366.64,509.44c-1.1,3-.45,6.15-.27,9.23.25,4.32,1.35,8.61.55,13"/><path class="cls-3" d="M192.19,46.35c1,4.23,1.83,8.48,2.94,12.67.36,1.35-.08,2.75.76,4.08,1.07,1.69,2.8,2.09,4.41,2.67-.61,3.09-1.36,3.38-6.09,2.48"/><path class="cls-3" d="M339.24,387.76c.83,7.09,1.25,14.22,1.73,21.34"/><path class="cls-3" d="M408.45,343.93c.1,2.06,2.05,2.65,3.23,3.68,3.1,2.71,6.92,4.34,10.62,6.1,1.38.66,2.46.37,3.53-1.07a21.64,21.64,0,0,0,3-4.69c1.34-3.38,4.16-5.1,7.37-6.86-4.57-2.95-9.39-4.55-13.95-6.67"/><path class="cls-3" d="M386.25,409.1c-.84,1.56.07,3.28-.5,4.93-.3.86.73,1.35,1.64,1.74,8.07,3.49,6.11,3.11,8.6,6,2.9-2,3.54-6.34,7.27-7.47"/><path class="cls-3" d="M154.7,235.51c2.56-.11,3.89,2.1,5.71,3.27,4.26,2.73,8.64,5.21,13,7.76,1.88,1.1,3.54,2.65,5.52,3.68"/><path class="cls-3" d="M314.45,357.77c3.36,1.92,6.71,3.88,10.1,5.76a13.91,13.91,0,0,1,7.17,9.82,1.9,1.9,0,0,0,.61,1.15"/><path class="cls-3" d="M507.93,406.21c-.1-.48,0-1.13-.31-1.42-3.8-3.85-8.29-6.25-13.82-6.36-.74,0-1.35.17-1,1.15"/><path class="cls-3" d="M382.5,161.4c0-2,.11-4.12-2.6-4.6a2.18,2.18,0,0,0-1.14,0c-4.24,1.77-7.13,7.25-6.06,11.51a43.29,43.29,0,0,1,.57,17"/><path class="cls-3" d="M377,240.7c0,1.34-.68,2.1-1.68,2.94s-2.33,1.61-3,3.09c-1.57,3.58-1.29,5.22,3.3,8.73-.71,2.24-2.6,3.34-4.39,4.58a2,2,0,0,1-2,.21c-3-2-6.87-2.45-9.27-5.42"/><path class="cls-3" d="M516.58,177.84c-1.69,3.38-.77,6.69.65,9.77a12.07,12.07,0,0,1,1.37,6.09"/><path class="cls-3" d="M378.75,273.57c1.09-1.06,1.42-2.25,0-3.14-1.75-1.08-2.65-3.82-5.77-3,2.94,4.22,5.72,8.27,10.17,10.65a2.59,2.59,0,0,0,3.41-.78,29.18,29.18,0,0,1,4.33-4.9"/><path class="cls-3" d="M435.26,266.07c0,3.18-.24,6.28-3.16,8.38a1.91,1.91,0,0,0-.84,1.14c-.18,3.56-1.45,7.06-.61,10.67"/><path class="cls-3" d="M112.6,289.72a139.13,139.13,0,0,0,15.86,7.5c1.24.52,2.15-1.55,3.46-.43"/><path class="cls-3" d="M369.23,493.58a8.65,8.65,0,0,0-2,6.06,18.56,18.56,0,0,1-1.23,6.9,2,2,0,0,0,.67,2.53c2.89,1.23,5.19,3.44,8,4.7a5.8,5.8,0,0,0,7.79-4"/><path class="cls-3" d="M304.93,158.81c.62,2.67.17,5.38.28,8.07a25.14,25.14,0,0,0,1.16,7.5"/><path class="cls-3" d="M458.33,153.62c-2-.36-3.84-1.24-5.78-1.67-3.22-.71-6.43-1.61-9.79-1.51"/><path class="cls-3" d="M376.15,374.21c4.34,2.63,9.3,3.89,13.94,5.82a14.69,14.69,0,0,0,6,.88c2-.12,3.62,1.11,4.88,1.94.26,3.88-3,5.86-4.2,9.12,4.14,2.33,8.89,3.1,12.89,5.55a1.31,1.31,0,0,0,1.69-.25c1.77-2.71,5-4.23,5.89-7.75.51-1.9,2.19-3.49,3.35-5.22"/><path class="cls-3" d="M248.41,340.76c1.08,2.08.81,4.45,1.3,6.66.84,3.85,2.52,7.5,2.79,11.5a3.66,3.66,0,0,0,2,2.6"/><path class="cls-3" d="M268,347.24a29.83,29.83,0,0,0-9.83-3.81c-2-.48-3.55-2.14-5.75-1.82"/><path class="cls-3" d="M379.32,190.53a76.4,76.4,0,0,1,1.4,12.11,7.31,7.31,0,0,0,.91,3.46"/><path class="cls-3" d="M564.44,315.67a10.16,10.16,0,0,1-.11,5.17,78.91,78.91,0,0,0-1.68,10.11,33.11,33.11,0,0,1-1.38,5.48"/><path class="cls-3" d="M248.41,354.6c2.08,1.18,1.55,3.42,2,5.2a34.16,34.16,0,0,0,1.55,6.31c.32.73,0,1.42.26,2,.5,1.14-1.21,2.57.29,3.43s3.13,2.11,5.17,1.77"/><path class="cls-3" d="M228.23,134c-.12.58-.35,1.23-.87,1.42-4.6,1.63-8.68,4.54-13.54,5.51"/><path class="cls-3" d="M232.84,137.47a26.18,26.18,0,0,1-6.1,5.11c-3.48,1.94-7.09,2.84-11.25,1.06-3.55-1.52-7.4-2.38-10.92-4.12A14.51,14.51,0,0,1,200,136"/><path class="cls-3" d="M195.36,63.37c-1.14,3.21-2.54,6.19-.71,9.87,1.28,2.57,2.72,5.24,3.11,8.28a5.74,5.74,0,0,1-.38,2.32"/><path class="cls-3" d="M313.58,134.59a79.1,79.1,0,0,1,.6,8.36,9,9,0,0,0,.22,2.9c.6,1.78.72,3.22-1.62,4.42-3.5,1.78-4.84,5.93-7.68,8.35-5.35-.38-9.57-3.05-13.72-5.86"/><path class="cls-3" d="M368.94,347.1c.38,3.94.62,7.9,1.24,11.81.2,1.24-.37,2-.66,2.9"/><path class="cls-3" d="M407.87,439.66c-.21,4.82.69,9.6.58,14.42"/><path class="cls-3" d="M320.5,166.31c-.77-2-2.34-.68-2.82-.22-3.33,3.25-7.71,5.06-11,8.28a2.59,2.59,0,0,0-.86,2.31"/><path class="cls-3" d="M333.19,206.67c-.72,4.41-.09,8.84-.23,13.27a1.2,1.2,0,0,0,1.1.86"/><path class="cls-3" d="M385.38,307.6c-1.81-.6-1.17-2.29-1.39-3.47-.86-4.57-.55-9.29-1.76-13.84-.39-1.47-.88-2.6-3-2.59l1.23,16.44"/><path class="cls-3" d="M405,237.24c3,1.84,6.77,2.18,9.17,4.95a2.37,2.37,0,0,0,2.07.72c3-.2,4.21,2.45,5.95,4,.77.68.79,2.68.72,4.2-.21,4.86-.4,9.74,1.38,14.43a5.15,5.15,0,0,1,0,1.72"/><path class="cls-3" d="M314.45,149.87c1.54,1.52.65,3.45.85,5.19.33,2.78.59,5.57.88,8.36"/><path class="cls-3" d="M280.42,549.23c-3.39.77-6.77,1.57-10.12,2.48-1.22.33-2.08,1.46-3.43,1.27"/><path class="cls-3" d="M501,153a46.19,46.19,0,0,1,1.7,9.52,6.49,6.49,0,0,0,1.18,3.75"/><path class="cls-3" d="M471.6,190.24a88.78,88.78,0,0,0-7.83,8.33,6.64,6.64,0,0,1-3.69,2.7c-2.16.55-3.42,2.63-4.55,4.3-3.65,5.41-6.16,5.84-11.37,1.35.94-1.52,1.59-2.31,3.88-1.3,2,.89,4.73.28,7.13-.1"/><path class="cls-3" d="M397.78,165.15c-.19-.1-.35,0-.58.28-3,3.17-6.46,2.4-9.77.82-2.51-1.2-5.19-1.58-8-2.38.59-1.76,1.19-3,3.63-1.95,2.85,1.27,6,1.66,8.94,2.87,1.73.72,2.71-1.2,4.19-2.22a7.19,7.19,0,0,1,3.29,6.61c0,2.93-.18,5.84,1.06,8.69.54,1.24-.74,3.33-1.63,3.27-3.12-.22-2.27,2.14-2.95,3.59-.29.63-.1,1.18-.24,1.75"/><path class="cls-3" d="M439,222.82a56.15,56.15,0,0,0,13.61,4.31l-.92-16.71"/><path class="cls-3" d="M512.83,286.84c-3.51,3-5.93,7-8.84,10.46-.51.61-1.47,1.2-1.54,2.22"/><path class="cls-3" d="M380.19,412.56c-.2,3.14-2.24,5.63-3,8.62-.56,2.22-1.34,4.45-2.05,6.66"/><path class="cls-3" d="M443,142.37a12,12,0,0,0,5.21,2.22c2.73.54,5.39,1.13,7.43,3,1,.94,1.94.48,2.93.53"/><path class="cls-3" d="M529.55,377.09c-1.35,3.54-4.38,5.8-6.61,8.67a5.85,5.85,0,0,1-3.79,1.91c-1.82.35-2.51,1-1.69,2.68a23,23,0,0,1,2.29,9.81"/><path class="cls-3" d="M371.25,407.37c-.71,2.47-3,3.56-4.61,5.19-1.51-.64-3.33-.47-4.54-1.94-2,1.34-2.46,3.91-4.67,4.87a9.58,9.58,0,0,1-3.77,1.05c-3,0-6-.19-8.68,1.75-.85.62-1.83-.33-3.25-3a9.49,9.49,0,0,0,2.7-3.55"/><path class="cls-3" d="M395.18,394.1c-.37,2.84,2.24,3.62,3.8,4.17a65.36,65.36,0,0,1,9.61,4.19"/><path class="cls-3" d="M350.78,205.52a16.09,16.09,0,0,1,.22,6.62c-1,6.16-1.05,12.15,1.75,17.91a2.93,2.93,0,0,0-.24.84"/><path class="cls-3" d="M192.19,132c1.71-.42,2.59,1.1,3.7,1.8,2.62,1.66,5.61,1.52,8.4,2.27,3.34.9,5.72,3.66,8.93,4.91,1,.4-.52.85-.27,1.4"/><path class="cls-3" d="M600.2,179.86c-2.26-.15-4.29.77-6.33,1.49s-3.36,3.87-2.86,6.58a15.13,15.13,0,0,1,.54,3.18"/><path class="cls-3" d="M200,68.84c1.85,4.26,3.57,8.58,5.77,12.69"/><path class="cls-3" d="M332.61,205.23c-3.28-.15-5.87-2-8.65-3.46a12.25,12.25,0,0,0-3.81-1.48c.22-2.2,1-2.71,3.28-1.79,2.72,1.07,4.92,3.06,7.74,3.87a1.44,1.44,0,0,1,.85.85c1.33,4.81,6,4,9.25,5.47"/><path class="cls-3" d="M342.42,159.39c1.27,4.15-.13,8.54,1.12,12.7,0,.12-.36.38-.55.57"/><path class="cls-3" d="M490.92,468.21c5,1.42,9,4.68,13.57,6.87,3.61,1.73,7.11,3.65,10.65,5.52"/><path class="cls-3" d="M308.39,236.37c1.75,2.09,2,4.85,2.43,7.24.83,4.88,2.59,9.51,3.33,14.39"/><path class="cls-3" d="M237.17,175.53c-1.48-2.65-2.21-5.61-3.55-9-2.06,5.12-.56,9.13,1.53,13.08"/><path class="cls-3" d="M465.54,70.57a2,2,0,0,1,2,.6c2.63,2.49,6.13,2.06,9.26,2.84.36.09.86.21,1.15-.27"/><path class="cls-3" d="M195.65,168.9c-3,.85-5.32-1-7.75-2.09-1.47-.66-2.72-1.5-4.36-.79"/><path class="cls-3" d="M454,406.21c-.26.41-.73.59-.89,1.15-1.63,5.66-6.45,9.14-9.52,13.83-.71,1.08-2.17,1.23-3.15,2"/><path class="cls-3" d="M289.94,311.06c1-.09,1.23.71,1.44,1.44a45.69,45.69,0,0,0,3.77,8.93c1,1.89,2.84,3.11,3.83,5.15,1.6,3.3,1.79,4.88-.7,7.52-1,1-1.89,2-1.7,3.49"/><path class="cls-3" d="M403.83,352c-3.42-1-5.18-4.4-8.34-5.82a3.1,3.1,0,0,0-2-.29c-4.87.83-7.65-3.08-11.22-5.17-.15-.09-.08-.63.27-.83"/><path class="cls-3" d="M344.72,411.11c-.66-1.21-.23-2.5-.26-3.75-.11-3.84.5-7.68,0-11.54a9.46,9.46,0,0,1,2.58-7.49,5.6,5.6,0,0,0,.94-1.71c.64-1.63,1.92-3.19-.1-4.62-1.36-1-5,.2-6.06,1.69-.21.3-.16.62-.29.87-1.51,2.93-2.43,3-5.77,2.1-2.47-.69-4.22-2.88-6.9-3"/><path class="cls-3" d="M684.4,337.3c-2.76,3.56-5.48,7.14-6.06,11.82"/><path class="cls-3" d="M295.42,322.88a33.08,33.08,0,0,0,2.16,11.68"/><path class="cls-3" d="M272.35,327.78c-1.5-2.38-3.81-1.09-5.44-.7s-1,2.54-.57,3.86a60.05,60.05,0,0,1,1.68,7.8"/><path class="cls-3" d="M266.87,554.71c4.25,1.5,7.56,4.54,10.81,7.37,1.68,1.46,2,4.6,2.67,7.06.33,1.29.84,2.48,1.22,3.73"/><path class="cls-3" d="M602.51,188.22a61.86,61.86,0,0,0-8.22,5.95,9,9,0,0,0-3.31,8.47"/><path class="cls-3" d="M126.44,292.6a34,34,0,0,0,9.76-9.93c1.73,3.43,2.35,6.64,4,9.4.55.92-.53,1.77-1.65,2"/><path class="cls-3" d="M216.41,167.46c.1.29.37.7.26.85-2.28,3.32,0,6.75-.27,10.11-.08,1.07.89,1.22,1.45,1.73"/><path class="cls-3" d="M303.35,209.41c-2.61-2.54-6.12-2.75-9.38-3.58a4,4,0,0,1-1.43-.61"/><path class="cls-3" d="M283.3,550.39c-2.12,3.67-2.82,8-5.19,11.53"/><path class="cls-3" d="M433.53,395c.81,1.05,1.66,2.15-.29,2.87-4.24,1.57-5.86,5.38-7.78,8.95-1.83-.21-2.38-2.56-4.33-2.59"/><path class="cls-3" d="M384.8,122.19c2.32,1,4.83,1.56,6.95,3.13a6.23,6.23,0,0,1,2.87,5.52c-.08,3,0,6-.06,8.94,0,.58-.54,1.15-.83,1.73"/><path class="cls-3" d="M672.58,500.21c-2.08-.07-3.22,1.1-4.06,2.87a22.64,22.64,0,0,0-2.28,6.35"/><path class="cls-3" d="M316.18,174.67a3,3,0,0,0,2,.93c2.4.58,4.76,1.09,6.72,3s5.14,2.73,7.82,4.17c3.06-1.91,5.33-4.84,8.25-7"/><path class="cls-3" d="M454.87,414a57.82,57.82,0,0,0,10.67,4.61"/><path class="cls-3" d="M323.67,234.07c3.78,1.85,6.68,5.12,10.67,6.63"/><path class="cls-3" d="M391.72,115.84c-1-.65-1.83-.35-2.92.22-2.71,1.43-5.25,2.92-6.6,5.83"/><path class="cls-3" d="M343,418.32c-1.89,2.27-.29,4.83-.38,7.22,0,.91.16,2.09.09,3.16"/><path class="cls-3" d="M161.33,245.89c-1.72,2.76-3.59,5.49-1.73,8.94a2.07,2.07,0,0,0,1.22,1.13c1.36-.5,2.19-2.2,4.17-2,.87,2.41,1.1,5.12,2.4,7.47"/><path class="cls-3" d="M393.45,168A32.12,32.12,0,0,1,394,177c-.16,2.25.65,4.4.38,6.64a1.29,1.29,0,0,0,1.11,1.44"/><path class="cls-3" d="M382.21,425c.47.29.22.76.29,1.15.73,4.09,2.35,4.86,6.05,2.88.3-.16.58-.38,1-.63a22.21,22.21,0,0,0-3.26-5.14c-.51-.58-.91-1.24-.3-2"/><path class="cls-3" d="M317.91,184.76c-1.73-.44-1.77,1.33-2.56,2.06a52,52,0,0,0-6.39,7.67,100.38,100.38,0,0,0,11,5.27"/><path class="cls-3" d="M520.33,153c-1.41-3.72,0-7.06.73-10.48l1.28.16c0,3.5.33,7-1.7,10.33a1.75,1.75,0,0,1-1.17.71"/><path class="cls-3" d="M681.8,504.54c2.72-.64.55-3.4,2-4.68.11-.1-.65-1.1-1.38-1.07-1.24,0-1.44,1.11-1.72,2s.36,1.8.65,2.56a4.82,4.82,0,0,1-.41,4.41,3.55,3.55,0,0,1-2.85-1.21"/><path class="cls-3" d="M309,112.1c.73,1.87,1.3,3.8.55,5.76-.62,1.62,1.21,2.79.61,4.34"/><path class="cls-3" d="M456,146.12c1.66-1.91,3.15-4,5.51-5-.14-3-2.25-3.6-4.36-3.94a10.26,10.26,0,0,1-5.41-2.41c-1.41-1.32-3.22-1.08-4.7-1.92-.43-.24-.94.09-1.46.5a22.87,22.87,0,0,0-7.7,10.73,6,6,0,0,1-1.49,2.29"/><path class="cls-3" d="M395.18,237.24c4,1.41,8.17,2.36,12.17,3.89,1.84.7,4,2.05,6.29,1"/><path class="cls-3" d="M172.87,270.69c-.88,2-2.58,2.43-4.61,2.65a24.88,24.88,0,0,1-9.52-.63"/><path class="cls-3" d="M289.36,411.69a18.91,18.91,0,0,1,1.44,12.11"/><path class="cls-3" d="M264.85,478c-1.54,1.73-3.09,3.45-4.61,5.19-3.45,4-3.44,4-7.79,3.46"/><path class="cls-3" d="M355.39,258.29c.58.48,1.18.94,1.73,1.45,3.05,2.85,4.09,3,7.79.86"/><path class="cls-3" d="M311.56,203.79c-2.17,1.92-4.3,4-7,5.11a3,3,0,0,0-2,3.26,39.87,39.87,0,0,0,.51,7.51,10.29,10.29,0,0,1-.22,4.89"/><path class="cls-3" d="M401.53,383.14a6.66,6.66,0,0,1,5,2c1.9,1.78,4.78,1.92,6.87,3.51"/><path class="cls-3" d="M592.7,84.41a1.25,1.25,0,0,1,1.1,1.42c-.83,2.58-.51,5.5-2.25,7.8"/><path class="cls-3" d="M456.6,410.83c.1.38.2,1.11.29,1.1,3.14,0,5.05,3,8.07,3.22"/><path class="cls-3" d="M663.35,501.94c-4.09,1.39-4.82,3-3.46,7.79"/><path class="cls-3" d="M408.74,454.65c1,1.58.44,3.23.34,4.9-.14,2.3-.79,4.59-.34,6.92"/><path class="cls-3" d="M402.39,120.17c-2-1.87-3.73-4.15-6.64-4.57-1.46-.21-3.16-.59-3.8,1.67-.35,1.24-1.66,1.95-2.54,2.9"/><path class="cls-3" d="M404.12,383.14c.4-1.75,2.08-2.58,2.75-3.78,5.32-1.37,8.89,2.4,13.07,4.18,1.64.7,3.67-.75,5,1.57s4.75,2.59,5.95,5.25c.68,1.52.88,2.77-.79,4.11s-2.52,3.22-3.83,4.81c-.63.76-1.31,1.81-2.58.88"/><path class="cls-3" d="M672.86,498.77a18.44,18.44,0,0,1-1.44,11"/><path class="cls-3" d="M293.69,221.67c3.36,1.79,7.15,2.39,10.67,3.75"/><path class="cls-3" d="M396.63,237.82c-1.52,2.86-1.37,5.88-.87,8.94"/><path class="cls-3" d="M635.38,553.27c.89,1.52-.22,2.71-.92,3.71a7.89,7.89,0,0,0-1.67,5.23"/><path class="cls-3" d="M640.57,480c-1.44,2-2.82,4.09-4.35,6-.69.88-1.44,1.94-2.86,1.75"/><path class="cls-3" d="M344.15,265.21c-.1.38-.07.89-.31,1.14-3.68,3.78-1.88,8.18-1.42,12.42"/><path class="cls-3" d="M384.23,404.48c4.15,1.41,6.71,5.1,10.38,7.21"/><path class="cls-3" d="M365.2,379.4c2.21,4,2.41,8.55,4,12.68,0,.12.19.19.28.29"/><path class="cls-3" d="M215.54,213.59c1.61,1.58,1.7,3.86,2.57,5.78a4.9,4.9,0,0,0,1.76,2.58"/><path class="cls-3" d="M629.9,479.45c1.7,3.16,3.25,6.35,3.22,10.09,0,.9-.84.37-.91.86"/><path class="cls-3" d="M415.08,394.68a26.9,26.9,0,0,0,8.07,5.19"/><path class="cls-3" d="M491.2,299.23c1.7,3.05,5.11,3.21,7.79,4.61"/><path class="cls-3" d="M407.58,454.94c-1.28,3.35-4.11,4.86-7.21,6.06"/><path class="cls-3" d="M395.18,267.8c2.27,2.4,5.69,2,8.36,3.46"/><path class="cls-3" d="M286.76,392.95c-1-.07-1.33.75-2,1.72,2.71,2.9,6.25,4.89,8.93,7.79"/><path class="cls-3" d="M449.68,401c.61-1.49.37-3.09.64-4.6a2.68,2.68,0,0,0-1.26-3.1c-1-.48-2.23.14-3.1.82a19.41,19.41,0,0,0-2.34,2.56"/><path class="cls-3" d="M401,119.31c-1.73,3.18-5.07,4.85-7.21,7.64"/><path class="cls-3" d="M505,340.76c-2.25,2-2.49,3.8-1.21,5.8a1.74,1.74,0,0,0,2.07.79c.85-.13,1.21-.77,1.18-1.7-.06-1.84.13-3.73-1.75-4.9"/><path class="cls-3" d="M247.84,170.34c-2.22-1.91-1.89-5.25-4.26-7.16-1.17.6-1.34,1.8-1.21,3.13.22,2.4-.31,4.79,0,7.21.15,1.35-.38,1.64-2.63,2-.55-1.62-1.41-3.21-.21-4.92"/><path class="cls-3" d="M486.59,68.84l-8.07,4.61"/><path class="cls-3" d="M540.8,110.94c1.72,2.69.63,5.38,0,8.07"/><path class="cls-3" d="M534.46,85a3.91,3.91,0,0,1-1.09,2.93c-1.81,2.42-3.16,4.9-2.22,8.35a6.57,6.57,0,0,1-2.06,7c-1.93,1.74-1.25,4.64-.4,7.08"/><path class="cls-3" d="M465.25,141.51a39.15,39.15,0,0,1-5,4.53c-1.23.81-1.08,1.66-1.09,2.68,0,2.53.12,5.08-.87,7.5"/><path class="cls-3" d="M410.75,397.85c0,1.58,1.27,2,2.32,2.24,1.62.31,3,1.23,4.6,1.51"/><path class="cls-3" d="M524.65,135.45c-1.77.62-1.11,2.29-1.37,3.48s-.14,2.6-.93,3.73"/><path class="cls-3" d="M197.67,156.21a2.73,2.73,0,0,1,1.5,1.71c1.13,2.9,1.27,6,2.24,9,.28.84-.28,1.56-.57,2.3"/><path class="cls-3" d="M205.16,83.84c-3.31,1.83-6.72.59-10.09.29"/><path class="cls-3" d="M374.13,344.22c2.56,1.05,4.57,3.59,7.79,2.88"/><path class="cls-3" d="M530.42,95.08c-2.21,2.24-1.9,4.68-.58,7.21"/><path class="cls-3" d="M606,307.6c.1.38.39,1,.26,1.12-2,1.56-2.26,4.2-3.72,6.09"/><path class="cls-3" d="M640.28,561.92c-1-1.33-1.12-1.45-2.59-.85a20.46,20.46,0,0,1-8.37,1.71"/><path class="cls-3" d="M469.58,290.58c1.53.69,2.84,1.81,4.61,2.06.87.12,1.7,1.12,2.32-.33a.6.6,0,0,1,.85-.27c2.9,2,7.31,1.09,9.24,4.88"/><path class="cls-3" d="M575.11,149c1.95,2.09,4.73,2.33,7.23,3.11,1.41.44,2.7,1.46,4.31,1.21"/><path class="cls-3" d="M663.92,501.37a25,25,0,0,1-1.44,8.07"/><path class="cls-3" d="M320.21,200.62c-.87,1.76-.49,3.64-.58,5.48-.06,1.14.8.34,1.16.58"/><path class="cls-3" d="M417.1,391.51c2.1,1.71,4.92,1.22,7.31,2.39,1.21.59,3.28-1.26,4.21-3a2.63,2.63,0,0,1,1.46-1.43"/><path class="cls-3" d="M511.1,164.86a4.79,4.79,0,0,1-5.19,2.28c-1.27-.16-1.73.46-2,1.47"/><path class="cls-3" d="M368.94,362c1.55,0,1.45,1.12,1.44,2.16A22.3,22.3,0,0,0,371,369"/><path class="cls-3" d="M587.22,166.88a15.33,15.33,0,0,0,5.2,1.69c.4.08.77-.13,1.16.31,1.11,1.25,1.14,6.48,0,8.09"/><path class="cls-3" d="M218.71,181.59c1.68.31,2.84,1.61,4.31,2.34,3.54,1.75,5.74,1.27,9.25-2.34"/><path class="cls-3" d="M395.18,395.83c-3.83,2.25-6.09,6-8.94,9.23"/><path class="cls-3" d="M534.46,98.83c2.41.89,3.24.4,4.36-2.7a4.44,4.44,0,0,0-2.92-1.92"/><path class="cls-3" d="M311.27,69.13c-2,1.8-4.54,2.63-6.92,3.75"/><path class="cls-3" d="M531.86,122.48c1.55,1.61,2.55,3.81,1.65,4.83-1.09,1.25,0,2,.08,3"/><path class="cls-3" d="M223.62,248.49c1.65.61,1.24,2.32,1.63,3.49a11.84,11.84,0,0,0,1.25,2.85"/><path class="cls-3" d="M437,369.88c-1.81,1.85-2.35,4.31-3.17,6.63"/><path class="cls-3" d="M516.58,177.41c1.19-.12,1.48.69,1.42,1.58-.12,1.75.11,3.57-.84,5.19"/><path class="cls-3" d="M421.71,334.12c-.42-.42-.67-.72-1.46-.33-4.21,2.07-5.77,6.24-8.05,9.85-.37.59-.77,1.15-1.15,1.73"/><path class="cls-3" d="M367.94,536.83c4,1.77,7.84,3.88,10.21,7.8a5.26,5.26,0,0,0,1.76,1.71"/><path class="cls-3" d="M452,135.74c-1.44.79-2.88-.07-4.6,0a20.92,20.92,0,0,0-4.67,6c-.83,1.76-2.07.75-3.13,0"/><path class="cls-3" d="M534.74,130.55c-2.22-.26-3.25,1.32-2.46,2.81.94,1.77-1.71,2.52-.49,4.16.77,1,2.47,1.64,2.08,3.41"/><path class="cls-3" d="M529.84,161.12c-.89.51-1.73,1.06-1.44,2.31.56,2.46-.16,4.81-.42,7.23-.18,1.68.16,3.41-.27,5.21-.17.72-.16,2-.54,2.49-1.37,1.65.13,2,1.07,2.85-1.47,1.31-3,2.55-1.69,5.07.52,1-1.11,2.4-1.61,3.69"/><path class="cls-3" d="M191.9,163.42c.2-1.9-.77-4.11,1.55-5.45,1.49,2,1.22,4.3.76,6.61"/><path class="cls-3" d="M539.07,89c1.71,2.11,1.15,4.23,0,6.34"/><path class="cls-3" d="M380.19,307.31a37.07,37.07,0,0,1,6.92,3.75"/><path class="cls-3" d="M437.86,369.3c2,.22,3.92,1.67,6.09.34.49-.3.89.75,1.41,1.1"/><path class="cls-3" d="M542,86.43c-1.35.87-2.67,1.77-4,2.59a4.32,4.32,0,0,0-2.3,4.33,5.59,5.59,0,0,1-.55,2.32,37.49,37.49,0,0,0-1.75,15"/><path class="cls-3" d="M283,279.92c.77,2,.21,4.31,1.73,6.06"/><path class="cls-3" d="M390.86,357.48c-2.74-2.72-6.51-3.53-9.85-5.1-2.16-1-4.17-2.84-6.88-2.4"/><path class="cls-3" d="M530.13,150.16c1.62-.06,1.75,1.18,2.25,2.76-2.44-1.18-3.1,1.85-5.13,1.57"/><path class="cls-3" d="M395.18,381.41c1.06,2.17,3.2,2.39,5.19,2.88"/><path class="cls-3" d="M633.36,490.41c3,.16,2.67,2.94,3.75,4.61"/><path class="cls-3" d="M254.18,510.31c1.81,1,3.44,2.54,5.77,2.31"/><path class="cls-3" d="M389.42,350c2.22,0,4.17.39,4.9,2.88"/><path class="cls-3" d="M227.65,171.21c0,2-.3,4.06,1.15,5.77"/><path class="cls-3" d="M424.31,394.39c-.65,1.88.07,3.89-.58,5.77"/><path class="cls-3" d="M413.93,335.57a41.17,41.17,0,0,1-2.91,3.73c-1.78,1.84-.69,2.82.89,3.77"/><path class="cls-3" d="M477.65,68a29.81,29.81,0,0,0,.29,5.77"/><path class="cls-3" d="M308.39,112.1a5.75,5.75,0,0,0,0,5.48"/><path class="cls-3" d="M396,187.07a4.58,4.58,0,0,1,0,5.48"/><path class="cls-3" d="M535.32,115c1.72-.14,1.48,1.31.82,1.65-3.07,1.59-2.58,3.29-.5,5-.19,1.71-1.61,1.15-2.34,1.7"/><path class="cls-3" d="M384.8,157.66c1.67,1.07,3.78,1.35,5.23,2.93-.66.82.07,2.08-.91,2.84"/><path class="cls-3" d="M212.66,185.91c1.38,1.91,1.12,4.28,1.3,6.36.33,3.74.81,7.48,1,11.23a2.19,2.19,0,0,1-.58,1.44"/><path class="cls-3" d="M187.86,150.74a4.65,4.65,0,0,1,5.74.89c1.21-1,2.9-.76,4-1.89.4,1.4,1.33,2.48,1.19,3.89"/><path class="cls-3" d="M532.44,82.4c-.63,2.22-2.54,3.39-4,4.9"/><path class="cls-3" d="M253.32,166c-2.15,2.53-4.87,4.38-7.5,6.34-.93.7-1.89,1.38-3.17.87"/><path class="cls-3" d="M445.93,426.68a8.45,8.45,0,0,1-4.9,2.88"/><path class="cls-3" d="M591.84,169.19a9.53,9.53,0,0,0,.29,7.79"/><path class="cls-3" d="M274.08,355.75c-1.16,1.34-.86,3.42-2.31,4.61"/><path class="cls-3" d="M369.81,184.47c3.32.41,5.71,2.81,8.65,4"/><path class="cls-3" d="M445.93,467.34c.2,1.63,1,3.37-.87,4.61"/><path class="cls-3" d="M408.45,410.25c-3.6,1.65-6.22-.54-9.13-2.55-1.12,2.87-5.4,4.22-3.27,8.36,1,.64,2.34-.28,3.17.82"/><path class="cls-3" d="M587.22,167.75c-.8,1.75.66,3.24.58,4.9"/><path class="cls-3" d="M209.2,199.47c-1.64.16-3.15,1.43-4.9.58"/><path class="cls-3" d="M395.18,266.36c-.18,2.15-2.41,2.4-3.46,3.75-.59.76-1.63,1.54,0,2.3"/><path class="cls-3" d="M238,163.42a12.71,12.71,0,0,1,1,4.33c0,2,.82,3.26,2.77,3.75"/><path class="cls-3" d="M533.88,105.18c2.21.89,3.92,2.13,3.72,5l-3.14.73"/><path class="cls-3" d="M672.58,511.17a6,6,0,0,0-8.36.29"/><path class="cls-3" d="M451.12,422.65a9,9,0,0,0-4.61,3.75"/><path class="cls-3" d="M190.17,136.32c-.88.61-2,0-2.88.58-1.88,1.28-1.75,2.38.58,4.9"/><path class="cls-3" d="M610.58,540.29c1.13,1.39,1.72,3.17,3.17,4.33"/><path class="cls-3" d="M217.85,162.27c1.28,1.41,3,1.13,4.61,1.15"/><path class="cls-3" d="M239.76,175.82c-1.36,2.35-4.06,3.21-5.8,5.16-.75.84-1.79.51-2.24-.55a4.54,4.54,0,0,0-1.75-2.58"/><path class="cls-3" d="M465.54,140.07c-1.32-1.15-2.64-2.31-4.61-1.73"/><path class="cls-3" d="M395.47,187.07a4.3,4.3,0,0,0,0,4.61"/><path class="cls-3" d="M532.15,139.78c-1.42,1.44-.14,2.88,0,4.33-2.44,2-2.38,2.94.29,4.33"/><path class="cls-3" d="M219.87,211.29c1.65-.4,2.68,1.53,4.33,1.15"/><path class="cls-3" d="M641.72,492.14c-5.1,3-6.13,3.47-4.33,9.23"/><path class="cls-3" d="M550,386a50.68,50.68,0,0,0-3.46,6.06"/><path class="cls-3" d="M396.63,193.41c1.1,2.41.32,5,.87,7.5"/><path class="cls-3" d="M540.22,110.94c-.73,2.69-1.9,5.38,0,8.07"/><path class="cls-3" d="M214.1,200.62h-4"/><path class="cls-3" d="M443,199.75c2.77-.38,4.81,1.54,7.21,2.31"/><path class="cls-3" d="M536.47,99.7c-.38,2.09,1.5,2.13,2.6,2.88"/><path class="cls-3" d="M202.57,152.47c-.29,2.68,2,3.19,3.6,4.33"/><path class="cls-3" d="M374.71,493.29c-1.33-.35-2.68-.8-3.75.58"/><path class="cls-3" d="M377.88,490.12c-.89,2.41-3.33,3.72-4.33,6.06"/><path class="cls-3" d="M206,82.11c.1,1.08-.65,1.94-.39,3.19.41,2-1.9,3.67-3.93,3.15-1-.27-2-1-3.17-.29"/><path class="cls-3" d="M540.22,101.43c-2.39,2.21-.5,4.42,0,6.63"/><path class="cls-3" d="M497.55,516.94a13.66,13.66,0,0,1,3.46,2"/><path class="cls-3" d="M309.54,123.05c-1.42,1.15.52,2.31,0,3.46"/><path class="cls-3" d="M278.11,391.22c-1.32-.56-2.34-2-4-1.44"/><path class="cls-3" d="M385.38,422.07a12.32,12.32,0,0,1-9.23,3.75"/><path class="cls-3" d="M197.67,153.91a9,9,0,0,1-3.17-1.73"/><path class="cls-3" d="M354.24,245.89c1.38.16.11,2.32,1.73,2.31"/><path class="cls-3" d="M206.6,156.79c.94.79,1.7,1.91,3.17,1.73"/><path class="cls-3" d="M390,277a2.82,2.82,0,0,1-3.17.58"/><path class="cls-3" d="M404.7,138c-.49,1.63,1.21,3.27-.09,4.77.79,1.16,2.24.31,3,1.28"/><path class="cls-3" d="M395.76,416c-1,.86-2.54-.34-3.46.87"/><path class="cls-3" d="M195.36,87.88c-.54-.64-1.47.06-2-.58"/><path class="cls-3" d="M371.25,347.1c.18,1,1.24,1.07,1.73,1.73"/><path class="cls-3" d="M453.43,422.36a2.31,2.31,0,0,1,2.31,0"/><path class="cls-4" d="M192.19,89"/></g></g></svg>