<svg xmlns="http://www.w3.org/2000/svg" viewBox="0 0 900.11 1263.62"><defs><style>.cls-1{fill:#fff;}.cls-2{fill:#63cdf4;}.cls-3{fill:#fbf068;}.cls-4{fill:none;stroke:#010101;stroke-miterlimit:10;stroke-width:6px;}.cls-5{fill:#231f20;}</style></defs><title>select900</title><g id="Layer_2" data-name="Layer 2"><g id="Layer_1-2" data-name="Layer 1"><rect class="cls-1" y="0.09" width="900.11" height="1263.53"/><rect class="cls-2" x="136.39" y="132.25" width="724.81" height="1086"/><rect class="cls-3" x="108.92" y="95.1" width="718.96" height="1093.15"/><polyline class="cls-4" points="54.47 0 54.47 428.39 224.58 428.39 224.58 0"/><path class="cls-5" d="M189.84,142.39a7.38,7.38,0,0,0,1-1.51,30.94,30.94,0,0,0,1.55-3.26,32.23,32.23,0,0,0,1.41-4.26,18,18,0,0,0,.61-4.63q0-6.36-4-6.36a3.06,3.06,0,0,0-2,.68,6.12,6.12,0,0,0-1.44,2,19.25,19.25,0,0,0-1.18,3.36c-.36,1.35-.77,2.92-1.21,4.7a65.29,65.29,0,0,1-2.06,6.65,18.23,18.23,0,0,1-2.76,5,11.28,11.28,0,0,1-4,3.18,13,13,0,0,1-5.65,1.12,13.32,13.32,0,0,1-6.84-1.63,13.09,13.09,0,0,1-4.51-4.3,18.57,18.57,0,0,1-2.49-6.15,32.5,32.5,0,0,1-.78-7.15,42.86,42.86,0,0,1,.41-5.79,43.83,43.83,0,0,1,1.18-5.78,46.71,46.71,0,0,1,1.85-5.46,31.44,31.44,0,0,1,2.49-4.88l9.63,5.2a10.21,10.21,0,0,0-1.28,1.88,28.9,28.9,0,0,0-1.89,4,42.6,42.6,0,0,0-1.68,5.24,23.63,23.63,0,0,0-.74,5.85c0,4.2,1.19,6.29,3.57,6.29a2.88,2.88,0,0,0,2.22-.94,8.85,8.85,0,0,0,1.58-2.6,29.18,29.18,0,0,0,1.32-3.94q.6-2.28,1.34-5a46.88,46.88,0,0,1,2.19-6.15,16.54,16.54,0,0,1,2.73-4.3A9.82,9.82,0,0,1,184,111a12.23,12.23,0,0,1,4.71-.83,14.05,14.05,0,0,1,6.67,1.52,14.47,14.47,0,0,1,4.88,4.12,18.14,18.14,0,0,1,3,6,25.8,25.8,0,0,1,1,7.27,30,30,0,0,1-.47,5.28,44.37,44.37,0,0,1-1.21,5,37.68,37.68,0,0,1-1.69,4.44c-.63,1.38-1.25,2.64-1.88,3.8Z"/><path class="cls-5" d="M165.73,192.14H156V156.06h47.82v35.43h-9.7V167.92h-9.29v20.24h-9V167.92H165.73Z"/><path class="cls-5" d="M156,199.37h47.82v11.86H165.73V236.1H156Z"/><path class="cls-5" d="M165.73,277.74H156V241.67h47.82v35.42h-9.7V253.52h-9.29v20.25h-9V253.52H165.73Z"/><path class="cls-5" d="M180.34,280.92a22.61,22.61,0,0,1,8.59,1.74,23.16,23.16,0,0,1,7.64,5.06,25.67,25.67,0,0,1,5.46,8.1,26.84,26.84,0,0,1,2.09,10.84,25.85,25.85,0,0,1-2.9,12.55,19.46,19.46,0,0,1-7.54,7.92L187.75,318a9.85,9.85,0,0,0,3.13-2.21,11.8,11.8,0,0,0,2-2.93,12.3,12.3,0,0,0,1.08-3.25,18.28,18.28,0,0,0,.3-3.25,12.69,12.69,0,0,0-4.58-10.13,13.07,13.07,0,0,0-4.58-2.45,17,17,0,0,0-5.18-.8,16,16,0,0,0-5.46.94,14.24,14.24,0,0,0-4.64,2.71,12.8,12.8,0,0,0-4.38,9.87,15.22,15.22,0,0,0,.37,3.29,13.81,13.81,0,0,0,1.15,3.25,11.18,11.18,0,0,0,2,2.86,9.36,9.36,0,0,0,3.06,2.1l-5.32,9.68a14,14,0,0,1-4.71-3.43,21.35,21.35,0,0,1-3.51-5.24,29.54,29.54,0,0,1-2.15-6.29,30.17,30.17,0,0,1-.74-6.51A24.49,24.49,0,0,1,157.75,296a25.91,25.91,0,0,1,5.62-8,25.61,25.61,0,0,1,7.95-5.2A23.33,23.33,0,0,1,180.34,280.92Z"/><path class="cls-5" d="M194.15,372.24V356.63H156V344.77h38.12V329.08h9.7v43.16Z"/><path class="cls-5" d="M99.53,108.63a22.83,22.83,0,0,1,8.59,1.73,23.19,23.19,0,0,1,7.64,5.07,25.68,25.68,0,0,1,5.46,8.09,26.85,26.85,0,0,1,2.08,10.85,25.81,25.81,0,0,1-2.89,12.54,19.35,19.35,0,0,1-7.55,7.92l-5.92-9.11a9.82,9.82,0,0,0,3.13-2.2,12.37,12.37,0,0,0,3.1-6.19,18.28,18.28,0,0,0,.3-3.25,13,13,0,0,0-1.28-5.93,12.75,12.75,0,0,0-3.3-4.19,13.26,13.26,0,0,0-4.58-2.46,17.33,17.33,0,0,0-5.18-.8,16.24,16.24,0,0,0-5.46.94A14.24,14.24,0,0,0,89,124.35a12.8,12.8,0,0,0-4.38,9.87,15.22,15.22,0,0,0,.37,3.29,13.86,13.86,0,0,0,1.14,3.26,11.65,11.65,0,0,0,2,2.85,9.4,9.4,0,0,0,3.07,2.1l-5.32,9.69A14,14,0,0,1,81.21,152a21,21,0,0,1-3.5-5.24,29.16,29.16,0,0,1-2.15-6.29,29.47,29.47,0,0,1-.74-6.5,24.35,24.35,0,0,1,2.12-10.24,25.87,25.87,0,0,1,5.62-8,25.41,25.41,0,0,1,8-5.21A23.32,23.32,0,0,1,99.53,108.63Z"/><path class="cls-5" d="M75.22,161.34H123v11.85H84.92v24.88h-9.7Z"/><path class="cls-5" d="M75.22,203.63H123v11.86H75.22Z"/><path class="cls-5" d="M84.92,261.4h-9.7V225.32H123v35.43h-9.69V237.18H104v20.25h-9V237.18H84.92Z"/><path class="cls-5" d="M102.56,280.49H75.22V268.63H123v9.26L95,301.82H123v11.86H75.22v-9.55Z"/><path class="cls-5" d="M113.34,362.62V347H75.22V335.15h38.12V319.46H123v43.16Z"/><path class="cls-5" d="M109,399.21a7.59,7.59,0,0,0,1-1.52,30.68,30.68,0,0,0,1.55-3.25,33.93,33.93,0,0,0,1.41-4.27,18.34,18.34,0,0,0,.61-4.63q0-6.36-4-6.36a3,3,0,0,0-2,.69,6.08,6.08,0,0,0-1.45,2,19.31,19.31,0,0,0-1.17,3.36c-.36,1.35-.77,2.92-1.22,4.7a65.61,65.61,0,0,1-2,6.66,18.17,18.17,0,0,1-2.76,5,11.37,11.37,0,0,1-4,3.18,13,13,0,0,1-5.66,1.12,13.41,13.41,0,0,1-6.83-1.62A13.11,13.11,0,0,1,78,400a18.6,18.6,0,0,1-2.49-6.14,32.59,32.59,0,0,1-.78-7.16,44.24,44.24,0,0,1,.4-5.78,45.66,45.66,0,0,1,1.18-5.79,48.68,48.68,0,0,1,1.86-5.46,30.19,30.19,0,0,1,2.49-4.88L90.24,370A9.83,9.83,0,0,0,89,371.88a28.72,28.72,0,0,0-1.89,3.94,41,41,0,0,0-1.68,5.24,23.24,23.24,0,0,0-.74,5.86q0,6.29,3.57,6.29a2.93,2.93,0,0,0,2.22-.94,9.12,9.12,0,0,0,1.58-2.6,30.84,30.84,0,0,0,1.32-3.95c.4-1.51.85-3.17,1.34-5a44.81,44.81,0,0,1,2.19-6.14,16.35,16.35,0,0,1,2.73-4.31,9.94,9.94,0,0,1,3.57-2.53,12.38,12.38,0,0,1,4.71-.83,14.2,14.2,0,0,1,6.67,1.52,14.58,14.58,0,0,1,4.88,4.12,18.68,18.68,0,0,1,3,6,25.75,25.75,0,0,1,1,7.27,29.85,29.85,0,0,1-.47,5.27,41.82,41.82,0,0,1-1.22,5,36.16,36.16,0,0,1-1.68,4.45c-.63,1.37-1.26,2.64-1.89,3.79Z"/></g></g></svg>