<svg xmlns="http://www.w3.org/2000/svg" viewBox="0 0 1213.1 1263.53"><defs><style>.cls-1{fill:#fff;}.cls-2{fill:#63cdf4;}.cls-3{fill:#fbf068;}.cls-4{fill:none;stroke:#010101;stroke-miterlimit:10;stroke-width:5px;}.cls-5{fill:#231f20;}</style></defs><title>select1200</title><g id="Layer_2" data-name="Layer 2"><g id="Layer_1-2" data-name="Layer 1"><rect class="cls-1" width="1213.1" height="1263.53"/><rect class="cls-2" x="262.97" y="141.25" width="718.13" height="1086"/><rect class="cls-3" x="237.94" y="95.1" width="706.73" height="1093.15"/><polyline class="cls-4" points="184.4 0 184.4 428.39 351.63 428.39 351.63 0"/><path class="cls-5" d="M317.47,142.39a7.09,7.09,0,0,0,1-1.51,31.41,31.41,0,0,0,1.52-3.26,33.8,33.8,0,0,0,1.39-4.26,18.45,18.45,0,0,0,.6-4.63c0-4.24-1.31-6.36-3.91-6.36a3,3,0,0,0-2,.68,6.1,6.1,0,0,0-1.42,2,19.37,19.37,0,0,0-1.16,3.36c-.35,1.35-.75,2.92-1.19,4.7a65.69,65.69,0,0,1-2,6.65,18.43,18.43,0,0,1-2.71,5,11.22,11.22,0,0,1-3.94,3.18,12.65,12.65,0,0,1-5.56,1.12,12.92,12.92,0,0,1-6.72-1.63,13.05,13.05,0,0,1-4.44-4.3,19.18,19.18,0,0,1-2.45-6.15,33.75,33.75,0,0,1-.76-7.15,44.51,44.51,0,0,1,.4-5.79,43.8,43.8,0,0,1,1.16-5.78,46.6,46.6,0,0,1,1.82-5.46,30.47,30.47,0,0,1,2.45-4.88l9.46,5.2a10.18,10.18,0,0,0-1.25,1.88,29.1,29.1,0,0,0-1.86,4,41.09,41.09,0,0,0-1.65,5.24,23.62,23.62,0,0,0-.73,5.85c0,4.2,1.17,6.29,3.51,6.29a2.81,2.81,0,0,0,2.18-.94,8.63,8.63,0,0,0,1.56-2.6,30.93,30.93,0,0,0,1.29-3.94q.6-2.28,1.32-5a45.67,45.67,0,0,1,2.16-6.15,16.21,16.21,0,0,1,2.68-4.3,9.66,9.66,0,0,1,3.5-2.53,11.86,11.86,0,0,1,4.64-.83,13.62,13.62,0,0,1,6.55,1.52,14.3,14.3,0,0,1,4.8,4.12,18.44,18.44,0,0,1,2.95,6,26.16,26.16,0,0,1,1,7.27,30,30,0,0,1-.46,5.28,44.37,44.37,0,0,1-1.19,5,37.69,37.69,0,0,1-1.66,4.44c-.62,1.38-1.24,2.64-1.85,3.8Z"/><path class="cls-5" d="M293.77,192.14h-9.53V156.06h47v35.43h-9.53V167.92h-9.13v20.24h-8.81V167.92h-10Z"/><path class="cls-5" d="M284.24,199.37h47v11.86H293.77V236.1h-9.53Z"/><path class="cls-5" d="M293.77,277.74h-9.53V241.67h47v35.42h-9.53V253.52h-9.13v20.25h-8.81V253.52h-10Z"/><path class="cls-5" d="M308.14,280.92a21.92,21.92,0,0,1,8.44,1.74,22.74,22.74,0,0,1,7.51,5.06,25.8,25.8,0,0,1,5.37,8.1,27.35,27.35,0,0,1,2.05,10.84,26.19,26.19,0,0,1-2.85,12.55,19.38,19.38,0,0,1-7.41,7.92L315.42,318a9.73,9.73,0,0,0,3.08-2.21,12,12,0,0,0,2-2.93,13,13,0,0,0,1.06-3.25,19.23,19.23,0,0,0,.29-3.25,13.25,13.25,0,0,0-1.25-5.93,12.7,12.7,0,0,0-7.75-6.65,16.56,16.56,0,0,0-5.1-.8,15.47,15.47,0,0,0-5.36.94,14.13,14.13,0,0,0-4.57,2.71,12.9,12.9,0,0,0-3.14,4.27,13.17,13.17,0,0,0-1.16,5.6,15.84,15.84,0,0,0,.36,3.29,14.23,14.23,0,0,0,1.13,3.25,11.58,11.58,0,0,0,2,2.86,9.14,9.14,0,0,0,3,2.1l-5.23,9.68a13.83,13.83,0,0,1-4.64-3.43,21.71,21.71,0,0,1-3.44-5.24,30,30,0,0,1-2.12-6.29,30.76,30.76,0,0,1-.72-6.51A24.78,24.78,0,0,1,285.93,296a25.84,25.84,0,0,1,5.53-8,25,25,0,0,1,7.81-5.2A22.61,22.61,0,0,1,308.14,280.92Z"/><path class="cls-5" d="M321.71,372.24V356.63H284.24V344.77h37.47V329.08h9.53v43.16Z"/><path class="cls-5" d="M228.7,108.63a22.05,22.05,0,0,1,8.44,1.73,22.91,22.91,0,0,1,7.52,5.07,25.78,25.78,0,0,1,5.36,8.09,27.37,27.37,0,0,1,2,10.85,26.14,26.14,0,0,1-2.85,12.54,19.19,19.19,0,0,1-7.41,7.92L236,145.72a9.7,9.7,0,0,0,3.08-2.2,12.14,12.14,0,0,0,2-2.93,13.08,13.08,0,0,0,1.06-3.26,18.25,18.25,0,0,0,.29-3.25,13.15,13.15,0,0,0-1.25-5.93A12.75,12.75,0,0,0,237.9,124a13,13,0,0,0-4.5-2.46,16.82,16.82,0,0,0-5.1-.8,15.71,15.71,0,0,0-5.36.94,14,14,0,0,0-4.56,2.71,13,13,0,0,0-3.15,4.27,13.17,13.17,0,0,0-1.16,5.6,15.22,15.22,0,0,0,.37,3.29,13.81,13.81,0,0,0,1.12,3.26,11.52,11.52,0,0,0,2,2.85,9.14,9.14,0,0,0,3,2.1l-5.23,9.69A13.73,13.73,0,0,1,210.7,152a21.07,21.07,0,0,1-3.45-5.24,29.63,29.63,0,0,1-2.11-6.29,30.05,30.05,0,0,1-.73-6.5,24.8,24.8,0,0,1,2.08-10.24,25.79,25.79,0,0,1,5.53-8,25,25,0,0,1,7.81-5.21A22.6,22.6,0,0,1,228.7,108.63Z"/><path class="cls-5" d="M204.8,161.34h47v11.85H214.34v24.88H204.8Z"/><path class="cls-5" d="M204.8,203.63h47v11.86h-47Z"/><path class="cls-5" d="M214.34,261.4H204.8V225.32h47v35.43h-9.54V237.18h-9.13v20.25h-8.81V237.18h-10Z"/><path class="cls-5" d="M231.68,280.49H204.8V268.63h47v9.26L224.2,301.82h27.61v11.86h-47v-9.55Z"/><path class="cls-5" d="M242.27,362.62V347H204.8V335.15h37.47V319.46h9.54v43.16Z"/><path class="cls-5" d="M238,399.21a7.91,7.91,0,0,0,1-1.52,31.14,31.14,0,0,0,1.52-3.25,34,34,0,0,0,1.39-4.27,18.33,18.33,0,0,0,.6-4.63q0-6.36-3.91-6.36a2.91,2.91,0,0,0-2,.69,6.06,6.06,0,0,0-1.43,2,20.25,20.25,0,0,0-1.16,3.36c-.35,1.35-.75,2.92-1.19,4.7a65.92,65.92,0,0,1-2,6.66,18.36,18.36,0,0,1-2.71,5,11.22,11.22,0,0,1-3.94,3.18,12.65,12.65,0,0,1-5.56,1.12A12.38,12.38,0,0,1,207.49,400a18.77,18.77,0,0,1-2.45-6.14,33.21,33.21,0,0,1-.77-7.16,44.24,44.24,0,0,1,.4-5.78,45.63,45.63,0,0,1,1.16-5.79,48.53,48.53,0,0,1,1.82-5.46,31.77,31.77,0,0,1,2.45-4.88l9.47,5.21a9.65,9.65,0,0,0-1.26,1.88,27.84,27.84,0,0,0-1.85,3.94,41,41,0,0,0-1.66,5.24,23.7,23.7,0,0,0-.73,5.86q0,6.29,3.51,6.29a2.84,2.84,0,0,0,2.18-.94,8.89,8.89,0,0,0,1.56-2.6,31.12,31.12,0,0,0,1.29-3.95c.4-1.51.84-3.17,1.33-5a43.77,43.77,0,0,1,2.15-6.14,16.28,16.28,0,0,1,2.68-4.31,9.73,9.73,0,0,1,3.51-2.53,12,12,0,0,1,4.63-.83,13.71,13.71,0,0,1,6.55,1.52,14.41,14.41,0,0,1,4.8,4.12,18.59,18.59,0,0,1,3,6,26.11,26.11,0,0,1,1,7.27,29.84,29.84,0,0,1-.46,5.27,43.85,43.85,0,0,1-1.19,5,37.86,37.86,0,0,1-1.66,4.45c-.62,1.37-1.23,2.64-1.85,3.79Z"/></g></g></svg>