<svg xmlns="http://www.w3.org/2000/svg" viewBox="0 0 1208 1301.48"><defs><style>.cls-1{fill:#fff;}.cls-2{fill:#8bccf2;}.cls-3{fill:#f8f072;}.cls-4{fill:#272525;}.cls-5{fill:none;stroke:#070707;stroke-miterlimit:10;stroke-width:6px;}</style></defs><title>select1200_1</title><g id="Layer_2" data-name="Layer 2"><g id="Layer_1-2" data-name="Layer 1"><rect class="cls-1" width="1208" height="1301.48"/><rect class="cls-2" x="257.87" y="167.23" width="718.13" height="1086"/><rect class="cls-3" x="232.84" y="121.08" width="706.73" height="1093.15"/><path class="cls-4" d="M312.38,168.38a7.24,7.24,0,0,0,1-1.52,29.76,29.76,0,0,0,1.52-3.25,33.35,33.35,0,0,0,1.39-4.27,18.48,18.48,0,0,0,.6-4.63q0-6.36-3.91-6.36a2.93,2.93,0,0,0-2,.69,6,6,0,0,0-1.42,2,19.65,19.65,0,0,0-1.16,3.36q-.53,2-1.19,4.7a65.68,65.68,0,0,1-2,6.65,18.31,18.31,0,0,1-2.71,5,11.13,11.13,0,0,1-3.94,3.18A12.67,12.67,0,0,1,293,175.1a12.44,12.44,0,0,1-11.15-5.93,19.05,19.05,0,0,1-2.45-6.15,33.35,33.35,0,0,1-.76-7.16,43.59,43.59,0,0,1,.4-5.78,45.13,45.13,0,0,1,1.16-5.78,48.55,48.55,0,0,1,1.82-5.46,31.33,31.33,0,0,1,2.45-4.88l9.47,5.21a10.05,10.05,0,0,0-1.26,1.88A29,29,0,0,0,290.8,145a42.51,42.51,0,0,0-1.65,5.24,23.87,23.87,0,0,0-.73,5.86q0,6.29,3.51,6.29a2.84,2.84,0,0,0,2.18-.94,9,9,0,0,0,1.56-2.6,30.1,30.1,0,0,0,1.29-3.94q.6-2.28,1.32-5a45.1,45.1,0,0,1,2.15-6.15,16.32,16.32,0,0,1,2.68-4.3,9.7,9.7,0,0,1,3.51-2.53,11.92,11.92,0,0,1,4.63-.83,13.72,13.72,0,0,1,6.55,1.52,14.43,14.43,0,0,1,4.8,4.12,18.53,18.53,0,0,1,2.95,6,26,26,0,0,1,1,7.27,30.14,30.14,0,0,1-.46,5.28,42.84,42.84,0,0,1-1.19,5,37.78,37.78,0,0,1-1.65,4.45q-.93,2.06-1.85,3.8Z"/><path class="cls-4" d="M288.68,218.12h-9.53V182h47v35.43h-9.53V193.9h-9.14v20.25h-8.8V193.9h-10Z"/><path class="cls-4" d="M279.15,225.35h47v11.86H288.68v24.87h-9.53Z"/><path class="cls-4" d="M288.68,303.73h-9.53V267.65h47v35.43h-9.53V279.51h-9.14v20.24h-8.8V279.51h-10Z"/><path class="cls-4" d="M303,306.91a22,22,0,0,1,8.44,1.74,22.79,22.79,0,0,1,7.51,5.06,25.75,25.75,0,0,1,5.36,8.1,27.23,27.23,0,0,1,2.05,10.85,26.21,26.21,0,0,1-2.85,12.54,19.28,19.28,0,0,1-7.41,7.92L310.33,344a9.7,9.7,0,0,0,3.08-2.21,12,12,0,0,0,2-2.93,12.76,12.76,0,0,0,1.06-3.25,18.48,18.48,0,0,0,.3-3.25,13.17,13.17,0,0,0-1.26-5.93,12.82,12.82,0,0,0-3.24-4.19,13.05,13.05,0,0,0-4.5-2.46,16.78,16.78,0,0,0-5.1-.8,15.55,15.55,0,0,0-5.36.94,13.94,13.94,0,0,0-4.57,2.71,13,13,0,0,0-3.15,4.27,13.14,13.14,0,0,0-1.16,5.6,15.69,15.69,0,0,0,.36,3.29A14.07,14.07,0,0,0,289.9,339a11.54,11.54,0,0,0,2,2.86,9.22,9.22,0,0,0,3,2.1l-5.23,9.69a13.82,13.82,0,0,1-4.63-3.43A21.24,21.24,0,0,1,281.6,345a29.72,29.72,0,0,1-2.12-6.29,30.39,30.39,0,0,1-.73-6.51A24.78,24.78,0,0,1,280.83,322a25.81,25.81,0,0,1,5.53-8,25,25,0,0,1,7.81-5.21A22.62,22.62,0,0,1,303,306.91Z"/><path class="cls-4" d="M316.61,398.23V382.61H279.15V370.75h37.47V355.06h9.53v43.16Z"/><path class="cls-4" d="M223.6,134.61a22,22,0,0,1,8.44,1.74,22.79,22.79,0,0,1,7.51,5.06,25.75,25.75,0,0,1,5.36,8.1A27.22,27.22,0,0,1,247,160.35a26.21,26.21,0,0,1-2.85,12.54,19.28,19.28,0,0,1-7.41,7.92l-5.83-9.11A9.71,9.71,0,0,0,234,169.5a12,12,0,0,0,2-2.93,12.76,12.76,0,0,0,1.06-3.25,18.48,18.48,0,0,0,.3-3.25,13.17,13.17,0,0,0-1.26-5.93,12.83,12.83,0,0,0-3.24-4.19,13.07,13.07,0,0,0-4.5-2.46,16.78,16.78,0,0,0-5.1-.8,15.55,15.55,0,0,0-5.36.94,13.94,13.94,0,0,0-4.57,2.71,13,13,0,0,0-3.15,4.27,13.15,13.15,0,0,0-1.16,5.6,15.69,15.69,0,0,0,.36,3.29,14.06,14.06,0,0,0,1.13,3.25,11.54,11.54,0,0,0,2,2.86,9.23,9.23,0,0,0,3,2.1l-5.23,9.69A13.83,13.83,0,0,1,205.6,178a21.23,21.23,0,0,1-3.44-5.24,29.73,29.73,0,0,1-2.12-6.29,30.39,30.39,0,0,1-.73-6.51,24.78,24.78,0,0,1,2.08-10.23,25.81,25.81,0,0,1,5.53-8,25,25,0,0,1,7.81-5.21A22.61,22.61,0,0,1,223.6,134.61Z"/><path class="cls-4" d="M199.71,187.32h47v11.86H209.24v24.87h-9.53Z"/><path class="cls-4" d="M199.71,229.62h47v11.86h-47Z"/><path class="cls-4" d="M209.24,287.39h-9.53V251.31h47v35.43h-9.53V263.16H228v20.25h-8.8V263.16h-10Z"/><path class="cls-4" d="M226.58,306.47H199.71V294.62h47v9.25L219.1,327.8h27.6v11.86h-47v-9.54Z"/><path class="cls-4" d="M237.18,388.61V373H199.71V361.13h37.47V345.44h9.53v43.17Z"/><path class="cls-4" d="M232.94,425.19a7.27,7.27,0,0,0,1-1.52,29.81,29.81,0,0,0,1.52-3.25,33.41,33.41,0,0,0,1.39-4.27,18.48,18.48,0,0,0,.6-4.63q0-6.36-3.91-6.36a2.92,2.92,0,0,0-2,.69,6,6,0,0,0-1.42,2,19.68,19.68,0,0,0-1.16,3.36q-.53,2-1.19,4.7a65.66,65.66,0,0,1-2,6.65,18.3,18.3,0,0,1-2.71,5,11.13,11.13,0,0,1-3.94,3.18,12.68,12.68,0,0,1-5.56,1.12A12.44,12.44,0,0,1,202.39,426a19,19,0,0,1-2.45-6.15,33.34,33.34,0,0,1-.76-7.16,43.58,43.58,0,0,1,.4-5.78,45.16,45.16,0,0,1,1.16-5.78,48.5,48.5,0,0,1,1.82-5.46,31.31,31.31,0,0,1,2.45-4.88l9.47,5.21a10,10,0,0,0-1.26,1.88,29,29,0,0,0-1.85,3.94A42.56,42.56,0,0,0,209.7,407a23.86,23.86,0,0,0-.73,5.86q0,6.29,3.51,6.29a2.84,2.84,0,0,0,2.18-.94,9,9,0,0,0,1.56-2.6,30.12,30.12,0,0,0,1.29-3.94q.6-2.28,1.32-5a45.11,45.11,0,0,1,2.15-6.15,16.32,16.32,0,0,1,2.68-4.3,9.7,9.7,0,0,1,3.51-2.53,11.93,11.93,0,0,1,4.63-.83,13.72,13.72,0,0,1,6.55,1.52,14.43,14.43,0,0,1,4.8,4.12,18.54,18.54,0,0,1,2.95,6,26,26,0,0,1,1,7.27,30.13,30.13,0,0,1-.46,5.28,42.82,42.82,0,0,1-1.19,5,37.77,37.77,0,0,1-1.65,4.45q-.93,2.06-1.85,3.8Z"/><rect class="cls-5" x="180.3" y="30.11" width="170.11" height="428.39"/></g></g></svg>