<svg xmlns="http://www.w3.org/2000/svg" viewBox="0 0 905.42 1310.74"><defs><style>.cls-1{fill:#fff;}.cls-2{fill:#8bccf2;}.cls-3{fill:#f8f072;}.cls-4{fill:#272525;}.cls-5{fill:none;stroke:#070707;stroke-miterlimit:10;stroke-width:6px;}</style></defs><title>select900_1</title><g id="Layer_2" data-name="Layer 2"><g id="Layer_1-2" data-name="Layer 1"><rect class="cls-1" width="905.42" height="1310.74"/><rect class="cls-2" x="137.64" y="170.4" width="724.81" height="1086"/><rect class="cls-3" x="110.18" y="133.25" width="718.96" height="1093.15"/><path class="cls-4" d="M191.1,180.54a7.23,7.23,0,0,0,1-1.52,29.53,29.53,0,0,0,1.55-3.25,32.94,32.94,0,0,0,1.41-4.27,18.18,18.18,0,0,0,.61-4.63q0-6.36-4-6.36a3,3,0,0,0-2,.69,6,6,0,0,0-1.45,2,19.42,19.42,0,0,0-1.18,3.36q-.54,2-1.21,4.7a64.85,64.85,0,0,1-2.05,6.65,18.22,18.22,0,0,1-2.76,5,11.29,11.29,0,0,1-4,3.18,13.08,13.08,0,0,1-5.66,1.12,13.38,13.38,0,0,1-6.84-1.63,13.12,13.12,0,0,1-4.51-4.3,18.87,18.87,0,0,1-2.49-6.15,32.8,32.8,0,0,1-.77-7.16,42.86,42.86,0,0,1,.4-5.78,44.45,44.45,0,0,1,1.18-5.78,48,48,0,0,1,1.85-5.46,31.13,31.13,0,0,1,2.49-4.88l9.63,5.21a10,10,0,0,0-1.28,1.88,28.8,28.8,0,0,0-1.89,3.94,42,42,0,0,0-1.68,5.24,23.49,23.49,0,0,0-.74,5.86q0,6.29,3.57,6.29a2.91,2.91,0,0,0,2.22-.94,9,9,0,0,0,1.58-2.6,29.75,29.75,0,0,0,1.31-3.94q.61-2.28,1.35-5a44.59,44.59,0,0,1,2.19-6.15,16.28,16.28,0,0,1,2.73-4.3,9.86,9.86,0,0,1,3.57-2.53,12.31,12.31,0,0,1,4.71-.83,14.15,14.15,0,0,1,6.67,1.52,14.62,14.62,0,0,1,4.88,4.12,18.41,18.41,0,0,1,3,6,25.63,25.63,0,0,1,1,7.27,29.64,29.64,0,0,1-.47,5.28,42.23,42.23,0,0,1-1.21,5,37.38,37.38,0,0,1-1.68,4.45q-.94,2.06-1.89,3.8Z"/><path class="cls-4" d="M167,230.29h-9.7V194.21H205.1v35.43h-9.7V206.07h-9.29v20.25h-9V206.07H167Z"/><path class="cls-4" d="M157.29,237.52H205.1v11.86H167v24.87h-9.7Z"/><path class="cls-4" d="M167,315.89h-9.7V279.82H205.1v35.43h-9.7V291.67h-9.29v20.24h-9V291.67H167Z"/><path class="cls-4" d="M181.6,319.08a22.69,22.69,0,0,1,8.59,1.74,23.21,23.21,0,0,1,7.64,5.06,25.72,25.72,0,0,1,5.45,8.1,26.82,26.82,0,0,1,2.09,10.85,25.85,25.85,0,0,1-2.9,12.54,19.43,19.43,0,0,1-7.54,7.92L189,356.17a9.86,9.86,0,0,0,3.13-2.21,12,12,0,0,0,2-2.93,12.61,12.61,0,0,0,1.08-3.25,18.17,18.17,0,0,0,.3-3.25A12.66,12.66,0,0,0,191,334.4a13.35,13.35,0,0,0-4.58-2.46,17.35,17.35,0,0,0-5.19-.8,16.07,16.07,0,0,0-5.46.94,14.24,14.24,0,0,0-4.65,2.71,12.78,12.78,0,0,0-4.38,9.87,15.43,15.43,0,0,0,.37,3.29,13.91,13.91,0,0,0,1.14,3.25,11.53,11.53,0,0,0,2,2.86,9.38,9.38,0,0,0,3.06,2.1L168,365.85a14,14,0,0,1-4.71-3.43,21.21,21.21,0,0,1-3.5-5.24,29.37,29.37,0,0,1-2.15-6.29,29.89,29.89,0,0,1-.74-6.51A24.42,24.42,0,0,1,159,334.15a25.8,25.8,0,0,1,5.62-8,25.47,25.47,0,0,1,7.95-5.21A23.36,23.36,0,0,1,181.6,319.08Z"/><path class="cls-4" d="M195.41,410.39V394.78H157.29V382.92h38.12V367.23h9.7v43.16Z"/><path class="cls-4" d="M100.79,146.78a22.69,22.69,0,0,1,8.59,1.74,23.21,23.21,0,0,1,7.64,5.06,25.72,25.72,0,0,1,5.45,8.1,26.82,26.82,0,0,1,2.09,10.85,25.84,25.84,0,0,1-2.9,12.54,19.42,19.42,0,0,1-7.54,7.92l-5.93-9.11a9.88,9.88,0,0,0,3.13-2.21,12,12,0,0,0,2-2.93,12.61,12.61,0,0,0,1.08-3.25,18.18,18.18,0,0,0,.3-3.25,12.66,12.66,0,0,0-4.58-10.12,13.37,13.37,0,0,0-4.58-2.46,17.35,17.35,0,0,0-5.19-.8,16.07,16.07,0,0,0-5.46.94,14.24,14.24,0,0,0-4.65,2.71,12.78,12.78,0,0,0-4.38,9.87,15.43,15.43,0,0,0,.37,3.29,13.9,13.9,0,0,0,1.14,3.25,11.54,11.54,0,0,0,2,2.86,9.39,9.39,0,0,0,3.06,2.1l-5.32,9.69a14.05,14.05,0,0,1-4.71-3.43,21.2,21.2,0,0,1-3.5-5.24,29.38,29.38,0,0,1-2.15-6.29,29.9,29.9,0,0,1-.74-6.51,24.42,24.42,0,0,1,2.12-10.23,25.8,25.8,0,0,1,5.62-8,25.46,25.46,0,0,1,7.95-5.21A23.35,23.35,0,0,1,100.79,146.78Z"/><path class="cls-4" d="M76.48,199.49h47.81v11.86H86.17v24.87h-9.7Z"/><path class="cls-4" d="M76.48,241.78h47.81v11.86H76.48Z"/><path class="cls-4" d="M86.17,299.55h-9.7V263.47h47.81V298.9h-9.7V275.33H105.3v20.25h-9V275.33H86.17Z"/><path class="cls-4" d="M103.82,318.64H76.48V306.78h47.81V316L96.21,340h28.08v11.86H76.48v-9.54Z"/><path class="cls-4" d="M114.59,400.77V385.16H76.48V373.3h38.12V357.61h9.7v43.17Z"/><path class="cls-4" d="M110.28,437.36a7.27,7.27,0,0,0,1-1.52,29.59,29.59,0,0,0,1.55-3.25,33,33,0,0,0,1.41-4.27,18.19,18.19,0,0,0,.61-4.63q0-6.36-4-6.36a3,3,0,0,0-2,.69,6,6,0,0,0-1.45,2,19.46,19.46,0,0,0-1.18,3.36q-.54,2-1.21,4.7a64.83,64.83,0,0,1-2.05,6.65,18.21,18.21,0,0,1-2.76,5,11.29,11.29,0,0,1-4,3.18,13.09,13.09,0,0,1-5.66,1.12,13.38,13.38,0,0,1-6.84-1.63,13.12,13.12,0,0,1-4.51-4.3A18.86,18.86,0,0,1,76.71,432a32.8,32.8,0,0,1-.77-7.16,42.85,42.85,0,0,1,.4-5.78,44.48,44.48,0,0,1,1.18-5.78,47.92,47.92,0,0,1,1.85-5.46,31.1,31.1,0,0,1,2.49-4.88l9.63,5.21A10,10,0,0,0,90.21,410,28.79,28.79,0,0,0,88.33,414a42,42,0,0,0-1.68,5.24,23.48,23.48,0,0,0-.74,5.86q0,6.29,3.57,6.29a2.91,2.91,0,0,0,2.22-.94,9,9,0,0,0,1.58-2.6,29.76,29.76,0,0,0,1.31-3.94q.61-2.28,1.35-5a44.6,44.6,0,0,1,2.19-6.15,16.28,16.28,0,0,1,2.73-4.3,9.87,9.87,0,0,1,3.57-2.53,12.32,12.32,0,0,1,4.71-.83,14.15,14.15,0,0,1,6.67,1.52,14.61,14.61,0,0,1,4.88,4.12,18.41,18.41,0,0,1,3,6,25.64,25.64,0,0,1,1,7.27,29.63,29.63,0,0,1-.47,5.28,42.21,42.21,0,0,1-1.21,5,37.37,37.37,0,0,1-1.68,4.45q-.94,2.06-1.89,3.8Z"/><rect class="cls-5" x="56.31" y="38.15" width="170.11" height="428.39"/></g></g></svg>