<svg xmlns="http://www.w3.org/2000/svg" viewBox="0 0 1211.34 604.67"><defs><style>.cls-1{fill:#fff;}.cls-2{fill:#63cdf4;}.cls-3{fill:#fcf169;}.cls-4{font-size:14px;font-family:Raleway-Regular, Raleway;}.cls-5{letter-spacing:-0.03em;}.cls-6{letter-spacing:-0.11em;}.cls-7{letter-spacing:-0.01em;}.cls-8{letter-spacing:0em;}.cls-9{letter-spacing:-0.03em;}.cls-10{letter-spacing:0em;}.cls-11{letter-spacing:-0.03em;}.cls-12{letter-spacing:-0.01em;}.cls-13{letter-spacing:-0.04em;}.cls-14{letter-spacing:-0.03em;}.cls-15{letter-spacing:0em;}.cls-16{letter-spacing:-0.01em;}.cls-17{letter-spacing:-0.01em;}.cls-18{letter-spacing:-0.01em;}.cls-19{letter-spacing:-0.01em;}.cls-20{letter-spacing:0em;}.cls-21{letter-spacing:-0.03em;}.cls-22{letter-spacing:-0.02em;}.cls-23{letter-spacing:-0.07em;}.cls-24{letter-spacing:-0.03em;}.cls-25{letter-spacing:-0.02em;}.cls-26{letter-spacing:-0.01em;}.cls-27{letter-spacing:0em;}.cls-28{letter-spacing:-0.02em;}.cls-29{letter-spacing:-0.02em;}.cls-30{letter-spacing:-0.01em;}.cls-31{letter-spacing:-0.01em;}.cls-32{letter-spacing:-0.03em;}.cls-33{letter-spacing:-0.01em;}.cls-34{letter-spacing:-0.01em;}.cls-35{letter-spacing:-0.02em;}.cls-36{letter-spacing:-0.01em;}.cls-37{letter-spacing:-0.03em;}.cls-38{letter-spacing:-0.06em;}.cls-39{letter-spacing:-0.02em;}.cls-40{letter-spacing:-0.02em;}.cls-41{letter-spacing:-0.05em;}.cls-42{letter-spacing:-0.03em;}.cls-43{letter-spacing:0em;}.cls-44{letter-spacing:-0.03em;}.cls-45{letter-spacing:-0.01em;}.cls-46{letter-spacing:-0.01em;}.cls-47{letter-spacing:-0.01em;}.cls-48{letter-spacing:-0.02em;}.cls-49{letter-spacing:-0.06em;}.cls-50{letter-spacing:-0.04em;}.cls-51,.cls-82{font-size:21px;font-family:Raleway-Bold, Raleway;font-weight:700;}.cls-51{fill:#b1b1b1;}.cls-52{letter-spacing:-0.01em;}.cls-53{letter-spacing:0em;}.cls-54{letter-spacing:0.01em;}.cls-55{letter-spacing:-0.09em;}.cls-56{letter-spacing:-0.02em;}.cls-57{letter-spacing:0em;}.cls-58{letter-spacing:0em;}.cls-59{letter-spacing:0em;}.cls-60{letter-spacing:0.01em;}.cls-61{letter-spacing:-0.02em;}.cls-62{letter-spacing:0.01em;}.cls-63{letter-spacing:-0.01em;}.cls-64{letter-spacing:0em;}.cls-65{letter-spacing:0em;}.cls-66{letter-spacing:-0.03em;}.cls-67{letter-spacing:0em;}.cls-68{letter-spacing:-0.04em;}.cls-69{letter-spacing:-0.02em;}.cls-70{letter-spacing:-0.01em;}.cls-71{letter-spacing:-0.02em;}.cls-72{letter-spacing:-0.04em;}.cls-73{letter-spacing:-0.01em;}.cls-74{letter-spacing:0em;}.cls-75{letter-spacing:-0.02em;}.cls-76{letter-spacing:-0.01em;}.cls-77{letter-spacing:-0.01em;}.cls-78{letter-spacing:0.01em;}.cls-79{letter-spacing:0.02em;}.cls-80{letter-spacing:-0.04em;}.cls-81{letter-spacing:-0.01em;}</style></defs><title>ct1200</title><g id="Layer_2" data-name="Layer 2"><g id="Layer_1-2" data-name="Layer 1"><rect class="cls-1" width="1211.34" height="604.67"/><rect class="cls-2" x="196.39" y="124.75" width="861.52" height="142.32"/><rect class="cls-3" x="174.04" y="104.24" width="863.17" height="143.37"/><text class="cls-4" transform="translate(218.05 147.61)">College<tspan class="cls-5" x="50.64" y="0"> </tspan><tspan class="cls-6" x="53.81" y="0">T</tspan><tspan class="cls-7" x="60.81" y="0">r</tspan><tspan x="65.63" y="0">ack is a n</tspan><tspan class="cls-8" x="124.74" y="0">a</tspan><tspan x="132.31" y="0">tiona</tspan><tspan class="cls-9" x="164.17" y="0">l</tspan><tspan x="167.55" y="0" xml:space="preserve"> educ</tspan><tspan class="cls-10" x="204.05" y="0">a</tspan><tspan x="211.62" y="0">tiona</tspan><tspan class="cls-9" x="243.48" y="0">l</tspan><tspan x="246.86" y="0" xml:space="preserve"> nonp</tspan><tspan class="cls-11" x="283.72" y="0">r</tspan><tspan class="cls-12" x="288.27" y="0">o</tspan><tspan x="296.49" y="0">fit o</tspan><tspan class="cls-11" x="320.13" y="0">r</tspan><tspan x="324.68" y="0">ganiz</tspan><tspan class="cls-10" x="359.07" y="0">a</tspan><tspan x="366.64" y="0">tion th</tspan><tspan class="cls-8" x="407.3" y="0">a</tspan><tspan x="414.87" y="0">t supports unde</tspan><tspan class="cls-13" x="517.26" y="0">r</tspan><tspan x="521.58" y="0">-</tspan><tspan class="cls-14" x="527.48" y="0">r</tspan><tspan x="532.03" y="0">ep</tspan><tspan class="cls-14" x="548.89" y="0">r</tspan><tspan x="553.44" y="0">ese</tspan><tspan class="cls-15" x="576.69" y="0">n</tspan><tspan class="cls-16" x="584.79" y="0">t</tspan><tspan x="589.29" y="0">ed, firs</tspan><tspan class="cls-17" x="631.73" y="0">t</tspan><tspan x="636.29" y="0">-gene</tspan><tspan class="cls-7" x="675.45" y="0">r</tspan><tspan class="cls-8" x="680.27" y="0">a</tspan><tspan x="687.84" y="0">tion stude</tspan><tspan class="cls-15" x="752.39" y="0">n</tspan><tspan x="760.48" y="0">ts </tspan><tspan class="cls-18" x="0" y="16.8">t</tspan><tspan x="4.51" y="16.8">o g</tspan><tspan class="cls-7" x="25.06" y="16.8">r</tspan><tspan x="29.88" y="16.8">adu</tspan><tspan class="cls-8" x="54.53" y="16.8">a</tspan><tspan class="cls-16" x="62.1" y="16.8">t</tspan><tspan x="66.61" y="16.8">e f</tspan><tspan class="cls-11" x="83.02" y="16.8">r</tspan><tspan x="87.57" y="16.8">om </tspan><tspan class="cls-19" x="112.34" y="16.8">c</tspan><tspan class="cls-20" x="119.95" y="16.8">ollege and close the opportunit</tspan><tspan class="cls-21" x="323.45" y="16.8">y</tspan><tspan x="330.66" y="16.8" xml:space="preserve"> gap.  In 20</tspan><tspan class="cls-22" x="400" y="16.8">1</tspan><tspan class="cls-23" x="405.74" y="16.8">7</tspan><tspan x="412.24" y="16.8">,</tspan><tspan class="cls-24" x="415.39" y="16.8"> </tspan><tspan class="cls-25" x="418.58" y="16.8">w</tspan><tspan x="429.7" y="16.8">e engaged</tspan><tspan class="cls-24" x="499.72" y="16.8"> </tspan><tspan x="502.91" y="16.8">with them </tspan><tspan class="cls-18" x="571.27" y="16.8">t</tspan><tspan x="575.78" y="16.8">o d</tspan><tspan class="cls-26" x="596.39" y="16.8">e</tspan><tspan class="cls-22" x="604.41" y="16.8">v</tspan><tspan x="611.62" y="16.8">elop a st</tspan><tspan class="cls-7" x="666.89" y="16.8">r</tspan><tspan class="cls-8" x="671.71" y="16.8">a</tspan><tspan class="cls-16" x="679.28" y="16.8">t</tspan><tspan x="683.79" y="16.8">egic plan </tspan><tspan class="cls-11" x="746.78" y="16.8">f</tspan><tspan class="cls-27" x="751.03" y="16.8">o</tspan><tspan class="cls-28" x="759.36" y="16.8">r</tspan><tspan x="763.94" y="16.8"> </tspan><tspan class="cls-11" x="0" y="33.6">r</tspan><tspan class="cls-26" x="4.55" y="33.6">e</tspan><tspan class="cls-18" x="12.57" y="33.6">v</tspan><tspan x="19.85" y="33.6">amping thei</tspan><tspan class="cls-29" x="96.54" y="33.6">r</tspan><tspan x="101.12" y="33.6"> </tspan><tspan class="cls-16" x="104.69" y="33.6">t</tspan><tspan x="109.2" y="33.6">echnolog</tspan><tspan class="cls-24" x="170.55" y="33.6">y</tspan><tspan x="177.76" y="33.6" xml:space="preserve"> e</tspan><tspan class="cls-15" x="189.54" y="33.6">c</tspan><tspan x="197.16" y="33.6">o</tspan><tspan class="cls-30" x="205.49" y="33.6">s</tspan><tspan class="cls-31" x="212.17" y="33.6">y</tspan><tspan x="219.59" y="33.6">s</tspan><tspan class="cls-18" x="226.41" y="33.6">t</tspan><tspan x="230.91" y="33.6">em. </tspan><tspan class="cls-32" x="258.21" y="33.6"> </tspan><tspan x="261.39" y="33.6">Though th</tspan><tspan class="cls-33" x="327.97" y="33.6">e</tspan><tspan class="cls-24" x="336" y="33.6">y </tspan><tspan class="cls-25" x="346.4" y="33.6">w</tspan><tspan x="357.51" y="33.6">e</tspan><tspan class="cls-11" x="365.73" y="33.6">r</tspan><tspan x="370.28" y="33.6">e on Sales</tspan><tspan class="cls-14" x="437.1" y="33.6">f</tspan><tspan class="cls-20" x="441.36" y="33.6">o</tspan><tspan class="cls-14" x="449.69" y="33.6">r</tspan><tspan class="cls-15" x="454.24" y="33.6">c</tspan><tspan x="461.85" y="33.6">e, thei</tspan><tspan class="cls-28" x="500.91" y="33.6">r</tspan><tspan x="505.49" y="33.6" xml:space="preserve"> cus</tspan><tspan class="cls-18" x="531.88" y="33.6">t</tspan><tspan x="536.39" y="33.6">omiz</tspan><tspan class="cls-10" x="567.52" y="33.6">a</tspan><tspan x="575.1" y="33.6">tion did n</tspan><tspan class="cls-34" x="635.1" y="33.6">o</tspan><tspan x="643.33" y="33.6">t me</tspan><tspan class="cls-10" x="672.68" y="33.6">e</tspan><tspan x="680.84" y="33.6">t thei</tspan><tspan class="cls-29" x="713.22" y="33.6">r</tspan><tspan x="717.8" y="33.6" xml:space="preserve"> needs.  </tspan><tspan x="0" y="50.4">P</tspan><tspan class="cls-11" x="8.71" y="50.4">r</tspan><tspan x="13.26" y="50.4">og</tspan><tspan class="cls-34" x="30.24" y="50.4">r</tspan><tspan x="35.06" y="50.4">am-</tspan><tspan class="cls-11" x="61.46" y="50.4">r</tspan><tspan x="66.01" y="50.4">el</tspan><tspan class="cls-10" x="78.04" y="50.4">a</tspan><tspan class="cls-18" x="85.61" y="50.4">t</tspan><tspan x="90.12" y="50.4">ed d</tspan><tspan class="cls-10" x="119.32" y="50.4">a</tspan><tspan x="126.9" y="50.4">ta </tspan><tspan class="cls-15" x="142.79" y="50.4">c</tspan><tspan x="150.4" y="50.4">ollection</tspan><tspan class="cls-24" x="206.48" y="50.4"> </tspan><tspan class="cls-18" x="209.68" y="50.4">w</tspan><tspan x="220.88" y="50.4">as a</tspan><tspan class="cls-11" x="246.52" y="50.4">r</tspan><tspan x="251.07" y="50.4">duous and time-</tspan><tspan class="cls-15" x="357.93" y="50.4">c</tspan><tspan x="365.55" y="50.4">onsuming, making d</tspan><tspan class="cls-10" x="496.69" y="50.4">a</tspan><tspan x="504.26" y="50.4">ta e</tspan><tspan class="cls-19" x="528.37" y="50.4">n</tspan><tspan x="536.46" y="50.4">tr</tspan><tspan class="cls-21" x="546.06" y="50.4">y</tspan><tspan x="553.27" y="50.4" xml:space="preserve"> difficult </tspan><tspan class="cls-14" x="606.95" y="50.4">f</tspan><tspan class="cls-20" x="611.21" y="50.4">o</tspan><tspan class="cls-29" x="619.54" y="50.4">r</tspan><tspan x="624.11" y="50.4" xml:space="preserve"> sta</tspan><tspan class="cls-10" x="639.19" y="50.4">f</tspan><tspan class="cls-35" x="646.76" y="50.4">f</tspan><tspan x="654.62" y="50.4" xml:space="preserve"> and ultim</tspan><tspan class="cls-10" x="718.99" y="50.4">a</tspan><tspan class="cls-18" x="726.56" y="50.4">t</tspan><tspan x="731.07" y="50.4">e</tspan><tspan class="cls-36" x="739.29" y="50.4">l</tspan><tspan class="cls-24" x="742.94" y="50.4">y</tspan><tspan x="750.15" y="50.4"> </tspan><tspan x="0" y="67.2">making the d</tspan><tspan class="cls-10" x="84.7" y="67.2">a</tspan><tspan x="92.27" y="67.2">ta un</tspan><tspan class="cls-11" x="124.64" y="67.2">r</tspan><tspan x="129.19" y="67.2">eliable </tspan><tspan class="cls-14" x="176.13" y="67.2">f</tspan><tspan class="cls-20" x="180.39" y="67.2">o</tspan><tspan class="cls-29" x="188.72" y="67.2">r</tspan><tspan x="193.29" y="67.2"> </tspan><tspan class="cls-25" x="196.86" y="67.2">e</tspan><tspan x="204.82" y="67.2">xplo</tspan><tspan class="cls-34" x="232.65" y="67.2">r</tspan><tspan class="cls-10" x="237.46" y="67.2">a</tspan><tspan class="cls-18" x="245.04" y="67.2">t</tspan><tspan x="249.55" y="67.2">or</tspan><tspan class="cls-24" x="262.79" y="67.2">y</tspan><tspan x="270" y="67.2" xml:space="preserve"> ana</tspan><tspan class="cls-36" x="296.99" y="67.2">l</tspan><tspan x="300.65" y="67.2">ytics.</tspan></text><text class="cls-4" transform="translate(211.74 328.78)">The<tspan class="cls-37" x="24.92" y="0"> </tspan><tspan class="cls-38" x="28.01" y="0">Y</tspan><tspan x="36.23" y="0">u</tspan><tspan class="cls-11" x="44.55" y="0">r</tspan><tspan x="49.1" y="0">gosk</tspan><tspan class="cls-24" x="80.32" y="0">y</tspan><tspan x="87.53" y="0"> </tspan><tspan class="cls-18" x="91.1" y="0">t</tspan><tspan x="95.6" y="0">eam m</tspan><tspan class="cls-10" x="140.75" y="0">e</tspan><tspan x="148.92" y="0">t</tspan><tspan class="cls-24" x="153.61" y="0"> </tspan><tspan x="156.8" y="0">with al</tspan><tspan class="cls-9" x="199.09" y="0">l</tspan><tspan x="202.47" y="0" xml:space="preserve"> six </tspan><tspan class="cls-12" x="226.53" y="0">o</tspan><tspan class="cls-35" x="234.75" y="0">f</tspan><tspan x="239.07" y="0" xml:space="preserve"> College</tspan><tspan class="cls-32" x="293.28" y="0"> </tspan><tspan class="cls-6" x="296.46" y="0">T</tspan><tspan class="cls-34" x="303.46" y="0">r</tspan><tspan x="308.27" y="0">ack</tspan><tspan class="cls-31" x="331.01" y="0">’</tspan><tspan x="333.5" y="0">s p</tspan><tspan class="cls-11" x="352.53" y="0">r</tspan><tspan x="357.08" y="0">og</tspan><tspan class="cls-34" x="374.06" y="0">r</tspan><tspan x="378.88" y="0">am departme</tspan><tspan class="cls-15" x="466.82" y="0">n</tspan><tspan x="474.92" y="0">ts </tspan><tspan class="cls-16" x="489.99" y="0">t</tspan><tspan x="494.5" y="0">o d</tspan><tspan class="cls-8" x="515.11" y="0">e</tspan><tspan class="cls-16" x="523.27" y="0">t</tspan><tspan x="527.78" y="0">ermine thei</tspan><tspan class="cls-29" x="600.9" y="0">r</tspan><tspan x="605.48" y="0" xml:space="preserve"> st</tspan><tspan class="cls-34" x="620.56" y="0">r</tspan><tspan class="cls-10" x="625.37" y="0">a</tspan><tspan class="cls-16" x="632.95" y="0">t</tspan><tspan x="637.45" y="0">egic goals, business </tspan><tspan x="0" y="16.8">p</tspan><tspan class="cls-11" x="8.64" y="16.8">r</tspan><tspan x="13.19" y="16.8">o</tspan><tspan class="cls-15" x="21.52" y="16.8">c</tspan><tspan x="29.13" y="16.8">esses, d</tspan><tspan class="cls-8" x="81.45" y="16.8">a</tspan><tspan x="89.02" y="16.8">ta </tspan><tspan class="cls-15" x="104.91" y="16.8">c</tspan><tspan x="112.53" y="16.8">ollection m</tspan><tspan class="cls-10" x="185.05" y="16.8">e</tspan><tspan x="193.21" y="16.8">thods and </tspan><tspan class="cls-24" x="261.56" y="16.8">k</tspan><tspan class="cls-26" x="268.6" y="16.8">e</tspan><tspan class="cls-24" x="276.62" y="16.8">y</tspan><tspan x="283.83" y="16.8" xml:space="preserve"> pain poi</tspan><tspan class="cls-15" x="338.47" y="16.8">n</tspan><tspan x="346.56" y="16.8">ts.</tspan><tspan class="cls-9" x="360.72" y="16.8"> </tspan><tspan class="cls-31" x="363.85" y="16.8">A</tspan><tspan x="373.15" y="16.8">f</tspan><tspan class="cls-18" x="377.77" y="16.8">t</tspan><tspan x="382.28" y="16.8">e</tspan><tspan class="cls-28" x="390.5" y="16.8">r</tspan><tspan x="395.07" y="16.8" xml:space="preserve"> dis</tspan><tspan class="cls-15" x="417.22" y="16.8">c</tspan><tspan class="cls-39" x="424.84" y="16.8">o</tspan><tspan class="cls-40" x="432.9" y="16.8">v</tspan><tspan x="440.11" y="16.8">er</tspan><tspan class="cls-41" x="453.24" y="16.8">y</tspan><tspan x="460.16" y="16.8">,</tspan><tspan class="cls-37" x="463.31" y="16.8"> </tspan><tspan class="cls-38" x="466.4" y="16.8">Y</tspan><tspan x="474.62" y="16.8">u</tspan><tspan class="cls-14" x="482.94" y="16.8">r</tspan><tspan x="487.49" y="16.8">gosk</tspan><tspan class="cls-24" x="518.71" y="16.8">y</tspan><tspan x="525.92" y="16.8" xml:space="preserve"> c</tspan><tspan class="cls-11" x="537.17" y="16.8">r</tspan><tspan x="541.72" y="16.8">e</tspan><tspan class="cls-8" x="549.94" y="16.8">a</tspan><tspan class="cls-16" x="557.52" y="16.8">t</tspan><tspan x="562.02" y="16.8">ed a boa</tspan><tspan class="cls-11" x="618.32" y="16.8">r</tspan><tspan x="622.87" y="16.8">d-</tspan><tspan class="cls-11" x="637.48" y="16.8">r</tspan><tspan x="642.03" y="16.8">ead</tspan><tspan class="cls-24" x="666.59" y="16.8">y</tspan><tspan x="673.8" y="16.8" xml:space="preserve"> st</tspan><tspan class="cls-34" x="688.88" y="16.8">r</tspan><tspan class="cls-10" x="693.69" y="16.8">a</tspan><tspan class="cls-18" x="701.27" y="16.8">t</tspan><tspan x="705.77" y="16.8">egic </tspan><tspan x="0" y="33.6">docume</tspan><tspan class="cls-15" x="54.12" y="33.6">n</tspan><tspan x="62.22" y="33.6">t th</tspan><tspan class="cls-10" x="83.33" y="33.6">a</tspan><tspan x="90.9" y="33.6">t d</tspan><tspan class="cls-8" x="107.87" y="33.6">e</tspan><tspan x="116.03" y="33.6">tailed a f</tspan><tspan class="cls-7" x="171.53" y="33.6">r</tspan><tspan x="176.34" y="33.6">am</tspan><tspan class="cls-33" x="196.84" y="33.6">e</tspan><tspan class="cls-25" x="204.86" y="33.6">w</tspan><tspan x="215.98" y="33.6">ork</tspan><tspan class="cls-24" x="236.64" y="33.6"> </tspan><tspan x="239.83" y="33.6">which</tspan><tspan class="cls-24" x="278.27" y="33.6"> </tspan><tspan class="cls-18" x="281.47" y="33.6">w</tspan><tspan x="292.67" y="33.6">as used </tspan><tspan class="cls-18" x="346.31" y="33.6">t</tspan><tspan class="cls-20" x="350.82" y="33.6">o </tspan><tspan class="cls-26" x="362.72" y="33.6">e</tspan><tspan class="cls-18" x="370.74" y="33.6">v</tspan><tspan x="378.02" y="33.6">alu</tspan><tspan class="cls-10" x="397.78" y="33.6">a</tspan><tspan class="cls-18" x="405.35" y="33.6">t</tspan><tspan x="409.86" y="33.6">e di</tspan><tspan class="cls-42" x="433.41" y="33.6">ff</tspan><tspan x="441.19" y="33.6">e</tspan><tspan class="cls-11" x="449.41" y="33.6">r</tspan><tspan x="453.96" y="33.6">e</tspan><tspan class="cls-19" x="462.18" y="33.6">n</tspan><tspan x="470.27" y="33.6">t solutions.</tspan><tspan class="cls-5" x="539.5" y="33.6"> </tspan><tspan class="cls-20" x="542.67" y="33.6">The docume</tspan><tspan class="cls-43" x="625.29" y="33.6">n</tspan><tspan x="633.38" y="33.6">t d</tspan><tspan class="cls-10" x="650.35" y="33.6">e</tspan><tspan x="658.51" y="33.6">tailed </tspan><tspan class="cls-11" x="0" y="50.4">r</tspan><tspan x="4.55" y="50.4">e</tspan><tspan class="cls-15" x="12.77" y="50.4">c</tspan><tspan x="20.38" y="50.4">ommend</tspan><tspan class="cls-8" x="79.53" y="50.4">a</tspan><tspan x="87.11" y="50.4">tions on the best </tspan><tspan class="cls-26" x="198.36" y="50.4">a</tspan><tspan class="cls-16" x="205.8" y="50.4">v</tspan><tspan x="213.08" y="50.4">ailable </tspan><tspan class="cls-16" x="259.43" y="50.4">t</tspan><tspan x="263.94" y="50.4">echnologies; idea</tspan><tspan class="cls-9" x="377.42" y="50.4">l</tspan><tspan x="380.79" y="50.4" xml:space="preserve"> pl</tspan><tspan class="cls-10" x="396.81" y="50.4">a</tspan><tspan x="404.38" y="50.4">t</tspan><tspan class="cls-11" x="409.07" y="50.4">f</tspan><tspan class="cls-27" x="413.33" y="50.4">orm mode</tspan><tspan class="cls-44" x="481.13" y="50.4">l</tspan><tspan x="484.5" y="50.4" xml:space="preserve"> and design; most us</tspan><tspan class="cls-15" x="617.6" y="50.4">e</tspan><tspan x="625.75" y="50.4">ful, </tspan><tspan class="cls-15" x="649.21" y="50.4">c</tspan><tspan x="656.83" y="50.4">os</tspan><tspan class="cls-45" x="671.98" y="50.4">t</tspan><tspan x="676.54" y="50.4">-</tspan><tspan class="cls-15" x="682.45" y="50.4">e</tspan><tspan class="cls-11" x="690.6" y="50.4">ff</tspan><tspan x="698.38" y="50.4">ecti</tspan><tspan class="cls-22" x="722.02" y="50.4">v</tspan><tspan x="729.23" y="50.4">e </tspan><tspan x="0" y="67.2">applic</tspan><tspan class="cls-10" x="39.45" y="67.2">a</tspan><tspan x="47.03" y="67.2">tions and </tspan><tspan class="cls-18" x="109.72" y="67.2">t</tspan><tspan x="114.22" y="67.2">ools; and th</tspan><tspan class="cls-11" x="188.87" y="67.2">r</tspan><tspan x="193.42" y="67.2">ee p</tspan><tspan class="cls-34" x="222.06" y="67.2">o</tspan><tspan class="cls-16" x="230.3" y="67.2">t</tspan><tspan x="234.8" y="67.2">e</tspan><tspan class="cls-19" x="243.02" y="67.2">n</tspan><tspan x="251.11" y="67.2">tia</tspan><tspan class="cls-9" x="266.49" y="67.2">l</tspan><tspan x="269.86" y="67.2" xml:space="preserve"> impleme</tspan><tspan class="cls-15" x="331.09" y="67.2">n</tspan><tspan x="339.19" y="67.2">t</tspan><tspan class="cls-10" x="343.88" y="67.2">a</tspan><tspan x="351.45" y="67.2">tion s</tspan><tspan class="cls-15" x="386.07" y="67.2">c</tspan><tspan x="393.69" y="67.2">enarios. B</tspan><tspan class="cls-33" x="456.35" y="67.2">e</tspan><tspan class="cls-40" x="464.37" y="67.2">y</tspan><tspan class="cls-27" x="471.71" y="67.2">ond sole</tspan><tspan class="cls-46" x="527.65" y="67.2">l</tspan><tspan class="cls-21" x="531.31" y="67.2">y</tspan><tspan x="538.52" y="67.2" xml:space="preserve"> a </tspan><tspan class="cls-14" x="553.28" y="67.2">r</tspan><tspan x="557.83" y="67.2">e</tspan><tspan class="cls-15" x="566.05" y="67.2">c</tspan><tspan x="573.67" y="67.2">ommend</tspan><tspan class="cls-10" x="632.82" y="67.2">a</tspan><tspan x="640.39" y="67.2">tion, the docume</tspan><tspan class="cls-15" x="750.11" y="67.2">n</tspan><tspan x="758.2" y="67.2">t </tspan><tspan x="0" y="84">d</tspan><tspan class="cls-10" x="8.71" y="84">e</tspan><tspan x="16.87" y="84">tailed </tspan><tspan class="cls-34" x="56.54" y="84">r</tspan><tspan class="cls-10" x="61.36" y="84">a</tspan><tspan x="68.94" y="84">tionale </tspan><tspan class="cls-11" x="116.39" y="84">f</tspan><tspan x="120.65" y="84">o</tspan><tspan class="cls-29" x="128.98" y="84">r</tspan><tspan x="133.56" y="84" xml:space="preserve"> each </tspan><tspan class="cls-11" x="172.39" y="84">r</tspan><tspan x="176.94" y="84">e</tspan><tspan class="cls-15" x="185.16" y="84">c</tspan><tspan x="192.78" y="84">ommend</tspan><tspan class="cls-10" x="251.93" y="84">a</tspan><tspan x="259.5" y="84">tion including </tspan><tspan class="cls-26" x="350.47" y="84">e</tspan><tspan class="cls-18" x="358.49" y="84">v</tspan><tspan x="365.77" y="84">alu</tspan><tspan class="cls-10" x="385.53" y="84">a</tspan><tspan class="cls-18" x="393.1" y="84">t</tspan><tspan x="397.61" y="84">ed (but n</tspan><tspan class="cls-34" x="455.25" y="84">o</tspan><tspan x="463.48" y="84">t selec</tspan><tspan class="cls-16" x="506.48" y="84">t</tspan><tspan x="510.99" y="84">ed) o</tspan><tspan class="cls-34" x="543.57" y="84">p</tspan><tspan x="552.11" y="84">tions as</tspan><tspan class="cls-24" x="601.18" y="84"> </tspan><tspan class="cls-25" x="604.37" y="84">w</tspan><tspan x="615.49" y="84">el</tspan><tspan class="cls-9" x="627.51" y="84">l</tspan><tspan x="630.89" y="84" xml:space="preserve"> as </tspan><tspan class="cls-34" x="652.47" y="84">r</tspan><tspan class="cls-10" x="657.29" y="84">a</tspan><tspan x="664.86" y="84">tiona</tspan><tspan class="cls-44" x="696.73" y="84">l</tspan><tspan x="700.1" y="84"> </tspan><tspan class="cls-16" x="703.67" y="84">t</tspan><tspan x="708.18" y="84">o c</tspan><tspan class="cls-11" x="727.77" y="84">r</tspan><tspan x="732.32" y="84">e</tspan><tspan class="cls-10" x="740.53" y="84">a</tspan><tspan class="cls-18" x="748.11" y="84">t</tspan><tspan x="752.62" y="84">e </tspan><tspan x="0" y="100.8">the most</tspan><tspan class="cls-24" x="57.34" y="100.8"> </tspan><tspan class="cls-16" x="60.54" y="100.8">v</tspan><tspan x="67.82" y="100.8">alue-</tspan><tspan class="cls-14" x="101.69" y="100.8">f</tspan><tspan x="105.95" y="100.8">ocused sui</tspan><tspan class="cls-16" x="175.78" y="100.8">t</tspan><tspan x="180.29" y="100.8">e </tspan><tspan class="cls-12" x="192.08" y="100.8">o</tspan><tspan class="cls-35" x="200.3" y="100.8">f</tspan><tspan x="204.62" y="100.8"> </tspan><tspan class="cls-16" x="208.19" y="100.8">t</tspan><tspan x="212.7" y="100.8">echnolog</tspan><tspan class="cls-24" x="274.05" y="100.8">y</tspan><tspan x="281.26" y="100.8"> </tspan><tspan class="cls-18" x="284.83" y="100.8">t</tspan><tspan x="289.33" y="100.8">o me</tspan><tspan class="cls-10" x="322.32" y="100.8">e</tspan><tspan x="330.48" y="100.8">t the o</tspan><tspan class="cls-11" x="371.71" y="100.8">r</tspan><tspan x="376.26" y="100.8">ganiz</tspan><tspan class="cls-10" x="410.64" y="100.8">a</tspan><tspan x="418.22" y="100.8">tio</tspan><tspan class="cls-47" x="434.29" y="100.8">n</tspan><tspan class="cls-31" x="442.3" y="100.8">’</tspan><tspan x="444.79" y="100.8">s needs.</tspan><tspan class="cls-48" x="0" y="168">A</tspan><tspan x="9.24" y="168">t the </tspan><tspan class="cls-15" x="42.14" y="168">c</tspan><tspan x="49.76" y="168">onclusion </tspan><tspan class="cls-12" x="115.99" y="168">o</tspan><tspan class="cls-35" x="124.21" y="168">f</tspan><tspan x="128.53" y="168" xml:space="preserve"> the st</tspan><tspan class="cls-7" x="168.25" y="168">r</tspan><tspan class="cls-8" x="173.07" y="168">a</tspan><tspan class="cls-16" x="180.64" y="168">t</tspan><tspan x="185.15" y="168">eg</tspan><tspan class="cls-24" x="202.02" y="168">y</tspan><tspan x="209.23" y="168" xml:space="preserve"> p</tspan><tspan class="cls-11" x="221.43" y="168">r</tspan><tspan x="225.99" y="168">oject, College</tspan><tspan class="cls-5" x="315.42" y="168"> </tspan><tspan class="cls-6" x="318.59" y="168">T</tspan><tspan class="cls-7" x="325.59" y="168">r</tspan><tspan x="330.41" y="168">ack</tspan><tspan class="cls-24" x="353.15" y="168"> </tspan><tspan class="cls-39" x="356.34" y="168">w</tspan><tspan x="367.45" y="168">or</tspan><tspan class="cls-21" x="380.7" y="168">k</tspan><tspan x="387.74" y="168">ed</tspan><tspan class="cls-24" x="404.66" y="168"> </tspan><tspan x="407.86" y="168">with</tspan><tspan class="cls-37" x="435.14" y="168"> </tspan><tspan class="cls-49" x="438.24" y="168">Y</tspan><tspan x="446.45" y="168">u</tspan><tspan class="cls-11" x="454.77" y="168">r</tspan><tspan x="459.32" y="168">gosk</tspan><tspan class="cls-24" x="490.54" y="168">y</tspan><tspan x="497.75" y="168"> </tspan><tspan class="cls-16" x="501.32" y="168">t</tspan><tspan x="505.83" y="168">o impleme</tspan><tspan class="cls-15" x="575.39" y="168">n</tspan><tspan x="583.48" y="168">t the </tspan><tspan class="cls-14" x="616.38" y="168">r</tspan><tspan x="620.93" y="168">e</tspan><tspan class="cls-15" x="629.15" y="168">c</tspan><tspan x="636.77" y="168">ommend</tspan><tspan class="cls-10" x="695.92" y="168">a</tspan><tspan x="703.49" y="168">tions. </tspan><tspan class="cls-49" x="0" y="184.8">Y</tspan><tspan x="8.22" y="184.8">u</tspan><tspan class="cls-11" x="16.53" y="184.8">r</tspan><tspan x="21.08" y="184.8">gosk</tspan><tspan class="cls-24" x="52.3" y="184.8">y</tspan><tspan x="59.51" y="184.8" xml:space="preserve"> is n</tspan><tspan class="cls-25" x="84.68" y="184.8">o</tspan><tspan class="cls-24" x="92.75" y="184.8">w</tspan><tspan x="103.75" y="184.8" xml:space="preserve"> building the </tspan><tspan class="cls-30" x="187.92" y="184.8">s</tspan><tspan class="cls-31" x="194.6" y="184.8">y</tspan><tspan x="202.02" y="184.8">s</tspan><tspan class="cls-16" x="208.83" y="184.8">t</tspan><tspan x="213.34" y="184.8">em, mig</tspan><tspan class="cls-34" x="265.72" y="184.8">r</tspan><tspan class="cls-10" x="270.53" y="184.8">a</tspan><tspan x="278.11" y="184.8">ting d</tspan><tspan class="cls-10" x="314.94" y="184.8">a</tspan><tspan x="322.51" y="184.8">ta, i</tspan><tspan class="cls-15" x="344.6" y="184.8">n</tspan><tspan x="352.7" y="184.8">t</tspan><tspan class="cls-11" x="357.39" y="184.8">r</tspan><tspan x="361.94" y="184.8">oducing use</tspan><tspan class="cls-50" x="441.76" y="184.8">r</tspan><tspan x="446.08" y="184.8">-friend</tspan><tspan class="cls-36" x="489.66" y="184.8">l</tspan><tspan class="cls-24" x="493.31" y="184.8">y</tspan><tspan x="500.52" y="184.8" xml:space="preserve"> d</tspan><tspan class="cls-10" x="512.8" y="184.8">a</tspan><tspan x="520.37" y="184.8">ta </tspan><tspan class="cls-15" x="536.26" y="184.8">c</tspan><tspan x="543.88" y="184.8">ollection </tspan><tspan class="cls-18" x="603.53" y="184.8">t</tspan><tspan x="608.04" y="184.8">ools and giving College </tspan><tspan class="cls-6" x="0" y="201.6">T</tspan><tspan class="cls-34" x="7" y="201.6">r</tspan><tspan x="11.82" y="201.6">ack the capabilit</tspan><tspan class="cls-24" x="117.58" y="201.6">y</tspan><tspan x="124.79" y="201.6"> </tspan><tspan class="cls-16" x="128.36" y="201.6">t</tspan><tspan x="132.87" y="201.6">o </tspan><tspan class="cls-15" x="144.77" y="201.6">c</tspan><tspan x="152.39" y="201.6">onduct </tspan><tspan class="cls-11" x="201.85" y="201.6">r</tspan><tspan class="cls-27" x="206.4" y="201.6">obust ana</tspan><tspan class="cls-47" x="270.18" y="201.6">l</tspan><tspan class="cls-31" x="273.84" y="201.6">y</tspan><tspan x="281.26" y="201.6">sis </tspan><tspan class="cls-12" x="301.51" y="201.6">o</tspan><tspan class="cls-35" x="309.73" y="201.6">f</tspan><tspan x="314.06" y="201.6" xml:space="preserve"> thei</tspan><tspan class="cls-28" x="341.75" y="201.6">r</tspan><tspan x="346.33" y="201.6" xml:space="preserve"> p</tspan><tspan class="cls-11" x="358.54" y="201.6">r</tspan><tspan x="363.09" y="201.6">og</tspan><tspan class="cls-34" x="380.07" y="201.6">r</tspan><tspan x="384.88" y="201.6">ams.</tspan></text><text class="cls-51" transform="translate(250.54 65.32) scale(1.05 1)"><tspan class="cls-52">C</tspan><tspan class="cls-53" x="14.26" y="0">R</tspan><tspan class="cls-54" x="28.15" y="0">E</tspan><tspan class="cls-55" x="40.96" y="0">A</tspan><tspan class="cls-56" x="53.18" y="0">T</tspan><tspan class="cls-57" x="65.84" y="0">I</tspan><tspan x="71.83" y="0">NG A </tspan><tspan class="cls-58" x="127.27" y="0">B</tspan><tspan class="cls-59" x="141.61" y="0">E</tspan><tspan class="cls-60" x="154.22" y="0">T</tspan><tspan class="cls-61" x="167.52" y="0">T</tspan><tspan class="cls-62" x="180.18" y="0">E</tspan><tspan x="192.91" y="0">R </tspan><tspan class="cls-61" x="211.92" y="0">T</tspan><tspan class="cls-63" x="224.58" y="0">E</tspan><tspan class="cls-52" x="236.98" y="0">C</tspan><tspan class="cls-64" x="251.24" y="0">H</tspan><tspan class="cls-65" x="266.87" y="0">NO</tspan><tspan class="cls-66" x="298.7" y="0">L</tspan><tspan class="cls-67" x="310.4" y="0">O</tspan><tspan class="cls-68" x="326.2" y="0">G</tspan><tspan x="340.49" y="0">Y </tspan><tspan class="cls-63" x="359.39" y="0">E</tspan><tspan class="cls-69" x="371.79" y="0">C</tspan><tspan class="cls-70" x="385.85" y="0">O</tspan><tspan class="cls-71" x="401.49" y="0">S</tspan><tspan class="cls-72" x="413.99" y="0">Y</tspan><tspan class="cls-73" x="427.06" y="0">S</tspan><tspan class="cls-61" x="439.79" y="0">T</tspan><tspan class="cls-62" x="452.45" y="0">E</tspan><tspan class="cls-74" x="465.18" y="0">M @ </tspan><tspan class="cls-75" x="511.17" y="0">C</tspan><tspan class="cls-65" x="525.23" y="0">O</tspan><tspan class="cls-76" x="541.07" y="0">LL</tspan><tspan class="cls-77" x="565.01" y="0">E</tspan><tspan class="cls-78" x="577.47" y="0">G</tspan><tspan x="592.88" y="0">E </tspan><tspan class="cls-61" x="610.54" y="0">T</tspan><tspan class="cls-79" x="623.2" y="0">R</tspan><tspan class="cls-80" x="637.53" y="0">A</tspan><tspan class="cls-81" x="650.86" y="0">C</tspan><tspan class="cls-74" x="665.12" y="0">K</tspan></text><text class="cls-82" transform="translate(248.54 63.32) scale(1.05 1)"><tspan class="cls-52">C</tspan><tspan class="cls-53" x="14.26" y="0">R</tspan><tspan class="cls-54" x="28.15" y="0">E</tspan><tspan class="cls-55" x="40.96" y="0">A</tspan><tspan class="cls-56" x="53.18" y="0">T</tspan><tspan class="cls-57" x="65.84" y="0">I</tspan><tspan x="71.83" y="0">NG A </tspan><tspan class="cls-58" x="127.27" y="0">B</tspan><tspan class="cls-59" x="141.61" y="0">E</tspan><tspan class="cls-60" x="154.22" y="0">T</tspan><tspan class="cls-61" x="167.52" y="0">T</tspan><tspan class="cls-62" x="180.18" y="0">E</tspan><tspan x="192.91" y="0">R </tspan><tspan class="cls-61" x="211.92" y="0">T</tspan><tspan class="cls-63" x="224.58" y="0">E</tspan><tspan class="cls-52" x="236.98" y="0">C</tspan><tspan class="cls-64" x="251.24" y="0">H</tspan><tspan class="cls-65" x="266.87" y="0">NO</tspan><tspan class="cls-66" x="298.7" y="0">L</tspan><tspan class="cls-67" x="310.4" y="0">O</tspan><tspan class="cls-68" x="326.2" y="0">G</tspan><tspan x="340.49" y="0">Y </tspan><tspan class="cls-63" x="359.39" y="0">E</tspan><tspan class="cls-69" x="371.79" y="0">C</tspan><tspan class="cls-70" x="385.85" y="0">O</tspan><tspan class="cls-71" x="401.49" y="0">S</tspan><tspan class="cls-72" x="413.99" y="0">Y</tspan><tspan class="cls-73" x="427.06" y="0">S</tspan><tspan class="cls-61" x="439.79" y="0">T</tspan><tspan class="cls-62" x="452.45" y="0">E</tspan><tspan class="cls-74" x="465.18" y="0">M @ </tspan><tspan class="cls-75" x="511.17" y="0">C</tspan><tspan class="cls-65" x="525.23" y="0">O</tspan><tspan class="cls-76" x="541.07" y="0">LL</tspan><tspan class="cls-77" x="565.01" y="0">E</tspan><tspan class="cls-78" x="577.47" y="0">G</tspan><tspan x="592.88" y="0">E </tspan><tspan class="cls-61" x="610.54" y="0">T</tspan><tspan class="cls-79" x="623.2" y="0">R</tspan><tspan class="cls-80" x="637.53" y="0">A</tspan><tspan class="cls-81" x="650.86" y="0">C</tspan><tspan class="cls-74" x="665.12" y="0">K</tspan></text></g></g></svg>