<svg xmlns="http://www.w3.org/2000/svg" viewBox="0 0 1211.34 572.38"><defs><style>.cls-1{fill:#fff;}.cls-2,.cls-79{font-size:24px;font-family:Raleway-Bold, Raleway;font-weight:700;}.cls-2{fill:#b1b1b1;}.cls-3{letter-spacing:0em;}.cls-4{letter-spacing:0em;}.cls-5{letter-spacing:0.01em;}.cls-6{letter-spacing:-0.01em;}.cls-7{letter-spacing:0em;}.cls-8{letter-spacing:0em;}.cls-9{letter-spacing:0em;}.cls-10{letter-spacing:-0.02em;}.cls-11{letter-spacing:0em;}.cls-12{letter-spacing:0em;}.cls-13{letter-spacing:0em;}.cls-14{letter-spacing:0.02em;}.cls-15{letter-spacing:0em;}.cls-16{letter-spacing:0em;}.cls-17{letter-spacing:-0.01em;}.cls-18{letter-spacing:-0.02em;}.cls-19{letter-spacing:0em;}.cls-20{letter-spacing:-0.01em;}.cls-21{letter-spacing:-0.01em;}.cls-22{letter-spacing:0em;}.cls-23{letter-spacing:0em;}.cls-24{letter-spacing:0em;}.cls-25{letter-spacing:0em;}.cls-26{letter-spacing:-0.03em;}.cls-27{letter-spacing:-0.01em;}.cls-28{letter-spacing:-0.04em;}.cls-29{letter-spacing:-0.09em;}.cls-30{letter-spacing:-0.02em;}.cls-31{letter-spacing:0em;}.cls-32{fill:#58be98;}.cls-33{fill:#63cdf4;}.cls-34{font-size:14px;fill:#020202;font-family:Raleway-Regular, Raleway;}.cls-35{letter-spacing:-0.01em;}.cls-36{letter-spacing:-0.01em;}.cls-37{letter-spacing:-0.01em;}.cls-38{letter-spacing:-0.03em;}.cls-39{letter-spacing:-0.03em;}.cls-40{letter-spacing:-0.09em;}.cls-41{letter-spacing:-0.01em;}.cls-42{letter-spacing:-0.03em;}.cls-43{letter-spacing:-0.02em;}.cls-44{letter-spacing:-0.02em;}.cls-45{letter-spacing:-0.03em;}.cls-46{letter-spacing:-0.01em;}.cls-47{letter-spacing:-0.01em;}.cls-48{letter-spacing:-0.05em;}.cls-49{letter-spacing:-0.01em;}.cls-50{letter-spacing:0em;}.cls-51{letter-spacing:-0.04em;}.cls-52{letter-spacing:-0.03em;}.cls-53{letter-spacing:0em;}.cls-54{letter-spacing:0em;}.cls-55{letter-spacing:-0.01em;}.cls-56{letter-spacing:-0.02em;}.cls-57{letter-spacing:-0.02em;}.cls-58{letter-spacing:-0.03em;}.cls-59{letter-spacing:-0.03em;}.cls-60{letter-spacing:-0.11em;}.cls-61{letter-spacing:-0.01em;}.cls-62{letter-spacing:-0.01em;}.cls-63{letter-spacing:-0.02em;}.cls-64{letter-spacing:-0.02em;}.cls-65{letter-spacing:-0.03em;}.cls-66{letter-spacing:-0.03em;}.cls-67{letter-spacing:-0.06em;}.cls-68{letter-spacing:-0.03em;}.cls-69{letter-spacing:0em;}.cls-70{letter-spacing:-0.01em;}.cls-71{letter-spacing:-0.02em;}.cls-72{letter-spacing:-0.01em;}.cls-73{letter-spacing:0em;}.cls-74{letter-spacing:-0.02em;}.cls-75{letter-spacing:-0.05em;}.cls-76{letter-spacing:-0.01em;}.cls-77{letter-spacing:-0.01em;}.cls-78{letter-spacing:0em;}</style></defs><title>frrh1200</title><g id="Layer_2" data-name="Layer 2"><g id="Layer_1-2" data-name="Layer 1"><rect class="cls-1" width="1211.34" height="572.38"/><text class="cls-2" transform="translate(207.23 85.33) scale(1.05 1)"><tspan class="cls-3">B</tspan><tspan class="cls-4" x="16.37" y="0">R</tspan><tspan class="cls-5" x="32.22" y="0">E</tspan><tspan class="cls-6" x="46.84" y="0">A</tspan><tspan class="cls-7" x="62.69" y="0">K</tspan><tspan class="cls-8" x="78.63" y="0">I</tspan><tspan class="cls-9" x="85.45" y="0">N</tspan><tspan x="103.74" y="0">G </tspan><tspan class="cls-10" x="126.9" y="0">F</tspan><tspan class="cls-11" x="140.28" y="0">U</tspan><tspan class="cls-12" x="158.25" y="0">N</tspan><tspan class="cls-13" x="176.52" y="0">D</tspan><tspan class="cls-14" x="193.67" y="0">R</tspan><tspan class="cls-6" x="210.03" y="0">A</tspan><tspan class="cls-15" x="225.88" y="0">I</tspan><tspan class="cls-16" x="232.74" y="0">S</tspan><tspan class="cls-8" x="247.49" y="0">I</tspan><tspan class="cls-9" x="254.32" y="0">N</tspan><tspan x="272.61" y="0">G </tspan><tspan class="cls-4" x="295.77" y="0">R</tspan><tspan class="cls-17" x="311.62" y="0">E</tspan><tspan class="cls-18" x="325.77" y="0">C</tspan><tspan class="cls-19" x="341.81" y="0">O</tspan><tspan class="cls-4" x="359.9" y="0">R</tspan><tspan class="cls-20" x="375.75" y="0">D</tspan><tspan x="392.69" y="0">S @ </tspan><tspan class="cls-21" x="439.2" y="0">R</tspan><tspan class="cls-22" x="454.84" y="0">O</tspan><tspan class="cls-23" x="472.92" y="0">B</tspan><tspan class="cls-24" x="489.28" y="0">I</tspan><tspan class="cls-15" x="496.1" y="0">N </tspan><tspan class="cls-22" x="520.17" y="0">H</tspan><tspan class="cls-25" x="538" y="0">O</tspan><tspan class="cls-19" x="556.05" y="0">O</tspan><tspan x="574.13" y="0">D </tspan><tspan class="cls-26" x="597.08" y="0">F</tspan><tspan class="cls-27" x="610.19" y="0">O</tspan><tspan class="cls-11" x="628.17" y="0">U</tspan><tspan class="cls-12" x="646.15" y="0">N</tspan><tspan class="cls-28" x="664.41" y="0">D</tspan><tspan class="cls-29" x="680.74" y="0">A</tspan><tspan class="cls-30" x="694.66" y="0">T</tspan><tspan class="cls-31" x="709.1" y="0">I</tspan><tspan class="cls-19" x="715.96" y="0">O</tspan><tspan x="734.05" y="0">N </tspan></text><rect class="cls-32" x="196" y="162.96" width="861.52" height="132.77"/><rect class="cls-33" x="173.66" y="143.47" width="863.17" height="132.64"/><text class="cls-34" transform="translate(218.81 190.47)"><tspan class="cls-35">A</tspan><tspan x="9.38" y="0">s the </tspan><tspan class="cls-36" x="44.41" y="0">N</tspan><tspan class="cls-37" x="55.12" y="0">e</tspan><tspan class="cls-38" x="63.14" y="0">w</tspan><tspan class="cls-39" x="74.14" y="0"> </tspan><tspan class="cls-40" x="77.24" y="0">Y</tspan><tspan x="85.05" y="0">ork City</tspan><tspan class="cls-41" x="134.22" y="0">’</tspan><tspan x="136.71" y="0">s la</tspan><tspan class="cls-42" x="158.53" y="0">r</tspan><tspan x="163.08" y="0">gest p</tspan><tspan class="cls-43" x="203.67" y="0">o</tspan><tspan class="cls-44" x="211.73" y="0">v</tspan><tspan x="218.94" y="0">ert</tspan><tspan class="cls-45" x="236.76" y="0">y</tspan><tspan x="243.97" y="0" xml:space="preserve"> fig</tspan><tspan class="cls-46" x="263.25" y="0">h</tspan><tspan class="cls-47" x="271.34" y="0">t</tspan><tspan x="275.85" y="0">e</tspan><tspan class="cls-48" x="284.07" y="0">r</tspan><tspan x="288.34" y="0">, the </tspan><tspan class="cls-49" x="319.7" y="0">R</tspan><tspan x="328.63" y="0">obin </tspan><tspan class="cls-36" x="360.38" y="0">H</tspan><tspan x="370.62" y="0">ood </tspan><tspan class="cls-39" x="399.55" y="0">F</tspan><tspan x="407.32" y="0">ound</tspan><tspan class="cls-50" x="440.84" y="0">a</tspan><tspan x="448.41" y="0">tion is lase</tspan><tspan class="cls-51" x="516.13" y="0">r</tspan><tspan x="520.44" y="0">-</tspan><tspan class="cls-52" x="526.35" y="0">f</tspan><tspan class="cls-53" x="530.61" y="0">ocused on </tspan><tspan class="cls-42" x="602.31" y="0">r</tspan><tspan x="606.86" y="0">esults, running mo</tspan><tspan class="cls-52" x="726.44" y="0">r</tspan><tspan x="730.99" y="0">e </tspan><tspan x="0" y="16.8">than 100 ben</tspan><tspan class="cls-54" x="83.93" y="16.8">e</tspan><tspan x="92.08" y="16.8">fit </tspan><tspan class="cls-55" x="107.39" y="16.8">e</tspan><tspan class="cls-56" x="115.41" y="16.8">v</tspan><tspan x="122.62" y="16.8">e</tspan><tspan class="cls-54" x="130.84" y="16.8">n</tspan><tspan x="138.93" y="16.8">ts pe</tspan><tspan class="cls-57" x="170.87" y="16.8">r</tspan><tspan class="cls-58" x="175.45" y="16.8"> </tspan><tspan class="cls-44" x="178.62" y="16.8">y</tspan><tspan x="185.96" y="16.8">ea</tspan><tspan class="cls-57" x="201.81" y="16.8">r</tspan><tspan x="206.39" y="16.8"> </tspan><tspan class="cls-47" x="209.96" y="16.8">t</tspan><tspan x="214.46" y="16.8">o fund its </tspan><tspan class="cls-54" x="277.87" y="16.8">c</tspan><tspan x="285.48" y="16.8">onstitue</tspan><tspan class="cls-54" x="337.76" y="16.8">n</tspan><tspan x="345.85" y="16.8">ts.</tspan><tspan class="cls-59" x="360.01" y="16.8"> </tspan><tspan class="cls-60" x="363.18" y="16.8">T</tspan><tspan x="370.13" y="16.8">o imp</tspan><tspan class="cls-52" x="406.58" y="16.8">r</tspan><tspan class="cls-43" x="411.13" y="16.8">o</tspan><tspan class="cls-44" x="419.2" y="16.8">v</tspan><tspan x="426.41" y="16.8">e </tspan><tspan class="cls-52" x="438.19" y="16.8">r</tspan><tspan x="442.74" y="16.8">esults f</tspan><tspan class="cls-52" x="489.6" y="16.8">r</tspan><tspan x="494.15" y="16.8">om thei</tspan><tspan class="cls-57" x="543.04" y="16.8">r</tspan><tspan x="547.62" y="16.8" xml:space="preserve"> fund</tspan><tspan class="cls-36" x="580.99" y="16.8">r</tspan><tspan x="585.81" y="16.8">aisers, </tspan><tspan class="cls-49" x="629.98" y="16.8">R</tspan><tspan x="638.91" y="16.8">obin </tspan><tspan class="cls-61" x="670.66" y="16.8">H</tspan><tspan x="680.9" y="16.8">ood</tspan><tspan class="cls-38" x="706.26" y="16.8"> </tspan><tspan class="cls-62" x="709.45" y="16.8">w</tspan><tspan x="720.65" y="16.8">a</tspan><tspan class="cls-54" x="728.28" y="16.8">n</tspan><tspan class="cls-62" x="736.38" y="16.8">t</tspan><tspan x="740.88" y="16.8">ed </tspan><tspan class="cls-62" x="0" y="33.6">t</tspan><tspan x="4.51" y="33.6">o simplif</tspan><tspan class="cls-45" x="59.26" y="33.6">y</tspan><tspan x="66.47" y="33.6" xml:space="preserve"> the pledge </tspan><tspan class="cls-43" x="144.49" y="33.6">e</tspan><tspan x="152.44" y="33.6">xperien</tspan><tspan class="cls-54" x="200.7" y="33.6">c</tspan><tspan x="208.32" y="33.6">e, m</tspan><tspan class="cls-43" x="236.12" y="33.6">o</tspan><tspan x="244.18" y="33.6">ving </tspan><tspan class="cls-55" x="275.08" y="33.6">a</tspan><tspan class="cls-47" x="282.51" y="33.6">wa</tspan><tspan class="cls-38" x="301.16" y="33.6">y</tspan><tspan x="308.37" y="33.6" xml:space="preserve"> f</tspan><tspan class="cls-52" x="316.56" y="33.6">r</tspan><tspan x="321.11" y="33.6">om pape</tspan><tspan class="cls-63" x="379" y="33.6">r</tspan><tspan x="383.58" y="33.6" xml:space="preserve"> pledge </tspan><tspan class="cls-42" x="436.96" y="33.6">f</tspan><tspan x="441.22" y="33.6">orms </tspan><tspan class="cls-47" x="477.72" y="33.6">t</tspan><tspan x="482.22" y="33.6">o a st</tspan><tspan class="cls-52" x="516.83" y="33.6">r</tspan><tspan x="521.38" y="33.6">eamlined mobile </tspan><tspan class="cls-64" x="634.09" y="33.6">e</tspan><tspan x="642.04" y="33.6">xperien</tspan><tspan class="cls-54" x="690.3" y="33.6">c</tspan><tspan x="697.92" y="33.6">e during </tspan><tspan x="0" y="50.4">thei</tspan><tspan class="cls-63" x="24.12" y="50.4">r</tspan><tspan x="28.7" y="50.4" xml:space="preserve"> annua</tspan><tspan class="cls-65" x="72.17" y="50.4">l</tspan><tspan x="75.54" y="50.4" xml:space="preserve"> gala. </tspan></text><text class="cls-34" transform="translate(216.68 348.65)"><tspan class="cls-49">R</tspan><tspan x="8.93" y="0">obin </tspan><tspan class="cls-36" x="40.68" y="0">H</tspan><tspan x="50.92" y="0">ood hi</tspan><tspan class="cls-52" x="91.07" y="0">r</tspan><tspan x="95.62" y="0">ed</tspan><tspan class="cls-66" x="112.54" y="0"> </tspan><tspan class="cls-67" x="115.64" y="0">Y</tspan><tspan x="123.86" y="0">u</tspan><tspan class="cls-52" x="132.17" y="0">r</tspan><tspan x="136.72" y="0">gosk</tspan><tspan class="cls-38" x="167.94" y="0">y</tspan><tspan x="175.15" y="0"> </tspan><tspan class="cls-62" x="178.72" y="0">t</tspan><tspan x="183.23" y="0">o design an emai</tspan><tspan class="cls-43" x="293.44" y="0">l</tspan><tspan x="296.98" y="0">-</tspan><tspan class="cls-62" x="302.89" y="0">t</tspan><tspan x="307.39" y="0">o-pledge </tspan><tspan class="cls-62" x="371.44" y="0">t</tspan><tspan x="375.95" y="0">oo</tspan><tspan class="cls-68" x="392.61" y="0">l</tspan><tspan x="395.98" y="0" xml:space="preserve"> th</tspan><tspan class="cls-69" x="412.41" y="0">a</tspan><tspan x="419.98" y="0">t</tspan><tspan class="cls-38" x="424.67" y="0"> </tspan><tspan class="cls-43" x="427.86" y="0">w</tspan><tspan x="438.98" y="0">ould </tspan><tspan class="cls-52" x="471.71" y="0">r</tspan><tspan x="476.26" y="0">ead emails guests se</tspan><tspan class="cls-54" x="612.46" y="0">n</tspan><tspan x="620.55" y="0">t </tspan><tspan class="cls-62" x="628.81" y="0">t</tspan><tspan x="633.32" y="0">o a dedic</tspan><tspan class="cls-69" x="692.79" y="0">a</tspan><tspan class="cls-62" x="700.37" y="0">t</tspan><tspan x="704.88" y="0">ed add</tspan><tspan class="cls-52" x="750.42" y="0">r</tspan><tspan x="754.97" y="0">ess </tspan><tspan x="0" y="16.8">and d</tspan><tspan class="cls-69" x="36.78" y="16.8">e</tspan><tspan class="cls-62" x="44.94" y="16.8">t</tspan><tspan x="49.45" y="16.8">ermine the don</tspan><tspan class="cls-69" x="148.29" y="16.8">a</tspan><tspan x="155.86" y="16.8">tion amou</tspan><tspan class="cls-54" x="220.8" y="16.8">n</tspan><tspan x="228.9" y="16.8">t, tal</tspan><tspan class="cls-70" x="256.43" y="16.8">l</tspan><tspan class="cls-38" x="260.09" y="16.8">y</tspan><tspan x="267.3" y="16.8" xml:space="preserve"> the amou</tspan><tspan class="cls-54" x="332.65" y="16.8">n</tspan><tspan x="340.74" y="16.8">t, and c</tspan><tspan class="cls-52" x="387.91" y="16.8">r</tspan><tspan x="392.46" y="16.8">e</tspan><tspan class="cls-69" x="400.67" y="16.8">a</tspan><tspan class="cls-62" x="408.25" y="16.8">t</tspan><tspan x="412.76" y="16.8">e opportunities (and </tspan><tspan class="cls-54" x="545.8" y="16.8">c</tspan><tspan x="553.41" y="16.8">o</tspan><tspan class="cls-54" x="561.74" y="16.8">n</tspan><tspan x="569.83" y="16.8">tacts as-needed) in Sales</tspan><tspan class="cls-52" x="732.58" y="16.8">f</tspan><tspan x="736.84" y="16.8">o</tspan><tspan class="cls-42" x="745.17" y="16.8">r</tspan><tspan class="cls-54" x="749.72" y="16.8">c</tspan><tspan x="757.33" y="16.8" xml:space="preserve">e.  </tspan><tspan x="0" y="33.6">The applic</tspan><tspan class="cls-69" x="67.94" y="33.6">a</tspan><tspan x="75.51" y="33.6">tion needed </tspan><tspan class="cls-62" x="157.12" y="33.6">t</tspan><tspan x="161.63" y="33.6">o be able </tspan><tspan class="cls-47" x="225.82" y="33.6">t</tspan><tspan class="cls-53" x="230.32" y="33.6">o secu</tspan><tspan class="cls-42" x="273.26" y="33.6">r</tspan><tspan x="277.81" y="33.6">e</tspan><tspan class="cls-70" x="286.03" y="33.6">l</tspan><tspan class="cls-38" x="289.68" y="33.6">y</tspan><tspan x="296.89" y="33.6"> </tspan><tspan class="cls-52" x="300.46" y="33.6">r</tspan><tspan x="305.01" y="33.6">ead app</tspan><tspan class="cls-52" x="358.04" y="33.6">r</tspan><tspan class="cls-71" x="362.59" y="33.6">o</tspan><tspan x="370.62" y="33.6">xim</tspan><tspan class="cls-69" x="393.59" y="33.6">a</tspan><tspan class="cls-62" x="401.16" y="33.6">t</tspan><tspan x="405.67" y="33.6">e</tspan><tspan class="cls-72" x="413.89" y="33.6">l</tspan><tspan class="cls-38" x="417.54" y="33.6">y</tspan><tspan x="424.75" y="33.6" xml:space="preserve"> 4,000 emails in 5 minu</tspan><tspan class="cls-62" x="572.73" y="33.6">t</tspan><tspan x="577.24" y="33.6">es. </tspan><tspan x="0" y="84">The</tspan><tspan class="cls-66" x="24.92" y="84"> </tspan><tspan class="cls-67" x="28.01" y="84">Y</tspan><tspan x="36.23" y="84">u</tspan><tspan class="cls-52" x="44.55" y="84">r</tspan><tspan x="49.1" y="84">gosk</tspan><tspan class="cls-38" x="80.32" y="84">y</tspan><tspan x="87.53" y="84" xml:space="preserve"> applic</tspan><tspan class="cls-50" x="130.55" y="84">a</tspan><tspan x="138.12" y="84">tion </tspan><tspan class="cls-52" x="165.93" y="84">r</tspan><tspan x="170.48" y="84">ou</tspan><tspan class="cls-47" x="187.12" y="84">t</tspan><tspan x="191.63" y="84">ed emails th</tspan><tspan class="cls-52" x="270.94" y="84">r</tspan><tspan x="275.49" y="84">ough </tspan><tspan class="cls-46" x="312.52" y="84">M</tspan><tspan x="324.73" y="84">ailgun </tspan><tspan class="cls-62" x="367.91" y="84">t</tspan><tspan class="cls-73" x="372.42" y="84">o an applic</tspan><tspan class="cls-69" x="443.14" y="84">a</tspan><tspan x="450.71" y="84">tion running a cus</tspan><tspan class="cls-47" x="565.52" y="84">t</tspan><tspan class="cls-73" x="570.03" y="84">om-built algorithm th</tspan><tspan class="cls-50" x="707.73" y="84">a</tspan><tspan x="715.3" y="84">t </tspan><tspan class="cls-52" x="723.56" y="84">r</tspan><tspan x="728.11" y="84">ead the </tspan><tspan x="0" y="100.8">emails and d</tspan><tspan class="cls-69" x="82.74" y="100.8">e</tspan><tspan class="cls-62" x="90.9" y="100.8">t</tspan><tspan x="95.41" y="100.8">ermined the pledge amou</tspan><tspan class="cls-54" x="264.71" y="100.8">n</tspan><tspan x="272.8" y="100.8">t and person don</tspan><tspan class="cls-69" x="382.98" y="100.8">a</tspan><tspan x="390.55" y="100.8">ting.</tspan><tspan class="cls-68" x="417.75" y="100.8"> </tspan><tspan x="420.89" y="100.8">Al</tspan><tspan class="cls-68" x="434.16" y="100.8">l</tspan><tspan x="437.54" y="100.8" xml:space="preserve"> the don</tspan><tspan class="cls-69" x="490.94" y="100.8">a</tspan><tspan x="498.52" y="100.8">tion amou</tspan><tspan class="cls-54" x="563.46" y="100.8">n</tspan><tspan x="571.55" y="100.8">ts</tspan><tspan class="cls-38" x="583.06" y="100.8"> </tspan><tspan class="cls-43" x="586.25" y="100.8">w</tspan><tspan x="597.37" y="100.8">e</tspan><tspan class="cls-52" x="605.59" y="100.8">r</tspan><tspan x="610.14" y="100.8">e tallied in </tspan><tspan class="cls-52" x="680.19" y="100.8">r</tspan><tspan x="684.74" y="100.8">ea</tspan><tspan class="cls-64" x="700.59" y="100.8">l</tspan><tspan x="704.13" y="100.8">-time and </tspan><tspan x="0" y="117.6">displ</tspan><tspan class="cls-62" x="31.02" y="117.6">a</tspan><tspan class="cls-56" x="38.47" y="117.6">y</tspan><tspan x="45.81" y="117.6">ed as g</tspan><tspan class="cls-36" x="92.97" y="117.6">r</tspan><tspan x="97.79" y="117.6">aphics on sc</tspan><tspan class="cls-52" x="177.91" y="117.6">r</tspan><tspan x="182.46" y="117.6">eens in the “</tspan><tspan class="cls-62" x="261.29" y="117.6">w</tspan><tspan x="272.49" y="117.6">a</tspan><tspan class="cls-63" x="280.12" y="117.6">r</tspan><tspan x="284.7" y="117.6"> </tspan><tspan class="cls-52" x="288.27" y="117.6">r</tspan><tspan x="292.82" y="117.6">oo</tspan><tspan class="cls-70" x="309.48" y="117.6">m</tspan><tspan class="cls-38" x="322.19" y="117.6">” </tspan><tspan x="329.36" y="117.6">whe</tspan><tspan class="cls-52" x="357.12" y="117.6">r</tspan><tspan x="361.67" y="117.6">e st</tspan><tspan class="cls-69" x="384.97" y="117.6">a</tspan><tspan class="cls-74" x="392.54" y="117.6">ff</tspan><tspan x="400.39" y="117.6" xml:space="preserve"> moni</tspan><tspan class="cls-62" x="436.37" y="117.6">t</tspan><tspan x="440.88" y="117.6">o</tspan><tspan class="cls-52" x="449.21" y="117.6">r</tspan><tspan x="453.76" y="117.6">ed the activit</tspan><tspan class="cls-75" x="537.16" y="117.6">y</tspan><tspan x="544.07" y="117.6">.</tspan><tspan x="0" y="168">The </tspan><tspan class="cls-76" x="28.49" y="168">s</tspan><tspan class="cls-77" x="35.17" y="168">y</tspan><tspan x="42.59" y="168">s</tspan><tspan class="cls-62" x="49.41" y="168">t</tspan><tspan x="53.91" y="168">em </tspan><tspan class="cls-36" x="78.57" y="168">r</tspan><tspan x="83.38" y="168">aised </tspan><tspan class="cls-64" x="121.38" y="168">o</tspan><tspan class="cls-56" x="129.44" y="168">v</tspan><tspan x="136.65" y="168">e</tspan><tspan class="cls-57" x="144.87" y="168">r</tspan><tspan x="149.45" y="168" xml:space="preserve"> $101M in app</tspan><tspan class="cls-52" x="237.77" y="168">r</tspan><tspan class="cls-71" x="242.32" y="168">o</tspan><tspan x="250.35" y="168">xim</tspan><tspan class="cls-69" x="273.32" y="168">a</tspan><tspan class="cls-62" x="280.89" y="168">t</tspan><tspan x="285.4" y="168">e</tspan><tspan class="cls-70" x="293.62" y="168">l</tspan><tspan class="cls-45" x="297.27" y="168">y</tspan><tspan x="304.48" y="168" xml:space="preserve"> 10 minu</tspan><tspan class="cls-62" x="358.58" y="168">t</tspan><tspan x="363.09" y="168">es, the most amou</tspan><tspan class="cls-78" x="482.9" y="168">n</tspan><tspan x="490.99" y="168">t </tspan><tspan class="cls-37" x="499.25" y="168">e</tspan><tspan class="cls-44" x="507.27" y="168">v</tspan><tspan x="514.48" y="168">e</tspan><tspan class="cls-63" x="522.7" y="168">r</tspan><tspan x="527.28" y="168"> </tspan><tspan class="cls-36" x="530.85" y="168">r</tspan><tspan x="535.66" y="168">aised in a single </tspan><tspan class="cls-37" x="641.92" y="168">e</tspan><tspan class="cls-44" x="649.94" y="168">v</tspan><tspan x="657.15" y="168">e</tspan><tspan class="cls-78" x="665.37" y="168">n</tspan><tspan x="673.46" y="168">t. </tspan></text><text class="cls-79" transform="translate(205.23 84.34) scale(1.05 1)"><tspan class="cls-3">B</tspan><tspan class="cls-4" x="16.37" y="0">R</tspan><tspan class="cls-5" x="32.22" y="0">E</tspan><tspan class="cls-6" x="46.84" y="0">A</tspan><tspan class="cls-7" x="62.69" y="0">K</tspan><tspan class="cls-8" x="78.63" y="0">I</tspan><tspan class="cls-9" x="85.45" y="0">N</tspan><tspan x="103.74" y="0">G </tspan><tspan class="cls-10" x="126.9" y="0">F</tspan><tspan class="cls-11" x="140.28" y="0">U</tspan><tspan class="cls-12" x="158.25" y="0">N</tspan><tspan class="cls-13" x="176.52" y="0">D</tspan><tspan class="cls-14" x="193.67" y="0">R</tspan><tspan class="cls-6" x="210.03" y="0">A</tspan><tspan class="cls-15" x="225.88" y="0">I</tspan><tspan class="cls-16" x="232.74" y="0">S</tspan><tspan class="cls-8" x="247.49" y="0">I</tspan><tspan class="cls-9" x="254.32" y="0">N</tspan><tspan x="272.61" y="0">G </tspan><tspan class="cls-4" x="295.77" y="0">R</tspan><tspan class="cls-17" x="311.62" y="0">E</tspan><tspan class="cls-18" x="325.77" y="0">C</tspan><tspan class="cls-19" x="341.81" y="0">O</tspan><tspan class="cls-4" x="359.9" y="0">R</tspan><tspan class="cls-20" x="375.75" y="0">D</tspan><tspan x="392.69" y="0">S @ </tspan><tspan class="cls-21" x="439.2" y="0">R</tspan><tspan class="cls-22" x="454.84" y="0">O</tspan><tspan class="cls-23" x="472.92" y="0">B</tspan><tspan class="cls-24" x="489.28" y="0">I</tspan><tspan class="cls-15" x="496.1" y="0">N </tspan><tspan class="cls-22" x="520.17" y="0">H</tspan><tspan class="cls-25" x="538" y="0">O</tspan><tspan class="cls-19" x="556.05" y="0">O</tspan><tspan x="574.13" y="0">D </tspan><tspan class="cls-26" x="597.08" y="0">F</tspan><tspan class="cls-27" x="610.19" y="0">O</tspan><tspan class="cls-11" x="628.17" y="0">U</tspan><tspan class="cls-12" x="646.15" y="0">N</tspan><tspan class="cls-28" x="664.41" y="0">D</tspan><tspan class="cls-29" x="680.74" y="0">A</tspan><tspan class="cls-30" x="694.66" y="0">T</tspan><tspan class="cls-31" x="709.1" y="0">I</tspan><tspan class="cls-19" x="715.96" y="0">O</tspan><tspan x="734.05" y="0">N </tspan></text></g></g></svg>