<svg xmlns="http://www.w3.org/2000/svg" viewBox="0 0 1211.34 604.67"><defs><style>.cls-1{fill:#fff;}.cls-2{fill:#58be98;}.cls-3{fill:#63cdf4;}.cls-4{font-size:14px;font-family:Raleway-Regular, Raleway;}.cls-5{letter-spacing:-0.04em;}.cls-6{letter-spacing:-0.03em;}.cls-7{letter-spacing:-0.06em;}.cls-8{letter-spacing:-0.03em;}.cls-9{letter-spacing:-0.01em;}.cls-10{letter-spacing:0em;}.cls-11{letter-spacing:-0.02em;}.cls-12{letter-spacing:-0.01em;}.cls-13{letter-spacing:-0.02em;}.cls-14{letter-spacing:-0.03em;}.cls-15{letter-spacing:-0.01em;}.cls-16{letter-spacing:0em;}.cls-17{letter-spacing:-0.01em;}.cls-18{letter-spacing:0em;}.cls-19{letter-spacing:-0.03em;}.cls-20{letter-spacing:-0.02em;}.cls-21{letter-spacing:-0.03em;}.cls-22{letter-spacing:-0.03em;}.cls-23{letter-spacing:-0.06em;}.cls-24{letter-spacing:-0.01em;}.cls-25{letter-spacing:-0.02em;}.cls-26{letter-spacing:-0.02em;}.cls-27{letter-spacing:-0.01em;}.cls-28{letter-spacing:-0.01em;}.cls-29{letter-spacing:-0.01em;}.cls-30{letter-spacing:-0.04em;}.cls-31{letter-spacing:-0.01em;}.cls-32{letter-spacing:-0.01em;}.cls-33{letter-spacing:-0.01em;}.cls-34{letter-spacing:0em;}.cls-35{letter-spacing:-0.01em;}.cls-36{letter-spacing:-0.04em;}.cls-37{letter-spacing:-0.06em;}.cls-38{letter-spacing:-0.02em;}.cls-39{letter-spacing:-0.02em;}.cls-40{letter-spacing:0em;}.cls-41{letter-spacing:-0.01em;}.cls-42{letter-spacing:-0.02em;}.cls-43{letter-spacing:-0.03em;}.cls-44{letter-spacing:-0.02em;}.cls-45{letter-spacing:-0.01em;}.cls-46{letter-spacing:-0.05em;}.cls-47{letter-spacing:-0.08em;}.cls-48{letter-spacing:-0.02em;}.cls-49{letter-spacing:-0.01em;}.cls-50{letter-spacing:-0.02em;}.cls-51,.cls-84{font-size:21px;font-family:Raleway-Bold, Raleway;font-weight:700;}.cls-51{fill:#b1b1b1;}.cls-52{letter-spacing:0em;}.cls-53{letter-spacing:-0.02em;}.cls-54{letter-spacing:0em;}.cls-55{letter-spacing:0em;}.cls-56{letter-spacing:-0.01em;}.cls-57{letter-spacing:-0.01em;}.cls-58{letter-spacing:0.01em;}.cls-59{letter-spacing:0em;}.cls-60{letter-spacing:-0.02em;}.cls-61{letter-spacing:0em;}.cls-62{letter-spacing:-0.02em;}.cls-63{letter-spacing:-0.01em;}.cls-64{letter-spacing:0em;}.cls-65{letter-spacing:0em;}.cls-66{letter-spacing:-0.03em;}.cls-67{letter-spacing:0em;}.cls-68{letter-spacing:-0.01em;}.cls-69{letter-spacing:-0.01em;}.cls-70{letter-spacing:-0.01em;}.cls-71{letter-spacing:0.01em;}.cls-72{letter-spacing:0.01em;}.cls-73{letter-spacing:-0.01em;}.cls-74{letter-spacing:0em;}.cls-75{letter-spacing:0.01em;}.cls-76{letter-spacing:0em;}.cls-77{letter-spacing:-0.02em;}.cls-78{letter-spacing:-0.01em;}.cls-79{letter-spacing:0em;}.cls-80{letter-spacing:-0.01em;}.cls-81{letter-spacing:-0.06em;}.cls-82{letter-spacing:-0.01em;}.cls-83{letter-spacing:0.01em;}</style></defs><title>fw1200</title><g id="Layer_2" data-name="Layer 2"><g id="Layer_1-2" data-name="Layer 1"><rect class="cls-1" width="1211.34" height="604.67"/><rect class="cls-2" x="196.39" y="170.26" width="861.52" height="116.83"/><rect class="cls-3" x="174.04" y="145.83" width="863.17" height="119.66"/><text class="cls-4" transform="translate(217.09 190.89)"><tspan class="cls-5">F</tspan><tspan class="cls-6" x="7.7" y="0">r</tspan><tspan x="12.25" y="0">e</tspan><tspan class="cls-7" x="20.47" y="0">e</tspan><tspan x="27.89" y="0">Whee</tspan><tspan class="cls-8" x="67.13" y="0">l</tspan><tspan x="70.5" y="0" xml:space="preserve"> (</tspan><tspan class="cls-9" x="77.84" y="0">A</tspan><tspan x="87.13" y="0">udien</tspan><tspan class="cls-10" x="123.59" y="0">c</tspan><tspan class="cls-11" x="131.21" y="0">e</tspan><tspan class="cls-10" x="139.2" y="0">X</tspan><tspan x="147.98" y="0">p</tspan><tspan class="cls-6" x="156.62" y="0">r</tspan><tspan x="161.17" y="0">ess) is an age</tspan><tspan class="cls-10" x="247.64" y="0">n</tspan><tspan x="255.73" y="0">t </tspan><tspan class="cls-12" x="263.99" y="0">o</tspan><tspan class="cls-13" x="272.21" y="0">f</tspan><tspan x="276.54" y="0" xml:space="preserve"> Comcast</tspan><tspan class="cls-14" x="337.73" y="0"> </tspan><tspan x="340.92" y="0">which au</tspan><tspan class="cls-15" x="398.88" y="0">t</tspan><tspan x="403.39" y="0">om</tspan><tspan class="cls-16" x="424.59" y="0">a</tspan><tspan class="cls-15" x="432.16" y="0">t</tspan><tspan x="436.67" y="0">es the planning, buying, o</tspan><tspan class="cls-17" x="602.35" y="0">p</tspan><tspan x="610.89" y="0">timiz</tspan><tspan class="cls-18" x="641.44" y="0">a</tspan><tspan x="649.02" y="0">tion, and </tspan><tspan class="cls-19" x="708.04" y="0">r</tspan><tspan x="712.59" y="0">eporting </tspan><tspan class="cls-6" x="770.81" y="0">f</tspan><tspan x="775.07" y="0">o</tspan><tspan class="cls-20" x="783.4" y="0">r</tspan><tspan x="787.98" y="0"> </tspan><tspan x="0" y="16.8">T</tspan><tspan class="cls-21" x="8.54" y="16.8">V</tspan><tspan x="17.57" y="16.8" xml:space="preserve"> media pu</tspan><tspan class="cls-19" x="82.14" y="16.8">r</tspan><tspan x="86.69" y="16.8">chasing ac</tspan><tspan class="cls-6" x="155.73" y="16.8">r</tspan><tspan x="160.28" y="16.8">oss a n</tspan><tspan class="cls-16" x="205.18" y="16.8">a</tspan><tspan x="212.75" y="16.8">tiona</tspan><tspan class="cls-8" x="244.62" y="16.8">l</tspan><tspan x="247.99" y="16.8"> </tspan><tspan class="cls-6" x="251.56" y="16.8">f</tspan><tspan x="255.82" y="16.8">o</tspan><tspan class="cls-17" x="264.15" y="16.8">o</tspan><tspan x="272.38" y="16.8">tpri</tspan><tspan class="cls-10" x="293.67" y="16.8">n</tspan><tspan x="301.77" y="16.8">t. </tspan><tspan class="cls-5" x="312.67" y="16.8">F</tspan><tspan class="cls-6" x="320.37" y="16.8">r</tspan><tspan x="324.92" y="16.8">e</tspan><tspan class="cls-7" x="333.14" y="16.8">e</tspan><tspan x="340.56" y="16.8">Whee</tspan><tspan class="cls-8" x="379.8" y="16.8">l</tspan><tspan x="383.17" y="16.8" xml:space="preserve"> engaged</tspan><tspan class="cls-22" x="444.98" y="16.8"> </tspan><tspan class="cls-23" x="448.08" y="16.8">Y</tspan><tspan x="456.29" y="16.8">u</tspan><tspan class="cls-6" x="464.61" y="16.8">r</tspan><tspan x="469.16" y="16.8">gosk</tspan><tspan class="cls-14" x="500.38" y="16.8">y</tspan><tspan x="507.59" y="16.8"> </tspan><tspan class="cls-24" x="511.16" y="16.8">t</tspan><tspan x="515.67" y="16.8">o </tspan><tspan class="cls-10" x="527.57" y="16.8">c</tspan><tspan x="535.18" y="16.8">ompl</tspan><tspan class="cls-18" x="568.83" y="16.8">e</tspan><tspan class="cls-24" x="576.99" y="16.8">t</tspan><tspan x="581.5" y="16.8">e a ful</tspan><tspan class="cls-8" x="621.23" y="16.8">l</tspan><tspan x="624.6" y="16.8" xml:space="preserve"> audit and </tspan><tspan class="cls-6" x="692.21" y="16.8">r</tspan><tspan x="696.76" y="16.8">e-depl</tspan><tspan class="cls-25" x="740.25" y="16.8">o</tspan><tspan x="748.33" y="16.8">yme</tspan><tspan class="cls-10" x="777" y="16.8">n</tspan><tspan x="785.1" y="16.8">t </tspan><tspan class="cls-12" x="0" y="33.6">o</tspan><tspan class="cls-26" x="8.22" y="33.6">f</tspan><tspan x="12.54" y="33.6" xml:space="preserve"> thei</tspan><tspan class="cls-20" x="40.23" y="33.6">r</tspan><tspan x="44.81" y="33.6" xml:space="preserve"> Sales</tspan><tspan class="cls-6" x="83.35" y="33.6">f</tspan><tspan x="87.61" y="33.6">o</tspan><tspan class="cls-6" x="95.94" y="33.6">r</tspan><tspan class="cls-10" x="100.49" y="33.6">c</tspan><tspan x="108.11" y="33.6">e instan</tspan><tspan class="cls-27" x="158.41" y="33.6">c</tspan><tspan x="166.02" y="33.6">e in o</tspan><tspan class="cls-6" x="200.92" y="33.6">r</tspan><tspan x="205.48" y="33.6">de</tspan><tspan class="cls-20" x="222.4" y="33.6">r</tspan><tspan x="226.98" y="33.6"> </tspan><tspan class="cls-15" x="230.55" y="33.6">t</tspan><tspan x="235.06" y="33.6">o c</tspan><tspan class="cls-6" x="254.64" y="33.6">r</tspan><tspan x="259.19" y="33.6">e</tspan><tspan class="cls-16" x="267.41" y="33.6">a</tspan><tspan class="cls-15" x="274.98" y="33.6">t</tspan><tspan x="279.49" y="33.6">e sustained</tspan><tspan class="cls-14" x="353.69" y="33.6"> </tspan><tspan class="cls-24" x="356.88" y="33.6">v</tspan><tspan x="364.16" y="33.6">alue f</tspan><tspan class="cls-6" x="400.32" y="33.6">r</tspan><tspan x="404.88" y="33.6">om the </tspan><tspan class="cls-28" x="454.28" y="33.6">s</tspan><tspan class="cls-9" x="460.96" y="33.6">y</tspan><tspan x="468.38" y="33.6">s</tspan><tspan class="cls-15" x="475.2" y="33.6">t</tspan><tspan x="479.7" y="33.6">em.</tspan></text><text class="cls-4" transform="translate(217.74 351.53)">Th<tspan class="cls-6" x="16.7" y="0">r</tspan><tspan x="21.25" y="0">ough the </tspan><tspan class="cls-10" x="82.92" y="0">c</tspan><tspan x="90.54" y="0">ourse </tspan><tspan class="cls-12" x="130.7" y="0">o</tspan><tspan class="cls-13" x="138.92" y="0">f</tspan><tspan x="143.25" y="0" xml:space="preserve"> the engageme</tspan><tspan class="cls-10" x="242.07" y="0">n</tspan><tspan x="250.16" y="0">t,</tspan><tspan class="cls-21" x="258" y="0"> </tspan><tspan class="cls-23" x="261.1" y="0">Y</tspan><tspan x="269.31" y="0">u</tspan><tspan class="cls-6" x="277.63" y="0">r</tspan><tspan x="282.18" y="0">gosk</tspan><tspan class="cls-14" x="313.4" y="0">y</tspan><tspan x="320.61" y="0"> </tspan><tspan class="cls-29" x="324.18" y="0">e</tspan><tspan class="cls-15" x="332.2" y="0">v</tspan><tspan x="339.48" y="0">alu</tspan><tspan class="cls-16" x="359.23" y="0">a</tspan><tspan class="cls-15" x="366.81" y="0">t</tspan><tspan x="371.32" y="0">ed </tspan><tspan class="cls-30" x="391.81" y="0">F</tspan><tspan class="cls-19" x="399.51" y="0">r</tspan><tspan x="404.06" y="0">e</tspan><tspan class="cls-7" x="412.28" y="0">e</tspan><tspan x="419.7" y="0">Whee</tspan><tspan class="cls-31" x="458.94" y="0">l</tspan><tspan class="cls-32" x="462.6" y="0">’</tspan><tspan x="465.09" y="0">s business p</tspan><tspan class="cls-6" x="544.52" y="0">r</tspan><tspan x="549.07" y="0">o</tspan><tspan class="cls-10" x="557.4" y="0">c</tspan><tspan x="565.02" y="0">esses, </tspan><tspan class="cls-6" x="608.63" y="0">r</tspan><tspan x="613.18" y="0">esea</tspan><tspan class="cls-6" x="644.06" y="0">r</tspan><tspan x="648.61" y="0">ched </tspan><tspan class="cls-6" x="684.96" y="0">r</tspan><tspan x="689.51" y="0">el</tspan><tspan class="cls-33" x="701.53" y="0">e</tspan><tspan class="cls-24" x="709.55" y="0">v</tspan><tspan x="716.83" y="0">a</tspan><tspan class="cls-10" x="724.46" y="0">n</tspan><tspan x="732.55" y="0">t 3</tspan><tspan class="cls-6" x="748.29" y="0">r</tspan><tspan x="752.84" y="0">d </tspan><tspan x="0" y="16.8">part</tspan><tspan class="cls-14" x="25.87" y="16.8">y</tspan><tspan x="33.08" y="16.8"> </tspan><tspan class="cls-15" x="36.65" y="16.8">t</tspan><tspan class="cls-34" x="41.16" y="16.8">ools, ana</tspan><tspan class="cls-35" x="98.59" y="16.8">l</tspan><tspan x="102.24" y="16.8">y</tspan><tspan class="cls-33" x="109.83" y="16.8">z</tspan><tspan x="116.52" y="16.8">ed the Sales</tspan><tspan class="cls-6" x="196.63" y="16.8">f</tspan><tspan x="200.88" y="16.8">o</tspan><tspan class="cls-6" x="209.21" y="16.8">r</tspan><tspan class="cls-10" x="213.76" y="16.8">c</tspan><tspan x="221.38" y="16.8">e a</tspan><tspan class="cls-6" x="240.8" y="16.8">r</tspan><tspan x="245.35" y="16.8">chi</tspan><tspan class="cls-15" x="264.25" y="16.8">t</tspan><tspan x="268.76" y="16.8">ectu</tspan><tspan class="cls-6" x="297.66" y="16.8">r</tspan><tspan x="302.22" y="16.8">e and </tspan><tspan class="cls-10" x="342.07" y="16.8">c</tspan><tspan x="349.69" y="16.8">ode, </tspan><tspan class="cls-33" x="381.66" y="16.8">e</tspan><tspan class="cls-24" x="389.69" y="16.8">v</tspan><tspan x="396.97" y="16.8">alu</tspan><tspan class="cls-16" x="416.72" y="16.8">a</tspan><tspan class="cls-15" x="424.29" y="16.8">t</tspan><tspan x="428.8" y="16.8">ed unde</tspan><tspan class="cls-36" x="482.7" y="16.8">r</tspan><tspan x="487.01" y="16.8">-utili</tspan><tspan class="cls-29" x="515.84" y="16.8">z</tspan><tspan x="522.53" y="16.8">ed Sales</tspan><tspan class="cls-6" x="578" y="16.8">f</tspan><tspan x="582.25" y="16.8">o</tspan><tspan class="cls-6" x="590.58" y="16.8">r</tspan><tspan class="cls-27" x="595.13" y="16.8">c</tspan><tspan x="602.75" y="16.8">e functionalit</tspan><tspan class="cls-14" x="686.73" y="16.8">y</tspan><tspan x="693.94" y="16.8" xml:space="preserve"> and c</tspan><tspan class="cls-19" x="733.27" y="16.8">r</tspan><tspan x="737.82" y="16.8">e</tspan><tspan class="cls-16" x="746.04" y="16.8">a</tspan><tspan class="cls-24" x="753.61" y="16.8">t</tspan><tspan x="758.12" y="16.8">ed </tspan><tspan x="0" y="33.6">docume</tspan><tspan class="cls-10" x="54.12" y="33.6">n</tspan><tspan x="62.22" y="33.6">t</tspan><tspan class="cls-16" x="66.91" y="33.6">a</tspan><tspan x="74.48" y="33.6">tion </tspan><tspan class="cls-12" x="102.28" y="33.6">o</tspan><tspan class="cls-13" x="110.5" y="33.6">f</tspan><tspan x="114.83" y="33.6"> </tspan><tspan class="cls-6" x="118.4" y="33.6">r</tspan><tspan x="122.95" y="33.6">e</tspan><tspan class="cls-10" x="131.16" y="33.6">c</tspan><tspan x="138.78" y="33.6">ommended changes. On the basis </tspan><tspan class="cls-12" x="363.38" y="33.6">o</tspan><tspan class="cls-26" x="371.6" y="33.6">f</tspan><tspan x="375.92" y="33.6" xml:space="preserve"> the </tspan><tspan class="cls-29" x="404.13" y="33.6">e</tspan><tspan class="cls-24" x="412.15" y="33.6">v</tspan><tspan x="419.43" y="33.6">alu</tspan><tspan class="cls-16" x="439.19" y="33.6">a</tspan><tspan x="446.76" y="33.6">tion,</tspan><tspan class="cls-8" x="474.14" y="33.6"> </tspan><tspan class="cls-9" x="477.28" y="33.6">A</tspan><tspan x="486.58" y="33.6">udien</tspan><tspan class="cls-10" x="523.03" y="33.6">c</tspan><tspan class="cls-11" x="530.65" y="33.6">e</tspan><tspan class="cls-10" x="538.64" y="33.6">X</tspan><tspan x="547.42" y="33.6">p</tspan><tspan class="cls-6" x="556.06" y="33.6">r</tspan><tspan x="560.61" y="33.6">ess then engaged</tspan><tspan class="cls-22" x="677.07" y="33.6"> </tspan><tspan class="cls-37" x="680.17" y="33.6">Y</tspan><tspan x="688.38" y="33.6">u</tspan><tspan class="cls-6" x="696.7" y="33.6">r</tspan><tspan x="701.25" y="33.6">gosk</tspan><tspan class="cls-14" x="732.47" y="33.6">y</tspan><tspan x="739.68" y="33.6"> </tspan><tspan class="cls-15" x="743.25" y="33.6">t</tspan><tspan x="747.76" y="33.6">o </tspan><tspan x="0" y="50.4">build out the </tspan><tspan class="cls-6" x="85.64" y="50.4">r</tspan><tspan x="90.19" y="50.4">e</tspan><tspan class="cls-10" x="98.4" y="50.4">c</tspan><tspan x="106.02" y="50.4">ommended </tspan><tspan class="cls-28" x="185.67" y="50.4">s</tspan><tspan class="cls-9" x="192.34" y="50.4">y</tspan><tspan x="199.76" y="50.4">s</tspan><tspan class="cls-15" x="206.58" y="50.4">t</tspan><tspan x="211.09" y="50.4">em enhan</tspan><tspan class="cls-10" x="276.08" y="50.4">c</tspan><tspan x="283.69" y="50.4">eme</tspan><tspan class="cls-10" x="312.99" y="50.4">n</tspan><tspan x="321.09" y="50.4">ts.</tspan></text><text class="cls-4" transform="translate(213.83 462.26)">The <tspan class="cls-6" x="28.49" y="0">r</tspan><tspan x="33.04" y="0">esult </tspan><tspan class="cls-12" x="68.46" y="0">o</tspan><tspan class="cls-13" x="76.68" y="0">f</tspan><tspan x="81" y="0" xml:space="preserve"> the p</tspan><tspan class="cls-6" x="117.85" y="0">r</tspan><tspan x="122.4" y="0">oject</tspan><tspan class="cls-14" x="154.47" y="0"> </tspan><tspan class="cls-24" x="157.67" y="0">w</tspan><tspan x="168.87" y="0">as a d</tspan><tspan class="cls-17" x="206.79" y="0">r</tspan><tspan x="211.61" y="0">am</tspan><tspan class="cls-16" x="232.1" y="0">a</tspan><tspan x="239.68" y="0">tical</tspan><tspan class="cls-31" x="266.54" y="0">l</tspan><tspan class="cls-14" x="270.2" y="0">y</tspan><tspan x="277.41" y="0" xml:space="preserve"> imp</tspan><tspan class="cls-6" x="305.53" y="0">r</tspan><tspan class="cls-38" x="310.08" y="0">o</tspan><tspan class="cls-39" x="318.15" y="0">v</tspan><tspan x="325.36" y="0">ed Sales</tspan><tspan class="cls-6" x="380.82" y="0">f</tspan><tspan x="385.08" y="0">o</tspan><tspan class="cls-6" x="393.41" y="0">r</tspan><tspan class="cls-10" x="397.96" y="0">c</tspan><tspan x="405.58" y="0">e pl</tspan><tspan class="cls-16" x="429.81" y="0">a</tspan><tspan x="437.38" y="0">t</tspan><tspan class="cls-6" x="442.07" y="0">f</tspan><tspan x="446.33" y="0">orm, </tspan><tspan class="cls-6" x="479.16" y="0">f</tspan><tspan class="cls-40" x="483.41" y="0">ocused on </tspan><tspan class="cls-5" x="555.12" y="0">F</tspan><tspan class="cls-6" x="562.82" y="0">r</tspan><tspan x="567.37" y="0">e</tspan><tspan class="cls-7" x="575.59" y="0">e</tspan><tspan x="583.01" y="0">Whee</tspan><tspan class="cls-31" x="622.25" y="0">l</tspan><tspan class="cls-9" x="625.9" y="0">’</tspan><tspan x="628.4" y="0">s business goals,</tspan><tspan class="cls-14" x="737.58" y="0"> </tspan><tspan x="740.77" y="0">which </tspan><tspan x="0" y="16.8">included ope</tspan><tspan class="cls-17" x="85.41" y="16.8">r</tspan><tspan class="cls-16" x="90.23" y="16.8">a</tspan><tspan x="97.8" y="16.8">tiona</tspan><tspan class="cls-8" x="129.67" y="16.8">l</tspan><tspan x="133.04" y="16.8"> </tspan><tspan class="cls-10" x="136.61" y="16.8">e</tspan><tspan x="144.76" y="16.8">fficiencies such as au</tspan><tspan class="cls-15" x="280.01" y="16.8">t</tspan><tspan x="284.52" y="16.8">om</tspan><tspan class="cls-16" x="305.71" y="16.8">a</tspan><tspan x="313.29" y="16.8">tion </tspan><tspan class="cls-41" x="341.09" y="16.8">o</tspan><tspan class="cls-42" x="349.31" y="16.8">f </tspan><tspan x="353.63" y="16.8">financia</tspan><tspan class="cls-43" x="406.58" y="16.8">l</tspan><tspan x="409.96" y="16.8"> </tspan><tspan class="cls-6" x="413.53" y="16.8">r</tspan><tspan x="418.08" y="16.8">eporting p</tspan><tspan class="cls-6" x="484.94" y="16.8">r</tspan><tspan x="489.49" y="16.8">o</tspan><tspan class="cls-10" x="497.82" y="16.8">c</tspan><tspan x="505.43" y="16.8">esses and sales ana</tspan><tspan class="cls-31" x="634.25" y="16.8">l</tspan><tspan x="637.9" y="16.8">ytics,</tspan><tspan class="cls-14" x="670.88" y="16.8"> </tspan><tspan x="674.08" y="16.8">which </tspan><tspan class="cls-6" x="716.09" y="16.8">r</tspan><tspan x="720.64" y="16.8">edu</tspan><tspan class="cls-10" x="745.88" y="16.8">c</tspan><tspan x="753.5" y="16.8">ed </tspan><tspan x="0" y="33.6">er</tspan><tspan class="cls-6" x="13.13" y="33.6">r</tspan><tspan x="17.68" y="33.6">ors and </tspan><tspan class="cls-10" x="69.38" y="33.6">c</tspan><tspan x="77" y="33.6">ost.</tspan><tspan class="cls-8" x="99.48" y="33.6"> </tspan><tspan class="cls-44" x="102.62" y="33.6">A</tspan><tspan x="111.87" y="33.6">dditional</tspan><tspan class="cls-45" x="168.01" y="33.6">l</tspan><tspan class="cls-46" x="171.67" y="33.6">y</tspan><tspan x="178.58" y="33.6">,</tspan><tspan class="cls-22" x="181.73" y="33.6"> </tspan><tspan class="cls-23" x="184.83" y="33.6">Y</tspan><tspan x="193.04" y="33.6">u</tspan><tspan class="cls-6" x="201.36" y="33.6">r</tspan><tspan x="205.91" y="33.6">gosk</tspan><tspan class="cls-14" x="237.13" y="33.6">y</tspan><tspan x="244.34" y="33.6" xml:space="preserve"> built a cus</tspan><tspan class="cls-15" x="314" y="33.6">t</tspan><tspan x="318.51" y="33.6">om applic</tspan><tspan class="cls-16" x="382.73" y="33.6">a</tspan><tspan x="390.3" y="33.6">tion th</tspan><tspan class="cls-16" x="430.96" y="33.6">a</tspan><tspan x="438.53" y="33.6">t modified the standa</tspan><tspan class="cls-6" x="575.57" y="33.6">r</tspan><tspan x="580.12" y="33.6">d Sales</tspan><tspan class="cls-6" x="627.37" y="33.6">f</tspan><tspan x="631.63" y="33.6">o</tspan><tspan class="cls-6" x="639.96" y="33.6">r</tspan><tspan class="cls-27" x="644.51" y="33.6">c</tspan><tspan x="652.13" y="33.6">e calenda</tspan><tspan class="cls-20" x="715.75" y="33.6">r</tspan><tspan x="720.33" y="33.6"> </tspan><tspan class="cls-15" x="723.9" y="33.6">t</tspan><tspan x="728.41" y="33.6">o align </tspan><tspan x="0" y="50.4">with the “b</tspan><tspan class="cls-6" x="68.56" y="50.4">r</tspan><tspan x="73.11" y="50.4">oadcast calendar</tspan><tspan class="cls-47" x="184.92" y="50.4">”</tspan><tspan x="188.17" y="50.4">,</tspan><tspan class="cls-14" x="191.32" y="50.4"> </tspan><tspan x="194.51" y="50.4">which significa</tspan><tspan class="cls-10" x="288.63" y="50.4">n</tspan><tspan x="296.73" y="50.4">t</tspan><tspan class="cls-31" x="301.42" y="50.4">l</tspan><tspan class="cls-14" x="305.07" y="50.4">y</tspan><tspan x="312.28" y="50.4"> </tspan><tspan class="cls-6" x="315.85" y="50.4">r</tspan><tspan x="320.4" y="50.4">edu</tspan><tspan class="cls-10" x="345.64" y="50.4">c</tspan><tspan x="353.26" y="50.4">ed </tspan><tspan class="cls-6" x="373.75" y="50.4">f</tspan><tspan x="378.01" y="50.4">o</tspan><tspan class="cls-6" x="386.34" y="50.4">r</tspan><tspan x="390.89" y="50.4">ecasting and </tspan><tspan class="cls-19" x="477.44" y="50.4">r</tspan><tspan class="cls-29" x="481.99" y="50.4">e</tspan><tspan class="cls-39" x="490.01" y="50.4">v</tspan><tspan x="497.22" y="50.4">enue </tspan><tspan class="cls-16" x="533.7" y="50.4">a</tspan><tspan x="541.27" y="50.4">ttribution er</tspan><tspan class="cls-6" x="616.51" y="50.4">r</tspan><tspan x="621.06" y="50.4">ors.</tspan><tspan class="cls-22" x="643.77" y="50.4"> </tspan><tspan class="cls-37" x="646.86" y="50.4">Y</tspan><tspan x="655.08" y="50.4">u</tspan><tspan class="cls-6" x="663.4" y="50.4">r</tspan><tspan x="667.95" y="50.4">gosk</tspan><tspan class="cls-14" x="699.17" y="50.4">y</tspan><tspan x="706.38" y="50.4" xml:space="preserve"> also </tspan><tspan x="0" y="67.2">designed a mo</tspan><tspan class="cls-6" x="96.5" y="67.2">r</tspan><tspan x="101.05" y="67.2">e use</tspan><tspan class="cls-36" x="136.19" y="67.2">r</tspan><tspan x="140.5" y="67.2">-friend</tspan><tspan class="cls-31" x="184.08" y="67.2">l</tspan><tspan class="cls-14" x="187.74" y="67.2">y</tspan><tspan x="194.95" y="67.2"> </tspan><tspan class="cls-10" x="198.52" y="67.2">c</tspan><tspan x="206.13" y="67.2">o</tspan><tspan class="cls-10" x="214.46" y="67.2">n</tspan><tspan x="222.56" y="67.2">figu</tspan><tspan class="cls-17" x="246.58" y="67.2">r</tspan><tspan class="cls-16" x="251.4" y="67.2">a</tspan><tspan x="258.97" y="67.2">tion th</tspan><tspan class="cls-16" x="299.62" y="67.2">a</tspan><tspan x="307.2" y="67.2">t imp</tspan><tspan class="cls-6" x="340.01" y="67.2">r</tspan><tspan class="cls-38" x="344.56" y="67.2">o</tspan><tspan class="cls-25" x="352.63" y="67.2">v</tspan><tspan x="359.84" y="67.2">ed ado</tspan><tspan class="cls-17" x="405" y="67.2">p</tspan><tspan x="413.54" y="67.2">tion </tspan><tspan class="cls-25" x="441.34" y="67.2">b</tspan><tspan class="cls-14" x="449.73" y="67.2">y</tspan><tspan x="456.94" y="67.2" xml:space="preserve"> thei</tspan><tspan class="cls-48" x="484.63" y="67.2">r</tspan><tspan x="489.21" y="67.2" xml:space="preserve"> sales and cus</tspan><tspan class="cls-24" x="580.53" y="67.2">t</tspan><tspan class="cls-40" x="585.04" y="67.2">ome</tspan><tspan class="cls-48" x="614.45" y="67.2">r</tspan><tspan x="619.03" y="67.2" xml:space="preserve"> su</tspan><tspan class="cls-10" x="637.73" y="67.2">cc</tspan><tspan x="652.97" y="67.2">ess </tspan><tspan class="cls-15" x="678.39" y="67.2">t</tspan><tspan x="682.9" y="67.2">eams, leading </tspan><tspan class="cls-15" x="0" y="84">t</tspan><tspan x="4.51" y="84">o a</tspan><tspan class="cls-10" x="24.04" y="84">c</tspan><tspan x="31.65" y="84">cu</tspan><tspan class="cls-49" x="47.66" y="84">r</tspan><tspan class="cls-18" x="52.47" y="84">a</tspan><tspan class="cls-24" x="60.05" y="84">t</tspan><tspan x="64.55" y="84">e </tspan><tspan class="cls-19" x="76.34" y="84">f</tspan><tspan class="cls-34" x="80.6" y="84">o</tspan><tspan class="cls-19" x="88.93" y="84">r</tspan><tspan x="93.48" y="84">ecasts and sustained </tspan><tspan class="cls-6" x="232.96" y="84">r</tspan><tspan class="cls-29" x="237.51" y="84">e</tspan><tspan class="cls-39" x="245.53" y="84">v</tspan><tspan x="252.74" y="84">enue g</tspan><tspan class="cls-6" x="297.88" y="84">r</tspan><tspan class="cls-50" x="302.43" y="84">o</tspan><tspan x="310.49" y="84">wth. </tspan></text><text class="cls-51" transform="translate(222.35 81.46) scale(1.05 1)"><tspan class="cls-52">R</tspan><tspan class="cls-53" x="13.89" y="0">E</tspan><tspan class="cls-54" x="26.19" y="0">-</tspan><tspan class="cls-55" x="35.07" y="0">IM</tspan><tspan class="cls-56" x="59.21" y="0">P</tspan><tspan class="cls-57" x="72.05" y="0">L</tspan><tspan class="cls-58" x="84.02" y="0">E</tspan><tspan class="cls-59" x="96.75" y="0">M</tspan><tspan class="cls-58" x="114.89" y="0">E</tspan><tspan class="cls-60" x="127.63" y="0">NT</tspan><tspan class="cls-55" x="155.97" y="0">I</tspan><tspan class="cls-61" x="161.96" y="0">NG </tspan><tspan class="cls-62" x="198.25" y="0">S</tspan><tspan class="cls-63" x="210.8" y="0">A</tspan><tspan class="cls-57" x="224.69" y="0">L</tspan><tspan class="cls-64" x="236.66" y="0">E</tspan><tspan class="cls-65" x="249.29" y="0">S</tspan><tspan class="cls-66" x="262.19" y="0">F</tspan><tspan class="cls-67" x="273.68" y="0">O</tspan><tspan class="cls-68" x="289.53" y="0">R</tspan><tspan class="cls-69" x="303.23" y="0">C</tspan><tspan x="317.5" y="0">E @ </tspan><tspan class="cls-70" x="357.94" y="0">F</tspan><tspan class="cls-52" x="369.74" y="0">R</tspan><tspan class="cls-71" x="383.63" y="0">E</tspan><tspan class="cls-72" x="396.36" y="0">E</tspan><tspan class="cls-73" x="409.12" y="0">W</tspan><tspan class="cls-74" x="431.05" y="0">H</tspan><tspan class="cls-58" x="446.68" y="0">EE</tspan><tspan x="472.14" y="0">L </tspan><tspan class="cls-75" x="489.45" y="0">(</tspan><tspan class="cls-76" x="496.21" y="0">A </tspan><tspan class="cls-77" x="515.36" y="0">C</tspan><tspan class="cls-67" x="529.41" y="0">OM</tspan><tspan class="cls-78" x="563.39" y="0">C</tspan><tspan class="cls-79" x="577.59" y="0">A</tspan><tspan class="cls-80" x="591.74" y="0">S</tspan><tspan class="cls-61" x="604.48" y="0">T </tspan><tspan class="cls-77" x="622.52" y="0">C</tspan><tspan class="cls-67" x="636.58" y="0">O</tspan><tspan class="cls-59" x="652.42" y="0">M</tspan><tspan class="cls-81" x="670.57" y="0">P</tspan><tspan class="cls-63" x="682.46" y="0">A</tspan><tspan class="cls-82" x="696.35" y="0">N</tspan><tspan class="cls-83" x="712.14" y="0">Y</tspan><tspan x="726.3" y="0">)</tspan></text><text class="cls-84" transform="translate(220.35 79.46) scale(1.05 1)"><tspan class="cls-52">R</tspan><tspan class="cls-53" x="13.89" y="0">E</tspan><tspan class="cls-54" x="26.19" y="0">-</tspan><tspan class="cls-55" x="35.07" y="0">IM</tspan><tspan class="cls-56" x="59.21" y="0">P</tspan><tspan class="cls-57" x="72.05" y="0">L</tspan><tspan class="cls-58" x="84.02" y="0">E</tspan><tspan class="cls-59" x="96.75" y="0">M</tspan><tspan class="cls-58" x="114.89" y="0">E</tspan><tspan class="cls-60" x="127.63" y="0">NT</tspan><tspan class="cls-55" x="155.97" y="0">I</tspan><tspan class="cls-61" x="161.96" y="0">NG </tspan><tspan class="cls-62" x="198.25" y="0">S</tspan><tspan class="cls-63" x="210.8" y="0">A</tspan><tspan class="cls-57" x="224.69" y="0">L</tspan><tspan class="cls-64" x="236.66" y="0">E</tspan><tspan class="cls-65" x="249.29" y="0">S</tspan><tspan class="cls-66" x="262.19" y="0">F</tspan><tspan class="cls-67" x="273.68" y="0">O</tspan><tspan class="cls-68" x="289.53" y="0">R</tspan><tspan class="cls-69" x="303.23" y="0">C</tspan><tspan x="317.5" y="0">E @ </tspan><tspan class="cls-70" x="357.94" y="0">F</tspan><tspan class="cls-52" x="369.74" y="0">R</tspan><tspan class="cls-71" x="383.63" y="0">E</tspan><tspan class="cls-72" x="396.36" y="0">E</tspan><tspan class="cls-73" x="409.12" y="0">W</tspan><tspan class="cls-74" x="431.05" y="0">H</tspan><tspan class="cls-58" x="446.68" y="0">EE</tspan><tspan x="472.14" y="0">L </tspan><tspan class="cls-75" x="489.45" y="0">(</tspan><tspan class="cls-76" x="496.21" y="0">A </tspan><tspan class="cls-77" x="515.36" y="0">C</tspan><tspan class="cls-67" x="529.41" y="0">OM</tspan><tspan class="cls-78" x="563.39" y="0">C</tspan><tspan class="cls-79" x="577.59" y="0">A</tspan><tspan class="cls-80" x="591.74" y="0">S</tspan><tspan class="cls-61" x="604.48" y="0">T </tspan><tspan class="cls-77" x="622.52" y="0">C</tspan><tspan class="cls-67" x="636.58" y="0">O</tspan><tspan class="cls-59" x="652.42" y="0">M</tspan><tspan class="cls-81" x="670.57" y="0">P</tspan><tspan class="cls-63" x="682.46" y="0">A</tspan><tspan class="cls-82" x="696.35" y="0">N</tspan><tspan class="cls-83" x="712.14" y="0">Y</tspan><tspan x="726.3" y="0">)</tspan></text></g></g></svg>