<svg xmlns="http://www.w3.org/2000/svg" viewBox="0 0 1211.34 667.62"><defs><style>.cls-1{fill:#fff;}.cls-2{fill:#fcf169;}.cls-3{fill:#63cdf4;}.cls-4{font-size:14px;font-family:Raleway-Regular, Raleway;}.cls-5{letter-spacing:-0.03em;}.cls-6{letter-spacing:0em;}.cls-7{letter-spacing:0em;}.cls-8{letter-spacing:-0.03em;}.cls-9{letter-spacing:-0.03em;}.cls-10{letter-spacing:-0.01em;}.cls-11{letter-spacing:0em;}.cls-12{letter-spacing:-0.01em;}.cls-13{letter-spacing:-0.02em;}.cls-14{letter-spacing:-0.03em;}.cls-15{letter-spacing:-0.01em;}.cls-16{letter-spacing:-0.02em;}.cls-17{letter-spacing:-0.03em;}.cls-18{letter-spacing:-0.01em;}.cls-19{letter-spacing:-0.11em;}.cls-20{letter-spacing:-0.01em;}.cls-21{letter-spacing:-0.01em;}.cls-22{letter-spacing:-0.01em;}.cls-23{letter-spacing:-0.01em;}.cls-24{letter-spacing:-0.02em;}.cls-25{letter-spacing:-0.02em;}.cls-26{letter-spacing:-0.02em;}.cls-27{letter-spacing:-0.03em;}.cls-28{letter-spacing:0em;}.cls-29{letter-spacing:-0.02em;}.cls-30{letter-spacing:-0.05em;}.cls-31{letter-spacing:-0.01em;}.cls-32{letter-spacing:-0.01em;}.cls-33{letter-spacing:-0.03em;}.cls-34{letter-spacing:0em;}.cls-35{letter-spacing:0em;}.cls-36{letter-spacing:-0.02em;}.cls-37{letter-spacing:-0.01em;}.cls-38{letter-spacing:-0.03em;}.cls-39{letter-spacing:-0.06em;}.cls-40{letter-spacing:-0.01em;}.cls-41{letter-spacing:-0.02em;}.cls-42{letter-spacing:-0.01em;}.cls-43{letter-spacing:-0.03em;}.cls-44,.cls-80{font-size:24px;font-family:Raleway-Bold, Raleway;font-weight:700;}.cls-44{fill:#b1b1b1;}.cls-45{letter-spacing:-0.01em;}.cls-46{letter-spacing:0em;}.cls-47{letter-spacing:0em;}.cls-48{letter-spacing:-0.02em;}.cls-49{letter-spacing:0em;}.cls-50{letter-spacing:-0.02em;}.cls-51{letter-spacing:0em;}.cls-52{letter-spacing:0em;}.cls-53{letter-spacing:0em;}.cls-54{letter-spacing:0.01em;}.cls-55{letter-spacing:-0.02em;}.cls-56{letter-spacing:-0.09em;}.cls-57{letter-spacing:-0.01em;}.cls-58{letter-spacing:-0.06em;}.cls-59{letter-spacing:-0.09em;}.cls-60{letter-spacing:-0.01em;}.cls-61{letter-spacing:-0.07em;}.cls-62{letter-spacing:-0.08em;}.cls-63{letter-spacing:-0.03em;}.cls-64{letter-spacing:-0.01em;}.cls-65{letter-spacing:0em;}.cls-66{letter-spacing:-0.01em;}.cls-67{letter-spacing:0em;}.cls-68{letter-spacing:-0.01em;}.cls-69{letter-spacing:-0.01em;}.cls-70{letter-spacing:0em;}.cls-71{letter-spacing:0em;}.cls-72{letter-spacing:-0.04em;}.cls-73{letter-spacing:-0.01em;}.cls-74{letter-spacing:0em;}.cls-75{letter-spacing:0em;}.cls-76{letter-spacing:0em;}.cls-77{letter-spacing:-0.03em;}.cls-78{letter-spacing:-0.01em;}.cls-79{letter-spacing:-0.01em;}</style></defs><title>nfcdcu1200</title><g id="Layer_2" data-name="Layer 2"><g id="Layer_1-2" data-name="Layer 1"><rect class="cls-1" width="1211.34" height="667.62"/><rect class="cls-2" x="196" y="205.86" width="859.99" height="140.21"/><rect class="cls-3" x="172.42" y="188.9" width="865.89" height="136.95"/><text class="cls-4" transform="translate(215.59 232.73)">In 2015,<tspan class="cls-5" x="47.84" y="0"> </tspan><tspan x="51.01" y="0">The </tspan><tspan class="cls-6" x="79.5" y="0">N</tspan><tspan class="cls-7" x="90.24" y="0">a</tspan><tspan x="97.82" y="0">tiona</tspan><tspan class="cls-8" x="129.68" y="0">l</tspan><tspan x="133.05" y="0"> </tspan><tspan class="cls-9" x="136.62" y="0">F</tspan><tspan x="144.39" y="0">ede</tspan><tspan class="cls-10" x="169.54" y="0">r</tspan><tspan class="cls-11" x="174.35" y="0">a</tspan><tspan x="181.93" y="0">tion </tspan><tspan class="cls-12" x="209.73" y="0">o</tspan><tspan class="cls-13" x="217.95" y="0">f</tspan><tspan x="222.27" y="0" xml:space="preserve"> Communit</tspan><tspan class="cls-14" x="293.73" y="0">y</tspan><tspan x="300.94" y="0" xml:space="preserve"> D</tspan><tspan class="cls-15" x="314.52" y="0">e</tspan><tspan class="cls-16" x="322.54" y="0">v</tspan><tspan x="329.75" y="0">elopme</tspan><tspan class="cls-6" x="379.83" y="0">n</tspan><tspan x="387.92" y="0">t C</tspan><tspan class="cls-17" x="405.78" y="0">r</tspan><tspan x="410.33" y="0">edit Unions and </tspan><tspan class="cls-18" x="515.3" y="0">N</tspan><tspan x="526.01" y="0">eighborhood</tspan><tspan class="cls-5" x="609.51" y="0"> </tspan><tspan class="cls-19" x="612.69" y="0">T</tspan><tspan x="619.69" y="0">rust Financia</tspan><tspan class="cls-8" x="701.61" y="0">l</tspan><tspan x="704.99" y="0"> </tspan><tspan class="cls-6" x="708.56" y="0">P</tspan><tspan x="717.19" y="0">artners </tspan><tspan class="cls-20" x="0" y="16.8">t</tspan><tspan x="4.51" y="16.8">eamed up </tspan><tspan class="cls-21" x="74.24" y="16.8">t</tspan><tspan x="78.75" y="16.8">o launch </tspan><tspan class="cls-6" x="137.98" y="16.8">P</tspan><tspan class="cls-11" x="146.62" y="16.8">a</tspan><tspan x="154.19" y="16.8">t</tspan><tspan class="cls-15" x="158.88" y="16.8">h</tspan><tspan class="cls-20" x="166.85" y="16.8">wa</tspan><tspan class="cls-22" x="185.5" y="16.8">y</tspan><tspan x="192.92" y="16.8">s </tspan><tspan class="cls-20" x="203.31" y="16.8">t</tspan><tspan x="207.81" y="16.8">o Financia</tspan><tspan class="cls-8" x="273.33" y="16.8">l</tspan><tspan x="276.71" y="16.8"> </tspan><tspan class="cls-23" x="280.28" y="16.8">E</tspan><tspan x="288.72" y="16.8">mp</tspan><tspan class="cls-24" x="310.22" y="16.8">ow</tspan><tspan x="329.4" y="16.8">erme</tspan><tspan class="cls-6" x="363.62" y="16.8">n</tspan><tspan x="371.71" y="16.8">t, an initi</tspan><tspan class="cls-7" x="424.49" y="16.8">a</tspan><tspan x="432.06" y="16.8">ti</tspan><tspan class="cls-16" x="439.8" y="16.8">v</tspan><tspan x="447.01" y="16.8">e designed </tspan><tspan class="cls-20" x="522.91" y="16.8">t</tspan><tspan x="527.41" y="16.8">o guide l</tspan><tspan class="cls-24" x="583.64" y="16.8">o</tspan><tspan class="cls-14" x="591.7" y="16.8">w</tspan><tspan x="602.7" y="16.8" xml:space="preserve"> in</tspan><tspan class="cls-6" x="617.49" y="16.8">c</tspan><tspan x="625.1" y="16.8">ome clie</tspan><tspan class="cls-6" x="680.85" y="16.8">n</tspan><tspan x="688.94" y="16.8">ts </tspan><tspan class="cls-20" x="704.02" y="16.8">t</tspan><tspan x="708.53" y="16.8">o financia</tspan><tspan class="cls-8" x="769.81" y="16.8">l</tspan><tspan x="773.18" y="16.8"> </tspan><tspan x="0" y="33.6">securit</tspan><tspan class="cls-14" x="43.69" y="33.6">y</tspan><tspan x="50.9" y="33.6" xml:space="preserve"> th</tspan><tspan class="cls-17" x="67.32" y="33.6">r</tspan><tspan x="71.88" y="33.6">ough one-</tspan><tspan class="cls-20" x="139.52" y="33.6">t</tspan><tspan x="144.03" y="33.6">o-one </tspan><tspan class="cls-6" x="186.55" y="33.6">c</tspan><tspan x="194.16" y="33.6">ounseling. Fi</tspan><tspan class="cls-25" x="275.19" y="33.6">v</tspan><tspan x="282.4" y="33.6">e particip</tspan><tspan class="cls-7" x="342.49" y="33.6">a</tspan><tspan x="350.06" y="33.6">ting C</tspan><tspan class="cls-17" x="387.79" y="33.6">r</tspan><tspan x="392.34" y="33.6">edit Unions</tspan><tspan class="cls-14" x="465.67" y="33.6"> </tspan><tspan class="cls-26" x="468.87" y="33.6">w</tspan><tspan x="479.98" y="33.6">e</tspan><tspan class="cls-17" x="488.2" y="33.6">r</tspan><tspan x="492.75" y="33.6">e selec</tspan><tspan class="cls-21" x="539.28" y="33.6">t</tspan><tspan x="543.79" y="33.6">ed </tspan><tspan class="cls-27" x="564.29" y="33.6">f</tspan><tspan class="cls-28" x="568.54" y="33.6">o</tspan><tspan class="cls-29" x="576.87" y="33.6">r</tspan><tspan x="581.45" y="33.6" xml:space="preserve"> the pil</tspan><tspan class="cls-18" x="625.16" y="33.6">o</tspan><tspan x="633.39" y="33.6">t,</tspan><tspan class="cls-14" x="641.23" y="33.6"> </tspan><tspan x="644.42" y="33.6">with a plan </tspan><tspan class="cls-21" x="718.29" y="33.6">t</tspan><tspan x="722.79" y="33.6">o </tspan><tspan class="cls-17" x="734.69" y="33.6">r</tspan><tspan x="739.24" y="33.6">ol</tspan><tspan class="cls-8" x="751.38" y="33.6">l</tspan><tspan x="754.76" y="33.6" xml:space="preserve"> the </tspan><tspan x="0" y="50.4">p</tspan><tspan class="cls-17" x="8.64" y="50.4">r</tspan><tspan x="13.19" y="50.4">oject out </tspan><tspan class="cls-20" x="73.74" y="50.4">t</tspan><tspan x="78.25" y="50.4">o Communit</tspan><tspan class="cls-14" x="158.03" y="50.4">y</tspan><tspan x="165.24" y="50.4" xml:space="preserve"> D</tspan><tspan class="cls-15" x="178.82" y="50.4">e</tspan><tspan class="cls-16" x="186.84" y="50.4">v</tspan><tspan x="194.05" y="50.4">elopme</tspan><tspan class="cls-6" x="244.13" y="50.4">n</tspan><tspan x="252.22" y="50.4">t C</tspan><tspan class="cls-17" x="270.08" y="50.4">r</tspan><tspan x="274.63" y="50.4">edit Unions ac</tspan><tspan class="cls-17" x="366.85" y="50.4">r</tspan><tspan x="371.4" y="50.4">oss the </tspan><tspan class="cls-6" x="421.58" y="50.4">c</tspan><tspan x="429.19" y="50.4">ou</tspan><tspan class="cls-6" x="445.84" y="50.4">n</tspan><tspan x="453.93" y="50.4">tr</tspan><tspan class="cls-30" x="463.53" y="50.4">y</tspan><tspan x="470.45" y="50.4">.</tspan></text><text class="cls-4" transform="translate(228.96 418.49)"><tspan class="cls-8">A</tspan><tspan x="9.03" y="0" xml:space="preserve"> guiding principle </tspan><tspan class="cls-31" x="124.5" y="0">o</tspan><tspan class="cls-13" x="132.72" y="0">f</tspan><tspan x="137.04" y="0" xml:space="preserve"> this p</tspan><tspan class="cls-17" x="175.54" y="0">r</tspan><tspan x="180.09" y="0">oject, and </tspan><tspan class="cls-14" x="246.96" y="0">k</tspan><tspan class="cls-15" x="254" y="0">e</tspan><tspan class="cls-14" x="262.02" y="0">y</tspan><tspan x="269.23" y="0"> </tspan><tspan class="cls-20" x="272.8" y="0">t</tspan><tspan class="cls-28" x="277.31" y="0">o its ultim</tspan><tspan class="cls-7" x="340.07" y="0">a</tspan><tspan class="cls-20" x="347.64" y="0">t</tspan><tspan x="352.15" y="0">e su</tspan><tspan class="cls-6" x="379.07" y="0">cc</tspan><tspan x="394.3" y="0">ess,</tspan><tspan class="cls-14" x="419.31" y="0"> </tspan><tspan class="cls-20" x="422.5" y="0">w</tspan><tspan x="433.7" y="0">as its sponsor</tspan><tspan class="cls-32" x="521.86" y="0">s</tspan><tspan class="cls-33" x="528.55" y="0">’</tspan><tspan x="530.83" y="0"> </tspan><tspan class="cls-6" x="534.4" y="0">c</tspan><tspan class="cls-28" x="542.02" y="0">ommitme</tspan><tspan class="cls-34" x="604.9" y="0">n</tspan><tspan x="613" y="0">t </tspan><tspan class="cls-20" x="621.25" y="0">t</tspan><tspan class="cls-35" x="625.76" y="0">o using the best </tspan><tspan class="cls-20" x="0" y="16.8">t</tspan><tspan x="4.51" y="16.8">echnolog</tspan><tspan class="cls-14" x="65.85" y="16.8">y</tspan><tspan x="73.06" y="16.8"> </tspan><tspan class="cls-15" x="76.63" y="16.8">a</tspan><tspan class="cls-21" x="84.07" y="16.8">v</tspan><tspan x="91.35" y="16.8">ailable </tspan><tspan class="cls-21" x="137.7" y="16.8">t</tspan><tspan x="142.21" y="16.8">o </tspan><tspan class="cls-24" x="154.11" y="16.8">e</tspan><tspan class="cls-36" x="162.06" y="16.8">x</tspan><tspan x="168.81" y="16.8">ecu</tspan><tspan class="cls-20" x="193.03" y="16.8">t</tspan><tspan x="197.54" y="16.8">e thei</tspan><tspan class="cls-29" x="233.45" y="16.8">r</tspan><tspan x="238.02" y="16.8" xml:space="preserve"> mission. </tspan><tspan class="cls-37" x="296.91" y="16.8">N</tspan><tspan class="cls-7" x="307.65" y="16.8">a</tspan><tspan x="315.22" y="16.8">tiona</tspan><tspan class="cls-8" x="347.08" y="16.8">l</tspan><tspan x="350.46" y="16.8"> </tspan><tspan class="cls-9" x="354.03" y="16.8">F</tspan><tspan x="361.8" y="16.8">ede</tspan><tspan class="cls-10" x="386.94" y="16.8">r</tspan><tspan class="cls-11" x="391.76" y="16.8">a</tspan><tspan x="399.33" y="16.8">tion and </tspan><tspan class="cls-10" x="455.2" y="16.8">N</tspan><tspan x="465.91" y="16.8">eighborhood</tspan><tspan class="cls-5" x="549.41" y="16.8"> </tspan><tspan class="cls-19" x="552.58" y="16.8">T</tspan><tspan x="559.58" y="16.8">rust</tspan><tspan class="cls-14" x="584.32" y="16.8"> </tspan><tspan class="cls-24" x="587.51" y="16.8">w</tspan><tspan x="598.63" y="16.8">or</tspan><tspan class="cls-14" x="611.87" y="16.8">k</tspan><tspan x="618.92" y="16.8">ed</tspan><tspan class="cls-14" x="635.84" y="16.8"> </tspan><tspan x="639.03" y="16.8">with</tspan><tspan class="cls-38" x="666.32" y="16.8"> </tspan><tspan class="cls-39" x="669.41" y="16.8">Y</tspan><tspan x="677.63" y="16.8">u</tspan><tspan class="cls-17" x="685.95" y="16.8">r</tspan><tspan x="690.5" y="16.8">gosk</tspan><tspan class="cls-14" x="721.72" y="16.8">y</tspan><tspan x="728.93" y="16.8"> </tspan><tspan class="cls-20" x="732.5" y="16.8">t</tspan><tspan x="737.01" y="16.8">o </tspan><tspan x="0" y="33.6">design a </tspan><tspan class="cls-6" x="58.38" y="33.6">c</tspan><tspan x="65.99" y="33.6">ompl</tspan><tspan class="cls-7" x="99.64" y="33.6">e</tspan><tspan class="cls-20" x="107.8" y="33.6">t</tspan><tspan x="112.31" y="33.6">e</tspan><tspan class="cls-40" x="120.52" y="33.6">l</tspan><tspan class="cls-14" x="124.18" y="33.6">y</tspan><tspan x="131.39" y="33.6" xml:space="preserve"> digita</tspan><tspan class="cls-8" x="170.74" y="33.6">l</tspan><tspan x="174.12" y="33.6" xml:space="preserve"> financia</tspan><tspan class="cls-8" x="227.06" y="33.6">l</tspan><tspan x="230.44" y="33.6"> </tspan><tspan class="cls-6" x="234.01" y="33.6">c</tspan><tspan x="241.62" y="33.6">ounseling pl</tspan><tspan class="cls-11" x="321.15" y="33.6">a</tspan><tspan x="328.73" y="33.6">t</tspan><tspan class="cls-17" x="333.42" y="33.6">f</tspan><tspan x="337.67" y="33.6">orm built on Sales</tspan><tspan class="cls-17" x="454.46" y="33.6">f</tspan><tspan x="458.72" y="33.6">o</tspan><tspan class="cls-17" x="467.05" y="33.6">r</tspan><tspan class="cls-6" x="471.6" y="33.6">c</tspan><tspan x="479.21" y="33.6">e </tspan><tspan class="cls-20" x="491" y="33.6">t</tspan><tspan x="495.51" y="33.6">echnolog</tspan><tspan class="cls-30" x="556.86" y="33.6">y</tspan><tspan x="563.77" y="33.6">.</tspan></text><text class="cls-4" transform="translate(216.05 520.11)">Ou<tspan class="cls-41" x="18.83" y="0">r</tspan><tspan x="23.41" y="0" xml:space="preserve"> p</tspan><tspan class="cls-17" x="35.62" y="0">r</tspan><tspan x="40.17" y="0">oduct guides Counselors th</tspan><tspan class="cls-17" x="218.54" y="0">r</tspan><tspan x="223.09" y="0">ough fl</tspan><tspan class="cls-24" x="268.28" y="0">o</tspan><tspan class="cls-20" x="276.34" y="0">w</tspan><tspan x="287.54" y="0">s designed </tspan><tspan class="cls-20" x="362.04" y="0">t</tspan><tspan x="366.54" y="0">o o</tspan><tspan class="cls-10" x="386.77" y="0">p</tspan><tspan x="395.31" y="0">timi</tspan><tspan class="cls-42" x="418.97" y="0">z</tspan><tspan x="425.66" y="0">e the clie</tspan><tspan class="cls-6" x="484.85" y="0">n</tspan><tspan x="492.95" y="0">t </tspan><tspan class="cls-24" x="501.21" y="0">e</tspan><tspan x="509.16" y="0">xperien</tspan><tspan class="cls-6" x="557.42" y="0">c</tspan><tspan x="565.03" y="0">e f</tspan><tspan class="cls-17" x="581.44" y="0">r</tspan><tspan class="cls-35" x="585.99" y="0">om end-</tspan><tspan class="cls-20" x="641.75" y="0">t</tspan><tspan x="646.26" y="0">o-end and </tspan><tspan x="0" y="16.8">st</tspan><tspan class="cls-17" x="11.51" y="16.8">r</tspan><tspan x="16.06" y="16.8">eamline d</tspan><tspan class="cls-7" x="80.29" y="16.8">a</tspan><tspan x="87.86" y="16.8">ta e</tspan><tspan class="cls-37" x="111.97" y="16.8">n</tspan><tspan x="120.06" y="16.8">tr</tspan><tspan class="cls-43" x="129.67" y="16.8">y</tspan><tspan x="136.88" y="16.8" xml:space="preserve"> on mobile o</tspan><tspan class="cls-29" x="217.32" y="16.8">r</tspan><tspan x="221.9" y="16.8" xml:space="preserve"> desk</tspan><tspan class="cls-20" x="256.63" y="16.8">t</tspan><tspan class="cls-28" x="261.14" y="16.8">op</tspan><tspan class="cls-43" x="278.11" y="16.8"> </tspan><tspan class="cls-16" x="281.3" y="16.8">v</tspan><tspan x="288.51" y="16.8">ersions. It also emp</tspan><tspan class="cls-24" x="412.64" y="16.8">ow</tspan><tspan x="431.82" y="16.8">ers Counselors </tspan><tspan class="cls-21" x="532.23" y="16.8">t</tspan><tspan x="536.74" y="16.8">o cus</tspan><tspan class="cls-20" x="571.46" y="16.8">t</tspan><tspan x="575.97" y="16.8">omi</tspan><tspan class="cls-15" x="600.21" y="16.8">z</tspan><tspan x="606.91" y="16.8">e the </tspan><tspan class="cls-26" x="643.33" y="16.8">e</tspan><tspan x="651.28" y="16.8">xperien</tspan><tspan class="cls-6" x="699.54" y="16.8">c</tspan><tspan x="707.16" y="16.8">e </tspan><tspan class="cls-17" x="718.94" y="16.8">f</tspan><tspan x="723.2" y="16.8">o</tspan><tspan class="cls-29" x="731.53" y="16.8">r</tspan><tspan x="736.11" y="16.8" xml:space="preserve"> each </tspan><tspan x="0" y="33.6">clie</tspan><tspan class="cls-6" x="22.76" y="33.6">n</tspan><tspan x="30.86" y="33.6">t, </tspan><tspan class="cls-16" x="42.27" y="33.6">b</tspan><tspan class="cls-14" x="50.65" y="33.6">y</tspan><tspan x="57.86" y="33.6" xml:space="preserve"> i</tspan><tspan class="cls-6" x="64.48" y="33.6">n</tspan><tspan class="cls-21" x="72.57" y="33.6">t</tspan><tspan x="77.08" y="33.6">eg</tspan><tspan class="cls-18" x="93.95" y="33.6">r</tspan><tspan class="cls-7" x="98.77" y="33.6">a</tspan><tspan x="106.34" y="33.6">ting the p</tspan><tspan class="cls-27" x="167.75" y="33.6">r</tspan><tspan class="cls-24" x="172.3" y="33.6">o</tspan><tspan x="180.36" y="33.6">vision </tspan><tspan class="cls-12" x="220.8" y="33.6">o</tspan><tspan class="cls-13" x="229.02" y="33.6">f</tspan><tspan x="233.35" y="33.6" xml:space="preserve"> one-</tspan><tspan class="cls-20" x="267.54" y="33.6">t</tspan><tspan x="272.04" y="33.6">o-one </tspan><tspan class="cls-6" x="314.56" y="33.6">c</tspan><tspan x="322.18" y="33.6">ounseling</tspan><tspan class="cls-14" x="385.69" y="33.6"> </tspan><tspan x="388.89" y="33.6">with t</tspan><tspan class="cls-18" x="424.43" y="33.6">r</tspan><tspan x="429.25" y="33.6">acking </tspan><tspan class="cls-12" x="475.42" y="33.6">o</tspan><tspan class="cls-13" x="483.64" y="33.6">f</tspan><tspan x="487.96" y="33.6" xml:space="preserve"> financia</tspan><tspan class="cls-8" x="540.91" y="33.6">l</tspan><tspan x="544.28" y="33.6" xml:space="preserve"> p</tspan><tspan class="cls-17" x="556.49" y="33.6">r</tspan><tspan class="cls-35" x="561.04" y="33.6">oduct use, persona</tspan><tspan class="cls-8" x="685.12" y="33.6">l</tspan><tspan x="688.5" y="33.6" xml:space="preserve"> c</tspan><tspan class="cls-17" x="699.75" y="33.6">r</tspan><tspan x="704.3" y="33.6">edit his</tspan><tspan class="cls-21" x="750.57" y="33.6">t</tspan><tspan x="755.08" y="33.6">or</tspan><tspan class="cls-14" x="768.32" y="33.6">y</tspan><tspan x="775.53" y="33.6"> </tspan><tspan x="0" y="50.4">d</tspan><tspan class="cls-7" x="8.71" y="50.4">a</tspan><tspan x="16.28" y="50.4">ta, budg</tspan><tspan class="cls-11" x="69.64" y="50.4">e</tspan><tspan x="77.8" y="50.4">ting, and d</tspan><tspan class="cls-21" x="145.85" y="50.4">a</tspan><tspan class="cls-14" x="153.3" y="50.4">y</tspan><tspan x="160.51" y="50.4"> </tspan><tspan class="cls-20" x="164.08" y="50.4">t</tspan><tspan x="168.59" y="50.4">o d</tspan><tspan class="cls-21" x="189.19" y="50.4">a</tspan><tspan class="cls-14" x="196.64" y="50.4">y</tspan><tspan x="203.85" y="50.4" xml:space="preserve"> action i</tspan><tspan class="cls-20" x="253.59" y="50.4">t</tspan><tspan x="258.1" y="50.4">ems sugges</tspan><tspan class="cls-20" x="337.05" y="50.4">t</tspan><tspan x="341.55" y="50.4">ed </tspan><tspan class="cls-25" x="362.05" y="50.4">b</tspan><tspan class="cls-14" x="370.44" y="50.4">y</tspan><tspan x="377.65" y="50.4" xml:space="preserve"> the Counselors.</tspan><tspan class="cls-5" x="481.82" y="50.4"> </tspan><tspan x="484.99" y="50.4">The pl</tspan><tspan class="cls-7" x="525.93" y="50.4">a</tspan><tspan x="533.5" y="50.4">t</tspan><tspan class="cls-17" x="538.19" y="50.4">f</tspan><tspan x="542.45" y="50.4">orm is also i</tspan><tspan class="cls-6" x="618.78" y="50.4">n</tspan><tspan class="cls-20" x="626.87" y="50.4">t</tspan><tspan x="631.38" y="50.4">eg</tspan><tspan class="cls-18" x="648.25" y="50.4">r</tspan><tspan class="cls-7" x="653.06" y="50.4">a</tspan><tspan class="cls-20" x="660.64" y="50.4">t</tspan><tspan x="665.14" y="50.4">ed</tspan><tspan class="cls-43" x="682.07" y="50.4"> </tspan><tspan x="685.26" y="50.4">with SMS </tspan><tspan class="cls-20" x="748.96" y="50.4">t</tspan><tspan x="753.47" y="50.4">o </tspan><tspan x="0" y="67.2">st</tspan><tspan class="cls-17" x="11.51" y="67.2">r</tspan><tspan x="16.06" y="67.2">eamline and t</tspan><tspan class="cls-18" x="104.34" y="67.2">r</tspan><tspan x="109.16" y="67.2">ack </tspan><tspan class="cls-6" x="135.46" y="67.2">c</tspan><tspan x="143.08" y="67.2">ommunic</tspan><tspan class="cls-7" x="204.36" y="67.2">a</tspan><tspan x="211.93" y="67.2">tion</tspan><tspan class="cls-14" x="236.16" y="67.2"> </tspan><tspan x="239.35" y="67.2">with clie</tspan><tspan class="cls-6" x="292.97" y="67.2">n</tspan><tspan x="301.07" y="67.2">ts.</tspan></text><text class="cls-44" transform="translate(144.62 114.68) scale(1.05 1)"><tspan class="cls-45">B</tspan><tspan class="cls-46" x="16.18" y="0">U</tspan><tspan class="cls-47" x="34.19" y="0">I</tspan><tspan class="cls-48" x="41.01" y="0">L</tspan><tspan x="54.66" y="0">D</tspan><tspan class="cls-47" x="71.85" y="0">I</tspan><tspan class="cls-49" x="78.67" y="0">N</tspan><tspan x="96.96" y="0">G </tspan><tspan class="cls-50" x="120.12" y="0">T</tspan><tspan class="cls-51" x="134.56" y="0">H</tspan><tspan class="cls-52" x="152.4" y="0">E D</tspan><tspan class="cls-53" x="189.77" y="0">I</tspan><tspan class="cls-54" x="196.61" y="0">G</tspan><tspan class="cls-55" x="214.21" y="0">I</tspan><tspan class="cls-56" x="220.67" y="0">T</tspan><tspan class="cls-57" x="233.3" y="0">A</tspan><tspan x="249.15" y="0">L </tspan><tspan class="cls-58" x="268.93" y="0">P</tspan><tspan class="cls-59" x="282.49" y="0">A</tspan><tspan class="cls-50" x="296.42" y="0">T</tspan><tspan class="cls-60" x="310.86" y="0">H</tspan><tspan class="cls-61" x="328.5" y="0">W</tspan><tspan class="cls-62" x="352.17" y="0">A</tspan><tspan class="cls-52" x="366.28" y="0">Y </tspan><tspan class="cls-63" x="387.88" y="0">T</tspan><tspan x="402" y="0">O </tspan><tspan class="cls-64" x="425.9" y="0">F</tspan><tspan class="cls-65" x="439.35" y="0">I</tspan><tspan class="cls-66" x="446.18" y="0">N</tspan><tspan class="cls-57" x="464.18" y="0">A</tspan><tspan class="cls-67" x="480.03" y="0">N</tspan><tspan class="cls-45" x="498.29" y="0">C</tspan><tspan class="cls-68" x="514.62" y="0">I</tspan><tspan class="cls-69" x="521.19" y="0">A</tspan><tspan class="cls-52" x="537.04" y="0">L </tspan><tspan class="cls-70" x="556.81" y="0">E</tspan><tspan class="cls-51" x="571.34" y="0">M</tspan><tspan class="cls-71" x="592.06" y="0">P</tspan><tspan class="cls-72" x="606.94" y="0">O</tspan><tspan class="cls-73" x="624.1" y="0">W</tspan><tspan class="cls-74" x="649.14" y="0">E</tspan><tspan class="cls-75" x="663.67" y="0">R</tspan><tspan class="cls-51" x="679.52" y="0">M</tspan><tspan class="cls-74" x="700.23" y="0">E</tspan><tspan class="cls-50" x="714.76" y="0">N</tspan><tspan x="732.66" y="0">T @ </tspan><tspan class="cls-76" x="779.31" y="0">N</tspan><tspan class="cls-77" x="797.58" y="0">F</tspan><tspan class="cls-78" x="810.69" y="0">C</tspan><tspan class="cls-76" x="826.96" y="0">D</tspan><tspan class="cls-79" x="844.1" y="0">C</tspan><tspan x="860.23" y="0">U</tspan></text><text class="cls-80" transform="translate(142.62 112.68) scale(1.05 1)"><tspan class="cls-45">B</tspan><tspan class="cls-46" x="16.18" y="0">U</tspan><tspan class="cls-47" x="34.19" y="0">I</tspan><tspan class="cls-48" x="41.01" y="0">L</tspan><tspan x="54.66" y="0">D</tspan><tspan class="cls-47" x="71.85" y="0">I</tspan><tspan class="cls-49" x="78.67" y="0">N</tspan><tspan x="96.96" y="0">G </tspan><tspan class="cls-50" x="120.12" y="0">T</tspan><tspan class="cls-51" x="134.56" y="0">H</tspan><tspan class="cls-52" x="152.4" y="0">E D</tspan><tspan class="cls-53" x="189.77" y="0">I</tspan><tspan class="cls-54" x="196.61" y="0">G</tspan><tspan class="cls-55" x="214.21" y="0">I</tspan><tspan class="cls-56" x="220.67" y="0">T</tspan><tspan class="cls-57" x="233.3" y="0">A</tspan><tspan x="249.15" y="0">L </tspan><tspan class="cls-58" x="268.93" y="0">P</tspan><tspan class="cls-59" x="282.49" y="0">A</tspan><tspan class="cls-50" x="296.42" y="0">T</tspan><tspan class="cls-60" x="310.86" y="0">H</tspan><tspan class="cls-61" x="328.5" y="0">W</tspan><tspan class="cls-62" x="352.17" y="0">A</tspan><tspan class="cls-52" x="366.28" y="0">Y </tspan><tspan class="cls-63" x="387.88" y="0">T</tspan><tspan x="402" y="0">O </tspan><tspan class="cls-64" x="425.9" y="0">F</tspan><tspan class="cls-65" x="439.35" y="0">I</tspan><tspan class="cls-66" x="446.18" y="0">N</tspan><tspan class="cls-57" x="464.18" y="0">A</tspan><tspan class="cls-67" x="480.03" y="0">N</tspan><tspan class="cls-45" x="498.29" y="0">C</tspan><tspan class="cls-68" x="514.62" y="0">I</tspan><tspan class="cls-69" x="521.19" y="0">A</tspan><tspan class="cls-52" x="537.04" y="0">L </tspan><tspan class="cls-70" x="556.81" y="0">E</tspan><tspan class="cls-51" x="571.34" y="0">M</tspan><tspan class="cls-71" x="592.06" y="0">P</tspan><tspan class="cls-72" x="606.94" y="0">O</tspan><tspan class="cls-73" x="624.1" y="0">W</tspan><tspan class="cls-74" x="649.14" y="0">E</tspan><tspan class="cls-75" x="663.67" y="0">R</tspan><tspan class="cls-51" x="679.52" y="0">M</tspan><tspan class="cls-74" x="700.23" y="0">E</tspan><tspan class="cls-50" x="714.76" y="0">N</tspan><tspan x="732.66" y="0">T @ </tspan><tspan class="cls-76" x="779.31" y="0">N</tspan><tspan class="cls-77" x="797.58" y="0">F</tspan><tspan class="cls-78" x="810.69" y="0">C</tspan><tspan class="cls-76" x="826.96" y="0">D</tspan><tspan class="cls-79" x="844.1" y="0">C</tspan><tspan x="860.23" y="0">U</tspan></text></g></g></svg>