<svg xmlns="http://www.w3.org/2000/svg" viewBox="0 0 911.82 1007.5"><defs><style>.cls-1{fill:#fff;}.cls-2{fill:#fcf169;}.cls-3{fill:#63cdf4;}.cls-4{font-size:21px;font-family:Raleway-Regular, Raleway;}.cls-5{letter-spacing:-0.03em;}.cls-6{letter-spacing:0em;}.cls-7{letter-spacing:0em;}.cls-8{letter-spacing:0em;}.cls-9{letter-spacing:-0.03em;}.cls-10{letter-spacing:-0.03em;}.cls-11{letter-spacing:-0.01em;}.cls-12{letter-spacing:-0.01em;}.cls-13{letter-spacing:-0.02em;}.cls-14{letter-spacing:-0.03em;}.cls-15{letter-spacing:-0.01em;}.cls-16{letter-spacing:-0.02em;}.cls-17{letter-spacing:0em;}.cls-18{letter-spacing:-0.03em;}.cls-19{letter-spacing:-0.01em;}.cls-20{letter-spacing:-0.03em;}.cls-21{letter-spacing:-0.11em;}.cls-22{letter-spacing:-0.03em;}.cls-23{letter-spacing:-0.01em;}.cls-24{letter-spacing:0em;}.cls-25{letter-spacing:-0.01em;}.cls-26{letter-spacing:-0.01em;}.cls-27{letter-spacing:-0.02em;}.cls-28{letter-spacing:-0.02em;}.cls-29{letter-spacing:-0.02em;}.cls-30{letter-spacing:-0.01em;}.cls-31{letter-spacing:-0.05em;}.cls-32{letter-spacing:-0.01em;}.cls-33{letter-spacing:-0.03em;}.cls-34{letter-spacing:-0.03em;}.cls-35{letter-spacing:-0.01em;}.cls-36{letter-spacing:0em;}.cls-37{letter-spacing:-0.02em;}.cls-38{letter-spacing:-0.06em;}.cls-39{letter-spacing:-0.01em;}.cls-40{letter-spacing:-0.02em;}.cls-41{letter-spacing:-0.01em;}.cls-42,.cls-82{font-size:30px;font-family:Raleway-Bold, Raleway;font-weight:700;}.cls-42{fill:#b1b1b1;}.cls-43{letter-spacing:-0.01em;}.cls-44{letter-spacing:0em;}.cls-45{letter-spacing:0em;}.cls-46{letter-spacing:-0.02em;}.cls-47{letter-spacing:0em;}.cls-48{letter-spacing:0em;}.cls-49{letter-spacing:-0.02em;}.cls-50{letter-spacing:0em;}.cls-51{letter-spacing:0em;}.cls-52{letter-spacing:0.01em;}.cls-53{letter-spacing:-0.02em;}.cls-54{letter-spacing:-0.1em;}.cls-55{letter-spacing:-0.01em;}.cls-56{letter-spacing:0em;}.cls-57{letter-spacing:-0.06em;}.cls-58{letter-spacing:-0.09em;}.cls-59{letter-spacing:-0.02em;}.cls-60{letter-spacing:-0.01em;}.cls-61{letter-spacing:-0.07em;}.cls-62{letter-spacing:-0.09em;}.cls-63{letter-spacing:-0.03em;}.cls-64{letter-spacing:0em;}.cls-65{letter-spacing:-0.02em;}.cls-66{letter-spacing:-0.01em;}.cls-67{letter-spacing:-0.01em;}.cls-68{letter-spacing:0em;}.cls-69{letter-spacing:-0.01em;}.cls-70{letter-spacing:-0.01em;}.cls-71{letter-spacing:0em;}.cls-72{letter-spacing:0em;}.cls-73{letter-spacing:-0.04em;}.cls-74{letter-spacing:-0.01em;}.cls-75{letter-spacing:0em;}.cls-76{letter-spacing:-0.01em;}.cls-77{letter-spacing:0em;}.cls-78{letter-spacing:-0.03em;}.cls-79{letter-spacing:-0.01em;}.cls-80{letter-spacing:0em;}.cls-81{letter-spacing:-0.02em;}</style></defs><title>nfcdcu900</title><g id="Layer_2" data-name="Layer 2"><g id="Layer_1-2" data-name="Layer 1"><rect class="cls-1" width="911.82" height="1007.5"/><rect class="cls-2" x="119.3" y="203.8" width="718.96" height="286.37"/><rect class="cls-3" x="93.43" y="171.88" width="716.8" height="291.42"/><text class="cls-4" transform="translate(126.26 240.26)">In 2015,<tspan class="cls-5" x="71.76" y="0"> </tspan><tspan x="76.52" y="0">The </tspan><tspan class="cls-6" x="119.26" y="0">N</tspan><tspan class="cls-7" x="135.36" y="0">a</tspan><tspan class="cls-8" x="146.73" y="0">tiona</tspan><tspan class="cls-9" x="194.52" y="0">l</tspan><tspan x="199.58" y="0"> </tspan><tspan class="cls-10" x="204.94" y="0">F</tspan><tspan x="216.59" y="0">ede</tspan><tspan class="cls-11" x="254.31" y="0">r</tspan><tspan class="cls-7" x="261.53" y="0">a</tspan><tspan x="272.89" y="0">tion </tspan><tspan class="cls-12" x="314.6" y="0">o</tspan><tspan class="cls-13" x="326.92" y="0">f</tspan><tspan x="333.41" y="0" xml:space="preserve"> Communit</tspan><tspan class="cls-14" x="440.59" y="0">y</tspan><tspan x="451.41" y="0" xml:space="preserve"> D</tspan><tspan class="cls-15" x="471.78" y="0">e</tspan><tspan class="cls-16" x="483.81" y="0">v</tspan><tspan x="494.63" y="0">elopme</tspan><tspan class="cls-17" x="569.74" y="0">n</tspan><tspan x="581.88" y="0">t C</tspan><tspan class="cls-18" x="608.68" y="0">r</tspan><tspan x="615.5" y="0">edit </tspan><tspan x="0" y="25.2">Unions and </tspan><tspan class="cls-19" x="115.1" y="25.2">N</tspan><tspan x="131.16" y="25.2">eighborhood</tspan><tspan class="cls-20" x="256.41" y="25.2"> </tspan><tspan class="cls-21" x="261.17" y="25.2">T</tspan><tspan x="271.67" y="25.2">rust Financia</tspan><tspan class="cls-22" x="394.56" y="25.2">l</tspan><tspan x="399.62" y="25.2"> </tspan><tspan class="cls-17" x="404.98" y="25.2">P</tspan><tspan x="417.94" y="25.2">artners </tspan><tspan class="cls-23" x="491.31" y="25.2">t</tspan><tspan x="498.07" y="25.2">eamed up </tspan><tspan class="cls-23" x="602.67" y="25.2">t</tspan><tspan x="609.43" y="25.2">o </tspan><tspan x="0" y="50.4">launch </tspan><tspan class="cls-17" x="71" y="50.4">P</tspan><tspan class="cls-24" x="83.96" y="50.4">a</tspan><tspan x="95.32" y="50.4">t</tspan><tspan class="cls-15" x="102.35" y="50.4">h</tspan><tspan class="cls-23" x="114.3" y="50.4">wa</tspan><tspan class="cls-25" x="142.27" y="50.4">y</tspan><tspan x="153.4" y="50.4">s </tspan><tspan class="cls-23" x="168.99" y="50.4">t</tspan><tspan x="175.75" y="50.4">o Financia</tspan><tspan class="cls-22" x="274.03" y="50.4">l</tspan><tspan x="279.09" y="50.4"> </tspan><tspan class="cls-26" x="284.44" y="50.4">E</tspan><tspan x="297.1" y="50.4">mp</tspan><tspan class="cls-27" x="329.36" y="50.4">ow</tspan><tspan x="358.13" y="50.4">erme</tspan><tspan class="cls-17" x="409.45" y="50.4">n</tspan><tspan x="421.59" y="50.4">t, an initi</tspan><tspan class="cls-24" x="500.76" y="50.4">a</tspan><tspan x="512.12" y="50.4">ti</tspan><tspan class="cls-16" x="523.73" y="50.4">v</tspan><tspan x="534.55" y="50.4">e designed </tspan><tspan class="cls-23" x="0" y="75.6">t</tspan><tspan x="6.76" y="75.6">o guide l</tspan><tspan class="cls-27" x="91.1" y="75.6">o</tspan><tspan class="cls-14" x="103.19" y="75.6">w</tspan><tspan x="119.7" y="75.6" xml:space="preserve"> in</tspan><tspan class="cls-17" x="141.87" y="75.6">c</tspan><tspan x="153.3" y="75.6">ome clie</tspan><tspan class="cls-17" x="236.92" y="75.6">n</tspan><tspan x="249.06" y="75.6">ts </tspan><tspan class="cls-23" x="271.67" y="75.6">t</tspan><tspan x="278.43" y="75.6">o financia</tspan><tspan class="cls-22" x="370.35" y="75.6">l</tspan><tspan x="375.41" y="75.6" xml:space="preserve"> securit</tspan><tspan class="cls-14" x="446.31" y="75.6">y</tspan><tspan x="457.12" y="75.6" xml:space="preserve"> th</tspan><tspan class="cls-18" x="481.75" y="75.6">r</tspan><tspan x="488.58" y="75.6">ough one-</tspan><tspan class="cls-23" x="590.05" y="75.6">t</tspan><tspan x="596.81" y="75.6">o-one </tspan><tspan class="cls-17" x="0" y="100.8">c</tspan><tspan x="11.42" y="100.8">ounseling. Fi</tspan><tspan class="cls-28" x="132.97" y="100.8">v</tspan><tspan x="143.78" y="100.8">e particip</tspan><tspan class="cls-7" x="233.92" y="100.8">a</tspan><tspan class="cls-8" x="245.28" y="100.8">ting C</tspan><tspan class="cls-18" x="301.87" y="100.8">r</tspan><tspan x="308.7" y="100.8">edit Unions</tspan><tspan class="cls-14" x="418.69" y="100.8"> </tspan><tspan class="cls-27" x="423.48" y="100.8">w</tspan><tspan x="440.15" y="100.8">e</tspan><tspan class="cls-18" x="452.48" y="100.8">r</tspan><tspan x="459.3" y="100.8">e selec</tspan><tspan class="cls-23" x="529.11" y="100.8">t</tspan><tspan x="535.87" y="100.8">ed </tspan><tspan class="cls-18" x="566.61" y="100.8">f</tspan><tspan x="573" y="100.8">o</tspan><tspan class="cls-29" x="585.49" y="100.8">r</tspan><tspan x="592.36" y="100.8" xml:space="preserve"> the </tspan><tspan x="0" y="126">pil</tspan><tspan class="cls-19" x="23.25" y="126">o</tspan><tspan x="35.59" y="126">t,</tspan><tspan class="cls-14" x="47.35" y="126"> </tspan><tspan x="52.14" y="126">with a plan </tspan><tspan class="cls-23" x="162.94" y="126">t</tspan><tspan x="169.7" y="126">o </tspan><tspan class="cls-18" x="187.55" y="126">r</tspan><tspan x="194.37" y="126">ol</tspan><tspan class="cls-22" x="212.58" y="126">l</tspan><tspan x="217.64" y="126" xml:space="preserve"> the p</tspan><tspan class="cls-18" x="272.91" y="126">r</tspan><tspan x="279.74" y="126">oject out </tspan><tspan class="cls-23" x="370.56" y="126">t</tspan><tspan x="377.32" y="126">o Communit</tspan><tspan class="cls-14" x="497" y="126">y</tspan><tspan x="507.81" y="126" xml:space="preserve"> D</tspan><tspan class="cls-30" x="528.18" y="126">e</tspan><tspan class="cls-28" x="540.22" y="126">v</tspan><tspan x="551.03" y="126">elopme</tspan><tspan class="cls-17" x="626.15" y="126">n</tspan><tspan x="638.28" y="126">t </tspan><tspan x="0" y="151.2">C</tspan><tspan class="cls-18" x="14.41" y="151.2">r</tspan><tspan x="21.23" y="151.2">edit Unions ac</tspan><tspan class="cls-18" x="159.56" y="151.2">r</tspan><tspan x="166.38" y="151.2">oss the </tspan><tspan class="cls-6" x="241.64" y="151.2">c</tspan><tspan x="253.07" y="151.2">ou</tspan><tspan class="cls-17" x="278.04" y="151.2">n</tspan><tspan x="290.17" y="151.2">tr</tspan><tspan class="cls-31" x="304.58" y="151.2">y</tspan><tspan x="314.95" y="151.2">.</tspan></text><text class="cls-4" transform="translate(124.66 591.31)"><tspan class="cls-22">A</tspan><tspan x="13.54" y="0" xml:space="preserve"> guiding principle </tspan><tspan class="cls-32" x="186.75" y="0">o</tspan><tspan class="cls-13" x="199.08" y="0">f</tspan><tspan x="205.56" y="0" xml:space="preserve"> this p</tspan><tspan class="cls-33" x="263.31" y="0">r</tspan><tspan x="270.14" y="0">oject, and </tspan><tspan class="cls-34" x="370.43" y="0">k</tspan><tspan class="cls-15" x="381" y="0">e</tspan><tspan class="cls-14" x="393.03" y="0">y</tspan><tspan x="403.84" y="0"> </tspan><tspan class="cls-23" x="409.2" y="0">t</tspan><tspan x="415.96" y="0">o its ultim</tspan><tspan class="cls-24" x="510.1" y="0">a</tspan><tspan class="cls-23" x="521.46" y="0">t</tspan><tspan x="528.22" y="0">e su</tspan><tspan class="cls-17" x="568.61" y="0">cc</tspan><tspan x="591.46" y="0">ess, </tspan><tspan class="cls-23" x="0" y="25.2">w</tspan><tspan x="16.8" y="25.2">as its sponsor</tspan><tspan class="cls-35" x="149.04" y="25.2">s</tspan><tspan class="cls-14" x="159.07" y="25.2">’</tspan><tspan x="162.5" y="25.2"> </tspan><tspan class="cls-17" x="167.85" y="25.2">c</tspan><tspan x="179.28" y="25.2">ommitme</tspan><tspan class="cls-17" x="273.61" y="25.2">n</tspan><tspan x="285.74" y="25.2">t </tspan><tspan class="cls-23" x="298.13" y="25.2">t</tspan><tspan x="304.9" y="25.2">o using the best </tspan><tspan class="cls-23" x="465.46" y="25.2">t</tspan><tspan x="472.22" y="25.2">echnolog</tspan><tspan class="cls-14" x="564.24" y="25.2">y</tspan><tspan x="575.06" y="25.2"> </tspan><tspan class="cls-15" x="0" y="50.4">a</tspan><tspan class="cls-23" x="11.15" y="50.4">v</tspan><tspan class="cls-36" x="22.07" y="50.4">ailable </tspan><tspan class="cls-23" x="91.6" y="50.4">t</tspan><tspan x="98.36" y="50.4">o </tspan><tspan class="cls-27" x="116.21" y="50.4">e</tspan><tspan class="cls-37" x="128.14" y="50.4">x</tspan><tspan x="138.26" y="50.4">ecu</tspan><tspan class="cls-23" x="174.59" y="50.4">t</tspan><tspan x="181.35" y="50.4">e thei</tspan><tspan class="cls-29" x="235.22" y="50.4">r</tspan><tspan x="242.09" y="50.4" xml:space="preserve"> mission. </tspan><tspan class="cls-17" x="330.41" y="50.4">N</tspan><tspan class="cls-24" x="346.52" y="50.4">a</tspan><tspan x="357.88" y="50.4">tiona</tspan><tspan class="cls-22" x="405.67" y="50.4">l</tspan><tspan x="410.73" y="50.4"> </tspan><tspan class="cls-10" x="416.09" y="50.4">F</tspan><tspan x="427.74" y="50.4">ede</tspan><tspan class="cls-19" x="465.46" y="50.4">r</tspan><tspan class="cls-24" x="472.68" y="50.4">a</tspan><tspan x="484.04" y="50.4">tion and </tspan><tspan class="cls-19" x="0" y="75.6">N</tspan><tspan x="16.06" y="75.6">eighborhood</tspan><tspan class="cls-20" x="141.31" y="75.6"> </tspan><tspan class="cls-21" x="146.07" y="75.6">T</tspan><tspan x="156.57" y="75.6">rust</tspan><tspan class="cls-14" x="193.68" y="75.6"> </tspan><tspan class="cls-27" x="198.47" y="75.6">w</tspan><tspan x="215.14" y="75.6">or</tspan><tspan class="cls-14" x="235.01" y="75.6">k</tspan><tspan x="245.57" y="75.6">ed</tspan><tspan class="cls-14" x="270.96" y="75.6"> </tspan><tspan x="275.75" y="75.6">with</tspan><tspan class="cls-10" x="316.67" y="75.6"> </tspan><tspan class="cls-38" x="321.32" y="75.6">Y</tspan><tspan x="333.64" y="75.6">u</tspan><tspan class="cls-33" x="346.12" y="75.6">r</tspan><tspan x="352.94" y="75.6">gosk</tspan><tspan class="cls-34" x="399.77" y="75.6">y</tspan><tspan x="410.59" y="75.6"> </tspan><tspan class="cls-23" x="415.94" y="75.6">t</tspan><tspan x="422.7" y="75.6">o design a </tspan><tspan class="cls-6" x="528.12" y="75.6">c</tspan><tspan x="539.55" y="75.6">ompl</tspan><tspan class="cls-7" x="590.01" y="75.6">e</tspan><tspan class="cls-23" x="602.25" y="75.6">t</tspan><tspan x="609.01" y="75.6">e</tspan><tspan class="cls-39" x="621.34" y="75.6">l</tspan><tspan class="cls-14" x="626.82" y="75.6">y</tspan><tspan x="637.64" y="75.6"> </tspan><tspan x="0" y="100.8">digita</tspan><tspan class="cls-22" x="53.68" y="100.8">l</tspan><tspan x="58.74" y="100.8" xml:space="preserve"> financia</tspan><tspan class="cls-9" x="138.16" y="100.8">l</tspan><tspan x="143.22" y="100.8"> </tspan><tspan class="cls-6" x="148.57" y="100.8">c</tspan><tspan x="160" y="100.8">ounseling pl</tspan><tspan class="cls-7" x="279.3" y="100.8">a</tspan><tspan x="290.66" y="100.8">t</tspan><tspan class="cls-33" x="297.69" y="100.8">f</tspan><tspan x="304.08" y="100.8">orm built on Sales</tspan><tspan class="cls-18" x="479.25" y="100.8">f</tspan><tspan x="485.64" y="100.8">o</tspan><tspan class="cls-18" x="498.13" y="100.8">r</tspan><tspan class="cls-17" x="504.96" y="100.8">c</tspan><tspan x="516.38" y="100.8">e </tspan><tspan class="cls-23" x="534.06" y="100.8">t</tspan><tspan x="540.83" y="100.8">echnolog</tspan><tspan class="cls-31" x="632.85" y="100.8">y</tspan><tspan x="643.22" y="100.8">.</tspan></text><text class="cls-4" transform="translate(124.66 779.72)">Ou<tspan class="cls-29" x="28.24" y="0">r</tspan><tspan x="35.11" y="0" xml:space="preserve"> p</tspan><tspan class="cls-18" x="53.42" y="0">r</tspan><tspan x="60.25" y="0">oduct guides Counselors th</tspan><tspan class="cls-33" x="327.81" y="0">r</tspan><tspan x="334.63" y="0">ough fl</tspan><tspan class="cls-27" x="402.42" y="0">o</tspan><tspan class="cls-23" x="414.51" y="0">w</tspan><tspan x="431.31" y="0">s designed </tspan><tspan class="cls-23" x="543.05" y="0">t</tspan><tspan x="549.81" y="0">o o</tspan><tspan class="cls-19" x="580.16" y="0">p</tspan><tspan x="592.97" y="0">timi</tspan><tspan class="cls-30" x="628.46" y="0">z</tspan><tspan x="638.5" y="0">e </tspan><tspan x="0" y="25.2">the clie</tspan><tspan class="cls-17" x="71.1" y="25.2">n</tspan><tspan x="83.24" y="25.2">t </tspan><tspan class="cls-27" x="95.63" y="25.2">e</tspan><tspan x="107.56" y="25.2">xperien</tspan><tspan class="cls-17" x="179.95" y="25.2">c</tspan><tspan x="191.37" y="25.2">e f</tspan><tspan class="cls-33" x="215.98" y="25.2">r</tspan><tspan x="222.81" y="25.2">om end-</tspan><tspan class="cls-23" x="306.45" y="25.2">t</tspan><tspan x="313.21" y="25.2">o-end and st</tspan><tspan class="cls-18" x="436.92" y="25.2">r</tspan><tspan x="443.75" y="25.2">eamline d</tspan><tspan class="cls-24" x="540.09" y="25.2">a</tspan><tspan x="551.45" y="25.2">ta e</tspan><tspan class="cls-17" x="587.61" y="25.2">n</tspan><tspan x="599.75" y="25.2">tr</tspan><tspan class="cls-14" x="614.16" y="25.2">y</tspan><tspan x="624.97" y="25.2" xml:space="preserve"> on </tspan><tspan x="0" y="50.4">mobile o</tspan><tspan class="cls-29" x="85.22" y="50.4">r</tspan><tspan x="92.08" y="50.4" xml:space="preserve"> desk</tspan><tspan class="cls-23" x="144.18" y="50.4">t</tspan><tspan x="150.95" y="50.4">op</tspan><tspan class="cls-14" x="176.4" y="50.4"> </tspan><tspan class="cls-16" x="181.18" y="50.4">v</tspan><tspan x="192" y="50.4">ersions. It also emp</tspan><tspan class="cls-40" x="378.2" y="50.4">ow</tspan><tspan x="406.97" y="50.4">ers Counselors </tspan><tspan class="cls-41" x="557.58" y="50.4">t</tspan><tspan x="564.35" y="50.4">o </tspan><tspan x="0" y="75.6">cus</tspan><tspan class="cls-23" x="34.23" y="75.6">t</tspan><tspan x="40.99" y="75.6">omi</tspan><tspan class="cls-15" x="77.36" y="75.6">z</tspan><tspan class="cls-36" x="87.4" y="75.6">e the </tspan><tspan class="cls-27" x="142.04" y="75.6">e</tspan><tspan x="153.97" y="75.6">xperien</tspan><tspan class="cls-17" x="226.36" y="75.6">c</tspan><tspan x="237.78" y="75.6">e </tspan><tspan class="cls-18" x="255.46" y="75.6">f</tspan><tspan x="261.85" y="75.6">o</tspan><tspan class="cls-29" x="274.34" y="75.6">r</tspan><tspan x="281.21" y="75.6" xml:space="preserve"> each clie</tspan><tspan class="cls-17" x="373.61" y="75.6">n</tspan><tspan x="385.74" y="75.6">t, </tspan><tspan class="cls-28" x="402.86" y="75.6">b</tspan><tspan class="cls-14" x="415.44" y="75.6">y</tspan><tspan x="426.25" y="75.6" xml:space="preserve"> i</tspan><tspan class="cls-17" x="436.18" y="75.6">n</tspan><tspan class="cls-23" x="448.32" y="75.6">t</tspan><tspan x="455.08" y="75.6">eg</tspan><tspan class="cls-19" x="480.39" y="75.6">r</tspan><tspan class="cls-24" x="487.61" y="75.6">a</tspan><tspan x="498.98" y="75.6">ting the </tspan><tspan x="0" y="100.8">p</tspan><tspan class="cls-18" x="12.96" y="100.8">r</tspan><tspan class="cls-27" x="19.78" y="100.8">o</tspan><tspan x="31.88" y="100.8">vision </tspan><tspan class="cls-12" x="92.55" y="100.8">o</tspan><tspan class="cls-13" x="104.87" y="100.8">f</tspan><tspan x="111.36" y="100.8" xml:space="preserve"> one-</tspan><tspan class="cls-23" x="162.64" y="100.8">t</tspan><tspan x="169.4" y="100.8">o-one </tspan><tspan class="cls-17" x="233.18" y="100.8">c</tspan><tspan x="244.6" y="100.8">ounseling</tspan><tspan class="cls-14" x="339.88" y="100.8"> </tspan><tspan x="344.67" y="100.8">with t</tspan><tspan class="cls-19" x="397.99" y="100.8">r</tspan><tspan x="405.21" y="100.8">acking </tspan><tspan class="cls-12" x="474.47" y="100.8">o</tspan><tspan class="cls-13" x="486.79" y="100.8">f</tspan><tspan x="493.28" y="100.8" xml:space="preserve"> financia</tspan><tspan class="cls-9" x="572.7" y="100.8">l</tspan><tspan class="cls-8" x="577.76" y="100.8" xml:space="preserve"> p</tspan><tspan class="cls-33" x="596.08" y="100.8">r</tspan><tspan x="602.9" y="100.8">oduct </tspan><tspan x="0" y="126">use, persona</tspan><tspan class="cls-22" x="124.17" y="126">l</tspan><tspan x="129.23" y="126" xml:space="preserve"> c</tspan><tspan class="cls-18" x="146.12" y="126">r</tspan><tspan x="152.94" y="126">edit his</tspan><tspan class="cls-23" x="222.34" y="126">t</tspan><tspan x="229.11" y="126">or</tspan><tspan class="cls-14" x="248.97" y="126">y</tspan><tspan x="259.79" y="126" xml:space="preserve"> d</tspan><tspan class="cls-24" x="278.2" y="126">a</tspan><tspan class="cls-36" x="289.56" y="126">ta, budg</tspan><tspan class="cls-24" x="369.6" y="126">e</tspan><tspan x="381.84" y="126">ting, and d</tspan><tspan class="cls-23" x="483.92" y="126">a</tspan><tspan class="cls-14" x="495.09" y="126">y</tspan><tspan x="505.9" y="126"> </tspan><tspan class="cls-23" x="511.26" y="126">t</tspan><tspan x="518.02" y="126">o d</tspan><tspan class="cls-23" x="548.93" y="126">a</tspan><tspan class="cls-14" x="560.11" y="126">y</tspan><tspan x="570.92" y="126" xml:space="preserve"> action </tspan><tspan x="0" y="151.2">i</tspan><tspan class="cls-23" x="4.58" y="151.2">t</tspan><tspan x="11.34" y="151.2">ems sugges</tspan><tspan class="cls-23" x="129.76" y="151.2">t</tspan><tspan x="136.52" y="151.2">ed </tspan><tspan class="cls-16" x="167.26" y="151.2">b</tspan><tspan class="cls-14" x="179.84" y="151.2">y</tspan><tspan x="190.66" y="151.2" xml:space="preserve"> the Counselors.</tspan><tspan class="cls-20" x="346.92" y="151.2"> </tspan><tspan x="351.68" y="151.2">The pl</tspan><tspan class="cls-7" x="413.09" y="151.2">a</tspan><tspan x="424.45" y="151.2">t</tspan><tspan class="cls-33" x="431.48" y="151.2">f</tspan><tspan x="437.87" y="151.2">orm is also i</tspan><tspan class="cls-17" x="552.35" y="151.2">n</tspan><tspan class="cls-23" x="564.49" y="151.2">t</tspan><tspan x="571.26" y="151.2">eg</tspan><tspan class="cls-19" x="596.56" y="151.2">r</tspan><tspan class="cls-24" x="603.78" y="151.2">a</tspan><tspan class="cls-23" x="615.15" y="151.2">t</tspan><tspan x="621.91" y="151.2">ed </tspan><tspan x="0" y="176.4">with SMS </tspan><tspan class="cls-23" x="95.55" y="176.4">t</tspan><tspan x="102.31" y="176.4">o st</tspan><tspan class="cls-18" x="137.42" y="176.4">r</tspan><tspan x="144.25" y="176.4">eamline and t</tspan><tspan class="cls-19" x="276.67" y="176.4">r</tspan><tspan x="283.9" y="176.4">ack </tspan><tspan class="cls-17" x="323.35" y="176.4">c</tspan><tspan x="334.78" y="176.4">ommunic</tspan><tspan class="cls-24" x="426.69" y="176.4">a</tspan><tspan x="438.05" y="176.4">tion</tspan><tspan class="cls-14" x="474.4" y="176.4"> </tspan><tspan x="479.19" y="176.4">with clie</tspan><tspan class="cls-17" x="559.62" y="176.4">n</tspan><tspan x="571.76" y="176.4">ts.</tspan></text><text class="cls-42" transform="translate(90.64 67.09) scale(1.05 1)"><tspan class="cls-43">B</tspan><tspan class="cls-44" x="20.17" y="0">U</tspan><tspan class="cls-45" x="42.63" y="0">I</tspan><tspan class="cls-46" x="51.11" y="0">L</tspan><tspan class="cls-47" x="68.12" y="0">D</tspan><tspan class="cls-45" x="89.55" y="0">I</tspan><tspan class="cls-48" x="98.03" y="0">N</tspan><tspan x="120.84" y="0">G </tspan><tspan class="cls-49" x="149.79" y="0">T</tspan><tspan class="cls-50" x="167.79" y="0">H</tspan><tspan x="190.04" y="0">E </tspan><tspan class="cls-51" x="215.27" y="0">D</tspan><tspan class="cls-48" x="236.7" y="0">I</tspan><tspan class="cls-52" x="245.2" y="0">G</tspan><tspan class="cls-53" x="267.15" y="0">I</tspan><tspan class="cls-54" x="275.17" y="0">T</tspan><tspan class="cls-55" x="290.88" y="0">A</tspan><tspan class="cls-56" x="310.64" y="0">L </tspan><tspan class="cls-57" x="335.36" y="0">P</tspan><tspan class="cls-58" x="352.24" y="0">A</tspan><tspan class="cls-59" x="369.57" y="0">T</tspan><tspan class="cls-60" x="387.57" y="0">H</tspan><tspan class="cls-61" x="409.56" y="0">W</tspan><tspan class="cls-62" x="439.09" y="0">A</tspan><tspan class="cls-56" x="456.64" y="0">Y </tspan><tspan class="cls-63" x="483.64" y="0">T</tspan><tspan class="cls-64" x="501.23" y="0">O </tspan><tspan class="cls-65" x="531.11" y="0">F</tspan><tspan class="cls-45" x="547.87" y="0">I</tspan><tspan class="cls-66" x="556.35" y="0">N</tspan><tspan class="cls-67" x="578.81" y="0">A</tspan><tspan class="cls-68" x="598.56" y="0">N</tspan><tspan class="cls-69" x="621.33" y="0">C</tspan><tspan class="cls-70" x="641.69" y="0">I</tspan><tspan class="cls-55" x="649.85" y="0">A</tspan><tspan class="cls-56" x="669.61" y="0">L</tspan><tspan class="cls-71" x="143.08" y="36">E</tspan><tspan class="cls-50" x="161.18" y="36">M</tspan><tspan class="cls-72" x="187.03" y="36">P</tspan><tspan class="cls-73" x="205.58" y="36">O</tspan><tspan class="cls-74" x="226.97" y="36">W</tspan><tspan class="cls-75" x="258.22" y="36">E</tspan><tspan class="cls-76" x="276.33" y="36">R</tspan><tspan class="cls-77" x="296.08" y="36">M</tspan><tspan class="cls-71" x="321.93" y="36">E</tspan><tspan class="cls-59" x="340.04" y="36">N</tspan><tspan x="362.35" y="36">T @ </tspan><tspan class="cls-77" x="420.67" y="36">N</tspan><tspan class="cls-78" x="443.46" y="36">F</tspan><tspan class="cls-79" x="459.79" y="36">C</tspan><tspan class="cls-80" x="480.08" y="36">D</tspan><tspan class="cls-81" x="501.45" y="36">C</tspan><tspan x="521.55" y="36">U</tspan></text><text class="cls-82" transform="translate(88.64 65.09) scale(1.05 1)"><tspan class="cls-43">B</tspan><tspan class="cls-44" x="20.17" y="0">U</tspan><tspan class="cls-45" x="42.63" y="0">I</tspan><tspan class="cls-46" x="51.11" y="0">L</tspan><tspan class="cls-47" x="68.12" y="0">D</tspan><tspan class="cls-45" x="89.55" y="0">I</tspan><tspan class="cls-48" x="98.03" y="0">N</tspan><tspan x="120.84" y="0">G </tspan><tspan class="cls-49" x="149.79" y="0">T</tspan><tspan class="cls-50" x="167.79" y="0">H</tspan><tspan x="190.04" y="0">E </tspan><tspan class="cls-51" x="215.27" y="0">D</tspan><tspan class="cls-48" x="236.7" y="0">I</tspan><tspan class="cls-52" x="245.2" y="0">G</tspan><tspan class="cls-53" x="267.15" y="0">I</tspan><tspan class="cls-54" x="275.17" y="0">T</tspan><tspan class="cls-55" x="290.88" y="0">A</tspan><tspan class="cls-56" x="310.64" y="0">L </tspan><tspan class="cls-57" x="335.36" y="0">P</tspan><tspan class="cls-58" x="352.24" y="0">A</tspan><tspan class="cls-59" x="369.57" y="0">T</tspan><tspan class="cls-60" x="387.57" y="0">H</tspan><tspan class="cls-61" x="409.56" y="0">W</tspan><tspan class="cls-62" x="439.09" y="0">A</tspan><tspan class="cls-56" x="456.64" y="0">Y </tspan><tspan class="cls-63" x="483.64" y="0">T</tspan><tspan class="cls-64" x="501.23" y="0">O </tspan><tspan class="cls-65" x="531.11" y="0">F</tspan><tspan class="cls-45" x="547.87" y="0">I</tspan><tspan class="cls-66" x="556.35" y="0">N</tspan><tspan class="cls-67" x="578.81" y="0">A</tspan><tspan class="cls-68" x="598.56" y="0">N</tspan><tspan class="cls-69" x="621.33" y="0">C</tspan><tspan class="cls-70" x="641.69" y="0">I</tspan><tspan class="cls-55" x="649.85" y="0">A</tspan><tspan class="cls-56" x="669.61" y="0">L</tspan><tspan class="cls-71" x="143.08" y="36">E</tspan><tspan class="cls-50" x="161.18" y="36">M</tspan><tspan class="cls-72" x="187.03" y="36">P</tspan><tspan class="cls-73" x="205.58" y="36">O</tspan><tspan class="cls-74" x="226.97" y="36">W</tspan><tspan class="cls-75" x="258.22" y="36">E</tspan><tspan class="cls-76" x="276.33" y="36">R</tspan><tspan class="cls-77" x="296.08" y="36">M</tspan><tspan class="cls-71" x="321.93" y="36">E</tspan><tspan class="cls-59" x="340.04" y="36">N</tspan><tspan x="362.35" y="36">T @ </tspan><tspan class="cls-77" x="420.67" y="36">N</tspan><tspan class="cls-78" x="443.46" y="36">F</tspan><tspan class="cls-79" x="459.79" y="36">C</tspan><tspan class="cls-80" x="480.08" y="36">D</tspan><tspan class="cls-81" x="501.45" y="36">C</tspan><tspan x="521.55" y="36">U</tspan></text></g></g></svg>